  0
SECTION
  2
HEADER
  9
$ACADVER
  1
AC1009
  9
$INSBASE
 10
0.0
 20
0.0
 30
0.0
  9
$EXTMIN
 10
499544.710000
 20
6749809.840000
 30
1.000000E+020
  9
$EXTMAX
 10
501772.490000
 20
6753061.450000
 30
-1.000000E+020
  9
$LIMMIN
 10
0.0
 20
0.0
  9
$LIMMAX
 10
420.0
 20
297.0
  9
$ORTHOMODE
 70
     0
  9
$REGENMODE
 70
     1
  9
$FILLMODE
 70
     1
  9
$QTEXTMODE
 70
     0
  9
$MIRRTEXT
 70
     1
  9
$DRAGMODE
 70
     2
  9
$LTSCALE
 40
1.0
  9
$OSMODE
 70
     0
  9
$ATTMODE
 70
     1
  9
$TEXTSIZE
 40
2.5
  9
$TRACEWID
 40
1.0
  9
$TEXTSTYLE
  7
STANDARD
  9
$CLAYER
  8
3CIMMTEX
  9
$CELTYPE
  6
BYLAYER
  9
$CECOLOR
 62
   256
  9
$DIMSCALE
 40
1.0
  9
$DIMASZ
 40
2.5
  9
$DIMEXO
 40
0.63
  9
$DIMDLI
 40
3.75
  9
$DIMRND
 40
0.0
  9
$DIMDLE
 40
0.0
  9
$DIMEXE
 40
1.25
  9
$DIMTP
 40
0.0
  9
$DIMTM
 40
0.0
  9
$DIMTXT
 40
2.5
  9
$DIMCEN
 40
2.5
  9
$DIMTSZ
 40
0.0
  9
$DIMTOL
 70
     0
  9
$DIMLIM
 70
     0
  9
$DIMTIH
 70
     0
  9
$DIMTOH
 70
     0
  9
$DIMSE1
 70
     0
  9
$DIMSE2
 70
     0
  9
$DIMTAD
 70
     1
  9
$DIMZIN
 70
     8
  9
$DIMBLK
  1

  9
$DIMASO
 70
     1
  9
$DIMSHO
 70
     1
  9
$DIMPOST
  1

  9
$DIMAPOST
  1

  9
$DIMALT
 70
     0
  9
$DIMALTD
 70
     4
  9
$DIMALTF
 40
0.04
  9
$DIMLFAC
 40
1.0
  9
$DIMTOFL
 70
     1
  9
$DIMTVP
 40
0.0
  9
$DIMTIX
 70
     0
  9
$DIMSOXD
 70
     0
  9
$DIMSAH
 70
     0
  9
$DIMBLK1
  1

  9
$DIMBLK2
  1

  9
$DIMSTYLE
  2
STANDARD
  9
$DIMCLRD
 70
     0
  9
$DIMCLRE
 70
     0
  9
$DIMCLRT
 70
     0
  9
$DIMTFAC
 40
1.0
  9
$DIMGAP
 40
0.63
  9
$LUNITS
 70
     2
  9
$LUPREC
 70
     4
  9
$SKETCHINC
 40
1.0
  9
$FILLETRAD
 40
10.0
  9
$AUNITS
 70
     2
  9
$AUPREC
 70
     4
  9
$MENU
  1
.
  9
$ELEVATION
 40
0.0
  9
$PELEVATION
 40
0.0
  9
$THICKNESS
 40
0.0
  9
$LIMCHECK
 70
     0
  9
$BLIPMODE
 70
     0
  9
$CHAMFERA
 40
10.0
  9
$CHAMFERB
 40
10.0
  9
$SKPOLY
 70
     0
  9
$TDCREATE
 40
2451845.610691
  9
$TDUPDATE
 40
2455594.621247
  9
$TDINDWG
 40
0.005823
  9
$TDUSRTIMER
 40
0.005823
  9
$USRTIMER
 70
     1
  9
$ANGBASE
 50
90.0
  9
$ANGDIR
 70
     1
  9
$PDMODE
 70
     0
  9
$PDSIZE
 40
0.0
  9
$PLINEWID
 40
0.0
  9
$COORDS
 70
     2
  9
$SPLFRAME
 70
     0
  9
$SPLINETYPE
 70
     6
  9
$SPLINESEGS
 70
     8
  9
$ATTDIA
 70
     0
  9
$ATTREQ
 70
     1
  9
$HANDLING
 70
-16383
  9
$HANDSEED
  5
457f
  9
$SURFTAB1
 70
     6
  9
$SURFTAB2
 70
     6
  9
$SURFTYPE
 70
     6
  9
$SURFU
 70
     6
  9
$SURFV
 70
     6
  9
$UCSNAME
  2

  9
$UCSORG
 10
0.0
 20
0.0
 30
0.0
  9
$UCSXDIR
 10
1.0
 20
0.0
 30
0.0
  9
$UCSYDIR
 10
0.0
 20
1.0
 30
0.0
  9
$PUCSNAME
  2

  9
$PUCSORG
 10
0.0
 20
0.0
 30
0.0
  9
$PUCSXDIR
 10
1.0
 20
0.0
 30
0.0
  9
$PUCSYDIR
 10
0.0
 20
1.0
 30
0.0
  9
$USERI1
 70
  1000
  9
$USERI2
 70
     0
  9
$USERI3
 70
     0
  9
$USERI4
 70
     0
  9
$USERI5
 70
     0
  9
$USERR1
 40
1000.0
  9
$USERR2
 40
0.0
  9
$USERR3
 40
0.0
  9
$USERR4
 40
0.0
  9
$USERR5
 40
0.0
  9
$WORLDVIEW
 70
     1
  9
$SHADEDGE
 70
     3
  9
$SHADEDIF
 70
    70
  9
$TILEMODE
 70
     1
  9
$MAXACTVP
 70
    48
  9
$PLIMCHECK
 70
     0
  9
$PEXTMIN
 10
1.000000E+020
 20
1.000000E+020
 30
1.000000E+020
  9
$PEXTMAX
 10
-1.000000E+020
 20
-1.000000E+020
 30
-1.000000E+020
  9
$PLIMMIN
 10
0.0
 20
0.0
  9
$PLIMMAX
 10
420.0
 20
297.0
  9
$UNITMODE
 70
     0
  9
$VISRETAIN
 70
     1
  9
$PLINEGEN
 70
     0
  9
$PSLTSCALE
 70
     1
  0
ENDSEC
  0
SECTION
  2
TABLES
  0
TABLE
  2
VPORT
 70
     3
  0
VPORT
  2
*ACTIVE
 70
     0
 10
0.0
 20
0.0
 11
1.0
 21
1.0
 12
500658.600000
 22
6751435.645000
 13
0.0
 23
0.0
 14
10.0
 24
10.0
 15
10.0
 25
10.0
 16
0.0
 26
0.0
 36
1.0
 17
0.0
 27
0.0
 37
0.0
 40
3251.610000
 41
1.622619
 42
50.0
 43
0.0
 44
0.0
 50
0.0
 51
0.0
 71
     0
 72
   100
 73
     1
 74
     1
 75
     0
 76
     0
 77
     0
 78
     0
  0
ENDTAB
  0
TABLE
  2
LTYPE
 70
     2
  0
LTYPE
  2
CONTINUOUS
 70
     0
  3
Solid line
 72
    65
 73
     0
 40
0.0
  0
LTYPE
  2
CONTINU
 70
     0
  3
Ligne continue
 72
    65
 73
     0
 40
0.0
  0
ENDTAB
  0
TABLE
  2
LAYER
 70
   100
  0
LAYER
  2
0
 70
     0
 62
     7
  6
CONTINU
  0
LAYER
  2
3CIMSTEX
 70
     0
 62
     7
  6
CONTINUOUS
  0
LAYER
  2
3CIME
 70
     0
 62
     7
  6
CONTINU
  0
LAYER
  2
1SUBDSECT
 70
     0
 62
     7
  6
CONTINU
  0
LAYER
  2
1PARCELLE
 70
     0
 62
     7
  6
CONTINU
  0
LAYER
  2
3BOULON
 70
     0
 62
     7
  6
CONTINUOUS
  0
LAYER
  2
3PISCINETEX
 70
     0
 62
     7
  6
CONTINUOUS
  0
LAYER
  2
3TOPOLINETEX
 70
     0
 62
     7
  6
CONTINUOUS
  0
LAYER
  2
3PISCINE
 70
     0
 62
     7
  6
CONTINUOUS
  0
LAYER
  2
3GAZODUCTEX
 70
     0
 62
     7
  6
CONTINU
  0
LAYER
  2
1SECTION
 70
     0
 62
     7
  6
CONTINU
  0
LAYER
  2
3PARCELLETEX
 70
     0
 62
     7
  6
CONTINU
  0
LAYER
  2
3LIMNONPARCTEX
 70
     0
 62
     7
  6
CONTINUOUS
  0
LAYER
  2
3TROUBATI
 70
     0
 62
     7
  6
CONTINU
  0
LAYER
  2
3TELEFERITEX
 70
     0
 62
     7
  6
CONTINU
  0
LAYER
  2
3FLECHEPAR
 70
     0
 62
     7
  6
CONTINU
  0
LAYER
  2
3CHEMINTEX
 70
     0
 62
     7
  6
CONTINU
  0
LAYER
  2
3BATIDUR
 70
     0
 62
     7
  6
CONTINU
  0
LAYER
  2
3BATILEGER
 70
     0
 62
     7
  6
CONTINU
  0
LAYER
  2
1TRONFLUV
 70
     0
 62
     7
  6
CONTINU
  0
LAYER
  2
3EAU
 70
     0
 62
     7
  6
CONTINU
  0
LAYER
  2
3PONT
 70
     0
 62
     7
  6
CONTINU
  0
LAYER
  2
3TUNNEL
 70
     0
 62
     7
  6
CONTINU
  0
LAYER
  2
1ZONCOMM
 70
     0
 62
     7
  6
CONTINU
  0
LAYER
  2
3CHEMIN
 70
     0
 62
     7
  6
CONTINU
  0
LAYER
  2
3SNCF
 70
     0
 62
     7
  6
CONTINU
  0
LAYER
  2
3BORNE
 70
     0
 62
     7
  6
CONTINU
  0
LAYER
  2
3LIEUDITTEX
 70
     0
 62
     7
  6
CONTINU
  0
LAYER
  2
3SUBDFISCTEX
 70
     0
 62
     7
  6
CONTINU
  0
LAYER
  2
3TRONFLUVTEX
 70
     0
 62
     7
  6
CONTINU
  0
LAYER
  2
3TRONROUTEX
 70
     0
 62
     7
  6
CONTINU
  0
LAYER
  2
3ZONCOMMTEX
 70
     0
 62
     7
  6
CONTINU
  0
LAYER
  2
1CHARGE
 70
     0
 62
     7
  6
CONTINU
  0
LAYER
  2
1LIEUDIT
 70
     0
 62
     7
  6
CONTINU
  0
LAYER
  2
1SUBDFISC
 70
     0
 62
     7
  6
CONTINU
  0
LAYER
  2
1TRONROU
 70
     0
 62
     7
  6
CONTINU
  0
LAYER
  2
3CALVAIRETEX
 70
     0
 62
     7
  6
CONTINU
  0
LAYER
  2
3NUMVOIE
 70
     0
 62
     7
  6
CONTINU
  0
LAYER
  2
3IGNNB
 70
     0
 62
     7
  6
CONTINU
  0
LAYER
  2
3EDF
 70
     0
 62
     7
  6
CONTINU
  0
LAYER
  2
3CALVAIRE
 70
     0
 62
     7
  6
CONTINU
  0
LAYER
  2
3ENSIMMO
 70
     0
 62
     7
  6
CONTINU
  0
LAYER
  2
3CIMM
 70
     0
 62
     7
  6
CONTINU
  0
LAYER
  2
3CIMS
 70
     0
 62
     7
  6
CONTINU
  0
LAYER
  2
3IGNB
 70
     0
 62
     7
  6
CONTINU
  0
LAYER
  2
3CADB
 70
     0
 62
     7
  6
CONTINU
  0
LAYER
  2
3CADNB
 70
     0
 62
     7
  6
CONTINU
  0
LAYER
  2
3DIVERS
 70
     0
 62
     7
  6
CONTINU
  0
LAYER
  2
1FLECHEFL
 70
     0
 62
     7
  6
CONTINU
  0
LAYER
  2
1HALTE
 70
     0
 62
     7
  6
CONTINU
  0
LAYER
  2
1ARRET
 70
     0
 62
     7
  6
CONTINU
  0
LAYER
  2
1STATION
 70
     0
 62
     7
  6
CONTINU
  0
LAYER
  2
1PYLONE
 70
     0
 62
     7
  6
CONTINU
  0
LAYER
  2
3MURMI
 70
     0
 62
     7
  6
CONTINU
  0
LAYER
  2
3MURNONMI
 70
     0
 62
     7
  6
CONTINU
  0
LAYER
  2
3FOSSEMI
 70
     0
 62
     7
  6
CONTINU
  0
LAYER
  2
3FOSSENONMI
 70
     0
 62
     7
  6
CONTINU
  0
LAYER
  2
3CLOTMI
 70
     0
 62
     7
  6
CONTINU
  0
LAYER
  2
3CLOTNONMI
 70
     0
 62
     7
  6
CONTINU
  0
LAYER
  2
3HAIEMI
 70
     0
 62
     7
  6
CONTINU
  0
LAYER
  2
3HAIENONMI
 70
     0
 62
     7
  6
CONTINU
  0
LAYER
  2
1COMM
 70
     0
 62
     7
  6
CONTINU
  0
LAYER
  2
1DEPART
 70
     0
 62
     7
  6
CONTINU
  0
LAYER
  2
1ETAT
 70
     0
 62
     7
  6
CONTINU
  0
LAYER
  2
1PARCELLENFP
 70
     0
 62
     7
  6
CONTINU
  0
LAYER
  2
3PARCNFPTEX
 70
     0
 62
     7
  6
CONTINU
  0
LAYER
  2
3AQUEDUC
 70
     0
 62
     7
  6
CONTINU
  0
LAYER
  2
3CHARGETEX
 70
     0
 62
     7
  6
CONTINU
  0
LAYER
  2
3EGLISE
 70
     0
 62
     7
  6
CONTINU
  0
LAYER
  2
3EAUTEX
 70
     0
 62
     7
  6
CONTINU
  0
LAYER
  2
3PONTTEX
 70
     0
 62
     7
  6
CONTINU
  0
LAYER
  2
3SNCFTEX
 70
     0
 62
     7
  6
CONTINU
  0
LAYER
  2
3DPTEX
 70
     0
 62
     7
  6
CONTINU
  0
LAYER
  2
3TUNNELTEX
 70
     0
 62
     7
  6
CONTINU
  0
LAYER
  2
3EDFTEX
 70
     0
 62
     7
  6
CONTINU
  0
LAYER
  2
3EGLISETEX
 70
     0
 62
     7
  6
CONTINU
  0
LAYER
  2
3GAZODUC
 70
     0
 62
     7
  6
CONTINU
  0
LAYER
  2
3LIMNONPARC
 70
     0
 62
     7
  6
CONTINU
  0
LAYER
  2
3SENTIER
 70
     0
 62
     7
  6
CONTINU
  0
LAYER
  2
3SENTIERTEX
 70
     0
 62
     7
  6
CONTINU
  0
LAYER
  2
3MOSQUEE
 70
     0
 62
     7
  6
CONTINU
  0
LAYER
  2
3MOSQUEETEX
 70
     0
 62
     7
  6
CONTINU
  0
LAYER
  2
3SYNAGO
 70
     0
 62
     7
  6
CONTINU
  0
LAYER
  2
3SYNAGOTEX
 70
     0
 62
     7
  6
CONTINU
  0
LAYER
  2
3TELEFERI
 70
     0
 62
     7
  6
CONTINU
  0
LAYER
  2
3TOPOLINE
 70
     0
 62
     7
  6
CONTINU
  0
LAYER
  2
1TROUCHARGE
 70
     0
 62
     7
  6
CONTINU
  0
LAYER
  2
1TROUPARCELLE
 70
     0
 62
     7
  6
CONTINU
  0
LAYER
  2
1TROUSECTION
 70
     0
 62
     7
  6
CONTINU
  0
LAYER
  2
1TROUSUBDFISC
 70
     0
 62
     7
  6
CONTINU
  0
LAYER
  2
1TROUSUBDSECT
 70
     0
 62
     7
  6
CONTINU
  0
LAYER
  2
3AQUEDUCTEX
 70
     0
 62
     7
  6
CONTINUOUS
  0
LAYER
  2
3PARCELLETEX2
 70
     0
 62
     7
  6
CONTINUOUS
  0
LAYER
  2
3PUIT
 70
     0
 62
     7
  6
CONTINUOUS
  0
LAYER
  2
3FISCLINE
 70
     0
 62
     7
  6
CONTINUOUS
  0
LAYER
  2
3PUITTEX
 70
     0
 62
     7
  6
CONTINUOUS
  0
LAYER
  2
3FISCLINETEX
 70
     0
 62
     7
  6
CONTINUOUS
  0
LAYER
  2
3CROIX
 70
     0
 62
     7
  6
CONTINUOUS
  0
LAYER
  2
3CIMETEX
 70
     0
 62
     7
  6
CONTINUOUS
  0
LAYER
  2
3CIMMTEX
 70
     0
 62
     7
  6
CONTINUOUS
  0
LAYER
  2
3BATITEX
 70
     0
 62
     7
  6
CONTINUOUS
  0
LAYER
  5
4003
  2
3PONCTDIVERS
 70
   0
 62
     7
  6
CONTINUOUS
  0
LAYER
  5
4004
  2
3PONCTDIVERSTEX
 70
   0
 62
     7
  6
CONTINUOUS
  0
LAYER
  5
4005
  2
3LINEDIVERS
 70
   0
 62
     7
  6
CONTINUOUS
  0
LAYER
  5
4006
  2
3LINEDIVERS
 70
   0
 62
     7
  6
CONTINUOUS
  0
LAYER
  5
4007
  2
3LINEDIVERSTEX
 70
   0
 62
     7
  6
CONTINUOUS
  0
ENDTAB
  0
TABLE
  2
STYLE
 70
     1
  0
STYLE
  2
STANDARD
 70
     0
 40
0.0
 41
1.0
 50
0.0
 71
     0
 42
2.5
  3
Times New Roman
  4

  0
ENDTAB
  0
TABLE
  2
VIEW
 70
     0
  0
ENDTAB
  0
TABLE
  2
UCS
 70
     0
  0
ENDTAB
  0
TABLE
  2
APPID
 70
    17
  0
APPID
  2
ACAD
 70
     0
  0
APPID
  2
SUPF
 70
     0
  0
APPID
  2
INDP
 70
     0
  0
APPID
  2
COAR
 70
     0
  0
APPID
  2
IDU
 70
     0
  0
APPID
  2
QUPL
 70
     0
  0
APPID
  2
COPL
 70
     0
  0
APPID
  2
EOR
 70
     0
  0
APPID
  2
ICL
 70
     0
  0
APPID
  2
INP
 70
     0
  0
APPID
  2
CAN
 70
     0
  0
APPID
  2
PPLN
 70
     0
  0
APPID
  2
MAP
 70
     0
  0
APPID
  2
PALT
 70
     0
  0
APPID
  2
DEDI
 70
     0
  0
APPID
  2
DIS
 70
     0
  0
APPID
  2
DRED
 70
     0
  0
APPID
  2
ALTI
 70
     0
  0
ENDTAB
  0
TABLE
  2
DIMSTYLE
 70
     1
  0
DIMSTYLE
  2
STANDARD
 70
     0
  3

  4

  5

  6

  7

 40
1.0
 41
0.18
 42
0.06
 43
0.38
 44
0.18
 45
0.0
 46
0.0
 47
0.0
 48
0.0
140
0.18
141
0.09
142
0.0
143
25.4
144
1.0
145
0.0
146
1.0
147
0.09
 71
     0
 72
     0
 73
     1
 74
     1
 75
     0
 76
     0
 77
     0
 78
     0
170
     0
171
     2
172
     0
173
     0
174
     0
175
     0
176
     0
177
     0
178
     0
  0
ENDTAB
  0
ENDSEC
  0
SECTION
  2
BLOCKS
  0
BLOCK
  8
0
  2
$MODEL_SPACE
 70
     0
 10
0.0
 20
0.0
 30
0.0
  3
$MODEL_SPACE
  1

  0
ENDBLK
  5
3A78
  8
0
  0
BLOCK
 67
     1
  8
0
  2
$PAPER_SPACE
 70
     0
 10
0.0
 20
0.0
 30
0.0
  3
$PAPER_SPACE
  1

  0
ENDBLK
  5
3A74
 67
     1
  8
0
  0
BLOCK
  8
0
  2
DEFAUT_SYMBOLE
 70
     0
 10
0.0
 20
0.0
 30
0.0
  3
DEFAUT_SYMBOLE
  1

  0
POLYLINE
  5
3AF9
  8
0
 66
     1
 10
0.0
 20
0.0
 30
0.0
 70
     1
  0
VERTEX
  5
3F1E
  8
0
 10
-0.5
 20
-0.5
 30
0.0
  0
VERTEX
  5
3F1F
  8
0
 10
-0.5
 20
0.5
 30
0.0
  0
VERTEX
  5
3F20
  8
0
 10
0.5
 20
0.5
 30
0.0
  0
VERTEX
  5
3F21
  8
0
 10
0.5
 20
-0.5
 30
0.0
  0
SEQEND
  5
3F22
  8
0
  0
ENDBLK
  5
3AFF
  8
0
  0
BLOCK
  8
0
  2
BORLIPRO
 70
     0
 10
0.0
 20
0.0
 30
0.0
  3
BORLIPRO
  1

  0
POLYLINE
  5
3B02
  8
0
 66
     1
 10
0.0
 20
0.0
 30
0.0
 70
     1
  0
VERTEX
  5
3F23
  8
0
 10
-0.07
 20
0.5
 30
0.0
  0
VERTEX
  5
3F24
  8
0
 10
-0.19
 20
0.47
 30
0.0
  0
VERTEX
  5
3F25
  8
0
 10
-0.31
 20
0.4
 30
0.0
  0
VERTEX
  5
3F26
  8
0
 10
-0.4
 20
0.31
 30
0.0
  0
VERTEX
  5
3F27
  8
0
 10
-0.47
 20
0.19
 30
0.0
  0
VERTEX
  5
3F28
  8
0
 10
-0.5
 20
0.07
 30
0.0
  0
VERTEX
  5
3F29
  8
0
 10
-0.5
 20
-0.07
 30
0.0
  0
VERTEX
  5
3F2A
  8
0
 10
-0.47
 20
-0.19
 30
0.0
  0
VERTEX
  5
3F2B
  8
0
 10
-0.4
 20
-0.31
 30
0.0
  0
VERTEX
  5
3F2C
  8
0
 10
-0.31
 20
-0.4
 30
0.0
  0
VERTEX
  5
3F2D
  8
0
 10
-0.19
 20
-0.47
 30
0.0
  0
VERTEX
  5
3F2E
  8
0
 10
-0.07
 20
-0.5
 30
0.0
  0
VERTEX
  5
3F2F
  8
0
 10
0.07
 20
-0.5
 30
0.0
  0
VERTEX
  5
3F30
  8
0
 10
0.19
 20
-0.47
 30
0.0
  0
VERTEX
  5
3F31
  8
0
 10
0.31
 20
-0.4
 30
0.0
  0
VERTEX
  5
3F32
  8
0
 10
0.4
 20
-0.31
 30
0.0
  0
VERTEX
  5
3F33
  8
0
 10
0.47
 20
-0.19
 30
0.0
  0
VERTEX
  5
3F34
  8
0
 10
0.5
 20
-0.07
 30
0.0
  0
VERTEX
  5
3F35
  8
0
 10
0.5
 20
0.07
 30
0.0
  0
VERTEX
  5
3F36
  8
0
 10
0.47
 20
0.19
 30
0.0
  0
VERTEX
  5
3F37
  8
0
 10
0.4
 20
0.31
 30
0.0
  0
VERTEX
  5
3F38
  8
0
 10
0.31
 20
0.4
 30
0.0
  0
VERTEX
  5
3F39
  8
0
 10
0.19
 20
0.47
 30
0.0
  0
VERTEX
  5
3F3A
  8
0
 10
0.07
 20
0.5
 30
0.0
  0
SEQEND
  5
3F3B
  8
0
  0
ENDBLK
  5
3B1C
  8
0
  0
BLOCK
  8
0
  2
CLOTMI
 70
     0
 10
0.0
 20
0.0
 30
0.0
  3
CLOTMI
  1

  0
POLYLINE
  5
3B1F
  8
0
 66
     1
 10
0.0
 20
0.0
 30
0.0
 70
     1
 40
0.38
 41
0.38
  0
VERTEX
  5
3F3C
  8
0
 10
-0.19
 20
0.0
 30
0.0
 42
1.0
  0
VERTEX
  5
3F3D
  8
0
 10
0.19
 20
0.0
 30
0.0
 42
1.0
  0
SEQEND
  5
3F3E
  8
0
  0
ENDBLK
  5
3B23
  8
0
  0
BLOCK
  8
0
  2
CLOTNOMI
 70
     0
 10
0.0
 20
0.0
 30
0.0
  3
CLOTNOMI
  1

  0
POLYLINE
  5
3B26
  8
0
 66
     1
 10
0.0
 20
0.0
 30
0.0
 70
     1
 40
0.38
 41
0.38
  0
VERTEX
  5
3F3F
  8
0
 10
-0.19
 20
0.37
 30
0.0
 42
1.0
  0
VERTEX
  5
3F40
  8
0
 10
0.19
 20
0.37
 30
0.0
 42
1.0
  0
SEQEND
  5
3F41
  8
0
  0
ENDBLK
  5
3B2A
  8
0
  0
BLOCK
  8
0
  2
FOSSNOMI
 70
     0
 10
0.0
 20
0.0
 30
0.0
  3
FOSSNOMI
  1

  0
LINE
  5
3B2D
  8
0
 10
1.5
 20
0.5
 30
0.0
 11
2.5
 21
0.5
 31
0.0
  0
LINE
  5
3B2E
  8
0
 10
-0.5
 20
0.5
 30
0.0
 11
0.5
 21
0.5
 31
0.0
  0
LINE
  5
3B2F
  8
0
 10
-2.5
 20
0.5
 30
0.0
 11
-1.5
 21
0.5
 31
0.0
  0
ENDBLK
  5
3B30
  8
0
  0
BLOCK
  8
0
  2
FOSSMI
 70
     0
 10
0.0
 20
0.0
 30
0.0
  3
FOSSMI
  1

  0
LINE
  5
3B33
  8
0
 10
1.5
 20
0.5
 30
0.0
 11
2.5
 21
0.5
 31
0.0
  0
LINE
  5
3B34
  8
0
 10
1.5
 20
-0.5
 30
0.0
 11
2.5
 21
-0.5
 31
0.0
  0
LINE
  5
3B35
  8
0
 10
-0.5
 20
-0.5
 30
0.0
 11
0.5
 21
-0.5
 31
0.0
  0
LINE
  5
3B36
  8
0
 10
-0.5
 20
0.5
 30
0.0
 11
0.5
 21
0.5
 31
0.0
  0
LINE
  5
3B37
  8
0
 10
-2.5
 20
0.5
 30
0.0
 11
-1.5
 21
0.5
 31
0.0
  0
LINE
  5
3B38
  8
0
 10
-2.5
 20
-0.5
 30
0.0
 11
-1.5
 21
-0.5
 31
0.0
  0
ENDBLK
  5
3B39
  8
0
  0
BLOCK
  8
0
  2
HAIENOMI
 70
     0
 10
0.0
 20
0.0
 30
0.0
  3
HAIENOMI
  1

  0
POLYLINE
  5
3B3C
  8
0
 66
     1
 10
0.0
 20
0.0
 30
0.0
  0
VERTEX
  5
3F42
  8
0
 10
0.5
 20
1.0
 30
0.0
  0
VERTEX
  5
3F43
  8
0
 10
-0.5
 20
0.0
 30
0.0
  0
SEQEND
  5
3F44
  8
0
  0
POLYLINE
  5
3B40
  8
0
 66
     1
 10
0.0
 20
0.0
 30
0.0
  0
VERTEX
  5
3F45
  8
0
 10
-0.5
 20
1.0
 30
0.0
  0
VERTEX
  5
3F46
  8
0
 10
0.5
 20
0.0
 30
0.0
  0
SEQEND
  5
3F47
  8
0
  0
ENDBLK
  5
3B44
  8
0
  0
BLOCK
  8
0
  2
HAIEMI
 70
     0
 10
0.0
 20
0.0
 30
0.0
  3
HAIEMI
  1

  0
POLYLINE
  5
3B47
  8
0
 66
     1
 10
0.0
 20
0.0
 30
0.0
  0
VERTEX
  5
3F48
  8
0
 10
0.5
 20
0.5
 30
0.0
  0
VERTEX
  5
3F49
  8
0
 10
-0.5
 20
-0.5
 30
0.0
  0
SEQEND
  5
3F4A
  8
0
  0
POLYLINE
  5
3B4B
  8
0
 66
     1
 10
0.0
 20
0.0
 30
0.0
  0
VERTEX
  5
3F4B
  8
0
 10
-0.5
 20
0.5
 30
0.0
  0
VERTEX
  5
3F4C
  8
0
 10
0.5
 20
-0.5
 30
0.0
  0
SEQEND
  5
3F4D
  8
0
  0
ENDBLK
  5
3B4F
  8
0
  0
BLOCK
  8
0
  2
MURMI
 70
     0
 10
0.0
 20
0.0
 30
0.0
  3
MURMI
  1

  0
LINE
  5
3B52
  8
0
 10
-0.75
 20
0.5
 30
0.0
 11
0.75
 21
0.5
 31
0.0
  0
LINE
  5
3B53
  8
0
 10
-0.75
 20
-0.5
 30
0.0
 11
0.75
 21
-0.5
 31
0.0
  0
ENDBLK
  5
3B54
  8
0
  0
BLOCK
  8
0
  2
MURNOMI
 70
     0
 10
0.0
 20
0.0
 30
0.0
  3
MURNOMI
  1

  0
LINE
  5
3B57
  8
0
 10
-0.75
 20
0.5
 30
0.0
 11
0.75
 21
0.5
 31
0.0
  0
ENDBLK
  5
3B58
  8
0
  0
BLOCK
  8
0
  2
DETATOPO
 70
     0
 10
0.0
 20
0.0
 30
0.0
  3
DETATOPO
  1

  0
POLYLINE
  5
3B5B
  8
0
 66
     1
 10
0.0
 20
0.0
 30
0.0
  0
VERTEX
  5
3F4E
  8
0
 10
0.0
 20
-1.5
 30
0.0
  0
VERTEX
  5
3F4F
  8
0
 10
0.0
 20
1.5
 30
0.0
  0
SEQEND
  5
3F50
  8
0
  0
POLYLINE
  5
3B5F
  8
0
 66
     1
 10
0.0
 20
0.0
 30
0.0
  0
VERTEX
  5
3F51
  8
0
 10
-1.5
 20
0.0
 30
0.0
  0
VERTEX
  5
3F52
  8
0
 10
1.5
 20
0.0
 30
0.0
  0
SEQEND
  5
3F53
  8
0
  0
ENDBLK
  5
3B63
  8
0
  0
BLOCK
  8
0
  2
EGLISE
 70
     0
 10
0.0
 20
0.0
 30
0.0
  3
EGLISE
  1

  0
POLYLINE
  5
3B66
  8
0
 66
     1
 10
0.0
 20
0.0
 30
0.0
 40
0.2
 41
0.2
  0
VERTEX
  5
3F54
  8
0
 10
-7.5
 20
0.0
 30
0.0
  0
VERTEX
  5
3F55
  8
0
 10
2.5
 20
0.0
 30
0.0
  0
SEQEND
  5
3F56
  8
0
  0
POLYLINE
  5
3B6A
  8
0
 66
     1
 10
0.0
 20
0.0
 30
0.0
 40
0.2
 41
0.2
  0
VERTEX
  5
3F57
  8
0
 10
0.0
 20
-2.5
 30
0.0
  0
VERTEX
  5
3F58
  8
0
 10
0.0
 20
2.5
 30
0.0
  0
SEQEND
  5
3F59
  8
0
  0
ENDBLK
  5
3B6E
  8
0
  0
BLOCK
  8
0
  2
IGNBORNE
 70
     0
 10
0.0
 20
0.0
 30
0.0
  3
IGNBORNE
  1

  0
CIRCLE
  5
3B71
  8
0
 10
0.0
 20
0.0
 30
0.0
 40
0.87
  0
POLYLINE
  5
3B72
  8
0
 66
     1
 10
0.0
 20
0.0
 30
0.0
 70
     1
  0
VERTEX
  5
3F5A
  8
0
 10
-1.5
 20
-0.87
 30
0.0
  0
VERTEX
  5
3F5B
  8
0
 10
1.5
 20
-0.87
 30
0.0
  0
VERTEX
  5
3F5C
  8
0
 10
0.0
 20
1.73
 30
0.0
  0
SEQEND
  5
3F5D
  8
0
  0
POLYLINE
  5
3B77
  8
0
 66
     1
 10
0.0
 20
0.0
 30
0.0
 70
     1
  0
VERTEX
  5
3F5E
  8
0
 10
0.0
 20
2.32
 30
0.0
  0
VERTEX
  5
3F5F
  8
0
 10
-2.01
 20
-1.16
 30
0.0
  0
VERTEX
  5
3F60
  8
0
 10
2.01
 20
-1.16
 30
0.0
  0
SEQEND
  5
3F61
  8
0
  0
ENDBLK
  5
3B7C
  8
0
  0
BLOCK
  8
0
  2
IGNPOINT
 70
     0
 10
0.0
 20
0.0
 30
0.0
  3
IGNPOINT
  1

  0
POLYLINE
  5
3B7F
  8
0
 66
     1
 10
0.0
 20
0.0
 30
0.0
 70
     1
  0
VERTEX
  5
3F62
  8
0
 10
0.0
 20
2.32
 30
0.0
  0
VERTEX
  5
3F63
  8
0
 10
-2.01
 20
-1.16
 30
0.0
  0
VERTEX
  5
3F64
  8
0
 10
2.01
 20
-1.16
 30
0.0
  0
SEQEND
  5
3F65
  8
0
  0
POLYLINE
  5
3B84
  8
0
 66
     1
 10
0.0
 20
0.0
 30
0.0
 70
     1
  0
VERTEX
  5
3F66
  8
0
 10
-1.5
 20
-0.87
 30
0.0
  0
VERTEX
  5
3F67
  8
0
 10
1.5
 20
-0.87
 30
0.0
  0
VERTEX
  5
3F68
  8
0
 10
0.0
 20
1.73
 30
0.0
  0
SEQEND
  5
3F69
  8
0
  0
ENDBLK
  5
3B89
  8
0
  0
BLOCK
  8
0
  2
CADBORNE
 70
     0
 10
0.0
 20
0.0
 30
0.0
  3
CADBORNE
  1

  0
POLYLINE
  5
3B8C
  8
0
 66
     1
 10
0.0
 20
0.0
 30
0.0
 70
     1
  0
VERTEX
  5
3F6A
  8
0
 10
-1.5
 20
-0.87
 30
0.0
  0
VERTEX
  5
3F6B
  8
0
 10
1.5
 20
-0.87
 30
0.0
  0
VERTEX
  5
3F6C
  8
0
 10
0.0
 20
1.73
 30
0.0
  0
SEQEND
  5
3F6D
  8
0
  0
CIRCLE
  5
3B91
  8
0
 10
0.0
 20
0.0
 30
0.0
 40
0.87
  0
ENDBLK
  5
3B92
  8
0
  0
BLOCK
  8
0
  2
PIQUET
 70
     0
 10
0.0
 20
0.0
 30
0.0
  3
PIQUET
  1

  0
POLYLINE
  5
3B95
  8
0
 66
     1
 10
0.0
 20
0.0
 30
0.0
 70
     1
  0
VERTEX
  5
3F6E
  8
0
 10
-1.5
 20
-0.87
 30
0.0
  0
VERTEX
  5
3F6F
  8
0
 10
1.5
 20
-0.87
 30
0.0
  0
VERTEX
  5
3F70
  8
0
 10
0.0
 20
1.73
 30
0.0
  0
SEQEND
  5
3F71
  8
0
  0
ENDBLK
  5
3B9A
  8
0
  0
BLOCK
  8
0
  2
RNGF
 70
     0
 10
0.0
 20
0.0
 30
0.0
  3
RNGF
  1

  0
POLYLINE
  5
3B9D
  8
0
 66
     1
 10
0.0
 20
0.0
 30
0.0
  0
VERTEX
  5
3F72
  8
0
 10
0.713529
 20
0.0
 30
0.0
  0
VERTEX
  5
3F73
  8
0
 10
1.0
 20
0.0
 30
0.0
  0
VERTEX
  5
3F74
  8
0
 10
1.0
 20
0.131653
 30
0.0
  0
VERTEX
  5
3F75
  8
0
 10
0.931852
 20
0.385986
 30
0.0
  0
VERTEX
  5
3F76
  8
0
 10
0.800199
 20
0.614014
 30
0.0
  0
VERTEX
  5
3F77
  8
0
 10
0.614014
 20
0.800199
 30
0.0
  0
VERTEX
  5
3F78
  8
0
 10
0.385986
 20
0.931852
 30
0.0
  0
VERTEX
  5
3F79
  8
0
 10
0.131653
 20
1.0
 30
0.0
  0
VERTEX
  5
3F7A
  8
0
 10
-0.131653
 20
1.0
 30
0.0
  0
VERTEX
  5
3F7B
  8
0
 10
-0.385986
 20
0.931852
 30
0.0
  0
VERTEX
  5
3F7C
  8
0
 10
-0.614014
 20
0.800199
 30
0.0
  0
VERTEX
  5
3F7D
  8
0
 10
-0.800199
 20
0.614014
 30
0.0
  0
VERTEX
  5
3F7E
  8
0
 10
-0.931852
 20
0.385986
 30
0.0
  0
VERTEX
  5
3F7F
  8
0
 10
-1.0
 20
0.131653
 30
0.0
  0
VERTEX
  5
3F80
  8
0
 10
-1.0
 20
0.0
 30
0.0
  0
VERTEX
  5
3F81
  8
0
 10
-0.713529
 20
0.0
 30
0.0
  0
SEQEND
  5
3F82
  8
0
  0
INSERT
  5
3BB0
  8
0
  2
*X19
 10
0.0
 20
0.0
 30
0.0
 50
180.0
1001
ACAD
1000
HATCH
1002
{
1070
    16
1000
_U
1040
0.01
1040
0.0
1070
     1
1002
}
  0
POLYLINE
  5
3BB1
  8
0
 66
     1
 10
0.0
 20
0.0
 30
0.0
 70
     1
  0
VERTEX
  5
3F83
  8
0
 10
0.713529
 20
0.0
 30
0.0
  0
VERTEX
  5
3F84
  8
0
 10
0.713529
 20
0.093938
 30
0.0
  0
VERTEX
  5
3F85
  8
0
 10
0.664903
 20
0.275412
 30
0.0
  0
VERTEX
  5
3F86
  8
0
 10
0.570966
 20
0.438117
 30
0.0
  0
VERTEX
  5
3F87
  8
0
 10
0.438117
 20
0.570966
 30
0.0
  0
VERTEX
  5
3F88
  8
0
 10
0.275412
 20
0.664903
 30
0.0
  0
VERTEX
  5
3F89
  8
0
 10
0.093938
 20
0.713529
 30
0.0
  0
VERTEX
  5
3F8A
  8
0
 10
-0.093938
 20
0.713529
 30
0.0
  0
VERTEX
  5
3F8B
  8
0
 10
-0.275412
 20
0.664903
 30
0.0
  0
VERTEX
  5
3F8C
  8
0
 10
-0.438117
 20
0.570966
 30
0.0
  0
VERTEX
  5
3F8D
  8
0
 10
-0.570966
 20
0.438117
 30
0.0
  0
VERTEX
  5
3F8E
  8
0
 10
-0.664903
 20
0.275412
 30
0.0
  0
VERTEX
  5
3F8F
  8
0
 10
-0.713529
 20
0.093938
 30
0.0
  0
VERTEX
  5
3F90
  8
0
 10
-0.713529
 20
0.0
 30
0.0
  0
SEQEND
  5
3F91
  8
0
  0
ENDBLK
  5
3BC1
  8
0
  0
BLOCK
  8
0
  2
*X19
 70
     1
 10
0.0
 20
0.0
 30
0.0
  3
*X19
  1

  0
LINE
  5
3D58
  8
0
 62
     0
 10
-0.62184
 20
-0.35
 30
0.0
 11
0.62184
 21
-0.35
 31
0.0
  0
LINE
  5
3D59
  8
0
 62
     0
 10
-0.627614
 20
-0.34
 30
0.0
 11
0.627614
 21
-0.34
 31
0.0
  0
LINE
  5
3D5A
  8
0
 62
     0
 10
-0.633387
 20
-0.33
 30
0.0
 11
0.633387
 21
-0.33
 31
0.0
  0
LINE
  5
3D5B
  8
0
 62
     0
 10
-0.639161
 20
-0.32
 30
0.0
 11
0.639161
 21
-0.32
 31
0.0
  0
LINE
  5
3D5C
  8
0
 62
     0
 10
-0.644934
 20
-0.31
 30
0.0
 11
0.644934
 21
-0.31
 31
0.0
  0
LINE
  5
3D5D
  8
0
 62
     0
 10
-0.650708
 20
-0.3
 30
0.0
 11
0.650708
 21
-0.3
 31
0.0
  0
LINE
  5
3D5E
  8
0
 62
     0
 10
-0.656481
 20
-0.29
 30
0.0
 11
0.656481
 21
-0.29
 31
0.0
  0
LINE
  5
3D5F
  8
0
 62
     0
 10
-0.662255
 20
-0.28
 30
0.0
 11
0.662255
 21
-0.28
 31
0.0
  0
LINE
  5
3D60
  8
0
 62
     0
 10
-0.666354
 20
-0.27
 30
0.0
 11
0.666354
 21
-0.27
 31
0.0
  0
LINE
  5
3D61
  8
0
 62
     0
 10
-0.669033
 20
-0.26
 30
0.0
 11
0.669033
 21
-0.26
 31
0.0
  0
LINE
  5
3D62
  8
0
 62
     0
 10
-0.671713
 20
-0.25
 30
0.0
 11
0.671713
 21
-0.25
 31
0.0
  0
LINE
  5
3D63
  8
0
 62
     0
 10
-0.674392
 20
-0.24
 30
0.0
 11
0.674392
 21
-0.24
 31
0.0
  0
LINE
  5
3D64
  8
0
 62
     0
 10
-0.677072
 20
-0.23
 30
0.0
 11
0.677072
 21
-0.23
 31
0.0
  0
LINE
  5
3D65
  8
0
 62
     0
 10
-0.679751
 20
-0.22
 30
0.0
 11
0.679751
 21
-0.22
 31
0.0
  0
LINE
  5
3D66
  8
0
 62
     0
 10
-0.682431
 20
-0.21
 30
0.0
 11
0.682431
 21
-0.21
 31
0.0
  0
LINE
  5
3D67
  8
0
 62
     0
 10
-0.68511
 20
-0.2
 30
0.0
 11
0.68511
 21
-0.2
 31
0.0
  0
LINE
  5
3D68
  8
0
 62
     0
 10
-0.68779
 20
-0.19
 30
0.0
 11
0.68779
 21
-0.19
 31
0.0
  0
LINE
  5
3D69
  8
0
 62
     0
 10
-0.690469
 20
-0.18
 30
0.0
 11
0.690469
 21
-0.18
 31
0.0
  0
LINE
  5
3D6A
  8
0
 62
     0
 10
-0.693149
 20
-0.17
 30
0.0
 11
0.693149
 21
-0.17
 31
0.0
  0
LINE
  5
3D6B
  8
0
 62
     0
 10
-0.695828
 20
-0.16
 30
0.0
 11
0.695828
 21
-0.16
 31
0.0
  0
LINE
  5
3D6C
  8
0
 62
     0
 10
-0.698508
 20
-0.15
 30
0.0
 11
0.698508
 21
-0.15
 31
0.0
  0
LINE
  5
3D6D
  8
0
 62
     0
 10
-0.701187
 20
-0.14
 30
0.0
 11
0.701187
 21
-0.14
 31
0.0
  0
LINE
  5
3D6E
  8
0
 62
     0
 10
-0.703866
 20
-0.13
 30
0.0
 11
0.703866
 21
-0.13
 31
0.0
  0
LINE
  5
3D6F
  8
0
 62
     0
 10
-0.706546
 20
-0.12
 30
0.0
 11
0.706546
 21
-0.12
 31
0.0
  0
LINE
  5
3D70
  8
0
 62
     0
 10
-0.709225
 20
-0.11
 30
0.0
 11
0.709225
 21
-0.11
 31
0.0
  0
LINE
  5
3D71
  8
0
 62
     0
 10
-0.711905
 20
-0.1
 30
0.0
 11
0.711905
 21
-0.1
 31
0.0
  0
LINE
  5
3D72
  8
0
 62
     0
 10
-0.713529
 20
-0.09
 30
0.0
 11
0.713529
 21
-0.09
 31
0.0
  0
LINE
  5
3D73
  8
0
 62
     0
 10
-0.713529
 20
-0.08
 30
0.0
 11
0.713529
 21
-0.08
 31
0.0
  0
LINE
  5
3D74
  8
0
 62
     0
 10
-0.713529
 20
-0.07
 30
0.0
 11
0.713529
 21
-0.07
 31
0.0
  0
LINE
  5
3D75
  8
0
 62
     0
 10
-0.713529
 20
-0.06
 30
0.0
 11
0.713529
 21
-0.06
 31
0.0
  0
LINE
  5
3D76
  8
0
 62
     0
 10
-0.713529
 20
-0.05
 30
0.0
 11
0.713529
 21
-0.05
 31
0.0
  0
LINE
  5
3D77
  8
0
 62
     0
 10
-0.713529
 20
-0.04
 30
0.0
 11
0.713529
 21
-0.04
 31
0.0
  0
LINE
  5
3D78
  8
0
 62
     0
 10
-0.713529
 20
-0.03
 30
0.0
 11
0.713529
 21
-0.03
 31
0.0
  0
LINE
  5
3D79
  8
0
 62
     0
 10
-0.713529
 20
-0.02
 30
0.0
 11
0.713529
 21
-0.02
 31
0.0
  0
LINE
  5
3D7A
  8
0
 62
     0
 10
-0.713529
 20
-0.01
 30
0.0
 11
0.713529
 21
-0.01
 31
0.0
  0
LINE
  5
3D7B
  8
0
 62
     0
 10
-0.616067
 20
-0.36
 30
0.0
 11
0.616067
 21
-0.36
 31
0.0
  0
LINE
  5
3D7C
  8
0
 62
     0
 10
-0.610293
 20
-0.37
 30
0.0
 11
0.610293
 21
-0.37
 31
0.0
  0
LINE
  5
3D7D
  8
0
 62
     0
 10
-0.60452
 20
-0.38
 30
0.0
 11
0.60452
 21
-0.38
 31
0.0
  0
LINE
  5
3D7E
  8
0
 62
     0
 10
-0.598746
 20
-0.39
 30
0.0
 11
0.598746
 21
-0.39
 31
0.0
  0
LINE
  5
3D7F
  8
0
 62
     0
 10
-0.592973
 20
-0.4
 30
0.0
 11
0.592973
 21
-0.4
 31
0.0
  0
LINE
  5
3D80
  8
0
 62
     0
 10
-0.587199
 20
-0.41
 30
0.0
 11
0.587199
 21
-0.41
 31
0.0
  0
LINE
  5
3D81
  8
0
 62
     0
 10
-0.581426
 20
-0.42
 30
0.0
 11
0.581426
 21
-0.42
 31
0.0
  0
LINE
  5
3D82
  8
0
 62
     0
 10
-0.575652
 20
-0.43
 30
0.0
 11
0.575652
 21
-0.43
 31
0.0
  0
LINE
  5
3D83
  8
0
 62
     0
 10
-0.569083
 20
-0.44
 30
0.0
 11
0.569083
 21
-0.44
 31
0.0
  0
LINE
  5
3D84
  8
0
 62
     0
 10
-0.559083
 20
-0.45
 30
0.0
 11
0.559083
 21
-0.45
 31
0.0
  0
LINE
  5
3D85
  8
0
 62
     0
 10
-0.549083
 20
-0.46
 30
0.0
 11
0.549083
 21
-0.46
 31
0.0
  0
LINE
  5
3D86
  8
0
 62
     0
 10
-0.539083
 20
-0.47
 30
0.0
 11
0.539083
 21
-0.47
 31
0.0
  0
LINE
  5
3D87
  8
0
 62
     0
 10
-0.529083
 20
-0.48
 30
0.0
 11
0.529083
 21
-0.48
 31
0.0
  0
LINE
  5
3D88
  8
0
 62
     0
 10
-0.519083
 20
-0.49
 30
0.0
 11
0.519083
 21
-0.49
 31
0.0
  0
LINE
  5
3D89
  8
0
 62
     0
 10
-0.509083
 20
-0.5
 30
0.0
 11
0.509083
 21
-0.5
 31
0.0
  0
LINE
  5
3D8A
  8
0
 62
     0
 10
-0.499083
 20
-0.51
 30
0.0
 11
0.499083
 21
-0.51
 31
0.0
  0
LINE
  5
3D8B
  8
0
 62
     0
 10
-0.489083
 20
-0.52
 30
0.0
 11
0.489083
 21
-0.52
 31
0.0
  0
LINE
  5
3D8C
  8
0
 62
     0
 10
-0.479083
 20
-0.53
 30
0.0
 11
0.479083
 21
-0.53
 31
0.0
  0
LINE
  5
3D8D
  8
0
 62
     0
 10
-0.469083
 20
-0.54
 30
0.0
 11
0.469083
 21
-0.54
 31
0.0
  0
LINE
  5
3D8E
  8
0
 62
     0
 10
-0.459083
 20
-0.55
 30
0.0
 11
0.459083
 21
-0.55
 31
0.0
  0
LINE
  5
3D8F
  8
0
 62
     0
 10
-0.449083
 20
-0.56
 30
0.0
 11
0.449083
 21
-0.56
 31
0.0
  0
LINE
  5
3D90
  8
0
 62
     0
 10
-0.439083
 20
-0.57
 30
0.0
 11
0.439083
 21
-0.57
 31
0.0
  0
LINE
  5
3D91
  8
0
 62
     0
 10
-0.422469
 20
-0.58
 30
0.0
 11
0.422469
 21
-0.58
 31
0.0
  0
LINE
  5
3D92
  8
0
 62
     0
 10
-0.405149
 20
-0.59
 30
0.0
 11
0.405149
 21
-0.59
 31
0.0
  0
LINE
  5
3D93
  8
0
 62
     0
 10
-0.387828
 20
-0.6
 30
0.0
 11
0.387828
 21
-0.6
 31
0.0
  0
LINE
  5
3D94
  8
0
 62
     0
 10
-0.370508
 20
-0.61
 30
0.0
 11
0.370508
 21
-0.61
 31
0.0
  0
LINE
  5
3D95
  8
0
 62
     0
 10
-0.353187
 20
-0.62
 30
0.0
 11
0.353187
 21
-0.62
 31
0.0
  0
LINE
  5
3D96
  8
0
 62
     0
 10
-0.335867
 20
-0.63
 30
0.0
 11
0.335867
 21
-0.63
 31
0.0
  0
LINE
  5
3D97
  8
0
 62
     0
 10
-0.318546
 20
-0.64
 30
0.0
 11
0.318546
 21
-0.64
 31
0.0
  0
LINE
  5
3D98
  8
0
 62
     0
 10
-0.301226
 20
-0.65
 30
0.0
 11
0.301226
 21
-0.65
 31
0.0
  0
LINE
  5
3D99
  8
0
 62
     0
 10
-0.283905
 20
-0.66
 30
0.0
 11
0.283905
 21
-0.66
 31
0.0
  0
LINE
  5
3D9A
  8
0
 62
     0
 10
-0.256391
 20
-0.67
 30
0.0
 11
0.256391
 21
-0.67
 31
0.0
  0
LINE
  5
3D9B
  8
0
 62
     0
 10
-0.219071
 20
-0.68
 30
0.0
 11
0.219071
 21
-0.68
 31
0.0
  0
LINE
  5
3D9C
  8
0
 62
     0
 10
-0.18175
 20
-0.69
 30
0.0
 11
0.18175
 21
-0.69
 31
0.0
  0
LINE
  5
3D9D
  8
0
 62
     0
 10
-0.14443
 20
-0.7
 30
0.0
 11
0.14443
 21
-0.7
 31
0.0
  0
LINE
  5
3D9E
  8
0
 62
     0
 10
-0.107109
 20
-0.71
 30
0.0
 11
0.107109
 21
-0.71
 31
0.0
  0
LINE
  5
3D9F
  8
0
 62
     0
 10
0.0
 20
-0.713529
 30
0.0
 11
0.0
 21
0.0
 31
0.0
  0
LINE
  5
3DA0
  8
0
 62
     0
 10
-0.01
 20
-0.713529
 30
0.0
 11
-0.01
 21
0.0
 31
0.0
  0
LINE
  5
3DA1
  8
0
 62
     0
 10
-0.02
 20
-0.713529
 30
0.0
 11
-0.02
 21
0.0
 31
0.0
  0
LINE
  5
3DA2
  8
0
 62
     0
 10
-0.03
 20
-0.713529
 30
0.0
 11
-0.03
 21
0.0
 31
0.0
  0
LINE
  5
3DA3
  8
0
 62
     0
 10
-0.04
 20
-0.713529
 30
0.0
 11
-0.04
 21
0.0
 31
0.0
  0
LINE
  5
3DA4
  8
0
 62
     0
 10
-0.05
 20
-0.713529
 30
0.0
 11
-0.05
 21
0.0
 31
0.0
  0
LINE
  5
3DA5
  8
0
 62
     0
 10
-0.06
 20
-0.713529
 30
0.0
 11
-0.06
 21
0.0
 31
0.0
  0
LINE
  5
3DA6
  8
0
 62
     0
 10
-0.07
 20
-0.713529
 30
0.0
 11
-0.07
 21
0.0
 31
0.0
  0
LINE
  5
3DA7
  8
0
 62
     0
 10
-0.08
 20
-0.713529
 30
0.0
 11
-0.08
 21
0.0
 31
0.0
  0
LINE
  5
3DA8
  8
0
 62
     0
 10
-0.09
 20
-0.713529
 30
0.0
 11
-0.09
 21
0.0
 31
0.0
  0
LINE
  5
3DA9
  8
0
 62
     0
 10
-0.1
 20
-0.711905
 30
0.0
 11
-0.1
 21
0.0
 31
0.0
  0
LINE
  5
3DAA
  8
0
 62
     0
 10
-0.11
 20
-0.709225
 30
0.0
 11
-0.11
 21
0.0
 31
0.0
  0
LINE
  5
3DAB
  8
0
 62
     0
 10
-0.12
 20
-0.706546
 30
0.0
 11
-0.12
 21
0.0
 31
0.0
  0
LINE
  5
3DAC
  8
0
 62
     0
 10
-0.13
 20
-0.703866
 30
0.0
 11
-0.13
 21
0.0
 31
0.0
  0
LINE
  5
3DAD
  8
0
 62
     0
 10
-0.14
 20
-0.701187
 30
0.0
 11
-0.14
 21
0.0
 31
0.0
  0
LINE
  5
3DAE
  8
0
 62
     0
 10
-0.15
 20
-0.698508
 30
0.0
 11
-0.15
 21
0.0
 31
0.0
  0
LINE
  5
3DAF
  8
0
 62
     0
 10
-0.16
 20
-0.695828
 30
0.0
 11
-0.16
 21
0.0
 31
0.0
  0
LINE
  5
3DB0
  8
0
 62
     0
 10
-0.17
 20
-0.693149
 30
0.0
 11
-0.17
 21
0.0
 31
0.0
  0
LINE
  5
3DB1
  8
0
 62
     0
 10
-0.18
 20
-0.690469
 30
0.0
 11
-0.18
 21
0.0
 31
0.0
  0
LINE
  5
3DB2
  8
0
 62
     0
 10
-0.19
 20
-0.68779
 30
0.0
 11
-0.19
 21
0.0
 31
0.0
  0
LINE
  5
3DB3
  8
0
 62
     0
 10
-0.2
 20
-0.68511
 30
0.0
 11
-0.2
 21
0.0
 31
0.0
  0
LINE
  5
3DB4
  8
0
 62
     0
 10
-0.21
 20
-0.682431
 30
0.0
 11
-0.21
 21
0.0
 31
0.0
  0
LINE
  5
3DB5
  8
0
 62
     0
 10
-0.22
 20
-0.679751
 30
0.0
 11
-0.22
 21
0.0
 31
0.0
  0
LINE
  5
3DB6
  8
0
 62
     0
 10
-0.23
 20
-0.677072
 30
0.0
 11
-0.23
 21
0.0
 31
0.0
  0
LINE
  5
3DB7
  8
0
 62
     0
 10
-0.24
 20
-0.674392
 30
0.0
 11
-0.24
 21
0.0
 31
0.0
  0
LINE
  5
3DB8
  8
0
 62
     0
 10
-0.25
 20
-0.671713
 30
0.0
 11
-0.25
 21
0.0
 31
0.0
  0
LINE
  5
3DB9
  8
0
 62
     0
 10
-0.26
 20
-0.669033
 30
0.0
 11
-0.26
 21
0.0
 31
0.0
  0
LINE
  5
3DBA
  8
0
 62
     0
 10
-0.27
 20
-0.666354
 30
0.0
 11
-0.27
 21
0.0
 31
0.0
  0
LINE
  5
3DBB
  8
0
 62
     0
 10
-0.28
 20
-0.662255
 30
0.0
 11
-0.28
 21
0.0
 31
0.0
  0
LINE
  5
3DBC
  8
0
 62
     0
 10
-0.29
 20
-0.656481
 30
0.0
 11
-0.29
 21
0.0
 31
0.0
  0
LINE
  5
3DBD
  8
0
 62
     0
 10
-0.3
 20
-0.650708
 30
0.0
 11
-0.3
 21
0.0
 31
0.0
  0
LINE
  5
3DBE
  8
0
 62
     0
 10
-0.31
 20
-0.644934
 30
0.0
 11
-0.31
 21
0.0
 31
0.0
  0
LINE
  5
3DBF
  8
0
 62
     0
 10
-0.32
 20
-0.639161
 30
0.0
 11
-0.32
 21
0.0
 31
0.0
  0
LINE
  5
3DC0
  8
0
 62
     0
 10
-0.33
 20
-0.633387
 30
0.0
 11
-0.33
 21
0.0
 31
0.0
  0
LINE
  5
3DC1
  8
0
 62
     0
 10
-0.34
 20
-0.627614
 30
0.0
 11
-0.34
 21
0.0
 31
0.0
  0
LINE
  5
3DC2
  8
0
 62
     0
 10
-0.35
 20
-0.62184
 30
0.0
 11
-0.35
 21
0.0
 31
0.0
  0
LINE
  5
3DC3
  8
0
 62
     0
 10
-0.36
 20
-0.616067
 30
0.0
 11
-0.36
 21
0.0
 31
0.0
  0
LINE
  5
3DC4
  8
0
 62
     0
 10
-0.37
 20
-0.610293
 30
0.0
 11
-0.37
 21
0.0
 31
0.0
  0
LINE
  5
3DC5
  8
0
 62
     0
 10
-0.38
 20
-0.60452
 30
0.0
 11
-0.38
 21
0.0
 31
0.0
  0
LINE
  5
3DC6
  8
0
 62
     0
 10
-0.39
 20
-0.598746
 30
0.0
 11
-0.39
 21
0.0
 31
0.0
  0
LINE
  5
3DC7
  8
0
 62
     0
 10
-0.4
 20
-0.592973
 30
0.0
 11
-0.4
 21
0.0
 31
0.0
  0
LINE
  5
3DC8
  8
0
 62
     0
 10
-0.41
 20
-0.587199
 30
0.0
 11
-0.41
 21
0.0
 31
0.0
  0
LINE
  5
3DC9
  8
0
 62
     0
 10
-0.42
 20
-0.581426
 30
0.0
 11
-0.42
 21
0.0
 31
0.0
  0
LINE
  5
3DCA
  8
0
 62
     0
 10
-0.43
 20
-0.575652
 30
0.0
 11
-0.43
 21
0.0
 31
0.0
  0
LINE
  5
3DCB
  8
0
 62
     0
 10
-0.44
 20
-0.569083
 30
0.0
 11
-0.44
 21
0.0
 31
0.0
  0
LINE
  5
3DCC
  8
0
 62
     0
 10
-0.45
 20
-0.559083
 30
0.0
 11
-0.45
 21
0.0
 31
0.0
  0
LINE
  5
3DCD
  8
0
 62
     0
 10
-0.46
 20
-0.549083
 30
0.0
 11
-0.46
 21
0.0
 31
0.0
  0
LINE
  5
3DCE
  8
0
 62
     0
 10
-0.47
 20
-0.539083
 30
0.0
 11
-0.47
 21
0.0
 31
0.0
  0
LINE
  5
3DCF
  8
0
 62
     0
 10
-0.48
 20
-0.529083
 30
0.0
 11
-0.48
 21
0.0
 31
0.0
  0
LINE
  5
3DD0
  8
0
 62
     0
 10
-0.49
 20
-0.519083
 30
0.0
 11
-0.49
 21
0.0
 31
0.0
  0
LINE
  5
3DD1
  8
0
 62
     0
 10
-0.5
 20
-0.509083
 30
0.0
 11
-0.5
 21
0.0
 31
0.0
  0
LINE
  5
3DD2
  8
0
 62
     0
 10
-0.51
 20
-0.499083
 30
0.0
 11
-0.51
 21
0.0
 31
0.0
  0
LINE
  5
3DD3
  8
0
 62
     0
 10
-0.52
 20
-0.489083
 30
0.0
 11
-0.52
 21
0.0
 31
0.0
  0
LINE
  5
3DD4
  8
0
 62
     0
 10
-0.53
 20
-0.479083
 30
0.0
 11
-0.53
 21
0.0
 31
0.0
  0
LINE
  5
3DD5
  8
0
 62
     0
 10
-0.54
 20
-0.469083
 30
0.0
 11
-0.54
 21
0.0
 31
0.0
  0
LINE
  5
3DD6
  8
0
 62
     0
 10
-0.55
 20
-0.459083
 30
0.0
 11
-0.55
 21
0.0
 31
0.0
  0
LINE
  5
3DD7
  8
0
 62
     0
 10
-0.56
 20
-0.449083
 30
0.0
 11
-0.56
 21
0.0
 31
0.0
  0
LINE
  5
3DD8
  8
0
 62
     0
 10
-0.57
 20
-0.439083
 30
0.0
 11
-0.57
 21
0.0
 31
0.0
  0
LINE
  5
3DD9
  8
0
 62
     0
 10
-0.58
 20
-0.422469
 30
0.0
 11
-0.58
 21
0.0
 31
0.0
  0
LINE
  5
3DDA
  8
0
 62
     0
 10
-0.59
 20
-0.405149
 30
0.0
 11
-0.59
 21
0.0
 31
0.0
  0
LINE
  5
3DDB
  8
0
 62
     0
 10
-0.6
 20
-0.387828
 30
0.0
 11
-0.6
 21
0.0
 31
0.0
  0
LINE
  5
3DDC
  8
0
 62
     0
 10
-0.61
 20
-0.370508
 30
0.0
 11
-0.61
 21
0.0
 31
0.0
  0
LINE
  5
3DDD
  8
0
 62
     0
 10
-0.62
 20
-0.353187
 30
0.0
 11
-0.62
 21
0.0
 31
0.0
  0
LINE
  5
3DDE
  8
0
 62
     0
 10
-0.63
 20
-0.335867
 30
0.0
 11
-0.63
 21
0.0
 31
0.0
  0
LINE
  5
3DDF
  8
0
 62
     0
 10
-0.64
 20
-0.318546
 30
0.0
 11
-0.64
 21
0.0
 31
0.0
  0
LINE
  5
3DE0
  8
0
 62
     0
 10
-0.65
 20
-0.301226
 30
0.0
 11
-0.65
 21
0.0
 31
0.0
  0
LINE
  5
3DE1
  8
0
 62
     0
 10
-0.66
 20
-0.283905
 30
0.0
 11
-0.66
 21
0.0
 31
0.0
  0
LINE
  5
3DE2
  8
0
 62
     0
 10
-0.67
 20
-0.256391
 30
0.0
 11
-0.67
 21
0.0
 31
0.0
  0
LINE
  5
3DE3
  8
0
 62
     0
 10
-0.68
 20
-0.219071
 30
0.0
 11
-0.68
 21
0.0
 31
0.0
  0
LINE
  5
3DE4
  8
0
 62
     0
 10
-0.69
 20
-0.18175
 30
0.0
 11
-0.69
 21
0.0
 31
0.0
  0
LINE
  5
3DE5
  8
0
 62
     0
 10
-0.7
 20
-0.14443
 30
0.0
 11
-0.7
 21
0.0
 31
0.0
  0
LINE
  5
3DE6
  8
0
 62
     0
 10
-0.71
 20
-0.107109
 30
0.0
 11
-0.71
 21
0.0
 31
0.0
  0
LINE
  5
3DE7
  8
0
 62
     0
 10
0.01
 20
-0.713529
 30
0.0
 11
0.01
 21
0.0
 31
0.0
  0
LINE
  5
3DE8
  8
0
 62
     0
 10
0.02
 20
-0.713529
 30
0.0
 11
0.02
 21
0.0
 31
0.0
  0
LINE
  5
3DE9
  8
0
 62
     0
 10
0.03
 20
-0.713529
 30
0.0
 11
0.03
 21
0.0
 31
0.0
  0
LINE
  5
3DEA
  8
0
 62
     0
 10
0.04
 20
-0.713529
 30
0.0
 11
0.04
 21
0.0
 31
0.0
  0
LINE
  5
3DEB
  8
0
 62
     0
 10
0.05
 20
-0.713529
 30
0.0
 11
0.05
 21
0.0
 31
0.0
  0
LINE
  5
3DEC
  8
0
 62
     0
 10
0.06
 20
-0.713529
 30
0.0
 11
0.06
 21
0.0
 31
0.0
  0
LINE
  5
3DED
  8
0
 62
     0
 10
0.07
 20
-0.713529
 30
0.0
 11
0.07
 21
0.0
 31
0.0
  0
LINE
  5
3DEE
  8
0
 62
     0
 10
0.08
 20
-0.713529
 30
0.0
 11
0.08
 21
0.0
 31
0.0
  0
LINE
  5
3DEF
  8
0
 62
     0
 10
0.09
 20
-0.713529
 30
0.0
 11
0.09
 21
0.0
 31
0.0
  0
LINE
  5
3DF0
  8
0
 62
     0
 10
0.1
 20
-0.711905
 30
0.0
 11
0.1
 21
0.0
 31
0.0
  0
LINE
  5
3DF1
  8
0
 62
     0
 10
0.11
 20
-0.709225
 30
0.0
 11
0.11
 21
0.0
 31
0.0
  0
LINE
  5
3DF2
  8
0
 62
     0
 10
0.12
 20
-0.706546
 30
0.0
 11
0.12
 21
0.0
 31
0.0
  0
LINE
  5
3DF3
  8
0
 62
     0
 10
0.13
 20
-0.703866
 30
0.0
 11
0.13
 21
0.0
 31
0.0
  0
LINE
  5
3DF4
  8
0
 62
     0
 10
0.14
 20
-0.701187
 30
0.0
 11
0.14
 21
0.0
 31
0.0
  0
LINE
  5
3DF5
  8
0
 62
     0
 10
0.15
 20
-0.698508
 30
0.0
 11
0.15
 21
0.0
 31
0.0
  0
LINE
  5
3DF6
  8
0
 62
     0
 10
0.16
 20
-0.695828
 30
0.0
 11
0.16
 21
0.0
 31
0.0
  0
LINE
  5
3DF7
  8
0
 62
     0
 10
0.17
 20
-0.693149
 30
0.0
 11
0.17
 21
0.0
 31
0.0
  0
LINE
  5
3DF8
  8
0
 62
     0
 10
0.18
 20
-0.690469
 30
0.0
 11
0.18
 21
0.0
 31
0.0
  0
LINE
  5
3DF9
  8
0
 62
     0
 10
0.19
 20
-0.68779
 30
0.0
 11
0.19
 21
0.0
 31
0.0
  0
LINE
  5
3DFA
  8
0
 62
     0
 10
0.2
 20
-0.68511
 30
0.0
 11
0.2
 21
0.0
 31
0.0
  0
LINE
  5
3DFB
  8
0
 62
     0
 10
0.21
 20
-0.682431
 30
0.0
 11
0.21
 21
0.0
 31
0.0
  0
LINE
  5
3DFC
  8
0
 62
     0
 10
0.22
 20
-0.679751
 30
0.0
 11
0.22
 21
0.0
 31
0.0
  0
LINE
  5
3DFD
  8
0
 62
     0
 10
0.23
 20
-0.677072
 30
0.0
 11
0.23
 21
0.0
 31
0.0
  0
LINE
  5
3DFE
  8
0
 62
     0
 10
0.24
 20
-0.674392
 30
0.0
 11
0.24
 21
0.0
 31
0.0
  0
LINE
  5
3DFF
  8
0
 62
     0
 10
0.25
 20
-0.671713
 30
0.0
 11
0.25
 21
0.0
 31
0.0
  0
LINE
  5
3E00
  8
0
 62
     0
 10
0.26
 20
-0.669033
 30
0.0
 11
0.26
 21
0.0
 31
0.0
  0
LINE
  5
3E01
  8
0
 62
     0
 10
0.27
 20
-0.666354
 30
0.0
 11
0.27
 21
0.0
 31
0.0
  0
LINE
  5
3E02
  8
0
 62
     0
 10
0.28
 20
-0.662255
 30
0.0
 11
0.28
 21
0.0
 31
0.0
  0
LINE
  5
3E03
  8
0
 62
     0
 10
0.29
 20
-0.656481
 30
0.0
 11
0.29
 21
0.0
 31
0.0
  0
LINE
  5
3E04
  8
0
 62
     0
 10
0.3
 20
-0.650708
 30
0.0
 11
0.3
 21
0.0
 31
0.0
  0
LINE
  5
3E05
  8
0
 62
     0
 10
0.31
 20
-0.644934
 30
0.0
 11
0.31
 21
0.0
 31
0.0
  0
LINE
  5
3E06
  8
0
 62
     0
 10
0.32
 20
-0.639161
 30
0.0
 11
0.32
 21
0.0
 31
0.0
  0
LINE
  5
3E07
  8
0
 62
     0
 10
0.33
 20
-0.633387
 30
0.0
 11
0.33
 21
0.0
 31
0.0
  0
LINE
  5
3E08
  8
0
 62
     0
 10
0.34
 20
-0.627614
 30
0.0
 11
0.34
 21
0.0
 31
0.0
  0
LINE
  5
3E09
  8
0
 62
     0
 10
0.35
 20
-0.62184
 30
0.0
 11
0.35
 21
0.0
 31
0.0
  0
LINE
  5
3E0A
  8
0
 62
     0
 10
0.36
 20
-0.616067
 30
0.0
 11
0.36
 21
0.0
 31
0.0
  0
LINE
  5
3E0B
  8
0
 62
     0
 10
0.37
 20
-0.610293
 30
0.0
 11
0.37
 21
0.0
 31
0.0
  0
LINE
  5
3E0C
  8
0
 62
     0
 10
0.38
 20
-0.60452
 30
0.0
 11
0.38
 21
0.0
 31
0.0
  0
LINE
  5
3E0D
  8
0
 62
     0
 10
0.39
 20
-0.598746
 30
0.0
 11
0.39
 21
0.0
 31
0.0
  0
LINE
  5
3E0E
  8
0
 62
     0
 10
0.4
 20
-0.592973
 30
0.0
 11
0.4
 21
0.0
 31
0.0
  0
LINE
  5
3E0F
  8
0
 62
     0
 10
0.41
 20
-0.587199
 30
0.0
 11
0.41
 21
0.0
 31
0.0
  0
LINE
  5
3E10
  8
0
 62
     0
 10
0.42
 20
-0.581426
 30
0.0
 11
0.42
 21
0.0
 31
0.0
  0
LINE
  5
3E11
  8
0
 62
     0
 10
0.43
 20
-0.575652
 30
0.0
 11
0.43
 21
0.0
 31
0.0
  0
LINE
  5
3E12
  8
0
 62
     0
 10
0.44
 20
-0.569083
 30
0.0
 11
0.44
 21
0.0
 31
0.0
  0
LINE
  5
3E13
  8
0
 62
     0
 10
0.45
 20
-0.559083
 30
0.0
 11
0.45
 21
0.0
 31
0.0
  0
LINE
  5
3E14
  8
0
 62
     0
 10
0.46
 20
-0.549083
 30
0.0
 11
0.46
 21
0.0
 31
0.0
  0
LINE
  5
3E15
  8
0
 62
     0
 10
0.47
 20
-0.539083
 30
0.0
 11
0.47
 21
0.0
 31
0.0
  0
LINE
  5
3E16
  8
0
 62
     0
 10
0.48
 20
-0.529083
 30
0.0
 11
0.48
 21
0.0
 31
0.0
  0
LINE
  5
3E17
  8
0
 62
     0
 10
0.49
 20
-0.519083
 30
0.0
 11
0.49
 21
0.0
 31
0.0
  0
LINE
  5
3E18
  8
0
 62
     0
 10
0.5
 20
-0.509083
 30
0.0
 11
0.5
 21
0.0
 31
0.0
  0
LINE
  5
3E19
  8
0
 62
     0
 10
0.51
 20
-0.499083
 30
0.0
 11
0.51
 21
0.0
 31
0.0
  0
LINE
  5
3E1A
  8
0
 62
     0
 10
0.52
 20
-0.489083
 30
0.0
 11
0.52
 21
0.0
 31
0.0
  0
LINE
  5
3E1B
  8
0
 62
     0
 10
0.53
 20
-0.479083
 30
0.0
 11
0.53
 21
0.0
 31
0.0
  0
LINE
  5
3E1C
  8
0
 62
     0
 10
0.54
 20
-0.469083
 30
0.0
 11
0.54
 21
0.0
 31
0.0
  0
LINE
  5
3E1D
  8
0
 62
     0
 10
0.55
 20
-0.459083
 30
0.0
 11
0.55
 21
0.0
 31
0.0
  0
LINE
  5
3E1E
  8
0
 62
     0
 10
0.56
 20
-0.449083
 30
0.0
 11
0.56
 21
0.0
 31
0.0
  0
LINE
  5
3E1F
  8
0
 62
     0
 10
0.57
 20
-0.439083
 30
0.0
 11
0.57
 21
0.0
 31
0.0
  0
LINE
  5
3E20
  8
0
 62
     0
 10
0.58
 20
-0.422469
 30
0.0
 11
0.58
 21
0.0
 31
0.0
  0
LINE
  5
3E21
  8
0
 62
     0
 10
0.59
 20
-0.405149
 30
0.0
 11
0.59
 21
0.0
 31
0.0
  0
LINE
  5
3E22
  8
0
 62
     0
 10
0.6
 20
-0.387828
 30
0.0
 11
0.6
 21
0.0
 31
0.0
  0
LINE
  5
3E23
  8
0
 62
     0
 10
0.61
 20
-0.370508
 30
0.0
 11
0.61
 21
0.0
 31
0.0
  0
LINE
  5
3E24
  8
0
 62
     0
 10
0.62
 20
-0.353187
 30
0.0
 11
0.62
 21
0.0
 31
0.0
  0
LINE
  5
3E25
  8
0
 62
     0
 10
0.63
 20
-0.335867
 30
0.0
 11
0.63
 21
0.0
 31
0.0
  0
LINE
  5
3E26
  8
0
 62
     0
 10
0.64
 20
-0.318546
 30
0.0
 11
0.64
 21
0.0
 31
0.0
  0
LINE
  5
3E27
  8
0
 62
     0
 10
0.65
 20
-0.301226
 30
0.0
 11
0.65
 21
0.0
 31
0.0
  0
LINE
  5
3E28
  8
0
 62
     0
 10
0.66
 20
-0.283905
 30
0.0
 11
0.66
 21
0.0
 31
0.0
  0
LINE
  5
3E29
  8
0
 62
     0
 10
0.67
 20
-0.256391
 30
0.0
 11
0.67
 21
0.0
 31
0.0
  0
LINE
  5
3E2A
  8
0
 62
     0
 10
0.68
 20
-0.219071
 30
0.0
 11
0.68
 21
0.0
 31
0.0
  0
LINE
  5
3E2B
  8
0
 62
     0
 10
0.69
 20
-0.18175
 30
0.0
 11
0.69
 21
0.0
 31
0.0
  0
LINE
  5
3E2C
  8
0
 62
     0
 10
0.7
 20
-0.14443
 30
0.0
 11
0.7
 21
0.0
 31
0.0
  0
LINE
  5
3E2D
  8
0
 62
     0
 10
0.71
 20
-0.107109
 30
0.0
 11
0.71
 21
0.0
 31
0.0
  0
ENDBLK
  5
3E2E
  8
0
  0
BLOCK
  8
0
  2
BORLICOM
 70
     0
 10
0.0
 20
0.0
 30
0.0
  3
BORLICOM
  1

  0
POLYLINE
  5
3C9D
  8
0
 66
     1
 10
0.0
 20
0.0
 30
0.0
 70
     1
  0
VERTEX
  5
3F92
  8
0
 10
-0.1
 20
0.75
 30
0.0
  0
VERTEX
  5
3F93
  8
0
 10
-0.29
 20
0.7
 30
0.0
  0
VERTEX
  5
3F94
  8
0
 10
-0.46
 20
0.6
 30
0.0
  0
VERTEX
  5
3F95
  8
0
 10
-0.6
 20
0.46
 30
0.0
  0
VERTEX
  5
3F96
  8
0
 10
-0.7
 20
0.29
 30
0.0
  0
VERTEX
  5
3F97
  8
0
 10
-0.75
 20
0.1
 30
0.0
  0
VERTEX
  5
3F98
  8
0
 10
-0.75
 20
-0.1
 30
0.0
  0
VERTEX
  5
3F99
  8
0
 10
-0.7
 20
-0.29
 30
0.0
  0
VERTEX
  5
3F9A
  8
0
 10
-0.6
 20
-0.46
 30
0.0
  0
VERTEX
  5
3F9B
  8
0
 10
-0.46
 20
-0.6
 30
0.0
  0
VERTEX
  5
3F9C
  8
0
 10
-0.29
 20
-0.7
 30
0.0
  0
VERTEX
  5
3F9D
  8
0
 10
-0.1
 20
-0.75
 30
0.0
  0
VERTEX
  5
3F9E
  8
0
 10
0.1
 20
-0.75
 30
0.0
  0
VERTEX
  5
3F9F
  8
0
 10
0.29
 20
-0.7
 30
0.0
  0
VERTEX
  5
3FA0
  8
0
 10
0.46
 20
-0.6
 30
0.0
  0
VERTEX
  5
3FA1
  8
0
 10
0.6
 20
-0.46
 30
0.0
  0
VERTEX
  5
3FA2
  8
0
 10
0.7
 20
-0.29
 30
0.0
  0
VERTEX
  5
3FA3
  8
0
 10
0.75
 20
-0.1
 30
0.0
  0
VERTEX
  5
3FA4
  8
0
 10
0.75
 20
0.1
 30
0.0
  0
VERTEX
  5
3FA5
  8
0
 10
0.7
 20
0.29
 30
0.0
  0
VERTEX
  5
3FA6
  8
0
 10
0.6
 20
0.46
 30
0.0
  0
VERTEX
  5
3FA7
  8
0
 10
0.46
 20
0.6
 30
0.0
  0
VERTEX
  5
3FA8
  8
0
 10
0.29
 20
0.7
 30
0.0
  0
VERTEX
  5
3FA9
  8
0
 10
0.1
 20
0.75
 30
0.0
  0
SEQEND
  5
3FAA
  8
0
  0
ENDBLK
  5
3CB7
  8
0
  0
BLOCK
  8
0
  2
FLECHRU1
 70
     0
 10
0.0
 20
0.0
 30
0.0
  3
FLECHRU1
  1

  0
POINT
  5
3CBA
  8
0
 10
0.0
 20
0.0
 30
0.0
  0
ENDBLK
  5
3CBB
  8
0
  0
BLOCK
  8
0
  2
ARRET1
 70
     0
 10
0.0
 20
0.0
 30
0.0
  3
ARRET1
  1

  0
POINT
  5
3CBE
  8
0
 10
0.0
 20
0.0
 30
0.0
  0
ENDBLK
  5
3CBF
  8
0
  0
BLOCK
  8
0
  2
PYLONE1
 70
     0
 10
0.0
 20
0.0
 30
0.0
  3
PYLONE1
  1

  0
POINT
  5
3CC2
  8
0
 10
0.0
 20
0.0
 30
0.0
  0
ENDBLK
  5
3CC3
  8
0
  0
BLOCK
  8
0
  2
HALTE1
 70
     0
 10
0.0
 20
0.0
 30
0.0
  3
HALTE1
  1

  0
POINT
  5
3CC6
  8
0
 10
0.0
 20
0.0
 30
0.0
  0
ENDBLK
  5
3CC7
  8
0
  0
BLOCK
  8
0
  2
STATION1
 70
     0
 10
0.0
 20
0.0
 30
0.0
  3
STATION1
  1

  0
POINT
  5
3CCA
  8
0
 10
0.0
 20
0.0
 30
0.0
  0
ENDBLK
  5
3CCB
  8
0
  0
BLOCK
  8
0
  2
MOSQUEE
 70
     0
 10
0.0
 20
0.0
 30
0.0
  3
MOSQUEE
  1

  0
POLYLINE
  5
3CCE
  8
0
 66
     1
 10
0.0
 20
0.0
 30
0.0
 40
0.2
 41
0.2
  0
VERTEX
  5
3FAB
  8
0
 10
2.5
 20
2.5
 30
0.0
 42
1.0
  0
VERTEX
  5
3FAC
  8
0
 10
2.5
 20
-2.5
 30
0.0
 42
1.0
  0
SEQEND
  5
3FAD
  8
0
  0
POLYLINE
  5
3CD2
  8
0
 66
     1
 10
0.0
 20
0.0
 30
0.0
 40
0.2
 41
0.2
  0
VERTEX
  5
3FAE
  8
0
 10
-7.12
 20
0.0
 30
0.0
  0
VERTEX
  5
3FAF
  8
0
 10
0.0
 20
0.0
 30
0.0
  0
SEQEND
  5
3FB0
  8
0
  0
POLYLINE
  5
3CD6
  8
0
 66
     1
 10
0.0
 20
0.0
 30
0.0
 70
     1
 40
0.2
 41
0.2
  0
VERTEX
  5
3FB1
  8
0
 10
-7.42
 20
0.0
 30
0.0
 42
1.0
  0
VERTEX
  5
3FB2
  8
0
 10
-7.12
 20
0.0
 30
0.0
 42
1.0
  0
SEQEND
  5
3FB3
  8
0
  0
ENDBLK
  5
3CDA
  8
0
  0
BLOCK
  8
0
  2
SYNAGOG
 70
     0
 10
0.0
 20
0.0
 30
0.0
  3
SYNAGOG
  1

  0
POLYLINE
  5
3CDD
  8
0
 66
     1
 10
0.0
 20
0.0
 30
0.0
 70
     1
 40
0.2
 41
0.2
  0
VERTEX
  5
3FB4
  8
0
 10
0.01
 20
1.26
 30
0.0
  0
VERTEX
  5
3FB5
  8
0
 10
-1.1
 20
-0.62
 30
0.0
  0
VERTEX
  5
3FB6
  8
0
 10
1.09
 20
-0.64
 30
0.0
  0
SEQEND
  5
3FB7
  8
0
  0
POLYLINE
  5
3CE2
  8
0
 66
     1
 10
0.0
 20
0.0
 30
0.0
 70
     1
 40
0.2
 41
0.2
  0
VERTEX
  5
3FB8
  8
0
 10
-1.09
 20
0.64
 30
0.0
  0
VERTEX
  5
3FB9
  8
0
 10
1.1
 20
0.62
 30
0.0
  0
VERTEX
  5
3FBA
  8
0
 10
-0.01
 20
-1.26
 30
0.0
  0
SEQEND
  5
3FBB
  8
0
  0
ENDBLK
  5
3CE7
  8
0
  0
BLOCK
  8
0
  2
POLYGOBO
 70
     0
 10
0.0
 20
0.0
 30
0.0
  3
POLYGOBO
  1

  0
POLYLINE
  5
3CEA
  8
0
 66
     1
 10
0.0
 20
0.0
 30
0.0
 70
     1
  0
VERTEX
  5
3FBC
  8
0
 10
-0.131652
 20
1.0
 30
0.0
  0
VERTEX
  5
3FBD
  8
0
 10
-0.385986
 20
0.931852
 30
0.0
  0
VERTEX
  5
3FBE
  8
0
 10
-0.614014
 20
0.800199
 30
0.0
  0
VERTEX
  5
3FBF
  8
0
 10
-0.800199
 20
0.614014
 30
0.0
  0
VERTEX
  5
3FC0
  8
0
 10
-0.931852
 20
0.385986
 30
0.0
  0
VERTEX
  5
3FC1
  8
0
 10
-1.0
 20
0.131652
 30
0.0
  0
VERTEX
  5
3FC2
  8
0
 10
-1.0
 20
-0.131652
 30
0.0
  0
VERTEX
  5
3FC3
  8
0
 10
-0.931852
 20
-0.385986
 30
0.0
  0
VERTEX
  5
3FC4
  8
0
 10
-0.800199
 20
-0.614014
 30
0.0
  0
VERTEX
  5
3FC5
  8
0
 10
-0.614014
 20
-0.800199
 30
0.0
  0
VERTEX
  5
3FC6
  8
0
 10
-0.385986
 20
-0.931852
 30
0.0
  0
VERTEX
  5
3FC7
  8
0
 10
-0.131652
 20
-1.0
 30
0.0
  0
VERTEX
  5
3FC8
  8
0
 10
0.131652
 20
-1.0
 30
0.0
  0
VERTEX
  5
3FC9
  8
0
 10
0.385986
 20
-0.931852
 30
0.0
  0
VERTEX
  5
3FCA
  8
0
 10
0.614014
 20
-0.800199
 30
0.0
  0
VERTEX
  5
3FCB
  8
0
 10
0.800199
 20
-0.614014
 30
0.0
  0
VERTEX
  5
3FCC
  8
0
 10
0.931852
 20
-0.385986
 30
0.0
  0
VERTEX
  5
3FCD
  8
0
 10
1.0
 20
-0.131652
 30
0.0
  0
VERTEX
  5
3FCE
  8
0
 10
1.0
 20
0.131652
 30
0.0
  0
VERTEX
  5
3FCF
  8
0
 10
0.931852
 20
0.385986
 30
0.0
  0
VERTEX
  5
3FD0
  8
0
 10
0.800199
 20
0.614014
 30
0.0
  0
VERTEX
  5
3FD1
  8
0
 10
0.614014
 20
0.800199
 30
0.0
  0
VERTEX
  5
3FD2
  8
0
 10
0.385986
 20
0.931852
 30
0.0
  0
VERTEX
  5
3FD3
  8
0
 10
0.131652
 20
1.0
 30
0.0
  0
SEQEND
  5
3FD4
  8
0
  0
POLYLINE
  5
3D04
  8
0
 66
     1
 10
0.0
 20
0.0
 30
0.0
 70
     1
  0
VERTEX
  5
3FD5
  8
0
 10
-0.065826
 20
0.500025
 30
0.0
  0
VERTEX
  5
3FD6
  8
0
 10
-0.192993
 20
0.465951
 30
0.0
  0
VERTEX
  5
3FD7
  8
0
 10
-0.307007
 20
0.400125
 30
0.0
  0
VERTEX
  5
3FD8
  8
0
 10
-0.4001
 20
0.307033
 30
0.0
  0
VERTEX
  5
3FD9
  8
0
 10
-0.465926
 20
0.193018
 30
0.0
  0
VERTEX
  5
3FDA
  8
0
 10
-0.5
 20
0.065852
 30
0.0
  0
VERTEX
  5
3FDB
  8
0
 10
-0.5
 20
-0.065801
 30
0.0
  0
VERTEX
  5
3FDC
  8
0
 10
-0.465926
 20
-0.192967
 30
0.0
  0
VERTEX
  5
3FDD
  8
0
 10
-0.4001
 20
-0.306982
 30
0.0
  0
VERTEX
  5
3FDE
  8
0
 10
-0.307007
 20
-0.400074
 30
0.0
  0
VERTEX
  5
3FDF
  8
0
 10
-0.192993
 20
-0.4659
 30
0.0
  0
VERTEX
  5
3FE0
  8
0
 10
-0.065826
 20
-0.499975
 30
0.0
  0
VERTEX
  5
3FE1
  8
0
 10
0.065826
 20
-0.499975
 30
0.0
  0
VERTEX
  5
3FE2
  8
0
 10
0.192993
 20
-0.4659
 30
0.0
  0
VERTEX
  5
3FE3
  8
0
 10
0.307007
 20
-0.400074
 30
0.0
  0
VERTEX
  5
3FE4
  8
0
 10
0.4001
 20
-0.306982
 30
0.0
  0
VERTEX
  5
3FE5
  8
0
 10
0.465926
 20
-0.192967
 30
0.0
  0
VERTEX
  5
3FE6
  8
0
 10
0.5
 20
-0.065801
 30
0.0
  0
VERTEX
  5
3FE7
  8
0
 10
0.5
 20
0.065852
 30
0.0
  0
VERTEX
  5
3FE8
  8
0
 10
0.465926
 20
0.193018
 30
0.0
  0
VERTEX
  5
3FE9
  8
0
 10
0.4001
 20
0.307033
 30
0.0
  0
VERTEX
  5
3FEA
  8
0
 10
0.307007
 20
0.400125
 30
0.0
  0
VERTEX
  5
3FEB
  8
0
 10
0.192993
 20
0.465951
 30
0.0
  0
VERTEX
  5
3FEC
  8
0
 10
0.065826
 20
0.500025
 30
0.0
  0
SEQEND
  5
3FED
  8
0
  0
ENDBLK
  5
3D1E
  8
0
  0
BLOCK
  8
0
  2
POLYGOPT
 70
     0
 10
0.0
 20
0.0
 30
0.0
  3
POLYGOPT
  1

  0
POLYLINE
  5
3D21
  8
0
 66
     1
 10
0.0
 20
0.0
 30
0.0
  0
VERTEX
  5
3FEE
  8
0
 10
0.0
 20
0.5
 30
0.0
  0
VERTEX
  5
3FEF
  8
0
 10
0.0
 20
1.5
 30
0.0
  0
SEQEND
  5
3FF0
  8
0
  0
POLYLINE
  5
3D25
  8
0
 66
     1
 10
0.0
 20
0.0
 30
0.0
  0
VERTEX
  5
3FF1
  8
0
 10
0.0
 20
-1.5
 30
0.0
  0
VERTEX
  5
3FF2
  8
0
 10
0.0
 20
-0.5
 30
0.0
  0
SEQEND
  5
3FF3
  8
0
  0
POLYLINE
  5
3D29
  8
0
 66
     1
 10
0.0
 20
0.0
 30
0.0
  0
VERTEX
  5
3FF4
  8
0
 10
0.5
 20
0.0
 30
0.0
  0
VERTEX
  5
3FF5
  8
0
 10
1.5
 20
0.0
 30
0.0
  0
SEQEND
  5
3FF6
  8
0
  0
POLYLINE
  5
3D2D
  8
0
 66
     1
 10
0.0
 20
0.0
 30
0.0
  0
VERTEX
  5
3FF7
  8
0
 10
-1.5
 20
0.0
 30
0.0
  0
VERTEX
  5
3FF8
  8
0
 10
-0.5
 20
0.0
 30
0.0
  0
SEQEND
  5
3FF9
  8
0
  0
POLYLINE
  5
3D31
  8
0
 66
     1
 10
0.0
 20
0.0
 30
0.0
 70
     1
 40
0.1
 41
0.1
  0
VERTEX
  5
3FFA
  8
0
 10
-0.05
 20
0.0
 30
0.0
 42
1.0
  0
VERTEX
  5
3FFB
  8
0
 10
0.05
 20
0.0
 30
0.0
 42
1.0
  0
SEQEND
  5
3FFC
  8
0
  0
ENDBLK
  5
3D35
  8
0
  0
BLOCK
  8
0
  2
PUITS
 70
     0
 10
0.0
 20
0.0
 30
0.0
  3
PUITS
  1

  0
LINE
  5
3D38
  8
0
 10
0.6
 20
0.0
 30
0.0
 11
0.6
 21
0.0
 31
0.0
  0
CIRCLE
  5
3D39
  8
0
 10
0.0
 20
0.0
 30
0.0
 40
1.0
  0
CIRCLE
  5
3D3A
  8
0
 10
0.0
 20
0.0
 30
0.0
 40
0.8
  0
POLYLINE
  5
3D3B
  8
0
 66
     1
 10
0.0
 20
0.0
 30
0.0
  0
VERTEX
  5
3FFD
  8
0
 10
-1.0
 20
0.0
 30
0.0
  0
VERTEX
  5
3FFE
  8
0
 10
1.2
 20
0.0
 30
0.0
  0
VERTEX
  5
3FFF
  8
0
 10
1.2
 20
-0.8
 30
0.0
  0
VERTEX
  5
4000
  8
0
 10
1.4
 20
-0.8
 30
0.0
  0
SEQEND
  5
4001
  8
0
  0
ENDBLK
  5
3D41
  8
0
  0
BLOCK
  8
0
  2
CROIX
 70
     0
 10
0.0
 20
0.0
 30
0.0
  3
CROIX
  1

  0
CIRCLE
  5
3D44
  8
0
 10
0.0
 20
0.0
 30
0.0
 40
0.5
  0
LINE
  5
3D45
  8
0
 10
-0.353553
 20
-0.353553
 30
0.0
 11
0.353553
 21
0.353553
 31
0.0
  0
LINE
  5
3D46
  8
0
 10
-0.353553
 20
0.353553
 30
0.0
 11
0.353553
 21
-0.353553
 31
0.0
  0
ENDBLK
  5
3D47
  8
0
  0
BLOCK
  8
0
  2
BOULON
 70
     0
 10
0.0
 20
0.0
 30
0.0
  3
BOULON
  1

  0
CIRCLE
  5
3D4A
  8
0
 10
0.0
 20
0.0
 30
0.0
 40
0.01
  0
CIRCLE
  5
3D4B
  8
0
 10
0.0
 20
0.0
 30
0.0
 40
0.009
  0
CIRCLE
  5
3D4C
  8
0
 10
0.0
 20
0.0
 30
0.0
 40
0.008
  0
CIRCLE
  5
3D4D
  8
0
 10
0.0
 20
0.0
 30
0.0
 40
0.007
  0
CIRCLE
  5
3D4E
  8
0
 10
0.0
 20
0.0
 30
0.0
 40
0.006
  0
CIRCLE
  5
3D4F
  8
0
 10
0.0
 20
0.0
 30
0.0
 40
0.005
  0
CIRCLE
  5
3D50
  8
0
 10
0.0
 20
0.0
 30
0.0
 40
0.004
  0
CIRCLE
  5
3D51
  8
0
 10
0.0
 20
0.0
 30
0.0
 40
0.003
  0
CIRCLE
  5
3D52
  8
0
 10
0.0
 20
0.0
 30
0.0
 40
0.002
  0
CIRCLE
  5
3D53
  8
0
 10
0.0
 20
0.0
 30
0.0
 40
0.001
  0
LINE
  5
3D54
  8
0
 10
0.0
 20
0.2
 30
0.0
 11
0.5
 21
0.0
 31
0.0
  0
LINE
  5
3D55
  8
0
 10
0.0
 20
-0.2
 30
0.0
 11
0.5
 21
0.0
 31
0.0
  0
ENDBLK
  5
3D56
  8
0
  0
BLOCK
  5
4008
   8
0
   2
TEXT
  70
     66
  10
0.0
  20
0.0
  30
0.0
   0
POINT
  5
4009
   8
0
  10
0.0
  20
0.0
  30
0.0
   0
ENDBLK
  5
400a
   8
0
   0
BLOCK
  5
400b
   8
0
   2
CADORDB
  70
     66
  10
0.0
  20
0.0
  30
0.0
   0
POINT
  5
400c
   8
0
  10
0.0
  20
0.0
  30
0.0
   0
ENDBLK
  5
400d
   8
0
   0
BLOCK
  5
400e
   8
0
   2
CADPEREN
  70
     66
  10
0.0
  20
0.0
  30
0.0
   0
POINT
  5
400f
   8
0
  10
0.0
  20
0.0
  30
0.0
   0
ENDBLK
  5
4010
   8
0
   0
BLOCK
  5
4011
   8
0
   2
CADAPPDV
  70
     66
  10
0.0
  20
0.0
  30
0.0
   0
POINT
  5
4012
   8
0
  10
0.0
  20
0.0
  30
0.0
   0
ENDBLK
  5
4013
   8
0
   0
BLOCK
  5
4014
   8
0
   2
CADAPGEO
  70
     66
  10
0.0
  20
0.0
  30
0.0
   0
POINT
  5
4015
   8
0
  10
0.0
  20
0.0
  30
0.0
   0
ENDBLK
  5
4016
   8
0
   0
BLOCK
  5
4017
   8
0
   2
PONCTDIVERS
  70
     66
  10
0.0
  20
0.0
  30
0.0
   0
POINT
  5
4018
   8
0
  10
0.0
  20
0.0
  30
0.0
   0
ENDBLK
  5
4019
   8
0
   0
ENDSEC
  0
SECTION
  2
ENTITIES
  0
POLYLINE
  5
401a
  8
1SUBDSECT
 66
    1
 10
0.0
 20
0.0
 30
0.0
 70
     1
1001
QUPL
1000
01
1001
EOR
1000
2000
1001
DEDI
1000
01/01/1985
1001
ICL
1000
0
1001
DIS
1000
22/06/2005
1001
INP
1000
01
1001
DRED
1000
01/01/1982
1001
COPL
1000
02
1001
IDU
1000
1870000A02
  0
VERTEX
  8
1SUBDSECT
  5
401b
 10
499968.070000
 20
6752162.650000
 30
0.000000
  0
VERTEX
  8
1SUBDSECT
  5
401c
 10
499963.010000
 20
6752159.680000
 30
0.000000
  0
VERTEX
  8
1SUBDSECT
  5
401d
 10
499870.450000
 20
6752117.540000
 30
0.000000
  0
VERTEX
  8
1SUBDSECT
  5
401e
 10
499813.950000
 20
6752084.630000
 30
0.000000
  0
VERTEX
  8
1SUBDSECT
  5
401f
 10
499795.540000
 20
6752067.420000
 30
0.000000
  0
VERTEX
  8
1SUBDSECT
  5
4020
 10
499775.160000
 20
6752044.010000
 30
0.000000
  0
VERTEX
  8
1SUBDSECT
  5
4021
 10
499761.380000
 20
6752026.160000
 30
0.000000
  0
VERTEX
  8
1SUBDSECT
  5
4022
 10
499729.080000
 20
6751983.510000
 30
0.000000
  0
VERTEX
  8
1SUBDSECT
  5
4023
 10
499724.390000
 20
6751977.650000
 30
0.000000
  0
VERTEX
  8
1SUBDSECT
  5
4024
 10
499708.530000
 20
6751957.990000
 30
0.000000
  0
VERTEX
  8
1SUBDSECT
  5
4025
 10
499706.350000
 20
6751954.230000
 30
0.000000
  0
VERTEX
  8
1SUBDSECT
  5
4026
 10
499682.950000
 20
6751909.510000
 30
0.000000
  0
VERTEX
  8
1SUBDSECT
  5
4027
 10
499677.090000
 20
6751898.860000
 30
0.000000
  0
VERTEX
  8
1SUBDSECT
  5
4028
 10
499631.360000
 20
6751818.410000
 30
0.000000
  0
VERTEX
  8
1SUBDSECT
  5
4029
 10
499606.240000
 20
6751771.280000
 30
0.000000
  0
VERTEX
  8
1SUBDSECT
  5
402a
 10
499604.610000
 20
6751768.220000
 30
0.000000
  0
VERTEX
  8
1SUBDSECT
  5
402b
 10
499592.690000
 20
6751773.920000
 30
0.000000
  0
VERTEX
  8
1SUBDSECT
  5
402c
 10
499554.490000
 20
6751789.420000
 30
0.000000
  0
VERTEX
  8
1SUBDSECT
  5
402d
 10
499572.220000
 20
6751848.960000
 30
0.000000
  0
VERTEX
  8
1SUBDSECT
  5
402e
 10
499592.480000
 20
6751919.520000
 30
0.000000
  0
VERTEX
  8
1SUBDSECT
  5
402f
 10
499599.930000
 20
6751933.060000
 30
0.000000
  0
VERTEX
  8
1SUBDSECT
  5
4030
 10
499604.870000
 20
6751955.010000
 30
0.000000
  0
VERTEX
  8
1SUBDSECT
  5
4031
 10
499606.650000
 20
6752039.560000
 30
0.000000
  0
VERTEX
  8
1SUBDSECT
  5
4032
 10
499601.160000
 20
6752131.850000
 30
0.000000
  0
VERTEX
  8
1SUBDSECT
  5
4033
 10
499593.410000
 20
6752211.010000
 30
0.000000
  0
VERTEX
  8
1SUBDSECT
  5
4034
 10
499593.060000
 20
6752213.560000
 30
0.000000
  0
VERTEX
  8
1SUBDSECT
  5
4035
 10
499582.000000
 20
6752292.070000
 30
0.000000
  0
VERTEX
  8
1SUBDSECT
  5
4036
 10
499572.770000
 20
6752375.020000
 30
0.000000
  0
VERTEX
  8
1SUBDSECT
  5
4037
 10
499568.910000
 20
6752384.530000
 30
0.000000
  0
VERTEX
  8
1SUBDSECT
  5
4038
 10
499562.340000
 20
6752443.280000
 30
0.000000
  0
VERTEX
  8
1SUBDSECT
  5
4039
 10
499564.150000
 20
6752483.040000
 30
0.000000
  0
VERTEX
  8
1SUBDSECT
  5
403a
 10
499563.140000
 20
6752524.290000
 30
0.000000
  0
VERTEX
  8
1SUBDSECT
  5
403b
 10
499565.140000
 20
6752551.540000
 30
0.000000
  0
VERTEX
  8
1SUBDSECT
  5
403c
 10
499562.940000
 20
6752582.720000
 30
0.000000
  0
VERTEX
  8
1SUBDSECT
  5
403d
 10
499561.180000
 20
6752599.530000
 30
0.000000
  0
VERTEX
  8
1SUBDSECT
  5
403e
 10
499562.130000
 20
6752646.880000
 30
0.000000
  0
VERTEX
  8
1SUBDSECT
  5
403f
 10
499562.600000
 20
6752686.500000
 30
0.000000
  0
VERTEX
  8
1SUBDSECT
  5
4040
 10
499562.320000
 20
6752702.830000
 30
0.000000
  0
VERTEX
  8
1SUBDSECT
  5
4041
 10
499551.240000
 20
6752743.580000
 30
0.000000
  0
VERTEX
  8
1SUBDSECT
  5
4042
 10
499544.710000
 20
6752778.100000
 30
0.000000
  0
VERTEX
  8
1SUBDSECT
  5
4043
 10
499588.380000
 20
6752772.560000
 30
0.000000
  0
VERTEX
  8
1SUBDSECT
  5
4044
 10
499620.740000
 20
6752771.750000
 30
0.000000
  0
VERTEX
  8
1SUBDSECT
  5
4045
 10
499638.920000
 20
6752768.190000
 30
0.000000
  0
VERTEX
  8
1SUBDSECT
  5
4046
 10
499715.240000
 20
6752732.230000
 30
0.000000
  0
VERTEX
  8
1SUBDSECT
  5
4047
 10
499749.680000
 20
6752714.560000
 30
0.000000
  0
VERTEX
  8
1SUBDSECT
  5
4048
 10
499776.460000
 20
6752697.470000
 30
0.000000
  0
VERTEX
  8
1SUBDSECT
  5
4049
 10
499785.890000
 20
6752694.290000
 30
0.000000
  0
VERTEX
  8
1SUBDSECT
  5
404a
 10
499844.950000
 20
6752683.180000
 30
0.000000
  0
VERTEX
  8
1SUBDSECT
  5
404b
 10
499859.610000
 20
6752680.210000
 30
0.000000
  0
VERTEX
  8
1SUBDSECT
  5
404c
 10
499909.190000
 20
6752666.500000
 30
0.000000
  0
VERTEX
  8
1SUBDSECT
  5
404d
 10
499937.460000
 20
6752656.090000
 30
0.000000
  0
VERTEX
  8
1SUBDSECT
  5
404e
 10
499973.050000
 20
6752635.710000
 30
0.000000
  0
VERTEX
  8
1SUBDSECT
  5
404f
 10
499975.990000
 20
6752634.020000
 30
0.000000
  0
VERTEX
  8
1SUBDSECT
  5
4050
 10
499976.750000
 20
6752633.770000
 30
0.000000
  0
VERTEX
  8
1SUBDSECT
  5
4051
 10
499971.670000
 20
6752590.680000
 30
0.000000
  0
VERTEX
  8
1SUBDSECT
  5
4052
 10
499972.890000
 20
6752572.340000
 30
0.000000
  0
VERTEX
  8
1SUBDSECT
  5
4053
 10
499997.490000
 20
6752504.100000
 30
0.000000
  0
VERTEX
  8
1SUBDSECT
  5
4054
 10
500040.110000
 20
6752438.780000
 30
0.000000
  0
VERTEX
  8
1SUBDSECT
  5
4055
 10
500074.670000
 20
6752390.580000
 30
0.000000
  0
VERTEX
  8
1SUBDSECT
  5
4056
 10
500129.920000
 20
6752308.840000
 30
0.000000
  0
VERTEX
  8
1SUBDSECT
  5
4057
 10
500137.890000
 20
6752289.610000
 30
0.000000
  0
VERTEX
  8
1SUBDSECT
  5
4058
 10
500141.450000
 20
6752267.000000
 30
0.000000
  0
VERTEX
  8
1SUBDSECT
  5
4059
 10
500137.090000
 20
6752260.450000
 30
0.000000
  0
VERTEX
  8
1SUBDSECT
  5
405a
 10
500130.060000
 20
6752249.920000
 30
0.000000
  0
VERTEX
  8
1SUBDSECT
  5
405b
 10
500068.530000
 20
6752223.130000
 30
0.000000
  0
VERTEX
  8
1SUBDSECT
  5
405c
 10
499968.170000
 20
6752162.710000
 30
0.000000
  0
VERTEX
  8
1SUBDSECT
  5
405d
 10
499968.070000
 20
6752162.650000
 30
0.000000
  0
SEQEND
  8
1SUBDSECT
  5
405e
  0
POLYLINE
  5
405f
  8
1SECTION
 66
    1
 10
0.0
 20
0.0
 30
0.0
 70
     1
1001
IDU
1000
1870000A
  0
VERTEX
  8
1SECTION
  5
4060
 10
500745.030000
 20
6749817.040000
 30
0.000000
  0
VERTEX
  8
1SECTION
  5
4061
 10
500636.100000
 20
6749917.660000
 30
0.000000
  0
VERTEX
  8
1SECTION
  5
4062
 10
500619.500000
 20
6750060.000000
 30
0.000000
  0
VERTEX
  8
1SECTION
  5
4063
 10
500622.670000
 20
6750076.170000
 30
0.000000
  0
VERTEX
  8
1SECTION
  5
4064
 10
500642.740000
 20
6750172.560000
 30
0.000000
  0
VERTEX
  8
1SECTION
  5
4065
 10
500649.190000
 20
6750191.420000
 30
0.000000
  0
VERTEX
  8
1SECTION
  5
4066
 10
500675.760000
 20
6750268.310000
 30
0.000000
  0
VERTEX
  8
1SECTION
  5
4067
 10
500677.950000
 20
6750281.280000
 30
0.000000
  0
VERTEX
  8
1SECTION
  5
4068
 10
500684.280000
 20
6750323.090000
 30
0.000000
  0
VERTEX
  8
1SECTION
  5
4069
 10
500672.730000
 20
6750359.760000
 30
0.000000
  0
VERTEX
  8
1SECTION
  5
406a
 10
500690.150000
 20
6750420.540000
 30
0.000000
  0
VERTEX
  8
1SECTION
  5
406b
 10
500702.600000
 20
6750450.280000
 30
0.000000
  0
VERTEX
  8
1SECTION
  5
406c
 10
500720.610000
 20
6750473.770000
 30
0.000000
  0
VERTEX
  8
1SECTION
  5
406d
 10
500739.110000
 20
6750517.230000
 30
0.000000
  0
VERTEX
  8
1SECTION
  5
406e
 10
500759.650000
 20
6750564.830000
 30
0.000000
  0
VERTEX
  8
1SECTION
  5
406f
 10
500767.610000
 20
6750587.900000
 30
0.000000
  0
VERTEX
  8
1SECTION
  5
4070
 10
500775.230000
 20
6750622.160000
 30
0.000000
  0
VERTEX
  8
1SECTION
  5
4071
 10
500778.340000
 20
6750641.210000
 30
0.000000
  0
VERTEX
  8
1SECTION
  5
4072
 10
500781.130000
 20
6750659.610000
 30
0.000000
  0
VERTEX
  8
1SECTION
  5
4073
 10
500782.100000
 20
6750666.800000
 30
0.000000
  0
VERTEX
  8
1SECTION
  5
4074
 10
500799.430000
 20
6750734.760000
 30
0.000000
  0
VERTEX
  8
1SECTION
  5
4075
 10
500802.540000
 20
6750733.990000
 30
0.000000
  0
VERTEX
  8
1SECTION
  5
4076
 10
500818.790000
 20
6750730.100000
 30
0.000000
  0
VERTEX
  8
1SECTION
  5
4077
 10
500827.280000
 20
6750728.060000
 30
0.000000
  0
VERTEX
  8
1SECTION
  5
4078
 10
500829.090000
 20
6750727.560000
 30
0.000000
  0
VERTEX
  8
1SECTION
  5
4079
 10
500828.150000
 20
6750723.980000
 30
0.000000
  0
VERTEX
  8
1SECTION
  5
407a
 10
500828.130000
 20
6750723.930000
 30
0.000000
  0
VERTEX
  8
1SECTION
  5
407b
 10
500826.860000
 20
6750719.840000
 30
0.000000
  0
VERTEX
  8
1SECTION
  5
407c
 10
500826.940000
 20
6750719.040000
 30
0.000000
  0
VERTEX
  8
1SECTION
  5
407d
 10
500827.710000
 20
6750715.290000
 30
0.000000
  0
VERTEX
  8
1SECTION
  5
407e
 10
500826.410000
 20
6750705.940000
 30
0.000000
  0
VERTEX
  8
1SECTION
  5
407f
 10
500838.990000
 20
6750703.500000
 30
0.000000
  0
VERTEX
  8
1SECTION
  5
4080
 10
500844.680000
 20
6750702.260000
 30
0.000000
  0
VERTEX
  8
1SECTION
  5
4081
 10
500869.230000
 20
6750696.820000
 30
0.000000
  0
VERTEX
  8
1SECTION
  5
4082
 10
500877.420000
 20
6750719.880000
 30
0.000000
  0
VERTEX
  8
1SECTION
  5
4083
 10
500882.100000
 20
6750737.420000
 30
0.000000
  0
VERTEX
  8
1SECTION
  5
4084
 10
500886.660000
 20
6750756.690000
 30
0.000000
  0
VERTEX
  8
1SECTION
  5
4085
 10
500890.410000
 20
6750757.140000
 30
0.000000
  0
VERTEX
  8
1SECTION
  5
4086
 10
500905.830000
 20
6750758.520000
 30
0.000000
  0
VERTEX
  8
1SECTION
  5
4087
 10
500915.050000
 20
6750759.580000
 30
0.000000
  0
VERTEX
  8
1SECTION
  5
4088
 10
500923.910000
 20
6750761.330000
 30
0.000000
  0
VERTEX
  8
1SECTION
  5
4089
 10
500937.870000
 20
6750764.590000
 30
0.000000
  0
VERTEX
  8
1SECTION
  5
408a
 10
500946.830000
 20
6750767.030000
 30
0.000000
  0
VERTEX
  8
1SECTION
  5
408b
 10
500951.420000
 20
6750768.660000
 30
0.000000
  0
VERTEX
  8
1SECTION
  5
408c
 10
500957.060000
 20
6750762.070000
 30
0.000000
  0
VERTEX
  8
1SECTION
  5
408d
 10
500958.020000
 20
6750761.140000
 30
0.000000
  0
VERTEX
  8
1SECTION
  5
408e
 10
500960.250000
 20
6750759.890000
 30
0.000000
  0
VERTEX
  8
1SECTION
  5
408f
 10
500967.420000
 20
6750760.610000
 30
0.000000
  0
VERTEX
  8
1SECTION
  5
4090
 10
500972.510000
 20
6750761.040000
 30
0.000000
  0
VERTEX
  8
1SECTION
  5
4091
 10
500984.510000
 20
6750761.770000
 30
0.000000
  0
VERTEX
  8
1SECTION
  5
4092
 10
501003.310000
 20
6750761.080000
 30
0.000000
  0
VERTEX
  8
1SECTION
  5
4093
 10
501009.600000
 20
6750760.910000
 30
0.000000
  0
VERTEX
  8
1SECTION
  5
4094
 10
501028.880000
 20
6750760.540000
 30
0.000000
  0
VERTEX
  8
1SECTION
  5
4095
 10
501039.200000
 20
6750760.510000
 30
0.000000
  0
VERTEX
  8
1SECTION
  5
4096
 10
501048.430000
 20
6750761.690000
 30
0.000000
  0
VERTEX
  8
1SECTION
  5
4097
 10
501056.920000
 20
6750762.080000
 30
0.000000
  0
VERTEX
  8
1SECTION
  5
4098
 10
501072.260000
 20
6750757.690000
 30
0.000000
  0
VERTEX
  8
1SECTION
  5
4099
 10
501080.560000
 20
6750754.090000
 30
0.000000
  0
VERTEX
  8
1SECTION
  5
409a
 10
501084.740000
 20
6750752.500000
 30
0.000000
  0
VERTEX
  8
1SECTION
  5
409b
 10
501083.150000
 20
6750715.490000
 30
0.000000
  0
VERTEX
  8
1SECTION
  5
409c
 10
501079.910000
 20
6750650.560000
 30
0.000000
  0
VERTEX
  8
1SECTION
  5
409d
 10
501088.780000
 20
6750578.670000
 30
0.000000
  0
VERTEX
  8
1SECTION
  5
409e
 10
501088.910000
 20
6750574.950000
 30
0.000000
  0
VERTEX
  8
1SECTION
  5
409f
 10
501083.770000
 20
6750498.610000
 30
0.000000
  0
VERTEX
  8
1SECTION
  5
40a0
 10
501082.530000
 20
6750490.390000
 30
0.000000
  0
VERTEX
  8
1SECTION
  5
40a1
 10
501047.360000
 20
6750338.550000
 30
0.000000
  0
VERTEX
  8
1SECTION
  5
40a2
 10
501022.960000
 20
6750162.630000
 30
0.000000
  0
VERTEX
  8
1SECTION
  5
40a3
 10
501022.410000
 20
6750156.710000
 30
0.000000
  0
VERTEX
  8
1SECTION
  5
40a4
 10
501017.770000
 20
6750072.100000
 30
0.000000
  0
VERTEX
  8
1SECTION
  5
40a5
 10
501013.730000
 20
6750071.770000
 30
0.000000
  0
VERTEX
  8
1SECTION
  5
40a6
 10
501007.910000
 20
6750071.620000
 30
0.000000
  0
VERTEX
  8
1SECTION
  5
40a7
 10
500996.150000
 20
6750071.130000
 30
0.000000
  0
VERTEX
  8
1SECTION
  5
40a8
 10
500991.280000
 20
6750070.960000
 30
0.000000
  0
VERTEX
  8
1SECTION
  5
40a9
 10
500984.900000
 20
6750070.680000
 30
0.000000
  0
VERTEX
  8
1SECTION
  5
40aa
 10
500978.230000
 20
6750070.520000
 30
0.000000
  0
VERTEX
  8
1SECTION
  5
40ab
 10
500975.560000
 20
6750070.450000
 30
0.000000
  0
VERTEX
  8
1SECTION
  5
40ac
 10
500974.160000
 20
6750070.360000
 30
0.000000
  0
VERTEX
  8
1SECTION
  5
40ad
 10
500968.620000
 20
6750070.110000
 30
0.000000
  0
VERTEX
  8
1SECTION
  5
40ae
 10
500961.850000
 20
6750069.820000
 30
0.000000
  0
VERTEX
  8
1SECTION
  5
40af
 10
500952.520000
 20
6750069.420000
 30
0.000000
  0
VERTEX
  8
1SECTION
  5
40b0
 10
500936.850000
 20
6750068.850000
 30
0.000000
  0
VERTEX
  8
1SECTION
  5
40b1
 10
500932.540000
 20
6750068.660000
 30
0.000000
  0
VERTEX
  8
1SECTION
  5
40b2
 10
500923.910000
 20
6750068.220000
 30
0.000000
  0
VERTEX
  8
1SECTION
  5
40b3
 10
500920.560000
 20
6750090.450000
 30
0.000000
  0
VERTEX
  8
1SECTION
  5
40b4
 10
500922.490000
 20
6750091.700000
 30
0.000000
  0
VERTEX
  8
1SECTION
  5
40b5
 10
500923.950000
 20
6750092.680000
 30
0.000000
  0
VERTEX
  8
1SECTION
  5
40b6
 10
500932.100000
 20
6750094.570000
 30
0.000000
  0
VERTEX
  8
1SECTION
  5
40b7
 10
500925.200000
 20
6750108.130000
 30
0.000000
  0
VERTEX
  8
1SECTION
  5
40b8
 10
500922.900000
 20
6750112.670000
 30
0.000000
  0
VERTEX
  8
1SECTION
  5
40b9
 10
500905.880000
 20
6750103.720000
 30
0.000000
  0
VERTEX
  8
1SECTION
  5
40ba
 10
500904.670000
 20
6750097.240000
 30
0.000000
  0
VERTEX
  8
1SECTION
  5
40bb
 10
500896.440000
 20
6750097.440000
 30
0.000000
  0
VERTEX
  8
1SECTION
  5
40bc
 10
500895.090000
 20
6750097.460000
 30
0.000000
  0
VERTEX
  8
1SECTION
  5
40bd
 10
500884.590000
 20
6750097.720000
 30
0.000000
  0
VERTEX
  8
1SECTION
  5
40be
 10
500876.360000
 20
6750097.890000
 30
0.000000
  0
VERTEX
  8
1SECTION
  5
40bf
 10
500869.780000
 20
6750098.030000
 30
0.000000
  0
VERTEX
  8
1SECTION
  5
40c0
 10
500856.800000
 20
6750098.240000
 30
0.000000
  0
VERTEX
  8
1SECTION
  5
40c1
 10
500854.830000
 20
6750098.250000
 30
0.000000
  0
VERTEX
  8
1SECTION
  5
40c2
 10
500832.290000
 20
6750098.510000
 30
0.000000
  0
VERTEX
  8
1SECTION
  5
40c3
 10
500828.910000
 20
6750098.720000
 30
0.000000
  0
VERTEX
  8
1SECTION
  5
40c4
 10
500807.450000
 20
6750098.440000
 30
0.000000
  0
VERTEX
  8
1SECTION
  5
40c5
 10
500803.800000
 20
6750097.520000
 30
0.000000
  0
VERTEX
  8
1SECTION
  5
40c6
 10
500799.760000
 20
6750096.500000
 30
0.000000
  0
VERTEX
  8
1SECTION
  5
40c7
 10
500801.110000
 20
6750084.420000
 30
0.000000
  0
VERTEX
  8
1SECTION
  5
40c8
 10
500802.170000
 20
6750075.370000
 30
0.000000
  0
VERTEX
  8
1SECTION
  5
40c9
 10
500802.960000
 20
6750069.120000
 30
0.000000
  0
VERTEX
  8
1SECTION
  5
40ca
 10
500804.370000
 20
6750056.070000
 30
0.000000
  0
VERTEX
  8
1SECTION
  5
40cb
 10
500806.220000
 20
6750042.670000
 30
0.000000
  0
VERTEX
  8
1SECTION
  5
40cc
 10
500806.490000
 20
6750040.830000
 30
0.000000
  0
VERTEX
  8
1SECTION
  5
40cd
 10
500807.250000
 20
6750035.170000
 30
0.000000
  0
VERTEX
  8
1SECTION
  5
40ce
 10
500808.880000
 20
6750027.430000
 30
0.000000
  0
VERTEX
  8
1SECTION
  5
40cf
 10
500809.480000
 20
6750024.800000
 30
0.000000
  0
VERTEX
  8
1SECTION
  5
40d0
 10
500811.880000
 20
6750014.560000
 30
0.000000
  0
VERTEX
  8
1SECTION
  5
40d1
 10
500816.770000
 20
6749995.780000
 30
0.000000
  0
VERTEX
  8
1SECTION
  5
40d2
 10
500820.220000
 20
6749983.090000
 30
0.000000
  0
VERTEX
  8
1SECTION
  5
40d3
 10
500822.600000
 20
6749974.590000
 30
0.000000
  0
VERTEX
  8
1SECTION
  5
40d4
 10
500827.400000
 20
6749957.960000
 30
0.000000
  0
VERTEX
  8
1SECTION
  5
40d5
 10
500829.720000
 20
6749943.410000
 30
0.000000
  0
VERTEX
  8
1SECTION
  5
40d6
 10
500827.410000
 20
6749942.380000
 30
0.000000
  0
VERTEX
  8
1SECTION
  5
40d7
 10
500828.160000
 20
6749937.920000
 30
0.000000
  0
VERTEX
  8
1SECTION
  5
40d8
 10
500835.700000
 20
6749910.620000
 30
0.000000
  0
VERTEX
  8
1SECTION
  5
40d9
 10
500853.910000
 20
6749862.080000
 30
0.000000
  0
VERTEX
  8
1SECTION
  5
40da
 10
500860.620000
 20
6749828.380000
 30
0.000000
  0
VERTEX
  8
1SECTION
  5
40db
 10
500778.830000
 20
6749809.840000
 30
0.000000
  0
VERTEX
  8
1SECTION
  5
40dc
 10
500745.030000
 20
6749817.040000
 30
0.000000
  0
SEQEND
  8
1SECTION
  5
40dd
  0
POLYLINE
  5
40de
  8
1SECTION
 66
    1
 10
0.0
 20
0.0
 30
0.0
 70
     1
1001
IDU
1000
1870000A
  0
VERTEX
  8
1SECTION
  5
40df
 10
501403.600000
 20
6751352.290000
 30
0.000000
  0
VERTEX
  8
1SECTION
  5
40e0
 10
501382.880000
 20
6751367.160000
 30
0.000000
  0
VERTEX
  8
1SECTION
  5
40e1
 10
501346.150000
 20
6751404.180000
 30
0.000000
  0
VERTEX
  8
1SECTION
  5
40e2
 10
501316.180000
 20
6751441.460000
 30
0.000000
  0
VERTEX
  8
1SECTION
  5
40e3
 10
501304.990000
 20
6751455.460000
 30
0.000000
  0
VERTEX
  8
1SECTION
  5
40e4
 10
501290.220000
 20
6751475.820000
 30
0.000000
  0
VERTEX
  8
1SECTION
  5
40e5
 10
501271.080000
 20
6751494.230000
 30
0.000000
  0
VERTEX
  8
1SECTION
  5
40e6
 10
501267.680000
 20
6751497.390000
 30
0.000000
  0
VERTEX
  8
1SECTION
  5
40e7
 10
501244.690000
 20
6751517.990000
 30
0.000000
  0
VERTEX
  8
1SECTION
  5
40e8
 10
501222.180000
 20
6751541.130000
 30
0.000000
  0
VERTEX
  8
1SECTION
  5
40e9
 10
501215.750000
 20
6751547.970000
 30
0.000000
  0
VERTEX
  8
1SECTION
  5
40ea
 10
501189.320000
 20
6751577.360000
 30
0.000000
  0
VERTEX
  8
1SECTION
  5
40eb
 10
501181.030000
 20
6751594.470000
 30
0.000000
  0
VERTEX
  8
1SECTION
  5
40ec
 10
501171.330000
 20
6751615.850000
 30
0.000000
  0
VERTEX
  8
1SECTION
  5
40ed
 10
501148.600000
 20
6751667.350000
 30
0.000000
  0
VERTEX
  8
1SECTION
  5
40ee
 10
501134.660000
 20
6751682.340000
 30
0.000000
  0
VERTEX
  8
1SECTION
  5
40ef
 10
501090.800000
 20
6751704.000000
 30
0.000000
  0
VERTEX
  8
1SECTION
  5
40f0
 10
501068.290000
 20
6751715.510000
 30
0.000000
  0
VERTEX
  8
1SECTION
  5
40f1
 10
501047.150000
 20
6751726.210000
 30
0.000000
  0
VERTEX
  8
1SECTION
  5
40f2
 10
500997.390000
 20
6751763.840000
 30
0.000000
  0
VERTEX
  8
1SECTION
  5
40f3
 10
500966.820000
 20
6751807.390000
 30
0.000000
  0
VERTEX
  8
1SECTION
  5
40f4
 10
500948.060000
 20
6751838.860000
 30
0.000000
  0
VERTEX
  8
1SECTION
  5
40f5
 10
500917.670000
 20
6751882.900000
 30
0.000000
  0
VERTEX
  8
1SECTION
  5
40f6
 10
500901.550000
 20
6751899.360000
 30
0.000000
  0
VERTEX
  8
1SECTION
  5
40f7
 10
500893.420000
 20
6751914.610000
 30
0.000000
  0
VERTEX
  8
1SECTION
  5
40f8
 10
500881.170000
 20
6751937.700000
 30
0.000000
  0
VERTEX
  8
1SECTION
  5
40f9
 10
500869.130000
 20
6751964.720000
 30
0.000000
  0
VERTEX
  8
1SECTION
  5
40fa
 10
500864.550000
 20
6751969.190000
 30
0.000000
  0
VERTEX
  8
1SECTION
  5
40fb
 10
500831.890000
 20
6752000.150000
 30
0.000000
  0
VERTEX
  8
1SECTION
  5
40fc
 10
500771.540000
 20
6752043.530000
 30
0.000000
  0
VERTEX
  8
1SECTION
  5
40fd
 10
500765.170000
 20
6752051.560000
 30
0.000000
  0
VERTEX
  8
1SECTION
  5
40fe
 10
500765.080000
 20
6752051.680000
 30
0.000000
  0
VERTEX
  8
1SECTION
  5
40ff
 10
500738.480000
 20
6752083.980000
 30
0.000000
  0
VERTEX
  8
1SECTION
  5
4100
 10
500730.490000
 20
6752092.820000
 30
0.000000
  0
VERTEX
  8
1SECTION
  5
4101
 10
500692.810000
 20
6752137.530000
 30
0.000000
  0
VERTEX
  8
1SECTION
  5
4102
 10
500689.870000
 20
6752141.880000
 30
0.000000
  0
VERTEX
  8
1SECTION
  5
4103
 10
500684.950000
 20
6752149.610000
 30
0.000000
  0
VERTEX
  8
1SECTION
  5
4104
 10
500683.480000
 20
6752155.330000
 30
0.000000
  0
VERTEX
  8
1SECTION
  5
4105
 10
500676.740000
 20
6752181.780000
 30
0.000000
  0
VERTEX
  8
1SECTION
  5
4106
 10
500671.070000
 20
6752197.640000
 30
0.000000
  0
VERTEX
  8
1SECTION
  5
4107
 10
500663.950000
 20
6752225.710000
 30
0.000000
  0
VERTEX
  8
1SECTION
  5
4108
 10
500654.820000
 20
6752250.470000
 30
0.000000
  0
VERTEX
  8
1SECTION
  5
4109
 10
500636.620000
 20
6752280.100000
 30
0.000000
  0
VERTEX
  8
1SECTION
  5
410a
 10
500610.020000
 20
6752306.070000
 30
0.000000
  0
VERTEX
  8
1SECTION
  5
410b
 10
500587.960000
 20
6752321.690000
 30
0.000000
  0
VERTEX
  8
1SECTION
  5
410c
 10
500564.120000
 20
6752330.790000
 30
0.000000
  0
VERTEX
  8
1SECTION
  5
410d
 10
500504.730000
 20
6752346.810000
 30
0.000000
  0
VERTEX
  8
1SECTION
  5
410e
 10
500460.010000
 20
6752365.220000
 30
0.000000
  0
VERTEX
  8
1SECTION
  5
410f
 10
500407.130000
 20
6752389.950000
 30
0.000000
  0
VERTEX
  8
1SECTION
  5
4110
 10
500333.800000
 20
6752361.960000
 30
0.000000
  0
VERTEX
  8
1SECTION
  5
4111
 10
500308.360000
 20
6752352.230000
 30
0.000000
  0
VERTEX
  8
1SECTION
  5
4112
 10
500259.010000
 20
6752334.190000
 30
0.000000
  0
VERTEX
  8
1SECTION
  5
4113
 10
500194.390000
 20
6752302.910000
 30
0.000000
  0
VERTEX
  8
1SECTION
  5
4114
 10
500146.310000
 20
6752274.290000
 30
0.000000
  0
VERTEX
  8
1SECTION
  5
4115
 10
500137.090000
 20
6752260.450000
 30
0.000000
  0
VERTEX
  8
1SECTION
  5
4116
 10
500130.060000
 20
6752249.920000
 30
0.000000
  0
VERTEX
  8
1SECTION
  5
4117
 10
500068.530000
 20
6752223.130000
 30
0.000000
  0
VERTEX
  8
1SECTION
  5
4118
 10
499968.170000
 20
6752162.710000
 30
0.000000
  0
VERTEX
  8
1SECTION
  5
4119
 10
499968.070000
 20
6752162.650000
 30
0.000000
  0
VERTEX
  8
1SECTION
  5
411a
 10
499963.010000
 20
6752159.680000
 30
0.000000
  0
VERTEX
  8
1SECTION
  5
411b
 10
499870.450000
 20
6752117.540000
 30
0.000000
  0
VERTEX
  8
1SECTION
  5
411c
 10
499813.950000
 20
6752084.630000
 30
0.000000
  0
VERTEX
  8
1SECTION
  5
411d
 10
499795.540000
 20
6752067.420000
 30
0.000000
  0
VERTEX
  8
1SECTION
  5
411e
 10
499775.160000
 20
6752044.010000
 30
0.000000
  0
VERTEX
  8
1SECTION
  5
411f
 10
499761.380000
 20
6752026.160000
 30
0.000000
  0
VERTEX
  8
1SECTION
  5
4120
 10
499729.080000
 20
6751983.510000
 30
0.000000
  0
VERTEX
  8
1SECTION
  5
4121
 10
499724.390000
 20
6751977.650000
 30
0.000000
  0
VERTEX
  8
1SECTION
  5
4122
 10
499708.530000
 20
6751957.990000
 30
0.000000
  0
VERTEX
  8
1SECTION
  5
4123
 10
499706.350000
 20
6751954.230000
 30
0.000000
  0
VERTEX
  8
1SECTION
  5
4124
 10
499682.950000
 20
6751909.510000
 30
0.000000
  0
VERTEX
  8
1SECTION
  5
4125
 10
499677.090000
 20
6751898.860000
 30
0.000000
  0
VERTEX
  8
1SECTION
  5
4126
 10
499631.360000
 20
6751818.410000
 30
0.000000
  0
VERTEX
  8
1SECTION
  5
4127
 10
499606.240000
 20
6751771.280000
 30
0.000000
  0
VERTEX
  8
1SECTION
  5
4128
 10
499604.610000
 20
6751768.220000
 30
0.000000
  0
VERTEX
  8
1SECTION
  5
4129
 10
499592.690000
 20
6751773.920000
 30
0.000000
  0
VERTEX
  8
1SECTION
  5
412a
 10
499554.490000
 20
6751789.420000
 30
0.000000
  0
VERTEX
  8
1SECTION
  5
412b
 10
499572.220000
 20
6751848.960000
 30
0.000000
  0
VERTEX
  8
1SECTION
  5
412c
 10
499592.480000
 20
6751919.520000
 30
0.000000
  0
VERTEX
  8
1SECTION
  5
412d
 10
499599.930000
 20
6751933.060000
 30
0.000000
  0
VERTEX
  8
1SECTION
  5
412e
 10
499604.870000
 20
6751955.010000
 30
0.000000
  0
VERTEX
  8
1SECTION
  5
412f
 10
499606.650000
 20
6752039.560000
 30
0.000000
  0
VERTEX
  8
1SECTION
  5
4130
 10
499601.160000
 20
6752131.850000
 30
0.000000
  0
VERTEX
  8
1SECTION
  5
4131
 10
499593.410000
 20
6752211.010000
 30
0.000000
  0
VERTEX
  8
1SECTION
  5
4132
 10
499593.060000
 20
6752213.560000
 30
0.000000
  0
VERTEX
  8
1SECTION
  5
4133
 10
499582.000000
 20
6752292.070000
 30
0.000000
  0
VERTEX
  8
1SECTION
  5
4134
 10
499572.770000
 20
6752375.020000
 30
0.000000
  0
VERTEX
  8
1SECTION
  5
4135
 10
499568.910000
 20
6752384.530000
 30
0.000000
  0
VERTEX
  8
1SECTION
  5
4136
 10
499562.340000
 20
6752443.280000
 30
0.000000
  0
VERTEX
  8
1SECTION
  5
4137
 10
499564.150000
 20
6752483.040000
 30
0.000000
  0
VERTEX
  8
1SECTION
  5
4138
 10
499563.140000
 20
6752524.290000
 30
0.000000
  0
VERTEX
  8
1SECTION
  5
4139
 10
499565.140000
 20
6752551.540000
 30
0.000000
  0
VERTEX
  8
1SECTION
  5
413a
 10
499562.940000
 20
6752582.720000
 30
0.000000
  0
VERTEX
  8
1SECTION
  5
413b
 10
499561.180000
 20
6752599.530000
 30
0.000000
  0
VERTEX
  8
1SECTION
  5
413c
 10
499562.130000
 20
6752646.880000
 30
0.000000
  0
VERTEX
  8
1SECTION
  5
413d
 10
499562.600000
 20
6752686.500000
 30
0.000000
  0
VERTEX
  8
1SECTION
  5
413e
 10
499562.320000
 20
6752702.830000
 30
0.000000
  0
VERTEX
  8
1SECTION
  5
413f
 10
499551.240000
 20
6752743.580000
 30
0.000000
  0
VERTEX
  8
1SECTION
  5
4140
 10
499544.710000
 20
6752778.100000
 30
0.000000
  0
VERTEX
  8
1SECTION
  5
4141
 10
499588.380000
 20
6752772.560000
 30
0.000000
  0
VERTEX
  8
1SECTION
  5
4142
 10
499620.740000
 20
6752771.750000
 30
0.000000
  0
VERTEX
  8
1SECTION
  5
4143
 10
499638.920000
 20
6752768.190000
 30
0.000000
  0
VERTEX
  8
1SECTION
  5
4144
 10
499715.240000
 20
6752732.230000
 30
0.000000
  0
VERTEX
  8
1SECTION
  5
4145
 10
499749.680000
 20
6752714.560000
 30
0.000000
  0
VERTEX
  8
1SECTION
  5
4146
 10
499776.460000
 20
6752697.470000
 30
0.000000
  0
VERTEX
  8
1SECTION
  5
4147
 10
499785.890000
 20
6752694.290000
 30
0.000000
  0
VERTEX
  8
1SECTION
  5
4148
 10
499844.950000
 20
6752683.180000
 30
0.000000
  0
VERTEX
  8
1SECTION
  5
4149
 10
499859.610000
 20
6752680.210000
 30
0.000000
  0
VERTEX
  8
1SECTION
  5
414a
 10
499909.190000
 20
6752666.500000
 30
0.000000
  0
VERTEX
  8
1SECTION
  5
414b
 10
499937.460000
 20
6752656.090000
 30
0.000000
  0
VERTEX
  8
1SECTION
  5
414c
 10
499973.050000
 20
6752635.710000
 30
0.000000
  0
VERTEX
  8
1SECTION
  5
414d
 10
499975.990000
 20
6752634.020000
 30
0.000000
  0
VERTEX
  8
1SECTION
  5
414e
 10
499994.300000
 20
6752628.150000
 30
0.000000
  0
VERTEX
  8
1SECTION
  5
414f
 10
500011.130000
 20
6752624.880000
 30
0.000000
  0
VERTEX
  8
1SECTION
  5
4150
 10
500041.100000
 20
6752625.600000
 30
0.000000
  0
VERTEX
  8
1SECTION
  5
4151
 10
500099.640000
 20
6752633.550000
 30
0.000000
  0
VERTEX
  8
1SECTION
  5
4152
 10
500122.380000
 20
6752636.470000
 30
0.000000
  0
VERTEX
  8
1SECTION
  5
4153
 10
500126.490000
 20
6752636.820000
 30
0.000000
  0
VERTEX
  8
1SECTION
  5
4154
 10
500126.350000
 20
6752638.550000
 30
0.000000
  0
VERTEX
  8
1SECTION
  5
4155
 10
500124.090000
 20
6752667.520000
 30
0.000000
  0
VERTEX
  8
1SECTION
  5
4156
 10
500117.210000
 20
6752730.350000
 30
0.000000
  0
VERTEX
  8
1SECTION
  5
4157
 10
500111.470000
 20
6752791.720000
 30
0.000000
  0
VERTEX
  8
1SECTION
  5
4158
 10
500099.170000
 20
6752907.280000
 30
0.000000
  0
VERTEX
  8
1SECTION
  5
4159
 10
500086.470000
 20
6753014.250000
 30
0.000000
  0
VERTEX
  8
1SECTION
  5
415a
 10
500081.610000
 20
6753058.890000
 30
0.000000
  0
VERTEX
  8
1SECTION
  5
415b
 10
500082.310000
 20
6753060.580000
 30
0.000000
  0
VERTEX
  8
1SECTION
  5
415c
 10
500084.700000
 20
6753061.450000
 30
0.000000
  0
VERTEX
  8
1SECTION
  5
415d
 10
500135.750000
 20
6753059.880000
 30
0.000000
  0
VERTEX
  8
1SECTION
  5
415e
 10
500166.400000
 20
6753058.750000
 30
0.000000
  0
VERTEX
  8
1SECTION
  5
415f
 10
500234.710000
 20
6753056.250000
 30
0.000000
  0
VERTEX
  8
1SECTION
  5
4160
 10
500304.990000
 20
6753053.690000
 30
0.000000
  0
VERTEX
  8
1SECTION
  5
4161
 10
500314.040000
 20
6753053.360000
 30
0.000000
  0
VERTEX
  8
1SECTION
  5
4162
 10
500375.790000
 20
6753051.840000
 30
0.000000
  0
VERTEX
  8
1SECTION
  5
4163
 10
500405.450000
 20
6753051.100000
 30
0.000000
  0
VERTEX
  8
1SECTION
  5
4164
 10
500503.020000
 20
6753044.820000
 30
0.000000
  0
VERTEX
  8
1SECTION
  5
4165
 10
500519.030000
 20
6753043.790000
 30
0.000000
  0
VERTEX
  8
1SECTION
  5
4166
 10
500625.230000
 20
6753039.910000
 30
0.000000
  0
VERTEX
  8
1SECTION
  5
4167
 10
500626.100000
 20
6753046.980000
 30
0.000000
  0
VERTEX
  8
1SECTION
  5
4168
 10
500636.710000
 20
6753038.260000
 30
0.000000
  0
VERTEX
  8
1SECTION
  5
4169
 10
500658.470000
 20
6753036.630000
 30
0.000000
  0
VERTEX
  8
1SECTION
  5
416a
 10
500693.120000
 20
6753034.040000
 30
0.000000
  0
VERTEX
  8
1SECTION
  5
416b
 10
500693.210000
 20
6753034.040000
 30
0.000000
  0
VERTEX
  8
1SECTION
  5
416c
 10
500768.010000
 20
6753032.540000
 30
0.000000
  0
VERTEX
  8
1SECTION
  5
416d
 10
500788.030000
 20
6752858.100000
 30
0.000000
  0
VERTEX
  8
1SECTION
  5
416e
 10
500820.510000
 20
6752861.100000
 30
0.000000
  0
VERTEX
  8
1SECTION
  5
416f
 10
501011.350000
 20
6752878.810000
 30
0.000000
  0
VERTEX
  8
1SECTION
  5
4170
 10
501014.680000
 20
6752879.120000
 30
0.000000
  0
VERTEX
  8
1SECTION
  5
4171
 10
501019.380000
 20
6752879.570000
 30
0.000000
  0
VERTEX
  8
1SECTION
  5
4172
 10
501116.910000
 20
6752888.810000
 30
0.000000
  0
VERTEX
  8
1SECTION
  5
4173
 10
501221.570000
 20
6752898.270000
 30
0.000000
  0
VERTEX
  8
1SECTION
  5
4174
 10
501311.160000
 20
6752906.910000
 30
0.000000
  0
VERTEX
  8
1SECTION
  5
4175
 10
501362.670000
 20
6752911.170000
 30
0.000000
  0
VERTEX
  8
1SECTION
  5
4176
 10
501379.960000
 20
6752898.050000
 30
0.000000
  0
VERTEX
  8
1SECTION
  5
4177
 10
501421.190000
 20
6752908.580000
 30
0.000000
  0
VERTEX
  8
1SECTION
  5
4178
 10
501457.600000
 20
6752916.890000
 30
0.000000
  0
VERTEX
  8
1SECTION
  5
4179
 10
501494.780000
 20
6752929.960000
 30
0.000000
  0
VERTEX
  8
1SECTION
  5
417a
 10
501521.990000
 20
6752938.580000
 30
0.000000
  0
VERTEX
  8
1SECTION
  5
417b
 10
501539.420000
 20
6752942.520000
 30
0.000000
  0
VERTEX
  8
1SECTION
  5
417c
 10
501544.140000
 20
6752921.750000
 30
0.000000
  0
VERTEX
  8
1SECTION
  5
417d
 10
501570.510000
 20
6752895.540000
 30
0.000000
  0
VERTEX
  8
1SECTION
  5
417e
 10
501573.770000
 20
6752892.300000
 30
0.000000
  0
VERTEX
  8
1SECTION
  5
417f
 10
501641.950000
 20
6752919.800000
 30
0.000000
  0
VERTEX
  8
1SECTION
  5
4180
 10
501645.430000
 20
6752920.960000
 30
0.000000
  0
VERTEX
  8
1SECTION
  5
4181
 10
501662.110000
 20
6752925.860000
 30
0.000000
  0
VERTEX
  8
1SECTION
  5
4182
 10
501693.630000
 20
6752932.330000
 30
0.000000
  0
VERTEX
  8
1SECTION
  5
4183
 10
501725.550000
 20
6752935.610000
 30
0.000000
  0
VERTEX
  8
1SECTION
  5
4184
 10
501737.080000
 20
6752937.140000
 30
0.000000
  0
VERTEX
  8
1SECTION
  5
4185
 10
501742.140000
 20
6752938.080000
 30
0.000000
  0
VERTEX
  8
1SECTION
  5
4186
 10
501764.650000
 20
6752942.860000
 30
0.000000
  0
VERTEX
  8
1SECTION
  5
4187
 10
501768.480000
 20
6752943.950000
 30
0.000000
  0
VERTEX
  8
1SECTION
  5
4188
 10
501772.260000
 20
6752944.840000
 30
0.000000
  0
VERTEX
  8
1SECTION
  5
4189
 10
501772.490000
 20
6752805.260000
 30
0.000000
  0
VERTEX
  8
1SECTION
  5
418a
 10
501772.270000
 20
6752798.610000
 30
0.000000
  0
VERTEX
  8
1SECTION
  5
418b
 10
501771.420000
 20
6752784.460000
 30
0.000000
  0
VERTEX
  8
1SECTION
  5
418c
 10
501757.690000
 20
6752646.390000
 30
0.000000
  0
VERTEX
  8
1SECTION
  5
418d
 10
501747.960000
 20
6752556.550000
 30
0.000000
  0
VERTEX
  8
1SECTION
  5
418e
 10
501737.950000
 20
6752529.460000
 30
0.000000
  0
VERTEX
  8
1SECTION
  5
418f
 10
501694.330000
 20
6752414.610000
 30
0.000000
  0
VERTEX
  8
1SECTION
  5
4190
 10
501665.430000
 20
6752267.890000
 30
0.000000
  0
VERTEX
  8
1SECTION
  5
4191
 10
501629.100000
 20
6752155.770000
 30
0.000000
  0
VERTEX
  8
1SECTION
  5
4192
 10
501611.040000
 20
6752099.900000
 30
0.000000
  0
VERTEX
  8
1SECTION
  5
4193
 10
501593.520000
 20
6752021.940000
 30
0.000000
  0
VERTEX
  8
1SECTION
  5
4194
 10
501571.440000
 20
6751893.720000
 30
0.000000
  0
VERTEX
  8
1SECTION
  5
4195
 10
501552.380000
 20
6751776.650000
 30
0.000000
  0
VERTEX
  8
1SECTION
  5
4196
 10
501556.150000
 20
6751766.270000
 30
0.000000
  0
VERTEX
  8
1SECTION
  5
4197
 10
501565.750000
 20
6751746.530000
 30
0.000000
  0
VERTEX
  8
1SECTION
  5
4198
 10
501591.490000
 20
6751726.090000
 30
0.000000
  0
VERTEX
  8
1SECTION
  5
4199
 10
501641.860000
 20
6751687.100000
 30
0.000000
  0
VERTEX
  8
1SECTION
  5
419a
 10
501686.410000
 20
6751565.850000
 30
0.000000
  0
VERTEX
  8
1SECTION
  5
419b
 10
501619.560000
 20
6751485.380000
 30
0.000000
  0
VERTEX
  8
1SECTION
  5
419c
 10
501466.510000
 20
6751367.590000
 30
0.000000
  0
VERTEX
  8
1SECTION
  5
419d
 10
501427.410000
 20
6751327.550000
 30
0.000000
  0
VERTEX
  8
1SECTION
  5
419e
 10
501403.600000
 20
6751352.290000
 30
0.000000
  0
SEQEND
  8
1SECTION
  5
419f
  0
TEXT
  5
41a0
  8
3SECTIONTEX
  10
500903.030000
  20
6752569.920000
  30
0.000000
  40
1.500000
   1
0A
  50
0.000000
   7
STANDARD
  0
POLYLINE
  5
41a1
  8
1LIEUDIT
 66
    1
 10
0.0
 20
0.0
 30
0.0
 70
     1
  0
VERTEX
  8
1LIEUDIT
  5
41a2
 10
499592.690000
 20
6751773.920000
 30
0.000000
  0
VERTEX
  8
1LIEUDIT
  5
41a3
 10
499554.490000
 20
6751789.420000
 30
0.000000
  0
VERTEX
  8
1LIEUDIT
  5
41a4
 10
499572.220000
 20
6751848.960000
 30
0.000000
  0
VERTEX
  8
1LIEUDIT
  5
41a5
 10
499592.480000
 20
6751919.520000
 30
0.000000
  0
VERTEX
  8
1LIEUDIT
  5
41a6
 10
499599.930000
 20
6751933.060000
 30
0.000000
  0
VERTEX
  8
1LIEUDIT
  5
41a7
 10
499604.870000
 20
6751955.010000
 30
0.000000
  0
VERTEX
  8
1LIEUDIT
  5
41a8
 10
499606.650000
 20
6752039.560000
 30
0.000000
  0
VERTEX
  8
1LIEUDIT
  5
41a9
 10
499601.160000
 20
6752131.850000
 30
0.000000
  0
VERTEX
  8
1LIEUDIT
  5
41aa
 10
499593.410000
 20
6752211.010000
 30
0.000000
  0
VERTEX
  8
1LIEUDIT
  5
41ab
 10
499593.060000
 20
6752213.560000
 30
0.000000
  0
VERTEX
  8
1LIEUDIT
  5
41ac
 10
499582.000000
 20
6752292.070000
 30
0.000000
  0
VERTEX
  8
1LIEUDIT
  5
41ad
 10
499572.770000
 20
6752375.020000
 30
0.000000
  0
VERTEX
  8
1LIEUDIT
  5
41ae
 10
499568.910000
 20
6752384.530000
 30
0.000000
  0
VERTEX
  8
1LIEUDIT
  5
41af
 10
499562.340000
 20
6752443.280000
 30
0.000000
  0
VERTEX
  8
1LIEUDIT
  5
41b0
 10
499564.150000
 20
6752483.040000
 30
0.000000
  0
VERTEX
  8
1LIEUDIT
  5
41b1
 10
499563.140000
 20
6752524.290000
 30
0.000000
  0
VERTEX
  8
1LIEUDIT
  5
41b2
 10
499565.140000
 20
6752551.540000
 30
0.000000
  0
VERTEX
  8
1LIEUDIT
  5
41b3
 10
499562.940000
 20
6752582.720000
 30
0.000000
  0
VERTEX
  8
1LIEUDIT
  5
41b4
 10
499561.180000
 20
6752599.530000
 30
0.000000
  0
VERTEX
  8
1LIEUDIT
  5
41b5
 10
499562.130000
 20
6752646.880000
 30
0.000000
  0
VERTEX
  8
1LIEUDIT
  5
41b6
 10
499562.600000
 20
6752686.500000
 30
0.000000
  0
VERTEX
  8
1LIEUDIT
  5
41b7
 10
499562.320000
 20
6752702.830000
 30
0.000000
  0
VERTEX
  8
1LIEUDIT
  5
41b8
 10
499551.240000
 20
6752743.580000
 30
0.000000
  0
VERTEX
  8
1LIEUDIT
  5
41b9
 10
499544.710000
 20
6752778.100000
 30
0.000000
  0
VERTEX
  8
1LIEUDIT
  5
41ba
 10
499588.380000
 20
6752772.560000
 30
0.000000
  0
VERTEX
  8
1LIEUDIT
  5
41bb
 10
499620.740000
 20
6752771.750000
 30
0.000000
  0
VERTEX
  8
1LIEUDIT
  5
41bc
 10
499638.920000
 20
6752768.190000
 30
0.000000
  0
VERTEX
  8
1LIEUDIT
  5
41bd
 10
499715.240000
 20
6752732.230000
 30
0.000000
  0
VERTEX
  8
1LIEUDIT
  5
41be
 10
499749.680000
 20
6752714.560000
 30
0.000000
  0
VERTEX
  8
1LIEUDIT
  5
41bf
 10
499776.460000
 20
6752697.470000
 30
0.000000
  0
VERTEX
  8
1LIEUDIT
  5
41c0
 10
499785.890000
 20
6752694.290000
 30
0.000000
  0
VERTEX
  8
1LIEUDIT
  5
41c1
 10
499844.950000
 20
6752683.180000
 30
0.000000
  0
VERTEX
  8
1LIEUDIT
  5
41c2
 10
499859.610000
 20
6752680.210000
 30
0.000000
  0
VERTEX
  8
1LIEUDIT
  5
41c3
 10
499909.190000
 20
6752666.500000
 30
0.000000
  0
VERTEX
  8
1LIEUDIT
  5
41c4
 10
499937.460000
 20
6752656.090000
 30
0.000000
  0
VERTEX
  8
1LIEUDIT
  5
41c5
 10
499973.050000
 20
6752635.710000
 30
0.000000
  0
VERTEX
  8
1LIEUDIT
  5
41c6
 10
499972.780000
 20
6752634.090000
 30
0.000000
  0
VERTEX
  8
1LIEUDIT
  5
41c7
 10
499968.090000
 20
6752605.930000
 30
0.000000
  0
VERTEX
  8
1LIEUDIT
  5
41c8
 10
499967.300000
 20
6752591.700000
 30
0.000000
  0
VERTEX
  8
1LIEUDIT
  5
41c9
 10
499966.970000
 20
6752585.670000
 30
0.000000
  0
VERTEX
  8
1LIEUDIT
  5
41ca
 10
499967.440000
 20
6752576.820000
 30
0.000000
  0
VERTEX
  8
1LIEUDIT
  5
41cb
 10
499971.780000
 20
6752560.410000
 30
0.000000
  0
VERTEX
  8
1LIEUDIT
  5
41cc
 10
499974.170000
 20
6752553.900000
 30
0.000000
  0
VERTEX
  8
1LIEUDIT
  5
41cd
 10
499993.430000
 20
6752501.250000
 30
0.000000
  0
VERTEX
  8
1LIEUDIT
  5
41ce
 10
499990.410000
 20
6752497.870000
 30
0.000000
  0
VERTEX
  8
1LIEUDIT
  5
41cf
 10
499969.000000
 20
6752484.230000
 30
0.000000
  0
VERTEX
  8
1LIEUDIT
  5
41d0
 10
499923.750000
 20
6752449.660000
 30
0.000000
  0
VERTEX
  8
1LIEUDIT
  5
41d1
 10
499914.660000
 20
6752439.680000
 30
0.000000
  0
VERTEX
  8
1LIEUDIT
  5
41d2
 10
499904.140000
 20
6752428.120000
 30
0.000000
  0
VERTEX
  8
1LIEUDIT
  5
41d3
 10
499904.280000
 20
6752423.890000
 30
0.000000
  0
VERTEX
  8
1LIEUDIT
  5
41d4
 10
499908.420000
 20
6752285.810000
 30
0.000000
  0
VERTEX
  8
1LIEUDIT
  5
41d5
 10
499959.670000
 20
6752292.560000
 30
0.000000
  0
VERTEX
  8
1LIEUDIT
  5
41d6
 10
499963.190000
 20
6752230.200000
 30
0.000000
  0
VERTEX
  8
1LIEUDIT
  5
41d7
 10
499966.740000
 20
6752167.230000
 30
0.000000
  0
VERTEX
  8
1LIEUDIT
  5
41d8
 10
499968.070000
 20
6752162.650000
 30
0.000000
  0
VERTEX
  8
1LIEUDIT
  5
41d9
 10
499963.010000
 20
6752159.680000
 30
0.000000
  0
VERTEX
  8
1LIEUDIT
  5
41da
 10
499870.450000
 20
6752117.540000
 30
0.000000
  0
VERTEX
  8
1LIEUDIT
  5
41db
 10
499813.950000
 20
6752084.630000
 30
0.000000
  0
VERTEX
  8
1LIEUDIT
  5
41dc
 10
499795.540000
 20
6752067.420000
 30
0.000000
  0
VERTEX
  8
1LIEUDIT
  5
41dd
 10
499775.160000
 20
6752044.010000
 30
0.000000
  0
VERTEX
  8
1LIEUDIT
  5
41de
 10
499761.380000
 20
6752026.160000
 30
0.000000
  0
VERTEX
  8
1LIEUDIT
  5
41df
 10
499729.080000
 20
6751983.510000
 30
0.000000
  0
VERTEX
  8
1LIEUDIT
  5
41e0
 10
499724.390000
 20
6751977.650000
 30
0.000000
  0
VERTEX
  8
1LIEUDIT
  5
41e1
 10
499708.530000
 20
6751957.990000
 30
0.000000
  0
VERTEX
  8
1LIEUDIT
  5
41e2
 10
499706.350000
 20
6751954.230000
 30
0.000000
  0
VERTEX
  8
1LIEUDIT
  5
41e3
 10
499682.950000
 20
6751909.510000
 30
0.000000
  0
VERTEX
  8
1LIEUDIT
  5
41e4
 10
499677.090000
 20
6751898.860000
 30
0.000000
  0
VERTEX
  8
1LIEUDIT
  5
41e5
 10
499631.360000
 20
6751818.410000
 30
0.000000
  0
VERTEX
  8
1LIEUDIT
  5
41e6
 10
499606.240000
 20
6751771.280000
 30
0.000000
  0
VERTEX
  8
1LIEUDIT
  5
41e7
 10
499604.610000
 20
6751768.220000
 30
0.000000
  0
VERTEX
  8
1LIEUDIT
  5
41e8
 10
499592.690000
 20
6751773.920000
 30
0.000000
  0
SEQEND
  8
1LIEUDIT
  5
41e9
  0
TEXT
  5
41ea
  8
3LIEUDITTEX
  10
499725.320000
  20
6752234.640000
  30
0.000000
  40
4.000000
   1
LES LANDES DE RONNE
  50
0.000000
   7
STANDARD
  0
POLYLINE
  5
41eb
  8
1ZONCOMM
 66
    1
 10
0.0
 20
0.0
 30
0.0
 70
     0
  0
VERTEX
  8
1ZONCOMM
  5
41ec
 10
499574.880000
 20
6752387.040000
 30
0.000000
  0
VERTEX
  8
1ZONCOMM
  5
41ed
 10
499668.250000
 20
6752394.950000
 30
0.000000
  0
VERTEX
  8
1ZONCOMM
  5
41ee
 10
499765.150000
 20
6752403.720000
 30
0.000000
  0
VERTEX
  8
1ZONCOMM
  5
41ef
 10
499842.220000
 20
6752409.970000
 30
0.000000
  0
VERTEX
  8
1ZONCOMM
  5
41f0
 10
499875.680000
 20
6752413.300000
 30
0.000000
  0
VERTEX
  8
1ZONCOMM
  5
41f1
 10
499888.460000
 20
6752417.030000
 30
0.000000
  0
VERTEX
  8
1ZONCOMM
  5
41f2
 10
499902.550000
 20
6752423.650000
 30
0.000000
  0
VERTEX
  8
1ZONCOMM
  5
41f3
 10
499921.030000
 20
6752445.120000
 30
0.000000
  0
VERTEX
  8
1ZONCOMM
  5
41f4
 10
499959.320000
 20
6752474.470000
 30
0.000000
  0
VERTEX
  8
1ZONCOMM
  5
41f5
 10
499987.940000
 20
6752494.730000
 30
0.000000
  0
SEQEND
  8
1ZONCOMM
  5
41f6
  0
TEXT
  5
41f7
  8
3ZONCOMMTEX
  10
499595.630000
  20
6752388.230000
  30
0.000000
  40
2.500000
   1
Chemin
  50
4.200000
   7
STANDARD
  0
TEXT
  5
41f8
  8
3ZONCOMMTEX
  10
499692.860000
  20
6752396.770000
  30
0.000000
  40
2.500000
   1
rural
  50
4.800000
   7
STANDARD
  0
TEXT
  5
41f9
  8
3ZONCOMMTEX
  10
499766.000000
  20
6752402.990000
  30
0.000000
  40
2.500000
   1
n5
  50
360.000000
   7
STANDARD
  0
TEXT
  5
41fa
  8
3ZONCOMMTEX
  10
499837.220000
  20
6752408.890000
  30
0.000000
  40
2.500000
   1
dit
  50
360.000000
   7
STANDARD
  0
TEXT
  5
41fb
  8
3ZONCOMMTEX
  10
499890.050000
  20
6752416.630000
  30
0.000000
  40
2.500000
   1
des
  50
33.200000
   7
STANDARD
  0
TEXT
  5
41fc
  8
3ZONCOMMTEX
  10
499929.820000
  20
6752450.500000
  30
0.000000
  40
2.500000
   1
Landes
  50
35.400000
   7
STANDARD
  0
TEXT
  5
41fd
  8
3ZONCOMMTEX
  10
499956.550000
  20
6752471.440000
  30
0.000000
  40
2.500000
   1
de
  50
33.800000
   7
STANDARD
  0
TEXT
  5
41fe
  8
3ZONCOMMTEX
  10
499982.140000
  20
6752489.160000
  30
0.000000
  40
2.500000
   1
Rome
  50
36.200000
   7
STANDARD
  0
POLYLINE
  5
41ff
  8
1ZONCOMM
 66
    1
 10
0.0
 20
0.0
 30
0.0
 70
     0
  0
VERTEX
  8
1ZONCOMM
  5
4200
 10
499604.610000
 20
6751768.220000
 30
0.000000
  0
VERTEX
  8
1ZONCOMM
  5
4201
 10
499606.240000
 20
6751771.280000
 30
0.000000
  0
VERTEX
  8
1ZONCOMM
  5
4202
 10
499631.360000
 20
6751818.410000
 30
0.000000
  0
VERTEX
  8
1ZONCOMM
  5
4203
 10
499677.090000
 20
6751898.860000
 30
0.000000
  0
VERTEX
  8
1ZONCOMM
  5
4204
 10
499682.950000
 20
6751909.510000
 30
0.000000
  0
VERTEX
  8
1ZONCOMM
  5
4205
 10
499706.350000
 20
6751954.230000
 30
0.000000
  0
VERTEX
  8
1ZONCOMM
  5
4206
 10
499708.530000
 20
6751957.990000
 30
0.000000
  0
VERTEX
  8
1ZONCOMM
  5
4207
 10
499724.390000
 20
6751977.650000
 30
0.000000
  0
VERTEX
  8
1ZONCOMM
  5
4208
 10
499729.080000
 20
6751983.510000
 30
0.000000
  0
VERTEX
  8
1ZONCOMM
  5
4209
 10
499761.380000
 20
6752026.160000
 30
0.000000
  0
VERTEX
  8
1ZONCOMM
  5
420a
 10
499775.160000
 20
6752044.010000
 30
0.000000
  0
VERTEX
  8
1ZONCOMM
  5
420b
 10
499795.540000
 20
6752067.420000
 30
0.000000
  0
VERTEX
  8
1ZONCOMM
  5
420c
 10
499813.950000
 20
6752084.630000
 30
0.000000
  0
VERTEX
  8
1ZONCOMM
  5
420d
 10
499870.450000
 20
6752117.540000
 30
0.000000
  0
VERTEX
  8
1ZONCOMM
  5
420e
 10
499963.010000
 20
6752159.680000
 30
0.000000
  0
VERTEX
  8
1ZONCOMM
  5
420f
 10
499968.070000
 20
6752162.650000
 30
0.000000
  0
VERTEX
  8
1ZONCOMM
  5
4210
 10
499968.170000
 20
6752162.710000
 30
0.000000
  0
VERTEX
  8
1ZONCOMM
  5
4211
 10
500068.530000
 20
6752223.130000
 30
0.000000
  0
VERTEX
  8
1ZONCOMM
  5
4212
 10
500130.060000
 20
6752249.920000
 30
0.000000
  0
VERTEX
  8
1ZONCOMM
  5
4213
 10
500137.090000
 20
6752260.450000
 30
0.000000
  0
VERTEX
  8
1ZONCOMM
  5
4214
 10
500146.310000
 20
6752274.290000
 30
0.000000
  0
VERTEX
  8
1ZONCOMM
  5
4215
 10
500194.390000
 20
6752302.910000
 30
0.000000
  0
SEQEND
  8
1ZONCOMM
  5
4216
  0
TEXT
  5
4217
  8
3ZONCOMMTEX
  10
499635.200000
  20
6751820.570000
  30
0.000000
  40
2.500000
   1
Chemin
  50
63.200000
   7
STANDARD
  0
TEXT
  5
4218
  8
3ZONCOMMTEX
  10
499683.700000
  20
6751909.020000
  30
0.000000
  40
2.500000
   1
rural
  50
60.600000
   7
STANDARD
  0
TEXT
  5
4219
  8
3ZONCOMMTEX
  10
499732.200000
  20
6751986.520000
  30
0.000000
  40
2.500000
   1
n8
  50
43.100000
   7
STANDARD
  0
TEXT
  5
421a
  8
3ZONCOMMTEX
  10
499763.080000
  20
6752025.580000
  30
0.000000
  40
2.500000
   1
de
  50
60.100000
   7
STANDARD
  0
TEXT
  5
421b
  8
3ZONCOMMTEX
  10
499794.270000
  20
6752064.630000
  30
0.000000
  40
2.500000
   1
la
  50
47.500000
   7
STANDARD
  0
TEXT
  5
421c
  8
3ZONCOMMTEX
  10
499891.350000
  20
6752125.910000
  30
0.000000
  40
2.500000
   1
Maison-neuve
  50
25.100000
   7
STANDARD
  0
TEXT
  5
421d
  8
3ZONCOMMTEX
  10
499972.680000
  20
6752163.220000
  30
0.000000
  40
2.500000
   1

  50
22.600000
   7
STANDARD
  0
TEXT
  5
421e
  8
3ZONCOMMTEX
  10
500049.590000
  20
6752209.410000
  30
0.000000
  40
2.500000
   1
la
  50
40.100000
   7
STANDARD
  0
TEXT
  5
421f
  8
3ZONCOMMTEX
  10
500148.880000
  20
6752270.980000
  30
0.000000
  40
2.500000
   1
Croix-Ollivier
  50
33.300000
   7
STANDARD
  0
POLYLINE
  5
4220
  8
1ZONCOMM
 66
    1
 10
0.0
 20
0.0
 30
0.0
 70
     0
  0
VERTEX
  8
1ZONCOMM
  5
4221
 10
499976.580000
 20
6752632.340000
 30
0.000000
  0
VERTEX
  8
1ZONCOMM
  5
4222
 10
499971.670000
 20
6752590.680000
 30
0.000000
  0
VERTEX
  8
1ZONCOMM
  5
4223
 10
499972.890000
 20
6752572.340000
 30
0.000000
  0
VERTEX
  8
1ZONCOMM
  5
4224
 10
499997.490000
 20
6752504.100000
 30
0.000000
  0
VERTEX
  8
1ZONCOMM
  5
4225
 10
500040.110000
 20
6752438.780000
 30
0.000000
  0
VERTEX
  8
1ZONCOMM
  5
4226
 10
500074.670000
 20
6752390.580000
 30
0.000000
  0
VERTEX
  8
1ZONCOMM
  5
4227
 10
500129.920000
 20
6752308.840000
 30
0.000000
  0
VERTEX
  8
1ZONCOMM
  5
4228
 10
500137.890000
 20
6752289.610000
 30
0.000000
  0
VERTEX
  8
1ZONCOMM
  5
4229
 10
500141.450000
 20
6752267.000000
 30
0.000000
  0
SEQEND
  8
1ZONCOMM
  5
422a
  0
TEXT
  5
422b
  8
3ZONCOMMTEX
  10
499975.460000
  20
6752564.450000
  30
0.000000
  40
2.500000
   1
Chemin
  50
287.500000
   7
STANDARD
  0
TEXT
  5
422c
  8
3ZONCOMMTEX
  10
500066.840000
  20
6752402.780000
  30
0.000000
  40
2.500000
   1
Vicinal
  50
303.600000
   7
STANDARD
  0
TEXT
  5
422d
  8
3ZONCOMMTEX
  10
500098.600000
  20
6752350.710000
  30
0.000000
  40
2.500000
   1
n 8
  50
306.700000
   7
STANDARD
  0
POLYLINE
  5
422e
  8
1COMM
 66
    1
 10
0.0
 20
0.0
 30
0.0
 70
     0
  0
VERTEX
  8
1COMM
  5
422f
 10
499593.060000
 20
6752213.560000
 30
0.000000
  0
VERTEX
  8
1COMM
  5
4230
 10
499593.410000
 20
6752211.010000
 30
0.000000
  0
VERTEX
  8
1COMM
  5
4231
 10
499601.160000
 20
6752131.850000
 30
0.000000
  0
VERTEX
  8
1COMM
  5
4232
 10
499606.650000
 20
6752039.560000
 30
0.000000
  0
VERTEX
  8
1COMM
  5
4233
 10
499604.870000
 20
6751955.010000
 30
0.000000
  0
VERTEX
  8
1COMM
  5
4234
 10
499599.930000
 20
6751933.060000
 30
0.000000
  0
VERTEX
  8
1COMM
  5
4235
 10
499592.480000
 20
6751919.520000
 30
0.000000
  0
VERTEX
  8
1COMM
  5
4236
 10
499572.220000
 20
6751848.960000
 30
0.000000
  0
SEQEND
  8
1COMM
  5
4237
  0
POLYLINE
  5
4238
  8
1ZONCOMM
 66
    1
 10
0.0
 20
0.0
 30
0.0
 70
     0
  0
VERTEX
  8
1ZONCOMM
  5
4239
 10
499544.710000
 20
6752778.100000
 30
0.000000
  0
VERTEX
  8
1ZONCOMM
  5
423a
 10
499588.380000
 20
6752772.560000
 30
0.000000
  0
VERTEX
  8
1ZONCOMM
  5
423b
 10
499620.740000
 20
6752771.750000
 30
0.000000
  0
VERTEX
  8
1ZONCOMM
  5
423c
 10
499638.920000
 20
6752768.190000
 30
0.000000
  0
VERTEX
  8
1ZONCOMM
  5
423d
 10
499715.240000
 20
6752732.230000
 30
0.000000
  0
VERTEX
  8
1ZONCOMM
  5
423e
 10
499749.680000
 20
6752714.560000
 30
0.000000
  0
VERTEX
  8
1ZONCOMM
  5
423f
 10
499776.460000
 20
6752697.470000
 30
0.000000
  0
VERTEX
  8
1ZONCOMM
  5
4240
 10
499785.890000
 20
6752694.290000
 30
0.000000
  0
VERTEX
  8
1ZONCOMM
  5
4241
 10
499844.950000
 20
6752683.180000
 30
0.000000
  0
VERTEX
  8
1ZONCOMM
  5
4242
 10
499859.610000
 20
6752680.210000
 30
0.000000
  0
VERTEX
  8
1ZONCOMM
  5
4243
 10
499909.190000
 20
6752666.500000
 30
0.000000
  0
VERTEX
  8
1ZONCOMM
  5
4244
 10
499937.460000
 20
6752656.090000
 30
0.000000
  0
VERTEX
  8
1ZONCOMM
  5
4245
 10
499973.050000
 20
6752635.710000
 30
0.000000
  0
SEQEND
  8
1ZONCOMM
  5
4246
  0
TEXT
  5
4247
  8
3ZONCOMMTEX
  10
499939.970000
  20
6752653.000000
  30
0.000000
  40
2.500000
   1
Grand-Luc
  50
327.800000
   7
STANDARD
  0
TEXT
  5
4248
  8
3ZONCOMMTEX
  10
499847.490000
  20
6752681.470000
  30
0.000000
  40
2.500000
   1
au
  50
347.400000
   7
STANDARD
  0
TEXT
  5
4249
  8
3ZONCOMMTEX
  10
499788.400000
  20
6752692.270000
  30
0.000000
  40
2.500000
   1
d'Ecommoy
  50
349.200000
   7
STANDARD
  0
TEXT
  5
424a
  8
3ZONCOMMTEX
  10
499759.840000
  20
6752706.720000
  30
0.000000
  40
2.500000
   1
n4
  50
328.300000
   7
STANDARD
  0
TEXT
  5
424b
  8
3ZONCOMMTEX
  10
499701.120000
  20
6752738.420000
  30
0.000000
  40
2.500000
   1
rural
  50
335.200000
   7
STANDARD
  0
TEXT
  5
424c
  8
3ZONCOMMTEX
  10
499605.750000
  20
6752771.660000
  30
0.000000
  40
2.500000
   1
Chemin
  50
0.000000
   7
STANDARD
  0
POLYLINE
  5
424d
  8
1LIEUDIT
 66
    1
 10
0.0
 20
0.0
 30
0.0
 70
     1
  0
VERTEX
  8
1LIEUDIT
  5
424e
 10
500130.060000
 20
6752249.920000
 30
0.000000
  0
VERTEX
  8
1LIEUDIT
  5
424f
 10
500068.530000
 20
6752223.130000
 30
0.000000
  0
VERTEX
  8
1LIEUDIT
  5
4250
 10
499968.170000
 20
6752162.710000
 30
0.000000
  0
VERTEX
  8
1LIEUDIT
  5
4251
 10
499968.070000
 20
6752162.650000
 30
0.000000
  0
VERTEX
  8
1LIEUDIT
  5
4252
 10
499966.740000
 20
6752167.230000
 30
0.000000
  0
VERTEX
  8
1LIEUDIT
  5
4253
 10
499963.190000
 20
6752230.200000
 30
0.000000
  0
VERTEX
  8
1LIEUDIT
  5
4254
 10
499959.670000
 20
6752292.560000
 30
0.000000
  0
VERTEX
  8
1LIEUDIT
  5
4255
 10
499908.420000
 20
6752285.810000
 30
0.000000
  0
VERTEX
  8
1LIEUDIT
  5
4256
 10
499904.280000
 20
6752423.890000
 30
0.000000
  0
VERTEX
  8
1LIEUDIT
  5
4257
 10
499904.140000
 20
6752428.120000
 30
0.000000
  0
VERTEX
  8
1LIEUDIT
  5
4258
 10
499914.660000
 20
6752439.680000
 30
0.000000
  0
VERTEX
  8
1LIEUDIT
  5
4259
 10
499923.750000
 20
6752449.660000
 30
0.000000
  0
VERTEX
  8
1LIEUDIT
  5
425a
 10
499969.000000
 20
6752484.230000
 30
0.000000
  0
VERTEX
  8
1LIEUDIT
  5
425b
 10
499990.410000
 20
6752497.870000
 30
0.000000
  0
VERTEX
  8
1LIEUDIT
  5
425c
 10
499993.430000
 20
6752501.250000
 30
0.000000
  0
VERTEX
  8
1LIEUDIT
  5
425d
 10
499997.490000
 20
6752504.100000
 30
0.000000
  0
VERTEX
  8
1LIEUDIT
  5
425e
 10
500040.110000
 20
6752438.780000
 30
0.000000
  0
VERTEX
  8
1LIEUDIT
  5
425f
 10
500074.670000
 20
6752390.580000
 30
0.000000
  0
VERTEX
  8
1LIEUDIT
  5
4260
 10
500129.920000
 20
6752308.840000
 30
0.000000
  0
VERTEX
  8
1LIEUDIT
  5
4261
 10
500137.890000
 20
6752289.610000
 30
0.000000
  0
VERTEX
  8
1LIEUDIT
  5
4262
 10
500141.450000
 20
6752267.000000
 30
0.000000
  0
VERTEX
  8
1LIEUDIT
  5
4263
 10
500137.090000
 20
6752260.450000
 30
0.000000
  0
VERTEX
  8
1LIEUDIT
  5
4264
 10
500130.060000
 20
6752249.920000
 30
0.000000
  0
SEQEND
  8
1LIEUDIT
  5
4265
  0
TEXT
  5
4266
  8
3LIEUDITTEX
  10
499958.970000
  20
6752328.190000
  30
0.000000
  40
4.000000
   1
LES-LANDES-DU-ROTIER
  50
0.000000
   7
STANDARD
  0
POLYLINE
  5
4267
  8
1COMM
 66
    1
 10
0.0
 20
0.0
 30
0.0
 70
     0
  0
VERTEX
  8
1COMM
  5
4268
 10
499937.460000
 20
6752656.090000
 30
0.000000
  0
VERTEX
  8
1COMM
  5
4269
 10
499909.190000
 20
6752666.500000
 30
0.000000
  0
VERTEX
  8
1COMM
  5
426a
 10
499859.610000
 20
6752680.210000
 30
0.000000
  0
VERTEX
  8
1COMM
  5
426b
 10
499844.950000
 20
6752683.180000
 30
0.000000
  0
VERTEX
  8
1COMM
  5
426c
 10
499785.890000
 20
6752694.290000
 30
0.000000
  0
VERTEX
  8
1COMM
  5
426d
 10
499776.460000
 20
6752697.470000
 30
0.000000
  0
VERTEX
  8
1COMM
  5
426e
 10
499749.680000
 20
6752714.560000
 30
0.000000
  0
VERTEX
  8
1COMM
  5
426f
 10
499715.240000
 20
6752732.230000
 30
0.000000
  0
VERTEX
  8
1COMM
  5
4270
 10
499638.920000
 20
6752768.190000
 30
0.000000
  0
VERTEX
  8
1COMM
  5
4271
 10
499620.740000
 20
6752771.750000
 30
0.000000
  0
VERTEX
  8
1COMM
  5
4272
 10
499588.380000
 20
6752772.560000
 30
0.000000
  0
VERTEX
  8
1COMM
  5
4273
 10
499544.710000
 20
6752778.100000
 30
0.000000
  0
SEQEND
  8
1COMM
  5
4274
  0
POLYLINE
  5
4275
  8
3CHEMIN
 66
    1
 10
0.0
 20
0.0
 30
0.0
 70
     0
  0
VERTEX
  8
3CHEMIN
  5
4276
 10
499693.310000
 20
6751991.890000
 30
0.000000
  0
VERTEX
  8
3CHEMIN
  5
4277
 10
499693.390000
 20
6751990.970000
 30
0.000000
  0
VERTEX
  8
3CHEMIN
  5
4278
 10
499701.990000
 20
6751995.350000
 30
0.000000
  0
VERTEX
  8
3CHEMIN
  5
4279
 10
499707.260000
 20
6751963.490000
 30
0.000000
  0
SEQEND
  8
3CHEMIN
  5
427a
  0
POLYLINE
  5
427b
  8
3CHEMIN
 66
    1
 10
0.0
 20
0.0
 30
0.0
 70
     0
  0
VERTEX
  8
3CHEMIN
  5
427c
 10
499709.250000
 20
6751966.560000
 30
0.000000
  0
VERTEX
  8
3CHEMIN
  5
427d
 10
499703.710000
 20
6751998.020000
 30
0.000000
  0
VERTEX
  8
3CHEMIN
  5
427e
 10
499693.250000
 20
6751993.550000
 30
0.000000
  0
SEQEND
  8
3CHEMIN
  5
427f
  0
POLYLINE
  5
4280
  8
3SENTIER
 66
    1
 10
0.0
 20
0.0
 30
0.0
 70
     0
  0
VERTEX
  8
3SENTIER
  5
4281
 10
499737.000000
 20
6752270.440000
 30
0.000000
  0
VERTEX
  8
3SENTIER
  5
4282
 10
499741.010000
 20
6752317.890000
 30
0.000000
  0
VERTEX
  8
3SENTIER
  5
4283
 10
499748.840000
 20
6752400.850000
 30
0.000000
  0
SEQEND
  8
3SENTIER
  5
4284
  0
POLYLINE
  5
4285
  8
3BATIDUR
 66
    1
 10
0.0
 20
0.0
 30
0.0
 70
     1
  0
VERTEX
  8
3BATIDUR
  5
4286
 10
499690.790000
 20
6752424.420000
 30
0.000000
  0
VERTEX
  8
3BATIDUR
  5
4287
 10
499685.690000
 20
6752424.330000
 30
0.000000
  0
VERTEX
  8
3BATIDUR
  5
4288
 10
499685.790000
 20
6752420.720000
 30
0.000000
  0
VERTEX
  8
3BATIDUR
  5
4289
 10
499690.960000
 20
6752420.760000
 30
0.000000
  0
VERTEX
  8
3BATIDUR
  5
428a
 10
499690.790000
 20
6752424.420000
 30
0.000000
  0
SEQEND
  8
3BATIDUR
  5
428b
  0
POLYLINE
  5
428c
  8
1SUBDFISC
 66
    1
 10
0.0
 20
0.0
 30
0.0
 70
     1
  0
VERTEX
  8
1SUBDFISC
  5
428d
 10
499690.790000
 20
6752424.420000
 30
0.000000
  0
VERTEX
  8
1SUBDFISC
  5
428e
 10
499685.690000
 20
6752424.330000
 30
0.000000
  0
VERTEX
  8
1SUBDFISC
  5
428f
 10
499685.790000
 20
6752420.720000
 30
0.000000
  0
VERTEX
  8
1SUBDFISC
  5
4290
 10
499690.960000
 20
6752420.760000
 30
0.000000
  0
VERTEX
  8
1SUBDFISC
  5
4291
 10
499690.790000
 20
6752424.420000
 30
0.000000
  0
SEQEND
  8
1SUBDFISC
  5
4292
  0
POLYLINE
  5
4293
  8
1SUBDFISC
 66
    1
 10
0.0
 20
0.0
 30
0.0
 70
     1
  0
VERTEX
  8
1SUBDFISC
  5
4294
 10
499707.880000
 20
6752487.610000
 30
0.000000
  0
VERTEX
  8
1SUBDFISC
  5
4295
 10
499731.800000
 20
6752490.140000
 30
0.000000
  0
VERTEX
  8
1SUBDFISC
  5
4296
 10
499743.200000
 20
6752491.340000
 30
0.000000
  0
VERTEX
  8
1SUBDFISC
  5
4297
 10
499747.900000
 20
6752404.020000
 30
0.000000
  0
VERTEX
  8
1SUBDFISC
  5
4298
 10
499712.700000
 20
6752400.680000
 30
0.000000
  0
VERTEX
  8
1SUBDFISC
  5
4299
 10
499707.880000
 20
6752487.610000
 30
0.000000
  0
SEQEND
  8
1SUBDFISC
  5
429a
  0
POLYLINE
  5
429b
  8
1TROUSUBDFISC
 66
    1
 10
0.0
 20
0.0
 30
0.0
 70
     1
  0
VERTEX
  8
1TROUSUBDFISC
  5
429c
 10
499724.450000
 20
6752447.880000
 30
0.000000
  0
VERTEX
  8
1TROUSUBDFISC
  5
429d
 10
499730.580000
 20
6752448.230000
 30
0.000000
  0
VERTEX
  8
1TROUSUBDFISC
  5
429e
 10
499730.800000
 20
6752441.560000
 30
0.000000
  0
VERTEX
  8
1TROUSUBDFISC
  5
429f
 10
499725.150000
 20
6752441.190000
 30
0.000000
  0
VERTEX
  8
1TROUSUBDFISC
  5
42a0
 10
499724.450000
 20
6752447.880000
 30
0.000000
  0
SEQEND
  8
1SUBDFISC
  5
42a1
  0
TEXT
  5
42a2
  8
3SUBDFISCTEX
  10
499736.710000
  20
6752444.500000
  30
0.000000
  40
2.000000
   1
a
  50
0.000000
   7
STANDARD
  0
POLYLINE
  5
42a3
  8
1SUBDFISC
 66
    1
 10
0.0
 20
0.0
 30
0.0
 70
     1
  0
VERTEX
  8
1SUBDFISC
  5
42a4
 10
499672.530000
 20
6752483.890000
 30
0.000000
  0
VERTEX
  8
1SUBDFISC
  5
42a5
 10
499689.490000
 20
6752485.680000
 30
0.000000
  0
VERTEX
  8
1SUBDFISC
  5
42a6
 10
499707.880000
 20
6752487.610000
 30
0.000000
  0
VERTEX
  8
1SUBDFISC
  5
42a7
 10
499712.700000
 20
6752400.680000
 30
0.000000
  0
VERTEX
  8
1SUBDFISC
  5
42a8
 10
499695.120000
 20
6752399.010000
 30
0.000000
  0
VERTEX
  8
1SUBDFISC
  5
42a9
 10
499678.390000
 20
6752397.760000
 30
0.000000
  0
VERTEX
  8
1SUBDFISC
  5
42aa
 10
499672.530000
 20
6752483.890000
 30
0.000000
  0
SEQEND
  8
1SUBDFISC
  5
42ab
  0
POLYLINE
  5
42ac
  8
1TROUSUBDFISC
 66
    1
 10
0.0
 20
0.0
 30
0.0
 70
     1
  0
VERTEX
  8
1TROUSUBDFISC
  5
42ad
 10
499685.690000
 20
6752424.330000
 30
0.000000
  0
VERTEX
  8
1TROUSUBDFISC
  5
42ae
 10
499690.790000
 20
6752424.420000
 30
0.000000
  0
VERTEX
  8
1TROUSUBDFISC
  5
42af
 10
499690.960000
 20
6752420.760000
 30
0.000000
  0
VERTEX
  8
1TROUSUBDFISC
  5
42b0
 10
499685.790000
 20
6752420.720000
 30
0.000000
  0
VERTEX
  8
1TROUSUBDFISC
  5
42b1
 10
499685.690000
 20
6752424.330000
 30
0.000000
  0
SEQEND
  8
1SUBDFISC
  5
42b2
  0
TEXT
  5
42b3
  8
3SUBDFISCTEX
  10
499694.540000
  20
6752442.820000
  30
0.000000
  40
2.000000
   1
a
  50
0.000000
   7
STANDARD
  0
POLYLINE
  5
42b4
  8
3BATIDUR
 66
    1
 10
0.0
 20
0.0
 30
0.0
 70
     1
  0
VERTEX
  8
3BATIDUR
  5
42b5
 10
499730.580000
 20
6752448.230000
 30
0.000000
  0
VERTEX
  8
3BATIDUR
  5
42b6
 10
499724.450000
 20
6752447.880000
 30
0.000000
  0
VERTEX
  8
3BATIDUR
  5
42b7
 10
499725.150000
 20
6752441.190000
 30
0.000000
  0
VERTEX
  8
3BATIDUR
  5
42b8
 10
499730.800000
 20
6752441.560000
 30
0.000000
  0
VERTEX
  8
3BATIDUR
  5
42b9
 10
499730.580000
 20
6752448.230000
 30
0.000000
  0
SEQEND
  8
3BATIDUR
  5
42ba
  0
POLYLINE
  5
42bb
  8
3BATIDUR
 66
    1
 10
0.0
 20
0.0
 30
0.0
 70
     1
  0
VERTEX
  8
3BATIDUR
  5
42bc
 10
499768.010000
 20
6752430.980000
 30
0.000000
  0
VERTEX
  8
3BATIDUR
  5
42bd
 10
499762.500000
 20
6752430.350000
 30
0.000000
  0
VERTEX
  8
3BATIDUR
  5
42be
 10
499763.010000
 20
6752426.940000
 30
0.000000
  0
VERTEX
  8
3BATIDUR
  5
42bf
 10
499768.260000
 20
6752427.370000
 30
0.000000
  0
VERTEX
  8
3BATIDUR
  5
42c0
 10
499768.010000
 20
6752430.980000
 30
0.000000
  0
SEQEND
  8
3BATIDUR
  5
42c1
  0
POLYLINE
  5
42c2
  8
1SUBDFISC
 66
    1
 10
0.0
 20
0.0
 30
0.0
 70
     1
  0
VERTEX
  8
1SUBDFISC
  5
42c3
 10
499730.580000
 20
6752448.230000
 30
0.000000
  0
VERTEX
  8
1SUBDFISC
  5
42c4
 10
499724.450000
 20
6752447.880000
 30
0.000000
  0
VERTEX
  8
1SUBDFISC
  5
42c5
 10
499725.150000
 20
6752441.190000
 30
0.000000
  0
VERTEX
  8
1SUBDFISC
  5
42c6
 10
499730.800000
 20
6752441.560000
 30
0.000000
  0
VERTEX
  8
1SUBDFISC
  5
42c7
 10
499730.580000
 20
6752448.230000
 30
0.000000
  0
SEQEND
  8
1SUBDFISC
  5
42c8
  0
POLYLINE
  5
42c9
  8
1SUBDFISC
 66
    1
 10
0.0
 20
0.0
 30
0.0
 70
     1
  0
VERTEX
  8
1SUBDFISC
  5
42ca
 10
499768.010000
 20
6752430.980000
 30
0.000000
  0
VERTEX
  8
1SUBDFISC
  5
42cb
 10
499762.500000
 20
6752430.350000
 30
0.000000
  0
VERTEX
  8
1SUBDFISC
  5
42cc
 10
499763.010000
 20
6752426.940000
 30
0.000000
  0
VERTEX
  8
1SUBDFISC
  5
42cd
 10
499768.260000
 20
6752427.370000
 30
0.000000
  0
VERTEX
  8
1SUBDFISC
  5
42ce
 10
499768.010000
 20
6752430.980000
 30
0.000000
  0
SEQEND
  8
1SUBDFISC
  5
42cf
  0
POLYLINE
  5
42d0
  8
1SUBDFISC
 66
    1
 10
0.0
 20
0.0
 30
0.0
 70
     1
  0
VERTEX
  8
1SUBDFISC
  5
42d1
 10
499743.200000
 20
6752491.340000
 30
0.000000
  0
VERTEX
  8
1SUBDFISC
  5
42d2
 10
499776.580000
 20
6752494.850000
 30
0.000000
  0
VERTEX
  8
1SUBDFISC
  5
42d3
 10
499779.200000
 20
6752495.120000
 30
0.000000
  0
VERTEX
  8
1SUBDFISC
  5
42d4
 10
499785.020000
 20
6752407.080000
 30
0.000000
  0
VERTEX
  8
1SUBDFISC
  5
42d5
 10
499781.730000
 20
6752406.910000
 30
0.000000
  0
VERTEX
  8
1SUBDFISC
  5
42d6
 10
499757.040000
 20
6752404.880000
 30
0.000000
  0
VERTEX
  8
1SUBDFISC
  5
42d7
 10
499747.900000
 20
6752404.020000
 30
0.000000
  0
VERTEX
  8
1SUBDFISC
  5
42d8
 10
499743.200000
 20
6752491.340000
 30
0.000000
  0
SEQEND
  8
1SUBDFISC
  5
42d9
  0
POLYLINE
  5
42da
  8
1TROUSUBDFISC
 66
    1
 10
0.0
 20
0.0
 30
0.0
 70
     1
  0
VERTEX
  8
1TROUSUBDFISC
  5
42db
 10
499762.500000
 20
6752430.350000
 30
0.000000
  0
VERTEX
  8
1TROUSUBDFISC
  5
42dc
 10
499768.010000
 20
6752430.980000
 30
0.000000
  0
VERTEX
  8
1TROUSUBDFISC
  5
42dd
 10
499768.260000
 20
6752427.370000
 30
0.000000
  0
VERTEX
  8
1TROUSUBDFISC
  5
42de
 10
499763.010000
 20
6752426.940000
 30
0.000000
  0
VERTEX
  8
1TROUSUBDFISC
  5
42df
 10
499762.500000
 20
6752430.350000
 30
0.000000
  0
SEQEND
  8
1SUBDFISC
  5
42e0
  0
TEXT
  5
42e1
  8
3SUBDFISCTEX
  10
499764.910000
  20
6752446.960000
  30
0.000000
  40
2.000000
   1
a
  50
0.000000
   7
STANDARD
  0
POLYLINE
  5
42e2
  8
1PARCELLE
 66
    1
 10
0.0
 20
0.0
 30
0.0
 70
     1
1001
SUPF
1000
000013875
1001
INDP
1000
01
1001
IDU
1000
1870000A0366
  0
VERTEX
  8
1PARCELLE
  5
42e3
 10
499756.100000
 20
6752272.380000
 30
0.000000
  0
VERTEX
  8
1PARCELLE
  5
42e4
 10
499761.330000
 20
6752175.650000
 30
0.000000
  0
VERTEX
  8
1PARCELLE
  5
42e5
 10
499765.930000
 20
6752098.700000
 30
0.000000
  0
VERTEX
  8
1PARCELLE
  5
42e6
 10
499769.260000
 20
6752038.960000
 30
0.000000
  0
VERTEX
  8
1PARCELLE
  5
42e7
 10
499774.800000
 20
6752045.970000
 30
0.000000
  0
VERTEX
  8
1PARCELLE
  5
42e8
 10
499788.030000
 20
6752061.530000
 30
0.000000
  0
VERTEX
  8
1PARCELLE
  5
42e9
 10
499804.880000
 20
6752079.380000
 30
0.000000
  0
VERTEX
  8
1PARCELLE
  5
42ea
 10
499819.810000
 20
6752092.450000
 30
0.000000
  0
VERTEX
  8
1PARCELLE
  5
42eb
 10
499835.460000
 20
6752100.700000
 30
0.000000
  0
VERTEX
  8
1PARCELLE
  5
42ec
 10
499819.980000
 20
6752284.390000
 30
0.000000
  0
VERTEX
  8
1PARCELLE
  5
42ed
 10
499814.140000
 20
6752284.430000
 30
0.000000
  0
VERTEX
  8
1PARCELLE
  5
42ee
 10
499797.780000
 20
6752282.030000
 30
0.000000
  0
VERTEX
  8
1PARCELLE
  5
42ef
 10
499780.000000
 20
6752278.780000
 30
0.000000
  0
VERTEX
  8
1PARCELLE
  5
42f0
 10
499756.380000
 20
6752272.390000
 30
0.000000
  0
VERTEX
  8
1PARCELLE
  5
42f1
 10
499756.100000
 20
6752272.380000
 30
0.000000
  0
SEQEND
  8
1PARCELLE
  5
42f2
  0
TEXT
  5
42f3
  8
3PARCELLETEX
  10
499802.890000
  20
6752177.960000
  30
0.000000
  40
2.000000
   1
366
  50
0.000000
   7
STANDARD
  0
POLYLINE
  5
42f4
  8
1PARCELLE
 66
    1
 10
0.0
 20
0.0
 30
0.0
 70
     1
1001
SUPF
1000
000013190
1001
INDP
1000
01
1001
IDU
1000
1870000A0365
  0
VERTEX
  8
1PARCELLE
  5
42f5
 10
499704.960000
 20
6752253.080000
 30
0.000000
  0
VERTEX
  8
1PARCELLE
  5
42f6
 10
499709.770000
 20
6752149.310000
 30
0.000000
  0
VERTEX
  8
1PARCELLE
  5
42f7
 10
499715.470000
 20
6752083.570000
 30
0.000000
  0
VERTEX
  8
1PARCELLE
  5
42f8
 10
499722.350000
 20
6752010.680000
 30
0.000000
  0
VERTEX
  8
1PARCELLE
  5
42f9
 10
499724.120000
 20
6751985.730000
 30
0.000000
  0
VERTEX
  8
1PARCELLE
  5
42fa
 10
499725.580000
 20
6751987.550000
 30
0.000000
  0
VERTEX
  8
1PARCELLE
  5
42fb
 10
499738.550000
 20
6751999.710000
 30
0.000000
  0
VERTEX
  8
1PARCELLE
  5
42fc
 10
499752.380000
 20
6752017.620000
 30
0.000000
  0
VERTEX
  8
1PARCELLE
  5
42fd
 10
499769.260000
 20
6752038.960000
 30
0.000000
  0
VERTEX
  8
1PARCELLE
  5
42fe
 10
499765.930000
 20
6752098.700000
 30
0.000000
  0
VERTEX
  8
1PARCELLE
  5
42ff
 10
499761.330000
 20
6752175.650000
 30
0.000000
  0
VERTEX
  8
1PARCELLE
  5
4300
 10
499756.100000
 20
6752272.380000
 30
0.000000
  0
VERTEX
  8
1PARCELLE
  5
4301
 10
499737.000000
 20
6752270.440000
 30
0.000000
  0
VERTEX
  8
1PARCELLE
  5
4302
 10
499736.110000
 20
6752261.810000
 30
0.000000
  0
VERTEX
  8
1PARCELLE
  5
4303
 10
499704.960000
 20
6752253.080000
 30
0.000000
  0
SEQEND
  8
1PARCELLE
  5
4304
  0
TEXT
  5
4305
  8
3PARCELLETEX
  10
499740.110000
  20
6752146.190000
  30
0.000000
  40
2.000000
   1
365
  50
0.000000
   7
STANDARD
  0
POLYLINE
  5
4306
  8
1PARCELLE
 66
    1
 10
0.0
 20
0.0
 30
0.0
 70
     1
1001
SUPF
1000
000011500
1001
INDP
1000
01
1001
IDU
1000
1870000A0362
  0
VERTEX
  8
1PARCELLE
  5
4307
 10
499688.790000
 20
6752099.470000
 30
0.000000
  0
VERTEX
  8
1PARCELLE
  5
4308
 10
499607.530000
 20
6752093.940000
 30
0.000000
  0
VERTEX
  8
1PARCELLE
  5
4309
 10
499607.970000
 20
6752086.100000
 30
0.000000
  0
VERTEX
  8
1PARCELLE
  5
430a
 10
499610.400000
 20
6752058.530000
 30
0.000000
  0
VERTEX
  8
1PARCELLE
  5
430b
 10
499610.830000
 20
6752036.270000
 30
0.000000
  0
VERTEX
  8
1PARCELLE
  5
430c
 10
499610.160000
 20
6751996.450000
 30
0.000000
  0
VERTEX
  8
1PARCELLE
  5
430d
 10
499608.770000
 20
6751960.730000
 30
0.000000
  0
VERTEX
  8
1PARCELLE
  5
430e
 10
499607.000000
 20
6751934.080000
 30
0.000000
  0
VERTEX
  8
1PARCELLE
  5
430f
 10
499607.030000
 20
6751927.410000
 30
0.000000
  0
VERTEX
  8
1PARCELLE
  5
4310
 10
499610.110000
 20
6751925.840000
 30
0.000000
  0
VERTEX
  8
1PARCELLE
  5
4311
 10
499655.720000
 20
6751961.270000
 30
0.000000
  0
VERTEX
  8
1PARCELLE
  5
4312
 10
499655.040000
 20
6751963.240000
 30
0.000000
  0
VERTEX
  8
1PARCELLE
  5
4313
 10
499687.760000
 20
6751987.260000
 30
0.000000
  0
VERTEX
  8
1PARCELLE
  5
4314
 10
499693.310000
 20
6751991.890000
 30
0.000000
  0
VERTEX
  8
1PARCELLE
  5
4315
 10
499690.680000
 20
6752069.010000
 30
0.000000
  0
VERTEX
  8
1PARCELLE
  5
4316
 10
499688.790000
 20
6752099.470000
 30
0.000000
  0
SEQEND
  8
1PARCELLE
  5
4317
  0
TEXT
  5
4318
  8
3PARCELLETEX
  10
499655.180000
  20
6752027.200000
  30
0.000000
  40
2.000000
   1
362
  50
0.000000
   7
STANDARD
  0
POLYLINE
  5
4319
  8
1PARCELLE
 66
    1
 10
0.0
 20
0.0
 30
0.0
 70
     1
1001
SUPF
1000
000007280
1001
INDP
1000
01
1001
IDU
1000
1870000A0364
  0
VERTEX
  8
1PARCELLE
  5
431a
 10
499676.870000
 20
6752245.850000
 30
0.000000
  0
VERTEX
  8
1PARCELLE
  5
431b
 10
499679.710000
 20
6752212.520000
 30
0.000000
  0
VERTEX
  8
1PARCELLE
  5
431c
 10
499685.050000
 20
6752159.770000
 30
0.000000
  0
VERTEX
  8
1PARCELLE
  5
431d
 10
499688.790000
 20
6752099.470000
 30
0.000000
  0
VERTEX
  8
1PARCELLE
  5
431e
 10
499690.680000
 20
6752069.010000
 30
0.000000
  0
VERTEX
  8
1PARCELLE
  5
431f
 10
499693.310000
 20
6751991.890000
 30
0.000000
  0
VERTEX
  8
1PARCELLE
  5
4320
 10
499702.900000
 20
6751997.070000
 30
0.000000
  0
VERTEX
  8
1PARCELLE
  5
4321
 10
499707.910000
 20
6751964.490000
 30
0.000000
  0
VERTEX
  8
1PARCELLE
  5
4322
 10
499711.630000
 20
6751970.250000
 30
0.000000
  0
VERTEX
  8
1PARCELLE
  5
4323
 10
499724.120000
 20
6751985.730000
 30
0.000000
  0
VERTEX
  8
1PARCELLE
  5
4324
 10
499722.350000
 20
6752010.680000
 30
0.000000
  0
VERTEX
  8
1PARCELLE
  5
4325
 10
499715.470000
 20
6752083.570000
 30
0.000000
  0
VERTEX
  8
1PARCELLE
  5
4326
 10
499709.770000
 20
6752149.310000
 30
0.000000
  0
VERTEX
  8
1PARCELLE
  5
4327
 10
499704.960000
 20
6752253.080000
 30
0.000000
  0
VERTEX
  8
1PARCELLE
  5
4328
 10
499704.110000
 20
6752252.850000
 30
0.000000
  0
VERTEX
  8
1PARCELLE
  5
4329
 10
499681.840000
 20
6752247.120000
 30
0.000000
  0
VERTEX
  8
1PARCELLE
  5
432a
 10
499676.870000
 20
6752245.850000
 30
0.000000
  0
SEQEND
  8
1PARCELLE
  5
432b
  0
TEXT
  5
432c
  8
3PARCELLETEX
  10
499694.830000
  20
6752128.640000
  30
0.000000
  40
2.000000
   1
364
  50
0.000000
   7
STANDARD
  0
POLYLINE
  5
432d
  8
1PARCELLE
 66
    1
 10
0.0
 20
0.0
 30
0.0
 70
     1
1001
SUPF
1000
000013440
1001
INDP
1000
01
1001
IDU
1000
1870000A0361
  0
VERTEX
  8
1PARCELLE
  5
432e
 10
499707.910000
 20
6751964.490000
 30
0.000000
  0
VERTEX
  8
1PARCELLE
  5
432f
 10
499704.270000
 20
6751958.880000
 30
0.000000
  0
VERTEX
  8
1PARCELLE
  5
4330
 10
499698.670000
 20
6751947.600000
 30
0.000000
  0
VERTEX
  8
1PARCELLE
  5
4331
 10
499682.540000
 20
6751916.230000
 30
0.000000
  0
VERTEX
  8
1PARCELLE
  5
4332
 10
499666.290000
 20
6751883.550000
 30
0.000000
  0
VERTEX
  8
1PARCELLE
  5
4333
 10
499649.300000
 20
6751855.420000
 30
0.000000
  0
VERTEX
  8
1PARCELLE
  5
4334
 10
499638.680000
 20
6751837.100000
 30
0.000000
  0
VERTEX
  8
1PARCELLE
  5
4335
 10
499622.980000
 20
6751809.650000
 30
0.000000
  0
VERTEX
  8
1PARCELLE
  5
4336
 10
499602.840000
 20
6751773.380000
 30
0.000000
  0
VERTEX
  8
1PARCELLE
  5
4337
 10
499601.120000
 20
6751772.780000
 30
0.000000
  0
VERTEX
  8
1PARCELLE
  5
4338
 10
499580.710000
 20
6751781.650000
 30
0.000000
  0
VERTEX
  8
1PARCELLE
  5
4339
 10
499562.750000
 20
6751788.330000
 30
0.000000
  0
VERTEX
  8
1PARCELLE
  5
433a
 10
499565.410000
 20
6751801.830000
 30
0.000000
  0
VERTEX
  8
1PARCELLE
  5
433b
 10
499572.730000
 20
6751832.470000
 30
0.000000
  0
VERTEX
  8
1PARCELLE
  5
433c
 10
499584.870000
 20
6751879.600000
 30
0.000000
  0
VERTEX
  8
1PARCELLE
  5
433d
 10
499594.790000
 20
6751912.610000
 30
0.000000
  0
VERTEX
  8
1PARCELLE
  5
433e
 10
499597.070000
 20
6751917.150000
 30
0.000000
  0
VERTEX
  8
1PARCELLE
  5
433f
 10
499601.230000
 20
6751920.040000
 30
0.000000
  0
VERTEX
  8
1PARCELLE
  5
4340
 10
499607.060000
 20
6751923.930000
 30
0.000000
  0
VERTEX
  8
1PARCELLE
  5
4341
 10
499607.030000
 20
6751927.410000
 30
0.000000
  0
VERTEX
  8
1PARCELLE
  5
4342
 10
499610.110000
 20
6751925.840000
 30
0.000000
  0
VERTEX
  8
1PARCELLE
  5
4343
 10
499655.720000
 20
6751961.270000
 30
0.000000
  0
VERTEX
  8
1PARCELLE
  5
4344
 10
499655.040000
 20
6751963.240000
 30
0.000000
  0
VERTEX
  8
1PARCELLE
  5
4345
 10
499687.760000
 20
6751987.260000
 30
0.000000
  0
VERTEX
  8
1PARCELLE
  5
4346
 10
499693.310000
 20
6751991.890000
 30
0.000000
  0
VERTEX
  8
1PARCELLE
  5
4347
 10
499702.900000
 20
6751997.070000
 30
0.000000
  0
VERTEX
  8
1PARCELLE
  5
4348
 10
499707.910000
 20
6751964.490000
 30
0.000000
  0
SEQEND
  8
1PARCELLE
  5
4349
  0
TEXT
  5
434a
  8
3PARCELLETEX
  10
499625.000000
  20
6751874.640000
  30
0.000000
  40
2.000000
   1
361
  50
0.000000
   7
STANDARD
  0
POLYLINE
  5
434b
  8
1PARCELLE
 66
    1
 10
0.0
 20
0.0
 30
0.0
 70
     1
1001
SUPF
1000
000011475
1001
INDP
1000
01
1001
IDU
1000
1870000A0368
  0
VERTEX
  8
1PARCELLE
  5
434c
 10
499881.940000
 20
6752285.040000
 30
0.000000
  0
VERTEX
  8
1PARCELLE
  5
434d
 10
499884.770000
 20
6752128.440000
 30
0.000000
  0
VERTEX
  8
1PARCELLE
  5
434e
 10
499899.350000
 20
6752134.670000
 30
0.000000
  0
VERTEX
  8
1PARCELLE
  5
434f
 10
499939.220000
 20
6752152.410000
 30
0.000000
  0
VERTEX
  8
1PARCELLE
  5
4350
 10
499951.310000
 20
6752158.640000
 30
0.000000
  0
VERTEX
  8
1PARCELLE
  5
4351
 10
499966.740000
 20
6752167.230000
 30
0.000000
  0
VERTEX
  8
1PARCELLE
  5
4352
 10
499963.190000
 20
6752230.200000
 30
0.000000
  0
VERTEX
  8
1PARCELLE
  5
4353
 10
499959.670000
 20
6752292.560000
 30
0.000000
  0
VERTEX
  8
1PARCELLE
  5
4354
 10
499908.420000
 20
6752285.810000
 30
0.000000
  0
VERTEX
  8
1PARCELLE
  5
4355
 10
499900.170000
 20
6752285.680000
 30
0.000000
  0
VERTEX
  8
1PARCELLE
  5
4356
 10
499881.940000
 20
6752285.040000
 30
0.000000
  0
SEQEND
  8
1PARCELLE
  5
4357
  0
TEXT
  5
4358
  8
3PARCELLETEX
  10
499927.250000
  20
6752217.800000
  30
0.000000
  40
2.000000
   1
368
  50
0.000000
   7
STANDARD
  0
POLYLINE
  5
4359
  8
1PARCELLE
 66
    1
 10
0.0
 20
0.0
 30
0.0
 70
     1
1001
SUPF
1000
000009700
1001
INDP
1000
01
1001
IDU
1000
1870000A0367
  0
VERTEX
  8
1PARCELLE
  5
435a
 10
499819.980000
 20
6752284.390000
 30
0.000000
  0
VERTEX
  8
1PARCELLE
  5
435b
 10
499835.460000
 20
6752100.700000
 30
0.000000
  0
VERTEX
  8
1PARCELLE
  5
435c
 10
499854.530000
 20
6752110.720000
 30
0.000000
  0
VERTEX
  8
1PARCELLE
  5
435d
 10
499882.990000
 20
6752127.670000
 30
0.000000
  0
VERTEX
  8
1PARCELLE
  5
435e
 10
499884.770000
 20
6752128.440000
 30
0.000000
  0
VERTEX
  8
1PARCELLE
  5
435f
 10
499881.940000
 20
6752285.040000
 30
0.000000
  0
VERTEX
  8
1PARCELLE
  5
4360
 10
499857.720000
 20
6752284.200000
 30
0.000000
  0
VERTEX
  8
1PARCELLE
  5
4361
 10
499819.980000
 20
6752284.390000
 30
0.000000
  0
SEQEND
  8
1PARCELLE
  5
4362
  0
TEXT
  5
4363
  8
3PARCELLETEX
  10
499856.730000
  20
6752198.650000
  30
0.000000
  40
2.000000
   1
367
  50
0.000000
   7
STANDARD
  0
POLYLINE
  5
4364
  8
1PARCELLE
 66
    1
 10
0.0
 20
0.0
 30
0.0
 70
     1
1001
SUPF
1000
000026690
1001
INDP
1000
01
1001
IDU
1000
1870000A0392
  0
VERTEX
  8
1PARCELLE
  5
4365
 10
499883.720000
 20
6752671.080000
 30
0.000000
  0
VERTEX
  8
1PARCELLE
  5
4366
 10
499884.060000
 20
6752671.730000
 30
0.000000
  0
VERTEX
  8
1PARCELLE
  5
4367
 10
499875.170000
 20
6752673.740000
 30
0.000000
  0
VERTEX
  8
1PARCELLE
  5
4368
 10
499852.890000
 20
6752680.190000
 30
0.000000
  0
VERTEX
  8
1PARCELLE
  5
4369
 10
499829.260000
 20
6752683.170000
 30
0.000000
  0
VERTEX
  8
1PARCELLE
  5
436a
 10
499793.110000
 20
6752690.750000
 30
0.000000
  0
VERTEX
  8
1PARCELLE
  5
436b
 10
499782.050000
 20
6752693.480000
 30
0.000000
  0
VERTEX
  8
1PARCELLE
  5
436c
 10
499772.690000
 20
6752697.310000
 30
0.000000
  0
VERTEX
  8
1PARCELLE
  5
436d
 10
499765.110000
 20
6752701.780000
 30
0.000000
  0
VERTEX
  8
1PARCELLE
  5
436e
 10
499748.170000
 20
6752713.790000
 30
0.000000
  0
VERTEX
  8
1PARCELLE
  5
436f
 10
499728.600000
 20
6752722.990000
 30
0.000000
  0
VERTEX
  8
1PARCELLE
  5
4370
 10
499707.460000
 20
6752733.680000
 30
0.000000
  0
VERTEX
  8
1PARCELLE
  5
4371
 10
499678.070000
 20
6752748.000000
 30
0.000000
  0
VERTEX
  8
1PARCELLE
  5
4372
 10
499655.760000
 20
6752758.380000
 30
0.000000
  0
VERTEX
  8
1PARCELLE
  5
4373
 10
499649.950000
 20
6752761.000000
 30
0.000000
  0
VERTEX
  8
1PARCELLE
  5
4374
 10
499647.130000
 20
6752724.390000
 30
0.000000
  0
VERTEX
  8
1PARCELLE
  5
4375
 10
499643.740000
 20
6752680.250000
 30
0.000000
  0
VERTEX
  8
1PARCELLE
  5
4376
 10
499639.280000
 20
6752622.180000
 30
0.000000
  0
VERTEX
  8
1PARCELLE
  5
4377
 10
499636.260000
 20
6752582.750000
 30
0.000000
  0
VERTEX
  8
1PARCELLE
  5
4378
 10
499635.680000
 20
6752570.530000
 30
0.000000
  0
VERTEX
  8
1PARCELLE
  5
4379
 10
499644.990000
 20
6752571.480000
 30
0.000000
  0
VERTEX
  8
1PARCELLE
  5
437a
 10
499685.850000
 20
6752575.620000
 30
0.000000
  0
VERTEX
  8
1PARCELLE
  5
437b
 10
499722.430000
 20
6752579.330000
 30
0.000000
  0
VERTEX
  8
1PARCELLE
  5
437c
 10
499729.700000
 20
6752580.030000
 30
0.000000
  0
VERTEX
  8
1PARCELLE
  5
437d
 10
499770.400000
 20
6752583.920000
 30
0.000000
  0
VERTEX
  8
1PARCELLE
  5
437e
 10
499803.880000
 20
6752587.130000
 30
0.000000
  0
VERTEX
  8
1PARCELLE
  5
437f
 10
499837.760000
 20
6752590.450000
 30
0.000000
  0
VERTEX
  8
1PARCELLE
  5
4380
 10
499837.760000
 20
6752600.940000
 30
0.000000
  0
VERTEX
  8
1PARCELLE
  5
4381
 10
499837.160000
 20
6752661.360000
 30
0.000000
  0
VERTEX
  8
1PARCELLE
  5
4382
 10
499836.860000
 20
6752673.970000
 30
0.000000
  0
VERTEX
  8
1PARCELLE
  5
4383
 10
499883.720000
 20
6752671.080000
 30
0.000000
  0
SEQEND
  8
1PARCELLE
  5
4384
  0
TEXT
  5
4385
  8
3PARCELLETEX
  10
499754.820000
  20
6752646.790000
  30
0.000000
  40
2.000000
   1
392
  50
0.000000
   7
STANDARD
  0
POLYLINE
  5
4386
  8
1PARCELLE
 66
    1
 10
0.0
 20
0.0
 30
0.0
 70
     1
1001
SUPF
1000
000006930
1001
INDP
1000
01
1001
IDU
1000
1870000A0371
  0
VERTEX
  8
1PARCELLE
  5
4387
 10
499637.060000
 20
6752230.710000
 30
0.000000
  0
VERTEX
  8
1PARCELLE
  5
4388
 10
499641.450000
 20
6752232.420000
 30
0.000000
  0
VERTEX
  8
1PARCELLE
  5
4389
 10
499640.750000
 20
6752237.530000
 30
0.000000
  0
VERTEX
  8
1PARCELLE
  5
438a
 10
499654.410000
 20
6752241.810000
 30
0.000000
  0
VERTEX
  8
1PARCELLE
  5
438b
 10
499676.870000
 20
6752245.850000
 30
0.000000
  0
VERTEX
  8
1PARCELLE
  5
438c
 10
499681.840000
 20
6752247.120000
 30
0.000000
  0
VERTEX
  8
1PARCELLE
  5
438d
 10
499663.340000
 20
6752393.500000
 30
0.000000
  0
VERTEX
  8
1PARCELLE
  5
438e
 10
499648.370000
 20
6752391.860000
 30
0.000000
  0
VERTEX
  8
1PARCELLE
  5
438f
 10
499618.050000
 20
6752388.610000
 30
0.000000
  0
VERTEX
  8
1PARCELLE
  5
4390
 10
499637.060000
 20
6752230.710000
 30
0.000000
  0
SEQEND
  8
1PARCELLE
  5
4391
  0
TEXT
  5
4392
  8
3PARCELLETEX
  10
499652.430000
  20
6752315.260000
  30
0.000000
  40
2.000000
   1
371
  50
0.000000
   7
STANDARD
  0
POLYLINE
  5
4393
  8
1PARCELLE
 66
    1
 10
0.0
 20
0.0
 30
0.0
 70
     1
1001
SUPF
1000
000006930
1001
INDP
1000
01
1001
IDU
1000
1870000A0372
  0
VERTEX
  8
1PARCELLE
  5
4394
 10
499597.010000
 20
6752215.100000
 30
0.000000
  0
VERTEX
  8
1PARCELLE
  5
4395
 10
499637.060000
 20
6752230.710000
 30
0.000000
  0
VERTEX
  8
1PARCELLE
  5
4396
 10
499618.050000
 20
6752388.610000
 30
0.000000
  0
VERTEX
  8
1PARCELLE
  5
4397
 10
499608.180000
 20
6752387.570000
 30
0.000000
  0
VERTEX
  8
1PARCELLE
  5
4398
 10
499584.100000
 20
6752386.130000
 30
0.000000
  0
VERTEX
  8
1PARCELLE
  5
4399
 10
499580.960000
 20
6752385.280000
 30
0.000000
  0
VERTEX
  8
1PARCELLE
  5
439a
 10
499576.190000
 20
6752382.520000
 30
0.000000
  0
VERTEX
  8
1PARCELLE
  5
439b
 10
499575.550000
 20
6752379.200000
 30
0.000000
  0
VERTEX
  8
1PARCELLE
  5
439c
 10
499577.930000
 20
6752362.710000
 30
0.000000
  0
VERTEX
  8
1PARCELLE
  5
439d
 10
499580.840000
 20
6752347.090000
 30
0.000000
  0
VERTEX
  8
1PARCELLE
  5
439e
 10
499584.450000
 20
6752313.750000
 30
0.000000
  0
VERTEX
  8
1PARCELLE
  5
439f
 10
499586.070000
 20
6752295.980000
 30
0.000000
  0
VERTEX
  8
1PARCELLE
  5
43a0
 10
499587.830000
 20
6752279.680000
 30
0.000000
  0
VERTEX
  8
1PARCELLE
  5
43a1
 10
499594.390000
 20
6752234.200000
 30
0.000000
  0
VERTEX
  8
1PARCELLE
  5
43a2
 10
499597.010000
 20
6752215.100000
 30
0.000000
  0
SEQEND
  8
1PARCELLE
  5
43a3
  0
TEXT
  5
43a4
  8
3PARCELLETEX
  10
499607.990000
  20
6752303.740000
  30
0.000000
  40
2.000000
   1
372
  50
0.000000
   7
STANDARD
  0
POLYLINE
  5
43a5
  8
1PARCELLE
 66
    1
 10
0.0
 20
0.0
 30
0.0
 70
     1
1001
SUPF
1000
000016730
1001
INDP
1000
01
1001
IDU
1000
1870000A0218
  0
VERTEX
  8
1PARCELLE
  5
43a6
 10
499904.280000
 20
6752423.890000
 30
0.000000
  0
VERTEX
  8
1PARCELLE
  5
43a7
 10
499908.420000
 20
6752285.810000
 30
0.000000
  0
VERTEX
  8
1PARCELLE
  5
43a8
 10
499959.670000
 20
6752292.560000
 30
0.000000
  0
VERTEX
  8
1PARCELLE
  5
43a9
 10
500026.340000
 20
6752301.200000
 30
0.000000
  0
VERTEX
  8
1PARCELLE
  5
43aa
 10
500025.570000
 20
6752304.130000
 30
0.000000
  0
VERTEX
  8
1PARCELLE
  5
43ab
 10
500014.270000
 20
6752348.580000
 30
0.000000
  0
VERTEX
  8
1PARCELLE
  5
43ac
 10
500004.840000
 20
6752385.770000
 30
0.000000
  0
VERTEX
  8
1PARCELLE
  5
43ad
 10
500002.730000
 20
6752394.200000
 30
0.000000
  0
VERTEX
  8
1PARCELLE
  5
43ae
 10
499998.320000
 20
6752411.830000
 30
0.000000
  0
VERTEX
  8
1PARCELLE
  5
43af
 10
499979.510000
 20
6752487.070000
 30
0.000000
  0
VERTEX
  8
1PARCELLE
  5
43b0
 10
499962.600000
 20
6752475.130000
 30
0.000000
  0
VERTEX
  8
1PARCELLE
  5
43b1
 10
499947.020000
 20
6752463.170000
 30
0.000000
  0
VERTEX
  8
1PARCELLE
  5
43b2
 10
499932.990000
 20
6752451.790000
 30
0.000000
  0
VERTEX
  8
1PARCELLE
  5
43b3
 10
499928.190000
 20
6752447.740000
 30
0.000000
  0
VERTEX
  8
1PARCELLE
  5
43b4
 10
499908.950000
 20
6752428.610000
 30
0.000000
  0
VERTEX
  8
1PARCELLE
  5
43b5
 10
499906.060000
 20
6752425.440000
 30
0.000000
  0
VERTEX
  8
1PARCELLE
  5
43b6
 10
499904.280000
 20
6752423.890000
 30
0.000000
  0
SEQEND
  8
1PARCELLE
  5
43b7
  0
TEXT
  5
43b8
  8
3PARCELLETEX
  10
499963.300000
  20
6752372.810000
  30
0.000000
  40
2.000000
   1
218
  50
0.000000
   7
STANDARD
  0
POLYLINE
  5
43b9
  8
1PARCELLE
 66
    1
 10
0.0
 20
0.0
 30
0.0
 70
     1
1001
SUPF
1000
000010980
1001
INDP
1000
01
1001
IDU
1000
1870000A0363
  0
VERTEX
  8
1PARCELLE
  5
43ba
 10
499597.010000
 20
6752215.100000
 30
0.000000
  0
VERTEX
  8
1PARCELLE
  5
43bb
 10
499597.670000
 20
6752210.380000
 30
0.000000
  0
VERTEX
  8
1PARCELLE
  5
43bc
 10
499600.410000
 20
6752190.370000
 30
0.000000
  0
VERTEX
  8
1PARCELLE
  5
43bd
 10
499602.190000
 20
6752166.970000
 30
0.000000
  0
VERTEX
  8
1PARCELLE
  5
43be
 10
499604.330000
 20
6752146.810000
 30
0.000000
  0
VERTEX
  8
1PARCELLE
  5
43bf
 10
499605.260000
 20
6752135.710000
 30
0.000000
  0
VERTEX
  8
1PARCELLE
  5
43c0
 10
499606.430000
 20
6752112.550000
 30
0.000000
  0
VERTEX
  8
1PARCELLE
  5
43c1
 10
499607.530000
 20
6752093.940000
 30
0.000000
  0
VERTEX
  8
1PARCELLE
  5
43c2
 10
499688.790000
 20
6752099.470000
 30
0.000000
  0
VERTEX
  8
1PARCELLE
  5
43c3
 10
499685.050000
 20
6752159.770000
 30
0.000000
  0
VERTEX
  8
1PARCELLE
  5
43c4
 10
499679.710000
 20
6752212.520000
 30
0.000000
  0
VERTEX
  8
1PARCELLE
  5
43c5
 10
499676.870000
 20
6752245.850000
 30
0.000000
  0
VERTEX
  8
1PARCELLE
  5
43c6
 10
499654.410000
 20
6752241.810000
 30
0.000000
  0
VERTEX
  8
1PARCELLE
  5
43c7
 10
499640.750000
 20
6752237.530000
 30
0.000000
  0
VERTEX
  8
1PARCELLE
  5
43c8
 10
499641.450000
 20
6752232.420000
 30
0.000000
  0
VERTEX
  8
1PARCELLE
  5
43c9
 10
499637.060000
 20
6752230.710000
 30
0.000000
  0
VERTEX
  8
1PARCELLE
  5
43ca
 10
499597.010000
 20
6752215.100000
 30
0.000000
  0
SEQEND
  8
1PARCELLE
  5
43cb
  0
TEXT
  5
43cc
  8
3PARCELLETEX
  10
499652.550000
  20
6752160.330000
  30
0.000000
  40
2.000000
   1
363
  50
0.000000
   7
STANDARD
  0
POLYLINE
  5
43cd
  8
1PARCELLE
 66
    1
 10
0.0
 20
0.0
 30
0.0
 70
     1
1001
SUPF
1000
000017920
1001
INDP
1000
01
1001
IDU
1000
1870000A0369
  0
VERTEX
  8
1PARCELLE
  5
43ce
 10
499756.100000
 20
6752272.380000
 30
0.000000
  0
VERTEX
  8
1PARCELLE
  5
43cf
 10
499756.380000
 20
6752272.390000
 30
0.000000
  0
VERTEX
  8
1PARCELLE
  5
43d0
 10
499780.000000
 20
6752278.780000
 30
0.000000
  0
VERTEX
  8
1PARCELLE
  5
43d1
 10
499797.780000
 20
6752282.030000
 30
0.000000
  0
VERTEX
  8
1PARCELLE
  5
43d2
 10
499814.140000
 20
6752284.430000
 30
0.000000
  0
VERTEX
  8
1PARCELLE
  5
43d3
 10
499819.980000
 20
6752284.390000
 30
0.000000
  0
VERTEX
  8
1PARCELLE
  5
43d4
 10
499857.720000
 20
6752284.200000
 30
0.000000
  0
VERTEX
  8
1PARCELLE
  5
43d5
 10
499881.940000
 20
6752285.040000
 30
0.000000
  0
VERTEX
  8
1PARCELLE
  5
43d6
 10
499900.170000
 20
6752285.680000
 30
0.000000
  0
VERTEX
  8
1PARCELLE
  5
43d7
 10
499908.420000
 20
6752285.810000
 30
0.000000
  0
VERTEX
  8
1PARCELLE
  5
43d8
 10
499904.280000
 20
6752423.890000
 30
0.000000
  0
VERTEX
  8
1PARCELLE
  5
43d9
 10
499902.780000
 20
6752422.610000
 30
0.000000
  0
VERTEX
  8
1PARCELLE
  5
43da
 10
499895.700000
 20
6752418.660000
 30
0.000000
  0
VERTEX
  8
1PARCELLE
  5
43db
 10
499888.520000
 20
6752415.190000
 30
0.000000
  0
VERTEX
  8
1PARCELLE
  5
43dc
 10
499881.990000
 20
6752413.410000
 30
0.000000
  0
VERTEX
  8
1PARCELLE
  5
43dd
 10
499873.300000
 20
6752411.660000
 30
0.000000
  0
VERTEX
  8
1PARCELLE
  5
43de
 10
499858.800000
 20
6752410.350000
 30
0.000000
  0
VERTEX
  8
1PARCELLE
  5
43df
 10
499822.490000
 20
6752406.570000
 30
0.000000
  0
VERTEX
  8
1PARCELLE
  5
43e0
 10
499771.780000
 20
6752402.720000
 30
0.000000
  0
VERTEX
  8
1PARCELLE
  5
43e1
 10
499771.280000
 20
6752402.680000
 30
0.000000
  0
VERTEX
  8
1PARCELLE
  5
43e2
 10
499761.210000
 20
6752315.770000
 30
0.000000
  0
VERTEX
  8
1PARCELLE
  5
43e3
 10
499756.100000
 20
6752272.380000
 30
0.000000
  0
SEQEND
  8
1PARCELLE
  5
43e4
  0
TEXT
  5
43e5
  8
3PARCELLETEX
  10
499847.480000
  20
6752350.190000
  30
0.000000
  40
2.000000
   1
369
  50
0.000000
   7
STANDARD
  0
POLYLINE
  5
43e6
  8
1PARCELLE
 66
    1
 10
0.0
 20
0.0
 30
0.0
 70
     1
1001
SUPF
1000
000012730
1001
INDP
1000
01
1001
IDU
1000
1870000A0370
  0
VERTEX
  8
1PARCELLE
  5
43e7
 10
499681.840000
 20
6752247.120000
 30
0.000000
  0
VERTEX
  8
1PARCELLE
  5
43e8
 10
499704.110000
 20
6752252.850000
 30
0.000000
  0
VERTEX
  8
1PARCELLE
  5
43e9
 10
499704.960000
 20
6752253.080000
 30
0.000000
  0
VERTEX
  8
1PARCELLE
  5
43ea
 10
499736.110000
 20
6752261.810000
 30
0.000000
  0
VERTEX
  8
1PARCELLE
  5
43eb
 10
499737.000000
 20
6752270.440000
 30
0.000000
  0
VERTEX
  8
1PARCELLE
  5
43ec
 10
499756.100000
 20
6752272.380000
 30
0.000000
  0
VERTEX
  8
1PARCELLE
  5
43ed
 10
499761.210000
 20
6752315.770000
 30
0.000000
  0
VERTEX
  8
1PARCELLE
  5
43ee
 10
499771.280000
 20
6752402.680000
 30
0.000000
  0
VERTEX
  8
1PARCELLE
  5
43ef
 10
499718.700000
 20
6752398.400000
 30
0.000000
  0
VERTEX
  8
1PARCELLE
  5
43f0
 10
499674.800000
 20
6752394.760000
 30
0.000000
  0
VERTEX
  8
1PARCELLE
  5
43f1
 10
499663.340000
 20
6752393.500000
 30
0.000000
  0
VERTEX
  8
1PARCELLE
  5
43f2
 10
499681.840000
 20
6752247.120000
 30
0.000000
  0
SEQEND
  8
1PARCELLE
  5
43f3
  0
TEXT
  5
43f4
  8
3PARCELLETEX
  10
499719.610000
  20
6752330.030000
  30
0.000000
  40
2.000000
   1
370
  50
0.000000
   7
STANDARD
  0
POLYLINE
  5
43f5
  8
1PARCELLE
 66
    1
 10
0.0
 20
0.0
 30
0.0
 70
     1
1001
SUPF
1000
000004065
1001
INDP
1000
01
1001
IDU
1000
1870000A0219
  0
VERTEX
  8
1PARCELLE
  5
43f6
 10
499959.670000
 20
6752292.560000
 30
0.000000
  0
VERTEX
  8
1PARCELLE
  5
43f7
 10
499963.190000
 20
6752230.200000
 30
0.000000
  0
VERTEX
  8
1PARCELLE
  5
43f8
 10
500039.640000
 20
6752253.710000
 30
0.000000
  0
VERTEX
  8
1PARCELLE
  5
43f9
 10
500036.850000
 20
6752263.480000
 30
0.000000
  0
VERTEX
  8
1PARCELLE
  5
43fa
 10
500028.980000
 20
6752291.390000
 30
0.000000
  0
VERTEX
  8
1PARCELLE
  5
43fb
 10
500026.340000
 20
6752301.200000
 30
0.000000
  0
VERTEX
  8
1PARCELLE
  5
43fc
 10
499959.670000
 20
6752292.560000
 30
0.000000
  0
SEQEND
  8
1PARCELLE
  5
43fd
  0
TEXT
  5
43fe
  8
3PARCELLETEX
  10
499996.770000
  20
6752269.560000
  30
0.000000
  40
2.000000
   1
219
  50
0.000000
   7
STANDARD
  0
POLYLINE
  5
43ff
  8
1PARCELLE
 66
    1
 10
0.0
 20
0.0
 30
0.0
 70
     1
1001
SUPF
1000
000004272
1001
INDP
1000
01
1001
IDU
1000
1870000A0215
  0
VERTEX
  8
1PARCELLE
  5
4400
 10
500079.010000
 20
6752231.690000
 30
0.000000
  0
VERTEX
  8
1PARCELLE
  5
4401
 10
500063.510000
 20
6752224.690000
 30
0.000000
  0
VERTEX
  8
1PARCELLE
  5
4402
 10
500050.270000
 20
6752216.560000
 30
0.000000
  0
VERTEX
  8
1PARCELLE
  5
4403
 10
500039.640000
 20
6752253.710000
 30
0.000000
  0
VERTEX
  8
1PARCELLE
  5
4404
 10
500036.850000
 20
6752263.480000
 30
0.000000
  0
VERTEX
  8
1PARCELLE
  5
4405
 10
500028.980000
 20
6752291.390000
 30
0.000000
  0
VERTEX
  8
1PARCELLE
  5
4406
 10
500026.340000
 20
6752301.200000
 30
0.000000
  0
VERTEX
  8
1PARCELLE
  5
4407
 10
500025.570000
 20
6752304.130000
 30
0.000000
  0
VERTEX
  8
1PARCELLE
  5
4408
 10
500014.270000
 20
6752348.580000
 30
0.000000
  0
VERTEX
  8
1PARCELLE
  5
4409
 10
500044.450000
 20
6752359.010000
 30
0.000000
  0
VERTEX
  8
1PARCELLE
  5
440a
 10
500079.010000
 20
6752231.690000
 30
0.000000
  0
SEQEND
  8
1PARCELLE
  5
440b
  0
TEXT
  5
440c
  8
3PARCELLETEX
  10
500049.010000
  20
6752287.560000
  30
0.000000
  40
2.000000
   1
215
  50
0.000000
   7
STANDARD
  0
POLYLINE
  5
440d
  8
1PARCELLE
 66
    1
 10
0.0
 20
0.0
 30
0.0
 70
     1
1001
SUPF
1000
000004235
1001
INDP
1000
01
1001
IDU
1000
1870000A0220
  0
VERTEX
  8
1PARCELLE
  5
440e
 10
499963.190000
 20
6752230.200000
 30
0.000000
  0
VERTEX
  8
1PARCELLE
  5
440f
 10
499966.740000
 20
6752167.230000
 30
0.000000
  0
VERTEX
  8
1PARCELLE
  5
4410
 10
500000.240000
 20
6752185.890000
 30
0.000000
  0
VERTEX
  8
1PARCELLE
  5
4411
 10
500050.270000
 20
6752216.560000
 30
0.000000
  0
VERTEX
  8
1PARCELLE
  5
4412
 10
500039.640000
 20
6752253.710000
 30
0.000000
  0
VERTEX
  8
1PARCELLE
  5
4413
 10
499963.190000
 20
6752230.200000
 30
0.000000
  0
SEQEND
  8
1PARCELLE
  5
4414
  0
TEXT
  5
4415
  8
3PARCELLETEX
  10
500005.860000
  20
6752215.460000
  30
0.000000
  40
2.000000
   1
220
  50
0.000000
   7
STANDARD
  0
POLYLINE
  5
4416
  8
1PARCELLE
 66
    1
 10
0.0
 20
0.0
 30
0.0
 70
     1
1001
SUPF
1000
000004420
1001
INDP
1000
01
1001
IDU
1000
1870000A0214
  0
VERTEX
  8
1PARCELLE
  5
4417
 10
500111.200000
 20
6752247.670000
 30
0.000000
  0
VERTEX
  8
1PARCELLE
  5
4418
 10
500099.510000
 20
6752240.970000
 30
0.000000
  0
VERTEX
  8
1PARCELLE
  5
4419
 10
500083.000000
 20
6752233.480000
 30
0.000000
  0
VERTEX
  8
1PARCELLE
  5
441a
 10
500079.010000
 20
6752231.690000
 30
0.000000
  0
VERTEX
  8
1PARCELLE
  5
441b
 10
500044.450000
 20
6752359.010000
 30
0.000000
  0
VERTEX
  8
1PARCELLE
  5
441c
 10
500076.100000
 20
6752369.960000
 30
0.000000
  0
VERTEX
  8
1PARCELLE
  5
441d
 10
500111.200000
 20
6752247.670000
 30
0.000000
  0
SEQEND
  8
1PARCELLE
  5
441e
  0
TEXT
  5
441f
  8
3PARCELLETEX
  10
500079.490000
  20
6752301.080000
  30
0.000000
  40
2.000000
   1
214
  50
0.000000
   7
STANDARD
  0
POLYLINE
  5
4420
  8
1PARCELLE
 66
    1
 10
0.0
 20
0.0
 30
0.0
 70
     1
1001
SUPF
1000
000002880
1001
INDP
1000
01
1001
IDU
1000
1870000A0213
  0
VERTEX
  8
1PARCELLE
  5
4421
 10
500111.200000
 20
6752247.670000
 30
0.000000
  0
VERTEX
  8
1PARCELLE
  5
4422
 10
500115.240000
 20
6752250.010000
 30
0.000000
  0
VERTEX
  8
1PARCELLE
  5
4423
 10
500136.870000
 20
6752266.560000
 30
0.000000
  0
VERTEX
  8
1PARCELLE
  5
4424
 10
500136.580000
 20
6752274.970000
 30
0.000000
  0
VERTEX
  8
1PARCELLE
  5
4425
 10
500132.790000
 20
6752291.680000
 30
0.000000
  0
VERTEX
  8
1PARCELLE
  5
4426
 10
500127.750000
 20
6752305.160000
 30
0.000000
  0
VERTEX
  8
1PARCELLE
  5
4427
 10
500119.680000
 20
6752316.800000
 30
0.000000
  0
VERTEX
  8
1PARCELLE
  5
4428
 10
500095.910000
 20
6752351.380000
 30
0.000000
  0
VERTEX
  8
1PARCELLE
  5
4429
 10
500081.700000
 20
6752371.900000
 30
0.000000
  0
VERTEX
  8
1PARCELLE
  5
442a
 10
500076.100000
 20
6752369.960000
 30
0.000000
  0
VERTEX
  8
1PARCELLE
  5
442b
 10
500111.200000
 20
6752247.670000
 30
0.000000
  0
SEQEND
  8
1PARCELLE
  5
442c
  0
TEXT
  5
442d
  8
3PARCELLETEX
  10
500111.450000
  20
6752303.470000
  30
0.000000
  40
2.000000
   1
213
  50
0.000000
   7
STANDARD
  0
POLYLINE
  5
442e
  8
1PARCELLE
 66
    1
 10
0.0
 20
0.0
 30
0.0
 70
     1
1001
SUPF
1000
000003029
1001
INDP
1000
01
1001
IDU
1000
1870000A0375
  0
VERTEX
  8
1PARCELLE
  5
442f
 10
499672.530000
 20
6752483.890000
 30
0.000000
  0
VERTEX
  8
1PARCELLE
  5
4430
 10
499671.850000
 20
6752483.820000
 30
0.000000
  0
VERTEX
  8
1PARCELLE
  5
4431
 10
499636.630000
 20
6752480.600000
 30
0.000000
  0
VERTEX
  8
1PARCELLE
  5
4432
 10
499642.110000
 20
6752419.880000
 30
0.000000
  0
VERTEX
  8
1PARCELLE
  5
4433
 10
499644.890000
 20
6752395.270000
 30
0.000000
  0
VERTEX
  8
1PARCELLE
  5
4434
 10
499678.390000
 20
6752397.760000
 30
0.000000
  0
VERTEX
  8
1PARCELLE
  5
4435
 10
499672.530000
 20
6752483.890000
 30
0.000000
  0
SEQEND
  8
1PARCELLE
  5
4436
  0
TEXT
  5
4437
  8
3PARCELLETEX
  10
499660.680000
  20
6752438.940000
  30
0.000000
  40
2.000000
   1
375
  50
0.000000
   7
STANDARD
  0
POLYLINE
  5
4438
  8
1PARCELLE
 66
    1
 10
0.0
 20
0.0
 30
0.0
 70
     1
1001
SUPF
1000
000004590
1001
INDP
1000
01
1001
IDU
1000
1870000A0374
  0
VERTEX
  8
1PARCELLE
  5
4439
 10
499636.630000
 20
6752480.600000
 30
0.000000
  0
VERTEX
  8
1PARCELLE
  5
443a
 10
499636.250000
 20
6752480.570000
 30
0.000000
  0
VERTEX
  8
1PARCELLE
  5
443b
 10
499635.870000
 20
6752480.530000
 30
0.000000
  0
VERTEX
  8
1PARCELLE
  5
443c
 10
499613.110000
 20
6752477.910000
 30
0.000000
  0
VERTEX
  8
1PARCELLE
  5
443d
 10
499583.050000
 20
6752473.400000
 30
0.000000
  0
VERTEX
  8
1PARCELLE
  5
443e
 10
499587.870000
 20
6752390.680000
 30
0.000000
  0
VERTEX
  8
1PARCELLE
  5
443f
 10
499612.890000
 20
6752392.900000
 30
0.000000
  0
VERTEX
  8
1PARCELLE
  5
4440
 10
499644.890000
 20
6752395.270000
 30
0.000000
  0
VERTEX
  8
1PARCELLE
  5
4441
 10
499642.110000
 20
6752419.880000
 30
0.000000
  0
VERTEX
  8
1PARCELLE
  5
4442
 10
499636.630000
 20
6752480.600000
 30
0.000000
  0
SEQEND
  8
1PARCELLE
  5
4443
  0
TEXT
  5
4444
  8
3PARCELLETEX
  10
499615.770000
  20
6752436.990000
  30
0.000000
  40
2.000000
   1
374
  50
0.000000
   7
STANDARD
  0
POLYLINE
  5
4445
  8
1PARCELLE
 66
    1
 10
0.0
 20
0.0
 30
0.0
 70
     1
1001
SUPF
1000
000001640
1001
INDP
1000
01
1001
IDU
1000
1870000A0373
  0
VERTEX
  8
1PARCELLE
  5
4446
 10
499583.050000
 20
6752473.400000
 30
0.000000
  0
VERTEX
  8
1PARCELLE
  5
4447
 10
499565.480000
 20
6752470.770000
 30
0.000000
  0
VERTEX
  8
1PARCELLE
  5
4448
 10
499564.040000
 20
6752448.370000
 30
0.000000
  0
VERTEX
  8
1PARCELLE
  5
4449
 10
499564.390000
 20
6752441.710000
 30
0.000000
  0
VERTEX
  8
1PARCELLE
  5
444a
 10
499566.990000
 20
6752412.420000
 30
0.000000
  0
VERTEX
  8
1PARCELLE
  5
444b
 10
499569.150000
 20
6752395.230000
 30
0.000000
  0
VERTEX
  8
1PARCELLE
  5
444c
 10
499570.830000
 20
6752392.490000
 30
0.000000
  0
VERTEX
  8
1PARCELLE
  5
444d
 10
499573.340000
 20
6752391.190000
 30
0.000000
  0
VERTEX
  8
1PARCELLE
  5
444e
 10
499576.450000
 20
6752389.660000
 30
0.000000
  0
VERTEX
  8
1PARCELLE
  5
444f
 10
499587.870000
 20
6752390.680000
 30
0.000000
  0
VERTEX
  8
1PARCELLE
  5
4450
 10
499583.050000
 20
6752473.400000
 30
0.000000
  0
SEQEND
  8
1PARCELLE
  5
4451
  0
TEXT
  5
4452
  8
3PARCELLETEX
  10
499571.270000
  20
6752426.340000
  30
0.000000
  40
2.000000
   1
373
  50
0.000000
   7
STANDARD
  0
POLYLINE
  5
4453
  8
1PARCELLE
 66
    1
 10
0.0
 20
0.0
 30
0.0
 70
     1
1001
SUPF
1000
000001118
1001
INDP
1000
01
1001
IDU
1000
1870000A0384
  0
VERTEX
  8
1PARCELLE
  5
4454
 10
499635.870000
 20
6752480.530000
 30
0.000000
  0
VERTEX
  8
1PARCELLE
  5
4455
 10
499613.110000
 20
6752477.910000
 30
0.000000
  0
VERTEX
  8
1PARCELLE
  5
4456
 10
499583.050000
 20
6752473.400000
 30
0.000000
  0
VERTEX
  8
1PARCELLE
  5
4457
 10
499565.480000
 20
6752470.770000
 30
0.000000
  0
VERTEX
  8
1PARCELLE
  5
4458
 10
499565.520000
 20
6752471.190000
 30
0.000000
  0
VERTEX
  8
1PARCELLE
  5
4459
 10
499565.690000
 20
6752488.390000
 30
0.000000
  0
VERTEX
  8
1PARCELLE
  5
445a
 10
499635.780000
 20
6752495.370000
 30
0.000000
  0
VERTEX
  8
1PARCELLE
  5
445b
 10
499635.870000
 20
6752480.530000
 30
0.000000
  0
SEQEND
  8
1PARCELLE
  5
445c
  0
TEXT
  5
445d
  8
3PARCELLETEX
  10
499600.660000
  20
6752480.810000
  30
0.000000
  40
2.000000
   1
384
  50
0.000000
   7
STANDARD
  0
POLYLINE
  5
445e
  8
1PARCELLE
 66
    1
 10
0.0
 20
0.0
 30
0.0
 70
     1
1001
SUPF
1000
000001379
1001
INDP
1000
01
1001
IDU
1000
1870000A0385
  0
VERTEX
  8
1PARCELLE
  5
445f
 10
499635.780000
 20
6752495.370000
 30
0.000000
  0
VERTEX
  8
1PARCELLE
  5
4460
 10
499565.690000
 20
6752488.390000
 30
0.000000
  0
VERTEX
  8
1PARCELLE
  5
4461
 10
499565.860000
 20
6752505.780000
 30
0.000000
  0
VERTEX
  8
1PARCELLE
  5
4462
 10
499565.840000
 20
6752506.580000
 30
0.000000
  0
VERTEX
  8
1PARCELLE
  5
4463
 10
499635.640000
 20
6752516.270000
 30
0.000000
  0
VERTEX
  8
1PARCELLE
  5
4464
 10
499635.780000
 20
6752495.370000
 30
0.000000
  0
SEQEND
  8
1PARCELLE
  5
4465
  0
TEXT
  5
4466
  8
3PARCELLETEX
  10
499602.260000
  20
6752499.720000
  30
0.000000
  40
2.000000
   1
385
  50
0.000000
   7
STANDARD
  0
POLYLINE
  5
4467
  8
1PARCELLE
 66
    1
 10
0.0
 20
0.0
 30
0.0
 70
     1
1001
SUPF
1000
000001284
1001
INDP
1000
01
1001
IDU
1000
1870000A0386
  0
VERTEX
  8
1PARCELLE
  5
4468
 10
499635.630000
 20
6752534.820000
 30
0.000000
  0
VERTEX
  8
1PARCELLE
  5
4469
 10
499565.430000
 20
6752524.740000
 30
0.000000
  0
VERTEX
  8
1PARCELLE
  5
446a
 10
499565.370000
 20
6752520.470000
 30
0.000000
  0
VERTEX
  8
1PARCELLE
  5
446b
 10
499565.840000
 20
6752506.580000
 30
0.000000
  0
VERTEX
  8
1PARCELLE
  5
446c
 10
499635.640000
 20
6752516.270000
 30
0.000000
  0
VERTEX
  8
1PARCELLE
  5
446d
 10
499635.640000
 20
6752516.290000
 30
0.000000
  0
VERTEX
  8
1PARCELLE
  5
446e
 10
499635.630000
 20
6752534.820000
 30
0.000000
  0
SEQEND
  8
1PARCELLE
  5
446f
  0
TEXT
  5
4470
  8
3PARCELLETEX
  10
499602.650000
  20
6752518.310000
  30
0.000000
  40
2.000000
   1
386
  50
0.000000
   7
STANDARD
  0
POLYLINE
  5
4471
  8
1PARCELLE
 66
    1
 10
0.0
 20
0.0
 30
0.0
 70
     1
1001
SUPF
1000
000004690
1001
INDP
1000
01
1001
IDU
1000
1870000A0383
  0
VERTEX
  8
1PARCELLE
  5
4472
 10
499685.850000
 20
6752575.620000
 30
0.000000
  0
VERTEX
  8
1PARCELLE
  5
4473
 10
499644.990000
 20
6752571.480000
 30
0.000000
  0
VERTEX
  8
1PARCELLE
  5
4474
 10
499635.680000
 20
6752570.530000
 30
0.000000
  0
VERTEX
  8
1PARCELLE
  5
4475
 10
499635.610000
 20
6752568.990000
 30
0.000000
  0
VERTEX
  8
1PARCELLE
  5
4476
 10
499635.610000
 20
6752551.970000
 30
0.000000
  0
VERTEX
  8
1PARCELLE
  5
4477
 10
499635.630000
 20
6752534.820000
 30
0.000000
  0
VERTEX
  8
1PARCELLE
  5
4478
 10
499635.640000
 20
6752516.290000
 30
0.000000
  0
VERTEX
  8
1PARCELLE
  5
4479
 10
499635.640000
 20
6752516.270000
 30
0.000000
  0
VERTEX
  8
1PARCELLE
  5
447a
 10
499635.780000
 20
6752495.370000
 30
0.000000
  0
VERTEX
  8
1PARCELLE
  5
447b
 10
499635.870000
 20
6752480.530000
 30
0.000000
  0
VERTEX
  8
1PARCELLE
  5
447c
 10
499636.250000
 20
6752480.570000
 30
0.000000
  0
VERTEX
  8
1PARCELLE
  5
447d
 10
499636.630000
 20
6752480.600000
 30
0.000000
  0
VERTEX
  8
1PARCELLE
  5
447e
 10
499671.850000
 20
6752483.820000
 30
0.000000
  0
VERTEX
  8
1PARCELLE
  5
447f
 10
499672.530000
 20
6752483.890000
 30
0.000000
  0
VERTEX
  8
1PARCELLE
  5
4480
 10
499689.490000
 20
6752485.680000
 30
0.000000
  0
VERTEX
  8
1PARCELLE
  5
4481
 10
499685.850000
 20
6752575.620000
 30
0.000000
  0
SEQEND
  8
1PARCELLE
  5
4482
  0
TEXT
  5
4483
  8
3PARCELLETEX
  10
499663.440000
  20
6752528.460000
  30
0.000000
  40
2.000000
   1
383
  50
0.000000
   7
STANDARD
  0
POLYLINE
  5
4484
  8
1PARCELLE
 66
    1
 10
0.0
 20
0.0
 30
0.0
 70
     1
1001
SUPF
1000
000003810
1001
INDP
1000
01
1001
IDU
1000
1870000A0381
  0
VERTEX
  8
1PARCELLE
  5
4485
 10
499743.200000
 20
6752491.340000
 30
0.000000
  0
VERTEX
  8
1PARCELLE
  5
4486
 10
499731.800000
 20
6752490.140000
 30
0.000000
  0
VERTEX
  8
1PARCELLE
  5
4487
 10
499729.700000
 20
6752580.030000
 30
0.000000
  0
VERTEX
  8
1PARCELLE
  5
4488
 10
499770.400000
 20
6752583.920000
 30
0.000000
  0
VERTEX
  8
1PARCELLE
  5
4489
 10
499776.580000
 20
6752494.850000
 30
0.000000
  0
VERTEX
  8
1PARCELLE
  5
448a
 10
499743.200000
 20
6752491.340000
 30
0.000000
  0
SEQEND
  8
1PARCELLE
  5
448b
  0
TEXT
  5
448c
  8
3PARCELLETEX
  10
499753.490000
  20
6752535.590000
  30
0.000000
  40
2.000000
   1
381
  50
0.000000
   7
STANDARD
  0
POLYLINE
  5
448d
  8
1PARCELLE
 66
    1
 10
0.0
 20
0.0
 30
0.0
 70
     1
1001
SUPF
1000
000003131
1001
INDP
1000
01
1001
IDU
1000
1870000A0953
  0
VERTEX
  8
1PARCELLE
  5
448e
 10
499747.900000
 20
6752404.020000
 30
0.000000
  0
VERTEX
  8
1PARCELLE
  5
448f
 10
499712.700000
 20
6752400.680000
 30
0.000000
  0
VERTEX
  8
1PARCELLE
  5
4490
 10
499707.880000
 20
6752487.610000
 30
0.000000
  0
VERTEX
  8
1PARCELLE
  5
4491
 10
499731.800000
 20
6752490.140000
 30
0.000000
  0
VERTEX
  8
1PARCELLE
  5
4492
 10
499743.200000
 20
6752491.340000
 30
0.000000
  0
VERTEX
  8
1PARCELLE
  5
4493
 10
499747.900000
 20
6752404.020000
 30
0.000000
  0
SEQEND
  8
1PARCELLE
  5
4494
  0
TEXT
  5
4495
  8
3PARCELLETEX
  10
499725.920000
  20
6752453.670000
  30
0.000000
  40
2.000000
   1
953
  50
0.000000
   7
STANDARD
  0
POLYLINE
  5
4496
  8
1PARCELLE
 66
    1
 10
0.0
 20
0.0
 30
0.0
 70
     1
1001
SUPF
1000
000003061
1001
INDP
1000
01
1001
IDU
1000
1870000A0376
  0
VERTEX
  8
1PARCELLE
  5
4497
 10
499689.490000
 20
6752485.680000
 30
0.000000
  0
VERTEX
  8
1PARCELLE
  5
4498
 10
499672.530000
 20
6752483.890000
 30
0.000000
  0
VERTEX
  8
1PARCELLE
  5
4499
 10
499678.390000
 20
6752397.760000
 30
0.000000
  0
VERTEX
  8
1PARCELLE
  5
449a
 10
499695.120000
 20
6752399.010000
 30
0.000000
  0
VERTEX
  8
1PARCELLE
  5
449b
 10
499712.700000
 20
6752400.680000
 30
0.000000
  0
VERTEX
  8
1PARCELLE
  5
449c
 10
499707.880000
 20
6752487.610000
 30
0.000000
  0
VERTEX
  8
1PARCELLE
  5
449d
 10
499689.490000
 20
6752485.680000
 30
0.000000
  0
SEQEND
  8
1PARCELLE
  5
449e
  0
TEXT
  5
449f
  8
3PARCELLETEX
  10
499694.130000
  20
6752453.950000
  30
0.000000
  40
2.000000
   1
376
  50
0.000000
   7
STANDARD
  0
POLYLINE
  5
44a0
  8
1PARCELLE
 66
    1
 10
0.0
 20
0.0
 30
0.0
 70
     1
1001
SUPF
1000
000003810
1001
INDP
1000
01
1001
IDU
1000
1870000A0382
  0
VERTEX
  8
1PARCELLE
  5
44a1
 10
499729.700000
 20
6752580.030000
 30
0.000000
  0
VERTEX
  8
1PARCELLE
  5
44a2
 10
499722.430000
 20
6752579.330000
 30
0.000000
  0
VERTEX
  8
1PARCELLE
  5
44a3
 10
499685.850000
 20
6752575.620000
 30
0.000000
  0
VERTEX
  8
1PARCELLE
  5
44a4
 10
499689.490000
 20
6752485.680000
 30
0.000000
  0
VERTEX
  8
1PARCELLE
  5
44a5
 10
499707.880000
 20
6752487.610000
 30
0.000000
  0
VERTEX
  8
1PARCELLE
  5
44a6
 10
499731.800000
 20
6752490.140000
 30
0.000000
  0
VERTEX
  8
1PARCELLE
  5
44a7
 10
499729.700000
 20
6752580.030000
 30
0.000000
  0
SEQEND
  8
1PARCELLE
  5
44a8
  0
TEXT
  5
44a9
  8
3PARCELLETEX
  10
499713.480000
  20
6752531.490000
  30
0.000000
  40
2.000000
   1
382
  50
0.000000
   7
STANDARD
  0
POLYLINE
  5
44aa
  8
1PARCELLE
 66
    1
 10
0.0
 20
0.0
 30
0.0
 70
     1
1001
SUPF
1000
000002990
1001
INDP
1000
01
1001
IDU
1000
1870000A0380
  0
VERTEX
  8
1PARCELLE
  5
44ab
 10
499779.200000
 20
6752495.120000
 30
0.000000
  0
VERTEX
  8
1PARCELLE
  5
44ac
 10
499776.580000
 20
6752494.850000
 30
0.000000
  0
VERTEX
  8
1PARCELLE
  5
44ad
 10
499770.400000
 20
6752583.920000
 30
0.000000
  0
VERTEX
  8
1PARCELLE
  5
44ae
 10
499803.880000
 20
6752587.130000
 30
0.000000
  0
VERTEX
  8
1PARCELLE
  5
44af
 10
499810.500000
 20
6752498.140000
 30
0.000000
  0
VERTEX
  8
1PARCELLE
  5
44b0
 10
499779.200000
 20
6752495.120000
 30
0.000000
  0
SEQEND
  8
1PARCELLE
  5
44b1
  0
TEXT
  5
44b2
  8
3PARCELLETEX
  10
499791.440000
  20
6752538.710000
  30
0.000000
  40
2.000000
   1
380
  50
0.000000
   7
STANDARD
  0
POLYLINE
  5
44b3
  8
1PARCELLE
 66
    1
 10
0.0
 20
0.0
 30
0.0
 70
     1
1001
SUPF
1000
000007250
1001
INDP
1000
01
1001
IDU
1000
1870000A0393
  0
VERTEX
  8
1PARCELLE
  5
44b4
 10
499900.730000
 20
6752542.020000
 30
0.000000
  0
VERTEX
  8
1PARCELLE
  5
44b5
 10
499875.690000
 20
6752537.970000
 30
0.000000
  0
VERTEX
  8
1PARCELLE
  5
44b6
 10
499842.280000
 20
6752532.960000
 30
0.000000
  0
VERTEX
  8
1PARCELLE
  5
44b7
 10
499838.910000
 20
6752559.010000
 30
0.000000
  0
VERTEX
  8
1PARCELLE
  5
44b8
 10
499837.770000
 20
6752569.590000
 30
0.000000
  0
VERTEX
  8
1PARCELLE
  5
44b9
 10
499837.760000
 20
6752590.450000
 30
0.000000
  0
VERTEX
  8
1PARCELLE
  5
44ba
 10
499837.760000
 20
6752600.940000
 30
0.000000
  0
VERTEX
  8
1PARCELLE
  5
44bb
 10
499837.160000
 20
6752661.360000
 30
0.000000
  0
VERTEX
  8
1PARCELLE
  5
44bc
 10
499836.860000
 20
6752673.970000
 30
0.000000
  0
VERTEX
  8
1PARCELLE
  5
44bd
 10
499883.720000
 20
6752671.080000
 30
0.000000
  0
VERTEX
  8
1PARCELLE
  5
44be
 10
499888.520000
 20
6752636.030000
 30
0.000000
  0
VERTEX
  8
1PARCELLE
  5
44bf
 10
499896.760000
 20
6752572.010000
 30
0.000000
  0
VERTEX
  8
1PARCELLE
  5
44c0
 10
499900.730000
 20
6752542.020000
 30
0.000000
  0
SEQEND
  8
1PARCELLE
  5
44c1
  0
TEXT
  5
44c2
  8
3PARCELLETEX
  10
499870.420000
  20
6752602.870000
  30
0.000000
  40
2.000000
   1
393
  50
0.000000
   7
STANDARD
  0
POLYLINE
  5
44c3
  8
1PARCELLE
 66
    1
 10
0.0
 20
0.0
 30
0.0
 70
     1
1001
SUPF
1000
000003040
1001
INDP
1000
01
1001
IDU
1000
1870000A0379
  0
VERTEX
  8
1PARCELLE
  5
44c4
 10
499846.320000
 20
6752501.840000
 30
0.000000
  0
VERTEX
  8
1PARCELLE
  5
44c5
 10
499822.790000
 20
6752499.330000
 30
0.000000
  0
VERTEX
  8
1PARCELLE
  5
44c6
 10
499810.500000
 20
6752498.140000
 30
0.000000
  0
VERTEX
  8
1PARCELLE
  5
44c7
 10
499803.880000
 20
6752587.130000
 30
0.000000
  0
VERTEX
  8
1PARCELLE
  5
44c8
 10
499837.760000
 20
6752590.450000
 30
0.000000
  0
VERTEX
  8
1PARCELLE
  5
44c9
 10
499837.770000
 20
6752569.590000
 30
0.000000
  0
VERTEX
  8
1PARCELLE
  5
44ca
 10
499838.910000
 20
6752559.010000
 30
0.000000
  0
VERTEX
  8
1PARCELLE
  5
44cb
 10
499842.280000
 20
6752532.960000
 30
0.000000
  0
VERTEX
  8
1PARCELLE
  5
44cc
 10
499846.320000
 20
6752501.840000
 30
0.000000
  0
SEQEND
  8
1PARCELLE
  5
44cd
  0
TEXT
  5
44ce
  8
3PARCELLETEX
  10
499824.810000
  20
6752543.450000
  30
0.000000
  40
2.000000
   1
379
  50
0.000000
   7
STANDARD
  0
POLYLINE
  5
44cf
  8
1PARCELLE
 66
    1
 10
0.0
 20
0.0
 30
0.0
 70
     1
1001
SUPF
1000
000003166
1001
INDP
1000
01
1001
IDU
1000
1870000A0954
  0
VERTEX
  8
1PARCELLE
  5
44d0
 10
499785.020000
 20
6752407.080000
 30
0.000000
  0
VERTEX
  8
1PARCELLE
  5
44d1
 10
499781.730000
 20
6752406.910000
 30
0.000000
  0
VERTEX
  8
1PARCELLE
  5
44d2
 10
499757.040000
 20
6752404.880000
 30
0.000000
  0
VERTEX
  8
1PARCELLE
  5
44d3
 10
499747.900000
 20
6752404.020000
 30
0.000000
  0
VERTEX
  8
1PARCELLE
  5
44d4
 10
499743.200000
 20
6752491.340000
 30
0.000000
  0
VERTEX
  8
1PARCELLE
  5
44d5
 10
499776.580000
 20
6752494.850000
 30
0.000000
  0
VERTEX
  8
1PARCELLE
  5
44d6
 10
499779.200000
 20
6752495.120000
 30
0.000000
  0
VERTEX
  8
1PARCELLE
  5
44d7
 10
499785.020000
 20
6752407.080000
 30
0.000000
  0
SEQEND
  8
1PARCELLE
  5
44d8
  0
TEXT
  5
44d9
  8
3PARCELLETEX
  10
499760.680000
  20
6752453.830000
  30
0.000000
  40
2.000000
   1
954
  50
0.000000
   7
STANDARD
  0
POLYLINE
  5
44da
  8
1PARCELLE
 66
    1
 10
0.0
 20
0.0
 30
0.0
 70
     1
1001
SUPF
1000
000006387
1001
INDP
1000
01
1001
IDU
1000
1870000A0395
  0
VERTEX
  8
1PARCELLE
  5
44db
 10
499974.170000
 20
6752553.900000
 30
0.000000
  0
VERTEX
  8
1PARCELLE
  5
44dc
 10
499900.730000
 20
6752542.020000
 30
0.000000
  0
VERTEX
  8
1PARCELLE
  5
44dd
 10
499901.930000
 20
6752532.970000
 30
0.000000
  0
VERTEX
  8
1PARCELLE
  5
44de
 10
499912.220000
 20
6752461.870000
 30
0.000000
  0
VERTEX
  8
1PARCELLE
  5
44df
 10
499914.660000
 20
6752439.680000
 30
0.000000
  0
VERTEX
  8
1PARCELLE
  5
44e0
 10
499923.750000
 20
6752449.660000
 30
0.000000
  0
VERTEX
  8
1PARCELLE
  5
44e1
 10
499969.000000
 20
6752484.230000
 30
0.000000
  0
VERTEX
  8
1PARCELLE
  5
44e2
 10
499990.410000
 20
6752497.870000
 30
0.000000
  0
VERTEX
  8
1PARCELLE
  5
44e3
 10
499993.430000
 20
6752501.250000
 30
0.000000
  0
VERTEX
  8
1PARCELLE
  5
44e4
 10
499974.170000
 20
6752553.900000
 30
0.000000
  0
SEQEND
  8
1PARCELLE
  5
44e5
  0
TEXT
  5
44e6
  8
3PARCELLETEX
  10
499945.470000
  20
6752505.920000
  30
0.000000
  40
2.000000
   1
395
  50
0.000000
   7
STANDARD
  0
POLYLINE
  5
44e7
  8
1PARCELLE
 66
    1
 10
0.0
 20
0.0
 30
0.0
 70
     1
1001
SUPF
1000
000006353
1001
INDP
1000
01
1001
IDU
1000
1870000A0378
  0
VERTEX
  8
1PARCELLE
  5
44e8
 10
499862.510000
 20
6752413.730000
 30
0.000000
  0
VERTEX
  8
1PARCELLE
  5
44e9
 10
499823.910000
 20
6752410.370000
 30
0.000000
  0
VERTEX
  8
1PARCELLE
  5
44ea
 10
499801.110000
 20
6752407.900000
 30
0.000000
  0
VERTEX
  8
1PARCELLE
  5
44eb
 10
499785.020000
 20
6752407.080000
 30
0.000000
  0
VERTEX
  8
1PARCELLE
  5
44ec
 10
499779.200000
 20
6752495.120000
 30
0.000000
  0
VERTEX
  8
1PARCELLE
  5
44ed
 10
499810.500000
 20
6752498.140000
 30
0.000000
  0
VERTEX
  8
1PARCELLE
  5
44ee
 10
499822.790000
 20
6752499.330000
 30
0.000000
  0
VERTEX
  8
1PARCELLE
  5
44ef
 10
499846.320000
 20
6752501.840000
 30
0.000000
  0
VERTEX
  8
1PARCELLE
  5
44f0
 10
499853.700000
 20
6752461.880000
 30
0.000000
  0
VERTEX
  8
1PARCELLE
  5
44f1
 10
499862.510000
 20
6752413.730000
 30
0.000000
  0
SEQEND
  8
1PARCELLE
  5
44f2
  0
TEXT
  5
44f3
  8
3PARCELLETEX
  10
499819.650000
  20
6752453.650000
  30
0.000000
  40
2.000000
   1
378
  50
0.000000
   7
STANDARD
  0
POLYLINE
  5
44f4
  8
1PARCELLE
 66
    1
 10
0.0
 20
0.0
 30
0.0
 70
     1
1001
SUPF
1000
000006710
1001
INDP
1000
01
1001
IDU
1000
1870000A0394
  0
VERTEX
  8
1PARCELLE
  5
44f5
 10
499900.730000
 20
6752542.020000
 30
0.000000
  0
VERTEX
  8
1PARCELLE
  5
44f6
 10
499875.690000
 20
6752537.970000
 30
0.000000
  0
VERTEX
  8
1PARCELLE
  5
44f7
 10
499842.280000
 20
6752532.960000
 30
0.000000
  0
VERTEX
  8
1PARCELLE
  5
44f8
 10
499846.320000
 20
6752501.840000
 30
0.000000
  0
VERTEX
  8
1PARCELLE
  5
44f9
 10
499853.700000
 20
6752461.880000
 30
0.000000
  0
VERTEX
  8
1PARCELLE
  5
44fa
 10
499862.510000
 20
6752413.730000
 30
0.000000
  0
VERTEX
  8
1PARCELLE
  5
44fb
 10
499867.950000
 20
6752414.200000
 30
0.000000
  0
VERTEX
  8
1PARCELLE
  5
44fc
 10
499878.840000
 20
6752415.950000
 30
0.000000
  0
VERTEX
  8
1PARCELLE
  5
44fd
 10
499884.140000
 20
6752417.080000
 30
0.000000
  0
VERTEX
  8
1PARCELLE
  5
44fe
 10
499891.570000
 20
6752420.670000
 30
0.000000
  0
VERTEX
  8
1PARCELLE
  5
44ff
 10
499904.140000
 20
6752428.120000
 30
0.000000
  0
VERTEX
  8
1PARCELLE
  5
4500
 10
499914.660000
 20
6752439.680000
 30
0.000000
  0
VERTEX
  8
1PARCELLE
  5
4501
 10
499912.220000
 20
6752461.870000
 30
0.000000
  0
VERTEX
  8
1PARCELLE
  5
4502
 10
499901.930000
 20
6752532.970000
 30
0.000000
  0
VERTEX
  8
1PARCELLE
  5
4503
 10
499900.730000
 20
6752542.020000
 30
0.000000
  0
SEQEND
  8
1PARCELLE
  5
4504
  0
TEXT
  5
4505
  8
3PARCELLETEX
  10
499882.820000
  20
6752480.120000
  30
0.000000
  40
2.000000
   1
394
  50
0.000000
   7
STANDARD
  0
POLYLINE
  5
4506
  8
1PARCELLE
 66
    1
 10
0.0
 20
0.0
 30
0.0
 70
     1
1001
SUPF
1000
000007682
1001
INDP
1000
01
1001
IDU
1000
1870000A0396
  0
VERTEX
  8
1PARCELLE
  5
4507
 10
499967.300000
 20
6752591.700000
 30
0.000000
  0
VERTEX
  8
1PARCELLE
  5
4508
 10
499966.970000
 20
6752585.670000
 30
0.000000
  0
VERTEX
  8
1PARCELLE
  5
4509
 10
499967.440000
 20
6752576.820000
 30
0.000000
  0
VERTEX
  8
1PARCELLE
  5
450a
 10
499971.780000
 20
6752560.410000
 30
0.000000
  0
VERTEX
  8
1PARCELLE
  5
450b
 10
499974.170000
 20
6752553.900000
 30
0.000000
  0
VERTEX
  8
1PARCELLE
  5
450c
 10
499900.730000
 20
6752542.020000
 30
0.000000
  0
VERTEX
  8
1PARCELLE
  5
450d
 10
499896.760000
 20
6752572.010000
 30
0.000000
  0
VERTEX
  8
1PARCELLE
  5
450e
 10
499888.520000
 20
6752636.030000
 30
0.000000
  0
VERTEX
  8
1PARCELLE
  5
450f
 10
499883.720000
 20
6752671.080000
 30
0.000000
  0
VERTEX
  8
1PARCELLE
  5
4510
 10
499884.060000
 20
6752671.730000
 30
0.000000
  0
VERTEX
  8
1PARCELLE
  5
4511
 10
499890.830000
 20
6752670.210000
 30
0.000000
  0
VERTEX
  8
1PARCELLE
  5
4512
 10
499902.640000
 20
6752666.980000
 30
0.000000
  0
VERTEX
  8
1PARCELLE
  5
4513
 10
499919.520000
 20
6752660.680000
 30
0.000000
  0
VERTEX
  8
1PARCELLE
  5
4514
 10
499930.580000
 20
6752656.850000
 30
0.000000
  0
VERTEX
  8
1PARCELLE
  5
4515
 10
499943.660000
 20
6752651.290000
 30
0.000000
  0
VERTEX
  8
1PARCELLE
  5
4516
 10
499948.080000
 20
6752648.680000
 30
0.000000
  0
VERTEX
  8
1PARCELLE
  5
4517
 10
499967.300000
 20
6752591.700000
 30
0.000000
  0
SEQEND
  8
1PARCELLE
  5
4518
  0
TEXT
  5
4519
  8
3PARCELLETEX
  10
499936.080000
  20
6752601.670000
  30
0.000000
  40
2.000000
   1
396
  50
0.000000
   7
STANDARD
  0
POLYLINE
  5
451a
  8
1PARCELLE
 66
    1
 10
0.0
 20
0.0
 30
0.0
 70
     1
1001
SUPF
1000
000001004
1001
INDP
1000
01
1001
IDU
1000
1870000A0997
  0
VERTEX
  8
1PARCELLE
  5
451b
 10
499998.320000
 20
6752411.830000
 30
0.000000
  0
VERTEX
  8
1PARCELLE
  5
451c
 10
500002.730000
 20
6752394.200000
 30
0.000000
  0
VERTEX
  8
1PARCELLE
  5
451d
 10
500057.450000
 20
6752406.910000
 30
0.000000
  0
VERTEX
  8
1PARCELLE
  5
451e
 10
500045.550000
 20
6752424.080000
 30
0.000000
  0
VERTEX
  8
1PARCELLE
  5
451f
 10
499998.320000
 20
6752411.830000
 30
0.000000
  0
SEQEND
  8
1PARCELLE
  5
4520
  0
TEXT
  5
4521
  8
3PARCELLETEX
  10
500027.550000
  20
6752410.000000
  30
0.000000
  40
2.000000
   1
997
  50
0.000000
   7
STANDARD
  0
POLYLINE
  5
4522
  8
1PARCELLE
 66
    1
 10
0.0
 20
0.0
 30
0.0
 70
     1
1001
SUPF
1000
000002730
1001
INDP
1000
01
1001
IDU
1000
1870000A0217
  0
VERTEX
  8
1PARCELLE
  5
4523
 10
499979.510000
 20
6752487.070000
 30
0.000000
  0
VERTEX
  8
1PARCELLE
  5
4524
 10
499998.320000
 20
6752411.830000
 30
0.000000
  0
VERTEX
  8
1PARCELLE
  5
4525
 10
500045.550000
 20
6752424.080000
 30
0.000000
  0
VERTEX
  8
1PARCELLE
  5
4526
 10
500044.170000
 20
6752426.080000
 30
0.000000
  0
VERTEX
  8
1PARCELLE
  5
4527
 10
500014.630000
 20
6752468.710000
 30
0.000000
  0
VERTEX
  8
1PARCELLE
  5
4528
 10
500001.770000
 20
6752488.170000
 30
0.000000
  0
VERTEX
  8
1PARCELLE
  5
4529
 10
499996.550000
 20
6752497.730000
 30
0.000000
  0
VERTEX
  8
1PARCELLE
  5
452a
 10
499980.140000
 20
6752487.530000
 30
0.000000
  0
VERTEX
  8
1PARCELLE
  5
452b
 10
499979.510000
 20
6752487.070000
 30
0.000000
  0
SEQEND
  8
1PARCELLE
  5
452c
  0
TEXT
  5
452d
  8
3PARCELLETEX
  10
500011.420000
  20
6752445.820000
  30
0.000000
  40
2.000000
   1
217
  50
0.000000
   7
STANDARD
  0
POLYLINE
  5
452e
  8
1PARCELLE
 66
    1
 10
0.0
 20
0.0
 30
0.0
 70
     1
1001
SUPF
1000
000002774
1001
INDP
1000
01
1001
IDU
1000
1870000A0998
  0
VERTEX
  8
1PARCELLE
  5
452f
 10
500076.100000
 20
6752369.960000
 30
0.000000
  0
VERTEX
  8
1PARCELLE
  5
4530
 10
500044.450000
 20
6752359.010000
 30
0.000000
  0
VERTEX
  8
1PARCELLE
  5
4531
 10
500014.270000
 20
6752348.580000
 30
0.000000
  0
VERTEX
  8
1PARCELLE
  5
4532
 10
500004.840000
 20
6752385.770000
 30
0.000000
  0
VERTEX
  8
1PARCELLE
  5
4533
 10
500002.730000
 20
6752394.200000
 30
0.000000
  0
VERTEX
  8
1PARCELLE
  5
4534
 10
500057.450000
 20
6752406.910000
 30
0.000000
  0
VERTEX
  8
1PARCELLE
  5
4535
 10
500074.240000
 20
6752382.680000
 30
0.000000
  0
VERTEX
  8
1PARCELLE
  5
4536
 10
500081.700000
 20
6752371.900000
 30
0.000000
  0
VERTEX
  8
1PARCELLE
  5
4537
 10
500076.100000
 20
6752369.960000
 30
0.000000
  0
SEQEND
  8
1PARCELLE
  5
4538
  0
TEXT
  5
4539
  8
3PARCELLETEX
  10
500039.070000
  20
6752373.760000
  30
0.000000
  40
2.000000
   1
998
  50
0.000000
   7
STANDARD
  0
POLYLINE
  5
453a
  8
1PARCELLE
 66
    1
 10
0.0
 20
0.0
 30
0.0
 70
     1
1001
SUPF
1000
000001265
1001
INDP
1000
01
1001
IDU
1000
1870000A0387
  0
VERTEX
  8
1PARCELLE
  5
453b
 10
499635.610000
 20
6752551.970000
 30
0.000000
  0
VERTEX
  8
1PARCELLE
  5
453c
 10
499566.180000
 20
6752544.100000
 30
0.000000
  0
VERTEX
  8
1PARCELLE
  5
453d
 10
499566.200000
 20
6752539.050000
 30
0.000000
  0
VERTEX
  8
1PARCELLE
  5
453e
 10
499565.550000
 20
6752534.730000
 30
0.000000
  0
VERTEX
  8
1PARCELLE
  5
453f
 10
499565.430000
 20
6752524.740000
 30
0.000000
  0
VERTEX
  8
1PARCELLE
  5
4540
 10
499635.630000
 20
6752534.820000
 30
0.000000
  0
VERTEX
  8
1PARCELLE
  5
4541
 10
499635.610000
 20
6752551.970000
 30
0.000000
  0
SEQEND
  8
1PARCELLE
  5
4542
  0
TEXT
  5
4543
  8
3PARCELLETEX
  10
499602.190000
  20
6752536.400000
  30
0.000000
  40
2.000000
   1
387
  50
0.000000
   7
STANDARD
  0
POLYLINE
  5
4544
  8
1PARCELLE
 66
    1
 10
0.0
 20
0.0
 30
0.0
 70
     1
1001
SUPF
1000
000001304
1001
INDP
1000
01
1001
IDU
1000
1870000A0388
  0
VERTEX
  8
1PARCELLE
  5
4545
 10
499635.680000
 20
6752570.530000
 30
0.000000
  0
VERTEX
  8
1PARCELLE
  5
4546
 10
499566.100000
 20
6752563.500000
 30
0.000000
  0
VERTEX
  8
1PARCELLE
  5
4547
 10
499566.180000
 20
6752544.100000
 30
0.000000
  0
VERTEX
  8
1PARCELLE
  5
4548
 10
499635.610000
 20
6752551.970000
 30
0.000000
  0
VERTEX
  8
1PARCELLE
  5
4549
 10
499635.610000
 20
6752568.990000
 30
0.000000
  0
VERTEX
  8
1PARCELLE
  5
454a
 10
499635.680000
 20
6752570.530000
 30
0.000000
  0
SEQEND
  8
1PARCELLE
  5
454b
  0
TEXT
  5
454c
  8
3PARCELLETEX
  10
499603.660000
  20
6752557.530000
  30
0.000000
  40
2.000000
   1
388
  50
0.000000
   7
STANDARD
  0
POLYLINE
  5
454d
  8
1PARCELLE
 66
    1
 10
0.0
 20
0.0
 30
0.0
 70
     1
1001
SUPF
1000
000004055
1001
INDP
1000
01
1001
IDU
1000
1870000A0389
  0
VERTEX
  8
1PARCELLE
  5
454e
 10
499635.680000
 20
6752570.530000
 30
0.000000
  0
VERTEX
  8
1PARCELLE
  5
454f
 10
499566.100000
 20
6752563.500000
 30
0.000000
  0
VERTEX
  8
1PARCELLE
  5
4550
 10
499566.060000
 20
6752571.400000
 30
0.000000
  0
VERTEX
  8
1PARCELLE
  5
4551
 10
499563.460000
 20
6752585.510000
 30
0.000000
  0
VERTEX
  8
1PARCELLE
  5
4552
 10
499562.750000
 20
6752597.530000
 30
0.000000
  0
VERTEX
  8
1PARCELLE
  5
4553
 10
499563.240000
 20
6752623.290000
 30
0.000000
  0
VERTEX
  8
1PARCELLE
  5
4554
 10
499639.280000
 20
6752622.180000
 30
0.000000
  0
VERTEX
  8
1PARCELLE
  5
4555
 10
499636.260000
 20
6752582.750000
 30
0.000000
  0
VERTEX
  8
1PARCELLE
  5
4556
 10
499635.680000
 20
6752570.530000
 30
0.000000
  0
SEQEND
  8
1PARCELLE
  5
4557
  0
TEXT
  5
4558
  8
3PARCELLETEX
  10
499604.470000
  20
6752595.900000
  30
0.000000
  40
2.000000
   1
389
  50
0.000000
   7
STANDARD
  0
POLYLINE
  5
4559
  8
1PARCELLE
 66
    1
 10
0.0
 20
0.0
 30
0.0
 70
     1
1001
SUPF
1000
000008555
1001
INDP
1000
01
1001
IDU
1000
1870000A0390
  0
VERTEX
  8
1PARCELLE
  5
455a
 10
499639.280000
 20
6752622.180000
 30
0.000000
  0
VERTEX
  8
1PARCELLE
  5
455b
 10
499643.740000
 20
6752680.250000
 30
0.000000
  0
VERTEX
  8
1PARCELLE
  5
455c
 10
499647.130000
 20
6752724.390000
 30
0.000000
  0
VERTEX
  8
1PARCELLE
  5
455d
 10
499554.780000
 20
6752736.630000
 30
0.000000
  0
VERTEX
  8
1PARCELLE
  5
455e
 10
499557.450000
 20
6752727.030000
 30
0.000000
  0
VERTEX
  8
1PARCELLE
  5
455f
 10
499559.120000
 20
6752718.780000
 30
0.000000
  0
VERTEX
  8
1PARCELLE
  5
4560
 10
499562.190000
 20
6752712.280000
 30
0.000000
  0
VERTEX
  8
1PARCELLE
  5
4561
 10
499564.380000
 20
6752704.440000
 30
0.000000
  0
VERTEX
  8
1PARCELLE
  5
4562
 10
499564.790000
 20
6752680.320000
 30
0.000000
  0
VERTEX
  8
1PARCELLE
  5
4563
 10
499563.470000
 20
6752635.410000
 30
0.000000
  0
VERTEX
  8
1PARCELLE
  5
4564
 10
499563.240000
 20
6752623.290000
 30
0.000000
  0
VERTEX
  8
1PARCELLE
  5
4565
 10
499639.280000
 20
6752622.180000
 30
0.000000
  0
SEQEND
  8
1PARCELLE
  5
4566
  0
TEXT
  5
4567
  8
3PARCELLETEX
  10
499606.330000
  20
6752675.870000
  30
0.000000
  40
2.000000
   1
390
  50
0.000000
   7
STANDARD
  0
POLYLINE
  5
4568
  8
1PARCELLE
 66
    1
 10
0.0
 20
0.0
 30
0.0
 70
     1
1001
SUPF
1000
000003880
1001
INDP
1000
01
1001
IDU
1000
1870000A0391
  0
VERTEX
  8
1PARCELLE
  5
4569
 10
499647.130000
 20
6752724.390000
 30
0.000000
  0
VERTEX
  8
1PARCELLE
  5
456a
 10
499649.950000
 20
6752761.000000
 30
0.000000
  0
VERTEX
  8
1PARCELLE
  5
456b
 10
499636.390000
 20
6752767.060000
 30
0.000000
  0
VERTEX
  8
1PARCELLE
  5
456c
 10
499618.180000
 20
6752770.330000
 30
0.000000
  0
VERTEX
  8
1PARCELLE
  5
456d
 10
499580.920000
 20
6752771.720000
 30
0.000000
  0
VERTEX
  8
1PARCELLE
  5
456e
 10
499557.160000
 20
6752774.840000
 30
0.000000
  0
VERTEX
  8
1PARCELLE
  5
456f
 10
499547.380000
 20
6752776.690000
 30
0.000000
  0
VERTEX
  8
1PARCELLE
  5
4570
 10
499549.620000
 20
6752767.140000
 30
0.000000
  0
VERTEX
  8
1PARCELLE
  5
4571
 10
499552.610000
 20
6752744.430000
 30
0.000000
  0
VERTEX
  8
1PARCELLE
  5
4572
 10
499554.780000
 20
6752736.630000
 30
0.000000
  0
VERTEX
  8
1PARCELLE
  5
4573
 10
499647.130000
 20
6752724.390000
 30
0.000000
  0
SEQEND
  8
1PARCELLE
  5
4574
  0
TEXT
  5
4575
  8
3PARCELLETEX
  10
499604.180000
  20
6752751.510000
  30
0.000000
  40
2.000000
   1
391
  50
0.000000
   7
STANDARD
  0
POLYLINE
  5
4576
  8
1PARCELLE
 66
    1
 10
0.0
 20
0.0
 30
0.0
 70
     1
1001
SUPF
1000
000000542
1001
INDP
1000
01
1001
IDU
1000
1870000A0397
  0
VERTEX
  8
1PARCELLE
  5
4577
 10
499967.300000
 20
6752591.700000
 30
0.000000
  0
VERTEX
  8
1PARCELLE
  5
4578
 10
499968.090000
 20
6752605.930000
 30
0.000000
  0
VERTEX
  8
1PARCELLE
  5
4579
 10
499972.780000
 20
6752634.090000
 30
0.000000
  0
VERTEX
  8
1PARCELLE
  5
457a
 10
499952.360000
 20
6752646.150000
 30
0.000000
  0
VERTEX
  8
1PARCELLE
  5
457b
 10
499948.080000
 20
6752648.680000
 30
0.000000
  0
VERTEX
  8
1PARCELLE
  5
457c
 10
499967.300000
 20
6752591.700000
 30
0.000000
  0
SEQEND
  8
1PARCELLE
  5
457d
  0
TEXT
  5
457e
  8
3PARCELLETEX
  10
499957.090000
  20
6752628.940000
  30
0.000000
  40
2.000000
   1
397
  50
0.000000
   7
STANDARD
  0
ENDSEC
  0
EOF
