  0
SECTION
  2
HEADER
  9
$ACADVER
  1
AC1009
  9
$INSBASE
 10
0.0
 20
0.0
 30
0.0
  9
$EXTMIN
 10
501969.020000
 20
6749304.900000
 30
1.000000E+020
  9
$EXTMAX
 10
504798.850000
 20
6753731.080000
 30
-1.000000E+020
  9
$LIMMIN
 10
0.0
 20
0.0
  9
$LIMMAX
 10
420.0
 20
297.0
  9
$ORTHOMODE
 70
     0
  9
$REGENMODE
 70
     1
  9
$FILLMODE
 70
     1
  9
$QTEXTMODE
 70
     0
  9
$MIRRTEXT
 70
     1
  9
$DRAGMODE
 70
     2
  9
$LTSCALE
 40
1.0
  9
$OSMODE
 70
     0
  9
$ATTMODE
 70
     1
  9
$TEXTSIZE
 40
2.5
  9
$TRACEWID
 40
1.0
  9
$TEXTSTYLE
  7
STANDARD
  9
$CLAYER
  8
3CIMMTEX
  9
$CELTYPE
  6
BYLAYER
  9
$CECOLOR
 62
   256
  9
$DIMSCALE
 40
1.0
  9
$DIMASZ
 40
2.5
  9
$DIMEXO
 40
0.63
  9
$DIMDLI
 40
3.75
  9
$DIMRND
 40
0.0
  9
$DIMDLE
 40
0.0
  9
$DIMEXE
 40
1.25
  9
$DIMTP
 40
0.0
  9
$DIMTM
 40
0.0
  9
$DIMTXT
 40
2.5
  9
$DIMCEN
 40
2.5
  9
$DIMTSZ
 40
0.0
  9
$DIMTOL
 70
     0
  9
$DIMLIM
 70
     0
  9
$DIMTIH
 70
     0
  9
$DIMTOH
 70
     0
  9
$DIMSE1
 70
     0
  9
$DIMSE2
 70
     0
  9
$DIMTAD
 70
     1
  9
$DIMZIN
 70
     8
  9
$DIMBLK
  1

  9
$DIMASO
 70
     1
  9
$DIMSHO
 70
     1
  9
$DIMPOST
  1

  9
$DIMAPOST
  1

  9
$DIMALT
 70
     0
  9
$DIMALTD
 70
     4
  9
$DIMALTF
 40
0.04
  9
$DIMLFAC
 40
1.0
  9
$DIMTOFL
 70
     1
  9
$DIMTVP
 40
0.0
  9
$DIMTIX
 70
     0
  9
$DIMSOXD
 70
     0
  9
$DIMSAH
 70
     0
  9
$DIMBLK1
  1

  9
$DIMBLK2
  1

  9
$DIMSTYLE
  2
STANDARD
  9
$DIMCLRD
 70
     0
  9
$DIMCLRE
 70
     0
  9
$DIMCLRT
 70
     0
  9
$DIMTFAC
 40
1.0
  9
$DIMGAP
 40
0.63
  9
$LUNITS
 70
     2
  9
$LUPREC
 70
     4
  9
$SKETCHINC
 40
1.0
  9
$FILLETRAD
 40
10.0
  9
$AUNITS
 70
     2
  9
$AUPREC
 70
     4
  9
$MENU
  1
.
  9
$ELEVATION
 40
0.0
  9
$PELEVATION
 40
0.0
  9
$THICKNESS
 40
0.0
  9
$LIMCHECK
 70
     0
  9
$BLIPMODE
 70
     0
  9
$CHAMFERA
 40
10.0
  9
$CHAMFERB
 40
10.0
  9
$SKPOLY
 70
     0
  9
$TDCREATE
 40
2451845.610691
  9
$TDUPDATE
 40
2455594.621247
  9
$TDINDWG
 40
0.005823
  9
$TDUSRTIMER
 40
0.005823
  9
$USRTIMER
 70
     1
  9
$ANGBASE
 50
90.0
  9
$ANGDIR
 70
     1
  9
$PDMODE
 70
     0
  9
$PDSIZE
 40
0.0
  9
$PLINEWID
 40
0.0
  9
$COORDS
 70
     2
  9
$SPLFRAME
 70
     0
  9
$SPLINETYPE
 70
     6
  9
$SPLINESEGS
 70
     8
  9
$ATTDIA
 70
     0
  9
$ATTREQ
 70
     1
  9
$HANDLING
 70
-16383
  9
$HANDSEED
  5
4a05
  9
$SURFTAB1
 70
     6
  9
$SURFTAB2
 70
     6
  9
$SURFTYPE
 70
     6
  9
$SURFU
 70
     6
  9
$SURFV
 70
     6
  9
$UCSNAME
  2

  9
$UCSORG
 10
0.0
 20
0.0
 30
0.0
  9
$UCSXDIR
 10
1.0
 20
0.0
 30
0.0
  9
$UCSYDIR
 10
0.0
 20
1.0
 30
0.0
  9
$PUCSNAME
  2

  9
$PUCSORG
 10
0.0
 20
0.0
 30
0.0
  9
$PUCSXDIR
 10
1.0
 20
0.0
 30
0.0
  9
$PUCSYDIR
 10
0.0
 20
1.0
 30
0.0
  9
$USERI1
 70
  1000
  9
$USERI2
 70
     0
  9
$USERI3
 70
     0
  9
$USERI4
 70
     0
  9
$USERI5
 70
     0
  9
$USERR1
 40
1000.0
  9
$USERR2
 40
0.0
  9
$USERR3
 40
0.0
  9
$USERR4
 40
0.0
  9
$USERR5
 40
0.0
  9
$WORLDVIEW
 70
     1
  9
$SHADEDGE
 70
     3
  9
$SHADEDIF
 70
    70
  9
$TILEMODE
 70
     1
  9
$MAXACTVP
 70
    48
  9
$PLIMCHECK
 70
     0
  9
$PEXTMIN
 10
1.000000E+020
 20
1.000000E+020
 30
1.000000E+020
  9
$PEXTMAX
 10
-1.000000E+020
 20
-1.000000E+020
 30
-1.000000E+020
  9
$PLIMMIN
 10
0.0
 20
0.0
  9
$PLIMMAX
 10
420.0
 20
297.0
  9
$UNITMODE
 70
     0
  9
$VISRETAIN
 70
     1
  9
$PLINEGEN
 70
     0
  9
$PSLTSCALE
 70
     1
  0
ENDSEC
  0
SECTION
  2
TABLES
  0
TABLE
  2
VPORT
 70
     3
  0
VPORT
  2
*ACTIVE
 70
     0
 10
0.0
 20
0.0
 11
1.0
 21
1.0
 12
503383.935000
 22
6751517.990000
 13
0.0
 23
0.0
 14
10.0
 24
10.0
 15
10.0
 25
10.0
 16
0.0
 26
0.0
 36
1.0
 17
0.0
 27
0.0
 37
0.0
 40
4426.180000
 41
1.622619
 42
50.0
 43
0.0
 44
0.0
 50
0.0
 51
0.0
 71
     0
 72
   100
 73
     1
 74
     1
 75
     0
 76
     0
 77
     0
 78
     0
  0
ENDTAB
  0
TABLE
  2
LTYPE
 70
     2
  0
LTYPE
  2
CONTINUOUS
 70
     0
  3
Solid line
 72
    65
 73
     0
 40
0.0
  0
LTYPE
  2
CONTINU
 70
     0
  3
Ligne continue
 72
    65
 73
     0
 40
0.0
  0
ENDTAB
  0
TABLE
  2
LAYER
 70
   101
  0
LAYER
  2
0
 70
     0
 62
     7
  6
CONTINU
  0
LAYER
  2
3CIMMTEX
 70
     0
 62
     7
  6
CONTINUOUS
  0
LAYER
  2
3CIMSTEX
 70
     0
 62
     7
  6
CONTINUOUS
  0
LAYER
  2
3CIME
 70
     0
 62
     7
  6
CONTINU
  0
LAYER
  2
1SUBDSECT
 70
     0
 62
     7
  6
CONTINU
  0
LAYER
  2
1PARCELLE
 70
     0
 62
     7
  6
CONTINU
  0
LAYER
  2
3BOULON
 70
     0
 62
     7
  6
CONTINUOUS
  0
LAYER
  2
3PISCINETEX
 70
     0
 62
     7
  6
CONTINUOUS
  0
LAYER
  2
3TOPOLINETEX
 70
     0
 62
     7
  6
CONTINUOUS
  0
LAYER
  2
3PISCINE
 70
     0
 62
     7
  6
CONTINUOUS
  0
LAYER
  2
3GAZODUCTEX
 70
     0
 62
     7
  6
CONTINU
  0
LAYER
  2
1SECTION
 70
     0
 62
     7
  6
CONTINU
  0
LAYER
  2
3PARCELLETEX
 70
     0
 62
     7
  6
CONTINU
  0
LAYER
  2
3LIMNONPARCTEX
 70
     0
 62
     7
  6
CONTINUOUS
  0
LAYER
  2
3TROUBATI
 70
     0
 62
     7
  6
CONTINU
  0
LAYER
  2
3TELEFERITEX
 70
     0
 62
     7
  6
CONTINU
  0
LAYER
  2
3FLECHEPAR
 70
     0
 62
     7
  6
CONTINU
  0
LAYER
  2
3CHEMINTEX
 70
     0
 62
     7
  6
CONTINU
  0
LAYER
  2
3BATIDUR
 70
     0
 62
     7
  6
CONTINU
  0
LAYER
  2
3BATILEGER
 70
     0
 62
     7
  6
CONTINU
  0
LAYER
  2
1TRONFLUV
 70
     0
 62
     7
  6
CONTINU
  0
LAYER
  2
3EAU
 70
     0
 62
     7
  6
CONTINU
  0
LAYER
  2
3PONT
 70
     0
 62
     7
  6
CONTINU
  0
LAYER
  2
3TUNNEL
 70
     0
 62
     7
  6
CONTINU
  0
LAYER
  2
1ZONCOMM
 70
     0
 62
     7
  6
CONTINU
  0
LAYER
  2
3CHEMIN
 70
     0
 62
     7
  6
CONTINU
  0
LAYER
  2
3SNCF
 70
     0
 62
     7
  6
CONTINU
  0
LAYER
  2
3BORNE
 70
     0
 62
     7
  6
CONTINU
  0
LAYER
  2
3LIEUDITTEX
 70
     0
 62
     7
  6
CONTINU
  0
LAYER
  2
3SUBDFISCTEX
 70
     0
 62
     7
  6
CONTINU
  0
LAYER
  2
3TRONFLUVTEX
 70
     0
 62
     7
  6
CONTINU
  0
LAYER
  2
3TRONROUTEX
 70
     0
 62
     7
  6
CONTINU
  0
LAYER
  2
3ZONCOMMTEX
 70
     0
 62
     7
  6
CONTINU
  0
LAYER
  2
1CHARGE
 70
     0
 62
     7
  6
CONTINU
  0
LAYER
  2
1LIEUDIT
 70
     0
 62
     7
  6
CONTINU
  0
LAYER
  2
1SUBDFISC
 70
     0
 62
     7
  6
CONTINU
  0
LAYER
  2
1TRONROU
 70
     0
 62
     7
  6
CONTINU
  0
LAYER
  2
3CALVAIRETEX
 70
     0
 62
     7
  6
CONTINU
  0
LAYER
  2
3NUMVOIE
 70
     0
 62
     7
  6
CONTINU
  0
LAYER
  2
3IGNNB
 70
     0
 62
     7
  6
CONTINU
  0
LAYER
  2
3EDF
 70
     0
 62
     7
  6
CONTINU
  0
LAYER
  2
3CALVAIRE
 70
     0
 62
     7
  6
CONTINU
  0
LAYER
  2
3ENSIMMO
 70
     0
 62
     7
  6
CONTINU
  0
LAYER
  2
3CIMM
 70
     0
 62
     7
  6
CONTINU
  0
LAYER
  2
3CIMS
 70
     0
 62
     7
  6
CONTINU
  0
LAYER
  2
3IGNB
 70
     0
 62
     7
  6
CONTINU
  0
LAYER
  2
3CADB
 70
     0
 62
     7
  6
CONTINU
  0
LAYER
  2
3CADNB
 70
     0
 62
     7
  6
CONTINU
  0
LAYER
  2
3DIVERS
 70
     0
 62
     7
  6
CONTINU
  0
LAYER
  2
1FLECHEFL
 70
     0
 62
     7
  6
CONTINU
  0
LAYER
  2
1HALTE
 70
     0
 62
     7
  6
CONTINU
  0
LAYER
  2
1ARRET
 70
     0
 62
     7
  6
CONTINU
  0
LAYER
  2
1STATION
 70
     0
 62
     7
  6
CONTINU
  0
LAYER
  2
1PYLONE
 70
     0
 62
     7
  6
CONTINU
  0
LAYER
  2
3MURMI
 70
     0
 62
     7
  6
CONTINU
  0
LAYER
  2
3MURNONMI
 70
     0
 62
     7
  6
CONTINU
  0
LAYER
  2
3FOSSEMI
 70
     0
 62
     7
  6
CONTINU
  0
LAYER
  2
3FOSSENONMI
 70
     0
 62
     7
  6
CONTINU
  0
LAYER
  2
3CLOTMI
 70
     0
 62
     7
  6
CONTINU
  0
LAYER
  2
3CLOTNONMI
 70
     0
 62
     7
  6
CONTINU
  0
LAYER
  2
3HAIEMI
 70
     0
 62
     7
  6
CONTINU
  0
LAYER
  2
3HAIENONMI
 70
     0
 62
     7
  6
CONTINU
  0
LAYER
  2
1COMM
 70
     0
 62
     7
  6
CONTINU
  0
LAYER
  2
1DEPART
 70
     0
 62
     7
  6
CONTINU
  0
LAYER
  2
1ETAT
 70
     0
 62
     7
  6
CONTINU
  0
LAYER
  2
1PARCELLENFP
 70
     0
 62
     7
  6
CONTINU
  0
LAYER
  2
3PARCNFPTEX
 70
     0
 62
     7
  6
CONTINU
  0
LAYER
  2
3AQUEDUC
 70
     0
 62
     7
  6
CONTINU
  0
LAYER
  2
3CHARGETEX
 70
     0
 62
     7
  6
CONTINU
  0
LAYER
  2
3EGLISE
 70
     0
 62
     7
  6
CONTINU
  0
LAYER
  2
3EAUTEX
 70
     0
 62
     7
  6
CONTINU
  0
LAYER
  2
3PONTTEX
 70
     0
 62
     7
  6
CONTINU
  0
LAYER
  2
3SNCFTEX
 70
     0
 62
     7
  6
CONTINU
  0
LAYER
  2
3DPTEX
 70
     0
 62
     7
  6
CONTINU
  0
LAYER
  2
3TUNNELTEX
 70
     0
 62
     7
  6
CONTINU
  0
LAYER
  2
3EDFTEX
 70
     0
 62
     7
  6
CONTINU
  0
LAYER
  2
3EGLISETEX
 70
     0
 62
     7
  6
CONTINU
  0
LAYER
  2
3GAZODUC
 70
     0
 62
     7
  6
CONTINU
  0
LAYER
  2
3LIMNONPARC
 70
     0
 62
     7
  6
CONTINU
  0
LAYER
  2
3SENTIER
 70
     0
 62
     7
  6
CONTINU
  0
LAYER
  2
3SENTIERTEX
 70
     0
 62
     7
  6
CONTINU
  0
LAYER
  2
3MOSQUEE
 70
     0
 62
     7
  6
CONTINU
  0
LAYER
  2
3MOSQUEETEX
 70
     0
 62
     7
  6
CONTINU
  0
LAYER
  2
3SYNAGO
 70
     0
 62
     7
  6
CONTINU
  0
LAYER
  2
3SYNAGOTEX
 70
     0
 62
     7
  6
CONTINU
  0
LAYER
  2
3TELEFERI
 70
     0
 62
     7
  6
CONTINU
  0
LAYER
  2
3TOPOLINE
 70
     0
 62
     7
  6
CONTINU
  0
LAYER
  2
1TROUCHARGE
 70
     0
 62
     7
  6
CONTINU
  0
LAYER
  2
1TROUPARCELLE
 70
     0
 62
     7
  6
CONTINU
  0
LAYER
  2
1TROUSECTION
 70
     0
 62
     7
  6
CONTINU
  0
LAYER
  2
1TROUSUBDFISC
 70
     0
 62
     7
  6
CONTINU
  0
LAYER
  2
1TROUSUBDSECT
 70
     0
 62
     7
  6
CONTINU
  0
LAYER
  2
3AQUEDUCTEX
 70
     0
 62
     7
  6
CONTINUOUS
  0
LAYER
  2
3PARCELLETEX2
 70
     0
 62
     7
  6
CONTINUOUS
  0
LAYER
  2
3PUIT
 70
     0
 62
     7
  6
CONTINUOUS
  0
LAYER
  2
3FISCLINE
 70
     0
 62
     7
  6
CONTINUOUS
  0
LAYER
  2
3PUITTEX
 70
     0
 62
     7
  6
CONTINUOUS
  0
LAYER
  2
3FISCLINETEX
 70
     0
 62
     7
  6
CONTINUOUS
  0
LAYER
  2
3CROIX
 70
     0
 62
     7
  6
CONTINUOUS
  0
LAYER
  2
3CIMETEX
 70
     0
 62
     7
  6
CONTINUOUS
  0
LAYER
  2
3BATITEX
 70
     0
 62
     7
  6
CONTINUOUS
  0
LAYER
  5
4464
  2
3PONCTDIVERS
 70
   0
 62
     7
  6
CONTINUOUS
  0
LAYER
  5
4465
  2
3PONCTDIVERSTEX
 70
   0
 62
     7
  6
CONTINUOUS
  0
LAYER
  5
4466
  2
3LINEDIVERS
 70
   0
 62
     7
  6
CONTINUOUS
  0
LAYER
  5
4467
  2
3LINEDIVERS
 70
   0
 62
     7
  6
CONTINUOUS
  0
LAYER
  5
4468
  2
3LINEDIVERSTEX
 70
   0
 62
     7
  6
CONTINUOUS
  0
ENDTAB
  0
TABLE
  2
STYLE
 70
     1
  0
STYLE
  2
STANDARD
 70
     0
 40
0.0
 41
1.0
 50
0.0
 71
     0
 42
2.5
  3
Times New Roman
  4

  0
ENDTAB
  0
TABLE
  2
VIEW
 70
     0
  0
ENDTAB
  0
TABLE
  2
UCS
 70
     0
  0
ENDTAB
  0
TABLE
  2
APPID
 70
    18
  0
APPID
  2
ACAD
 70
     0
  0
APPID
  2
SUPF
 70
     0
  0
APPID
  2
INDP
 70
     0
  0
APPID
  2
COAR
 70
     0
  0
APPID
  2
IDU
 70
     0
  0
APPID
  2
QUPL
 70
     0
  0
APPID
  2
COPL
 70
     0
  0
APPID
  2
EOR
 70
     0
  0
APPID
  2
ICL
 70
     0
  0
APPID
  2
INP
 70
     0
  0
APPID
  2
CAN
 70
     0
  0
APPID
  2
PPLN
 70
     0
  0
APPID
  2
MAP
 70
     0
  0
APPID
  2
PALT
 70
     0
  0
APPID
  2
DEDI
 70
     0
  0
APPID
  2
DIS
 70
     0
  0
APPID
  2
DRED
 70
     0
  0
APPID
  2
ALTI
 70
     0
  0
ENDTAB
  0
TABLE
  2
DIMSTYLE
 70
     1
  0
DIMSTYLE
  2
STANDARD
 70
     0
  3

  4

  5

  6

  7

 40
1.0
 41
0.18
 42
0.06
 43
0.38
 44
0.18
 45
0.0
 46
0.0
 47
0.0
 48
0.0
140
0.18
141
0.09
142
0.0
143
25.4
144
1.0
145
0.0
146
1.0
147
0.09
 71
     0
 72
     0
 73
     1
 74
     1
 75
     0
 76
     0
 77
     0
 78
     0
170
     0
171
     2
172
     0
173
     0
174
     0
175
     0
176
     0
177
     0
178
     0
  0
ENDTAB
  0
ENDSEC
  0
SECTION
  2
BLOCKS
  0
BLOCK
  8
0
  2
$MODEL_SPACE
 70
     0
 10
0.0
 20
0.0
 30
0.0
  3
$MODEL_SPACE
  1

  0
ENDBLK
  5
4021
  8
0
  0
BLOCK
 67
     1
  8
0
  2
$PAPER_SPACE
 70
     0
 10
0.0
 20
0.0
 30
0.0
  3
$PAPER_SPACE
  1

  0
ENDBLK
  5
401D
 67
     1
  8
0
  0
BLOCK
  8
0
  2
DEFAUT_SYMBOLE
 70
     0
 10
0.0
 20
0.0
 30
0.0
  3
DEFAUT_SYMBOLE
  1

  0
POLYLINE
  5
40A4
  8
0
 66
     1
 10
0.0
 20
0.0
 30
0.0
 70
     1
  0
VERTEX
  5
4353
  8
0
 10
-0.5
 20
-0.5
 30
0.0
  0
VERTEX
  5
4354
  8
0
 10
-0.5
 20
0.5
 30
0.0
  0
VERTEX
  5
4355
  8
0
 10
0.5
 20
0.5
 30
0.0
  0
VERTEX
  5
4356
  8
0
 10
0.5
 20
-0.5
 30
0.0
  0
SEQEND
  5
4357
  8
0
  0
ENDBLK
  5
40AA
  8
0
  0
BLOCK
  8
0
  2
BORLIPRO
 70
     0
 10
0.0
 20
0.0
 30
0.0
  3
BORLIPRO
  1

  0
POLYLINE
  5
40AD
  8
0
 66
     1
 10
0.0
 20
0.0
 30
0.0
 70
     1
  0
VERTEX
  5
4358
  8
0
 10
-0.07
 20
0.5
 30
0.0
  0
VERTEX
  5
4359
  8
0
 10
-0.19
 20
0.47
 30
0.0
  0
VERTEX
  5
435A
  8
0
 10
-0.31
 20
0.4
 30
0.0
  0
VERTEX
  5
435B
  8
0
 10
-0.4
 20
0.31
 30
0.0
  0
VERTEX
  5
435C
  8
0
 10
-0.47
 20
0.19
 30
0.0
  0
VERTEX
  5
435D
  8
0
 10
-0.5
 20
0.07
 30
0.0
  0
VERTEX
  5
435E
  8
0
 10
-0.5
 20
-0.07
 30
0.0
  0
VERTEX
  5
435F
  8
0
 10
-0.47
 20
-0.19
 30
0.0
  0
VERTEX
  5
4360
  8
0
 10
-0.4
 20
-0.31
 30
0.0
  0
VERTEX
  5
4361
  8
0
 10
-0.31
 20
-0.4
 30
0.0
  0
VERTEX
  5
4362
  8
0
 10
-0.19
 20
-0.47
 30
0.0
  0
VERTEX
  5
4363
  8
0
 10
-0.07
 20
-0.5
 30
0.0
  0
VERTEX
  5
4364
  8
0
 10
0.07
 20
-0.5
 30
0.0
  0
VERTEX
  5
4365
  8
0
 10
0.19
 20
-0.47
 30
0.0
  0
VERTEX
  5
4366
  8
0
 10
0.31
 20
-0.4
 30
0.0
  0
VERTEX
  5
4367
  8
0
 10
0.4
 20
-0.31
 30
0.0
  0
VERTEX
  5
4368
  8
0
 10
0.47
 20
-0.19
 30
0.0
  0
VERTEX
  5
4369
  8
0
 10
0.5
 20
-0.07
 30
0.0
  0
VERTEX
  5
436A
  8
0
 10
0.5
 20
0.07
 30
0.0
  0
VERTEX
  5
436B
  8
0
 10
0.47
 20
0.19
 30
0.0
  0
VERTEX
  5
436C
  8
0
 10
0.4
 20
0.31
 30
0.0
  0
VERTEX
  5
436D
  8
0
 10
0.31
 20
0.4
 30
0.0
  0
VERTEX
  5
436E
  8
0
 10
0.19
 20
0.47
 30
0.0
  0
VERTEX
  5
436F
  8
0
 10
0.07
 20
0.5
 30
0.0
  0
SEQEND
  5
4370
  8
0
  0
ENDBLK
  5
40C7
  8
0
  0
BLOCK
  8
0
  2
CLOTMI
 70
     0
 10
0.0
 20
0.0
 30
0.0
  3
CLOTMI
  1

  0
POLYLINE
  5
40CA
  8
0
 66
     1
 10
0.0
 20
0.0
 30
0.0
 70
     1
 40
0.38
 41
0.38
  0
VERTEX
  5
4371
  8
0
 10
-0.19
 20
0.0
 30
0.0
 42
1.0
  0
VERTEX
  5
4372
  8
0
 10
0.19
 20
0.0
 30
0.0
 42
1.0
  0
SEQEND
  5
4373
  8
0
  0
ENDBLK
  5
40CE
  8
0
  0
BLOCK
  8
0
  2
CLOTNOMI
 70
     0
 10
0.0
 20
0.0
 30
0.0
  3
CLOTNOMI
  1

  0
POLYLINE
  5
40D1
  8
0
 66
     1
 10
0.0
 20
0.0
 30
0.0
 70
     1
 40
0.38
 41
0.38
  0
VERTEX
  5
4374
  8
0
 10
-0.19
 20
0.37
 30
0.0
 42
1.0
  0
VERTEX
  5
4375
  8
0
 10
0.19
 20
0.37
 30
0.0
 42
1.0
  0
SEQEND
  5
4376
  8
0
  0
ENDBLK
  5
40D5
  8
0
  0
BLOCK
  8
0
  2
FOSSNOMI
 70
     0
 10
0.0
 20
0.0
 30
0.0
  3
FOSSNOMI
  1

  0
LINE
  5
40D8
  8
0
 10
1.5
 20
0.5
 30
0.0
 11
2.5
 21
0.5
 31
0.0
  0
LINE
  5
40D9
  8
0
 10
-0.5
 20
0.5
 30
0.0
 11
0.5
 21
0.5
 31
0.0
  0
LINE
  5
40DA
  8
0
 10
-2.5
 20
0.5
 30
0.0
 11
-1.5
 21
0.5
 31
0.0
  0
ENDBLK
  5
40DB
  8
0
  0
BLOCK
  8
0
  2
FOSSMI
 70
     0
 10
0.0
 20
0.0
 30
0.0
  3
FOSSMI
  1

  0
LINE
  5
40DE
  8
0
 10
1.5
 20
0.5
 30
0.0
 11
2.5
 21
0.5
 31
0.0
  0
LINE
  5
40DF
  8
0
 10
1.5
 20
-0.5
 30
0.0
 11
2.5
 21
-0.5
 31
0.0
  0
LINE
  5
40E0
  8
0
 10
-0.5
 20
-0.5
 30
0.0
 11
0.5
 21
-0.5
 31
0.0
  0
LINE
  5
40E1
  8
0
 10
-0.5
 20
0.5
 30
0.0
 11
0.5
 21
0.5
 31
0.0
  0
LINE
  5
40E2
  8
0
 10
-2.5
 20
0.5
 30
0.0
 11
-1.5
 21
0.5
 31
0.0
  0
LINE
  5
40E3
  8
0
 10
-2.5
 20
-0.5
 30
0.0
 11
-1.5
 21
-0.5
 31
0.0
  0
ENDBLK
  5
40E4
  8
0
  0
BLOCK
  8
0
  2
HAIENOMI
 70
     0
 10
0.0
 20
0.0
 30
0.0
  3
HAIENOMI
  1

  0
POLYLINE
  5
40E7
  8
0
 66
     1
 10
0.0
 20
0.0
 30
0.0
  0
VERTEX
  5
4377
  8
0
 10
0.5
 20
1.0
 30
0.0
  0
VERTEX
  5
4378
  8
0
 10
-0.5
 20
0.0
 30
0.0
  0
SEQEND
  5
4379
  8
0
  0
POLYLINE
  5
40EB
  8
0
 66
     1
 10
0.0
 20
0.0
 30
0.0
  0
VERTEX
  5
437A
  8
0
 10
-0.5
 20
1.0
 30
0.0
  0
VERTEX
  5
437B
  8
0
 10
0.5
 20
0.0
 30
0.0
  0
SEQEND
  5
437C
  8
0
  0
ENDBLK
  5
40EF
  8
0
  0
BLOCK
  8
0
  2
HAIEMI
 70
     0
 10
0.0
 20
0.0
 30
0.0
  3
HAIEMI
  1

  0
POLYLINE
  5
40F2
  8
0
 66
     1
 10
0.0
 20
0.0
 30
0.0
  0
VERTEX
  5
437D
  8
0
 10
0.5
 20
0.5
 30
0.0
  0
VERTEX
  5
437E
  8
0
 10
-0.5
 20
-0.5
 30
0.0
  0
SEQEND
  5
437F
  8
0
  0
POLYLINE
  5
40F6
  8
0
 66
     1
 10
0.0
 20
0.0
 30
0.0
  0
VERTEX
  5
4380
  8
0
 10
-0.5
 20
0.5
 30
0.0
  0
VERTEX
  5
4381
  8
0
 10
0.5
 20
-0.5
 30
0.0
  0
SEQEND
  5
4382
  8
0
  0
ENDBLK
  5
40FA
  8
0
  0
BLOCK
  8
0
  2
MURMI
 70
     0
 10
0.0
 20
0.0
 30
0.0
  3
MURMI
  1

  0
LINE
  5
40FD
  8
0
 10
-0.75
 20
0.5
 30
0.0
 11
0.75
 21
0.5
 31
0.0
  0
LINE
  5
40FE
  8
0
 10
-0.75
 20
-0.5
 30
0.0
 11
0.75
 21
-0.5
 31
0.0
  0
ENDBLK
  5
40FF
  8
0
  0
BLOCK
  8
0
  2
MURNOMI
 70
     0
 10
0.0
 20
0.0
 30
0.0
  3
MURNOMI
  1

  0
LINE
  5
4102
  8
0
 10
-0.75
 20
0.5
 30
0.0
 11
0.75
 21
0.5
 31
0.0
  0
ENDBLK
  5
4103
  8
0
  0
BLOCK
  8
0
  2
DETATOPO
 70
     0
 10
0.0
 20
0.0
 30
0.0
  3
DETATOPO
  1

  0
POLYLINE
  5
4106
  8
0
 66
     1
 10
0.0
 20
0.0
 30
0.0
  0
VERTEX
  5
4383
  8
0
 10
0.0
 20
-1.5
 30
0.0
  0
VERTEX
  5
4384
  8
0
 10
0.0
 20
1.5
 30
0.0
  0
SEQEND
  5
4385
  8
0
  0
POLYLINE
  5
410A
  8
0
 66
     1
 10
0.0
 20
0.0
 30
0.0
  0
VERTEX
  5
4386
  8
0
 10
-1.5
 20
0.0
 30
0.0
  0
VERTEX
  5
4387
  8
0
 10
1.5
 20
0.0
 30
0.0
  0
SEQEND
  5
4388
  8
0
  0
ENDBLK
  5
410E
  8
0
  0
BLOCK
  8
0
  2
EGLISE
 70
     0
 10
0.0
 20
0.0
 30
0.0
  3
EGLISE
  1

  0
POLYLINE
  5
4111
  8
0
 66
     1
 10
0.0
 20
0.0
 30
0.0
 40
0.2
 41
0.2
  0
VERTEX
  5
4389
  8
0
 10
-7.5
 20
0.0
 30
0.0
  0
VERTEX
  5
438A
  8
0
 10
2.5
 20
0.0
 30
0.0
  0
SEQEND
  5
438B
  8
0
  0
POLYLINE
  5
4115
  8
0
 66
     1
 10
0.0
 20
0.0
 30
0.0
 40
0.2
 41
0.2
  0
VERTEX
  5
438C
  8
0
 10
0.0
 20
-2.5
 30
0.0
  0
VERTEX
  5
438D
  8
0
 10
0.0
 20
2.5
 30
0.0
  0
SEQEND
  5
438E
  8
0
  0
ENDBLK
  5
4119
  8
0
  0
BLOCK
  8
0
  2
CADBORNE
 70
     0
 10
0.0
 20
0.0
 30
0.0
  3
CADBORNE
  1

  0
POLYLINE
  5
411C
  8
0
 66
     1
 10
0.0
 20
0.0
 30
0.0
 70
     1
  0
VERTEX
  5
438F
  8
0
 10
-1.5
 20
-0.87
 30
0.0
  0
VERTEX
  5
4390
  8
0
 10
1.5
 20
-0.87
 30
0.0
  0
VERTEX
  5
4391
  8
0
 10
0.0
 20
1.73
 30
0.0
  0
SEQEND
  5
4392
  8
0
  0
CIRCLE
  5
4121
  8
0
 10
0.0
 20
0.0
 30
0.0
 40
0.87
  0
ENDBLK
  5
4122
  8
0
  0
BLOCK
  8
0
  2
PIQUET
 70
     0
 10
0.0
 20
0.0
 30
0.0
  3
PIQUET
  1

  0
POLYLINE
  5
4125
  8
0
 66
     1
 10
0.0
 20
0.0
 30
0.0
 70
     1
  0
VERTEX
  5
4393
  8
0
 10
-1.5
 20
-0.87
 30
0.0
  0
VERTEX
  5
4394
  8
0
 10
1.5
 20
-0.87
 30
0.0
  0
VERTEX
  5
4395
  8
0
 10
0.0
 20
1.73
 30
0.0
  0
SEQEND
  5
4396
  8
0
  0
ENDBLK
  5
412A
  8
0
  0
BLOCK
  8
0
  2
RNGF
 70
     0
 10
0.0
 20
0.0
 30
0.0
  3
RNGF
  1

  0
POLYLINE
  5
412D
  8
0
 66
     1
 10
0.0
 20
0.0
 30
0.0
  0
VERTEX
  5
4397
  8
0
 10
0.713529
 20
0.0
 30
0.0
  0
VERTEX
  5
4398
  8
0
 10
1.0
 20
0.0
 30
0.0
  0
VERTEX
  5
4399
  8
0
 10
1.0
 20
0.131653
 30
0.0
  0
VERTEX
  5
439A
  8
0
 10
0.931852
 20
0.385986
 30
0.0
  0
VERTEX
  5
439B
  8
0
 10
0.800199
 20
0.614014
 30
0.0
  0
VERTEX
  5
439C
  8
0
 10
0.614014
 20
0.800199
 30
0.0
  0
VERTEX
  5
439D
  8
0
 10
0.385986
 20
0.931852
 30
0.0
  0
VERTEX
  5
439E
  8
0
 10
0.131653
 20
1.0
 30
0.0
  0
VERTEX
  5
439F
  8
0
 10
-0.131653
 20
1.0
 30
0.0
  0
VERTEX
  5
43A0
  8
0
 10
-0.385986
 20
0.931852
 30
0.0
  0
VERTEX
  5
43A1
  8
0
 10
-0.614014
 20
0.800199
 30
0.0
  0
VERTEX
  5
43A2
  8
0
 10
-0.800199
 20
0.614014
 30
0.0
  0
VERTEX
  5
43A3
  8
0
 10
-0.931852
 20
0.385986
 30
0.0
  0
VERTEX
  5
43A4
  8
0
 10
-1.0
 20
0.131653
 30
0.0
  0
VERTEX
  5
43A5
  8
0
 10
-1.0
 20
0.0
 30
0.0
  0
VERTEX
  5
43A6
  8
0
 10
-0.713529
 20
0.0
 30
0.0
  0
SEQEND
  5
43A7
  8
0
  0
INSERT
  5
4140
  8
0
  2
*X17
 10
0.0
 20
0.0
 30
0.0
 50
180.0
1001
ACAD
1000
HATCH
1002
{
1070
    16
1000
_U
1040
0.01
1040
0.0
1070
     1
1002
}
  0
POLYLINE
  5
4141
  8
0
 66
     1
 10
0.0
 20
0.0
 30
0.0
 70
     1
  0
VERTEX
  5
43A8
  8
0
 10
0.713529
 20
0.0
 30
0.0
  0
VERTEX
  5
43A9
  8
0
 10
0.713529
 20
0.093938
 30
0.0
  0
VERTEX
  5
43AA
  8
0
 10
0.664903
 20
0.275412
 30
0.0
  0
VERTEX
  5
43AB
  8
0
 10
0.570966
 20
0.438117
 30
0.0
  0
VERTEX
  5
43AC
  8
0
 10
0.438117
 20
0.570966
 30
0.0
  0
VERTEX
  5
43AD
  8
0
 10
0.275412
 20
0.664903
 30
0.0
  0
VERTEX
  5
43AE
  8
0
 10
0.093938
 20
0.713529
 30
0.0
  0
VERTEX
  5
43AF
  8
0
 10
-0.093938
 20
0.713529
 30
0.0
  0
VERTEX
  5
43B0
  8
0
 10
-0.275412
 20
0.664903
 30
0.0
  0
VERTEX
  5
43B1
  8
0
 10
-0.438117
 20
0.570966
 30
0.0
  0
VERTEX
  5
43B2
  8
0
 10
-0.570966
 20
0.438117
 30
0.0
  0
VERTEX
  5
43B3
  8
0
 10
-0.664903
 20
0.275412
 30
0.0
  0
VERTEX
  5
43B4
  8
0
 10
-0.713529
 20
0.093938
 30
0.0
  0
VERTEX
  5
43B5
  8
0
 10
-0.713529
 20
0.0
 30
0.0
  0
SEQEND
  5
43B6
  8
0
  0
ENDBLK
  5
4151
  8
0
  0
BLOCK
  8
0
  2
*X17
 70
     1
 10
0.0
 20
0.0
 30
0.0
  3
*X17
  1

  0
LINE
  5
4153
  8
0
 62
     0
 10
-0.62184
 20
-0.35
 30
0.0
 11
0.62184
 21
-0.35
 31
0.0
  0
LINE
  5
4154
  8
0
 62
     0
 10
-0.627614
 20
-0.34
 30
0.0
 11
0.627614
 21
-0.34
 31
0.0
  0
LINE
  5
4155
  8
0
 62
     0
 10
-0.633387
 20
-0.33
 30
0.0
 11
0.633387
 21
-0.33
 31
0.0
  0
LINE
  5
4156
  8
0
 62
     0
 10
-0.639161
 20
-0.32
 30
0.0
 11
0.639161
 21
-0.32
 31
0.0
  0
LINE
  5
4157
  8
0
 62
     0
 10
-0.644934
 20
-0.31
 30
0.0
 11
0.644934
 21
-0.31
 31
0.0
  0
LINE
  5
4158
  8
0
 62
     0
 10
-0.650708
 20
-0.3
 30
0.0
 11
0.650708
 21
-0.3
 31
0.0
  0
LINE
  5
4159
  8
0
 62
     0
 10
-0.656481
 20
-0.29
 30
0.0
 11
0.656481
 21
-0.29
 31
0.0
  0
LINE
  5
415A
  8
0
 62
     0
 10
-0.662255
 20
-0.28
 30
0.0
 11
0.662255
 21
-0.28
 31
0.0
  0
LINE
  5
415B
  8
0
 62
     0
 10
-0.666354
 20
-0.27
 30
0.0
 11
0.666354
 21
-0.27
 31
0.0
  0
LINE
  5
415C
  8
0
 62
     0
 10
-0.669033
 20
-0.26
 30
0.0
 11
0.669033
 21
-0.26
 31
0.0
  0
LINE
  5
415D
  8
0
 62
     0
 10
-0.671713
 20
-0.25
 30
0.0
 11
0.671713
 21
-0.25
 31
0.0
  0
LINE
  5
415E
  8
0
 62
     0
 10
-0.674392
 20
-0.24
 30
0.0
 11
0.674392
 21
-0.24
 31
0.0
  0
LINE
  5
415F
  8
0
 62
     0
 10
-0.677072
 20
-0.23
 30
0.0
 11
0.677072
 21
-0.23
 31
0.0
  0
LINE
  5
4160
  8
0
 62
     0
 10
-0.679751
 20
-0.22
 30
0.0
 11
0.679751
 21
-0.22
 31
0.0
  0
LINE
  5
4161
  8
0
 62
     0
 10
-0.682431
 20
-0.21
 30
0.0
 11
0.682431
 21
-0.21
 31
0.0
  0
LINE
  5
4162
  8
0
 62
     0
 10
-0.68511
 20
-0.2
 30
0.0
 11
0.68511
 21
-0.2
 31
0.0
  0
LINE
  5
4163
  8
0
 62
     0
 10
-0.68779
 20
-0.19
 30
0.0
 11
0.68779
 21
-0.19
 31
0.0
  0
LINE
  5
4164
  8
0
 62
     0
 10
-0.690469
 20
-0.18
 30
0.0
 11
0.690469
 21
-0.18
 31
0.0
  0
LINE
  5
4165
  8
0
 62
     0
 10
-0.693149
 20
-0.17
 30
0.0
 11
0.693149
 21
-0.17
 31
0.0
  0
LINE
  5
4166
  8
0
 62
     0
 10
-0.695828
 20
-0.16
 30
0.0
 11
0.695828
 21
-0.16
 31
0.0
  0
LINE
  5
4167
  8
0
 62
     0
 10
-0.698508
 20
-0.15
 30
0.0
 11
0.698508
 21
-0.15
 31
0.0
  0
LINE
  5
4168
  8
0
 62
     0
 10
-0.701187
 20
-0.14
 30
0.0
 11
0.701187
 21
-0.14
 31
0.0
  0
LINE
  5
4169
  8
0
 62
     0
 10
-0.703866
 20
-0.13
 30
0.0
 11
0.703866
 21
-0.13
 31
0.0
  0
LINE
  5
416A
  8
0
 62
     0
 10
-0.706546
 20
-0.12
 30
0.0
 11
0.706546
 21
-0.12
 31
0.0
  0
LINE
  5
416B
  8
0
 62
     0
 10
-0.709225
 20
-0.11
 30
0.0
 11
0.709225
 21
-0.11
 31
0.0
  0
LINE
  5
416C
  8
0
 62
     0
 10
-0.711905
 20
-0.1
 30
0.0
 11
0.711905
 21
-0.1
 31
0.0
  0
LINE
  5
416D
  8
0
 62
     0
 10
-0.713529
 20
-0.09
 30
0.0
 11
0.713529
 21
-0.09
 31
0.0
  0
LINE
  5
416E
  8
0
 62
     0
 10
-0.713529
 20
-0.08
 30
0.0
 11
0.713529
 21
-0.08
 31
0.0
  0
LINE
  5
416F
  8
0
 62
     0
 10
-0.713529
 20
-0.07
 30
0.0
 11
0.713529
 21
-0.07
 31
0.0
  0
LINE
  5
4170
  8
0
 62
     0
 10
-0.713529
 20
-0.06
 30
0.0
 11
0.713529
 21
-0.06
 31
0.0
  0
LINE
  5
4171
  8
0
 62
     0
 10
-0.713529
 20
-0.05
 30
0.0
 11
0.713529
 21
-0.05
 31
0.0
  0
LINE
  5
4172
  8
0
 62
     0
 10
-0.713529
 20
-0.04
 30
0.0
 11
0.713529
 21
-0.04
 31
0.0
  0
LINE
  5
4173
  8
0
 62
     0
 10
-0.713529
 20
-0.03
 30
0.0
 11
0.713529
 21
-0.03
 31
0.0
  0
LINE
  5
4174
  8
0
 62
     0
 10
-0.713529
 20
-0.02
 30
0.0
 11
0.713529
 21
-0.02
 31
0.0
  0
LINE
  5
4175
  8
0
 62
     0
 10
-0.713529
 20
-0.01
 30
0.0
 11
0.713529
 21
-0.01
 31
0.0
  0
LINE
  5
4176
  8
0
 62
     0
 10
-0.616067
 20
-0.36
 30
0.0
 11
0.616067
 21
-0.36
 31
0.0
  0
LINE
  5
4177
  8
0
 62
     0
 10
-0.610293
 20
-0.37
 30
0.0
 11
0.610293
 21
-0.37
 31
0.0
  0
LINE
  5
4178
  8
0
 62
     0
 10
-0.60452
 20
-0.38
 30
0.0
 11
0.60452
 21
-0.38
 31
0.0
  0
LINE
  5
4179
  8
0
 62
     0
 10
-0.598746
 20
-0.39
 30
0.0
 11
0.598746
 21
-0.39
 31
0.0
  0
LINE
  5
417A
  8
0
 62
     0
 10
-0.592973
 20
-0.4
 30
0.0
 11
0.592973
 21
-0.4
 31
0.0
  0
LINE
  5
417B
  8
0
 62
     0
 10
-0.587199
 20
-0.41
 30
0.0
 11
0.587199
 21
-0.41
 31
0.0
  0
LINE
  5
417C
  8
0
 62
     0
 10
-0.581426
 20
-0.42
 30
0.0
 11
0.581426
 21
-0.42
 31
0.0
  0
LINE
  5
417D
  8
0
 62
     0
 10
-0.575652
 20
-0.43
 30
0.0
 11
0.575652
 21
-0.43
 31
0.0
  0
LINE
  5
417E
  8
0
 62
     0
 10
-0.569083
 20
-0.44
 30
0.0
 11
0.569083
 21
-0.44
 31
0.0
  0
LINE
  5
417F
  8
0
 62
     0
 10
-0.559083
 20
-0.45
 30
0.0
 11
0.559083
 21
-0.45
 31
0.0
  0
LINE
  5
4180
  8
0
 62
     0
 10
-0.549083
 20
-0.46
 30
0.0
 11
0.549083
 21
-0.46
 31
0.0
  0
LINE
  5
4181
  8
0
 62
     0
 10
-0.539083
 20
-0.47
 30
0.0
 11
0.539083
 21
-0.47
 31
0.0
  0
LINE
  5
4182
  8
0
 62
     0
 10
-0.529083
 20
-0.48
 30
0.0
 11
0.529083
 21
-0.48
 31
0.0
  0
LINE
  5
4183
  8
0
 62
     0
 10
-0.519083
 20
-0.49
 30
0.0
 11
0.519083
 21
-0.49
 31
0.0
  0
LINE
  5
4184
  8
0
 62
     0
 10
-0.509083
 20
-0.5
 30
0.0
 11
0.509083
 21
-0.5
 31
0.0
  0
LINE
  5
4185
  8
0
 62
     0
 10
-0.499083
 20
-0.51
 30
0.0
 11
0.499083
 21
-0.51
 31
0.0
  0
LINE
  5
4186
  8
0
 62
     0
 10
-0.489083
 20
-0.52
 30
0.0
 11
0.489083
 21
-0.52
 31
0.0
  0
LINE
  5
4187
  8
0
 62
     0
 10
-0.479083
 20
-0.53
 30
0.0
 11
0.479083
 21
-0.53
 31
0.0
  0
LINE
  5
4188
  8
0
 62
     0
 10
-0.469083
 20
-0.54
 30
0.0
 11
0.469083
 21
-0.54
 31
0.0
  0
LINE
  5
4189
  8
0
 62
     0
 10
-0.459083
 20
-0.55
 30
0.0
 11
0.459083
 21
-0.55
 31
0.0
  0
LINE
  5
418A
  8
0
 62
     0
 10
-0.449083
 20
-0.56
 30
0.0
 11
0.449083
 21
-0.56
 31
0.0
  0
LINE
  5
418B
  8
0
 62
     0
 10
-0.439083
 20
-0.57
 30
0.0
 11
0.439083
 21
-0.57
 31
0.0
  0
LINE
  5
418C
  8
0
 62
     0
 10
-0.422469
 20
-0.58
 30
0.0
 11
0.422469
 21
-0.58
 31
0.0
  0
LINE
  5
418D
  8
0
 62
     0
 10
-0.405149
 20
-0.59
 30
0.0
 11
0.405149
 21
-0.59
 31
0.0
  0
LINE
  5
418E
  8
0
 62
     0
 10
-0.387828
 20
-0.6
 30
0.0
 11
0.387828
 21
-0.6
 31
0.0
  0
LINE
  5
418F
  8
0
 62
     0
 10
-0.370508
 20
-0.61
 30
0.0
 11
0.370508
 21
-0.61
 31
0.0
  0
LINE
  5
4190
  8
0
 62
     0
 10
-0.353187
 20
-0.62
 30
0.0
 11
0.353187
 21
-0.62
 31
0.0
  0
LINE
  5
4191
  8
0
 62
     0
 10
-0.335867
 20
-0.63
 30
0.0
 11
0.335867
 21
-0.63
 31
0.0
  0
LINE
  5
4192
  8
0
 62
     0
 10
-0.318546
 20
-0.64
 30
0.0
 11
0.318546
 21
-0.64
 31
0.0
  0
LINE
  5
4193
  8
0
 62
     0
 10
-0.301226
 20
-0.65
 30
0.0
 11
0.301226
 21
-0.65
 31
0.0
  0
LINE
  5
4194
  8
0
 62
     0
 10
-0.283905
 20
-0.66
 30
0.0
 11
0.283905
 21
-0.66
 31
0.0
  0
LINE
  5
4195
  8
0
 62
     0
 10
-0.256391
 20
-0.67
 30
0.0
 11
0.256391
 21
-0.67
 31
0.0
  0
LINE
  5
4196
  8
0
 62
     0
 10
-0.219071
 20
-0.68
 30
0.0
 11
0.219071
 21
-0.68
 31
0.0
  0
LINE
  5
4197
  8
0
 62
     0
 10
-0.18175
 20
-0.69
 30
0.0
 11
0.18175
 21
-0.69
 31
0.0
  0
LINE
  5
4198
  8
0
 62
     0
 10
-0.14443
 20
-0.7
 30
0.0
 11
0.14443
 21
-0.7
 31
0.0
  0
LINE
  5
4199
  8
0
 62
     0
 10
-0.107109
 20
-0.71
 30
0.0
 11
0.107109
 21
-0.71
 31
0.0
  0
LINE
  5
419A
  8
0
 62
     0
 10
0.0
 20
-0.713529
 30
0.0
 11
0.0
 21
0.0
 31
0.0
  0
LINE
  5
419B
  8
0
 62
     0
 10
-0.01
 20
-0.713529
 30
0.0
 11
-0.01
 21
0.0
 31
0.0
  0
LINE
  5
419C
  8
0
 62
     0
 10
-0.02
 20
-0.713529
 30
0.0
 11
-0.02
 21
0.0
 31
0.0
  0
LINE
  5
419D
  8
0
 62
     0
 10
-0.03
 20
-0.713529
 30
0.0
 11
-0.03
 21
0.0
 31
0.0
  0
LINE
  5
419E
  8
0
 62
     0
 10
-0.04
 20
-0.713529
 30
0.0
 11
-0.04
 21
0.0
 31
0.0
  0
LINE
  5
419F
  8
0
 62
     0
 10
-0.05
 20
-0.713529
 30
0.0
 11
-0.05
 21
0.0
 31
0.0
  0
LINE
  5
41A0
  8
0
 62
     0
 10
-0.06
 20
-0.713529
 30
0.0
 11
-0.06
 21
0.0
 31
0.0
  0
LINE
  5
41A1
  8
0
 62
     0
 10
-0.07
 20
-0.713529
 30
0.0
 11
-0.07
 21
0.0
 31
0.0
  0
LINE
  5
41A2
  8
0
 62
     0
 10
-0.08
 20
-0.713529
 30
0.0
 11
-0.08
 21
0.0
 31
0.0
  0
LINE
  5
41A3
  8
0
 62
     0
 10
-0.09
 20
-0.713529
 30
0.0
 11
-0.09
 21
0.0
 31
0.0
  0
LINE
  5
41A4
  8
0
 62
     0
 10
-0.1
 20
-0.711905
 30
0.0
 11
-0.1
 21
0.0
 31
0.0
  0
LINE
  5
41A5
  8
0
 62
     0
 10
-0.11
 20
-0.709225
 30
0.0
 11
-0.11
 21
0.0
 31
0.0
  0
LINE
  5
41A6
  8
0
 62
     0
 10
-0.12
 20
-0.706546
 30
0.0
 11
-0.12
 21
0.0
 31
0.0
  0
LINE
  5
41A7
  8
0
 62
     0
 10
-0.13
 20
-0.703866
 30
0.0
 11
-0.13
 21
0.0
 31
0.0
  0
LINE
  5
41A8
  8
0
 62
     0
 10
-0.14
 20
-0.701187
 30
0.0
 11
-0.14
 21
0.0
 31
0.0
  0
LINE
  5
41A9
  8
0
 62
     0
 10
-0.15
 20
-0.698508
 30
0.0
 11
-0.15
 21
0.0
 31
0.0
  0
LINE
  5
41AA
  8
0
 62
     0
 10
-0.16
 20
-0.695828
 30
0.0
 11
-0.16
 21
0.0
 31
0.0
  0
LINE
  5
41AB
  8
0
 62
     0
 10
-0.17
 20
-0.693149
 30
0.0
 11
-0.17
 21
0.0
 31
0.0
  0
LINE
  5
41AC
  8
0
 62
     0
 10
-0.18
 20
-0.690469
 30
0.0
 11
-0.18
 21
0.0
 31
0.0
  0
LINE
  5
41AD
  8
0
 62
     0
 10
-0.19
 20
-0.68779
 30
0.0
 11
-0.19
 21
0.0
 31
0.0
  0
LINE
  5
41AE
  8
0
 62
     0
 10
-0.2
 20
-0.68511
 30
0.0
 11
-0.2
 21
0.0
 31
0.0
  0
LINE
  5
41AF
  8
0
 62
     0
 10
-0.21
 20
-0.682431
 30
0.0
 11
-0.21
 21
0.0
 31
0.0
  0
LINE
  5
41B0
  8
0
 62
     0
 10
-0.22
 20
-0.679751
 30
0.0
 11
-0.22
 21
0.0
 31
0.0
  0
LINE
  5
41B1
  8
0
 62
     0
 10
-0.23
 20
-0.677072
 30
0.0
 11
-0.23
 21
0.0
 31
0.0
  0
LINE
  5
41B2
  8
0
 62
     0
 10
-0.24
 20
-0.674392
 30
0.0
 11
-0.24
 21
0.0
 31
0.0
  0
LINE
  5
41B3
  8
0
 62
     0
 10
-0.25
 20
-0.671713
 30
0.0
 11
-0.25
 21
0.0
 31
0.0
  0
LINE
  5
41B4
  8
0
 62
     0
 10
-0.26
 20
-0.669033
 30
0.0
 11
-0.26
 21
0.0
 31
0.0
  0
LINE
  5
41B5
  8
0
 62
     0
 10
-0.27
 20
-0.666354
 30
0.0
 11
-0.27
 21
0.0
 31
0.0
  0
LINE
  5
41B6
  8
0
 62
     0
 10
-0.28
 20
-0.662255
 30
0.0
 11
-0.28
 21
0.0
 31
0.0
  0
LINE
  5
41B7
  8
0
 62
     0
 10
-0.29
 20
-0.656481
 30
0.0
 11
-0.29
 21
0.0
 31
0.0
  0
LINE
  5
41B8
  8
0
 62
     0
 10
-0.3
 20
-0.650708
 30
0.0
 11
-0.3
 21
0.0
 31
0.0
  0
LINE
  5
41B9
  8
0
 62
     0
 10
-0.31
 20
-0.644934
 30
0.0
 11
-0.31
 21
0.0
 31
0.0
  0
LINE
  5
41BA
  8
0
 62
     0
 10
-0.32
 20
-0.639161
 30
0.0
 11
-0.32
 21
0.0
 31
0.0
  0
LINE
  5
41BB
  8
0
 62
     0
 10
-0.33
 20
-0.633387
 30
0.0
 11
-0.33
 21
0.0
 31
0.0
  0
LINE
  5
41BC
  8
0
 62
     0
 10
-0.34
 20
-0.627614
 30
0.0
 11
-0.34
 21
0.0
 31
0.0
  0
LINE
  5
41BD
  8
0
 62
     0
 10
-0.35
 20
-0.62184
 30
0.0
 11
-0.35
 21
0.0
 31
0.0
  0
LINE
  5
41BE
  8
0
 62
     0
 10
-0.36
 20
-0.616067
 30
0.0
 11
-0.36
 21
0.0
 31
0.0
  0
LINE
  5
41BF
  8
0
 62
     0
 10
-0.37
 20
-0.610293
 30
0.0
 11
-0.37
 21
0.0
 31
0.0
  0
LINE
  5
41C0
  8
0
 62
     0
 10
-0.38
 20
-0.60452
 30
0.0
 11
-0.38
 21
0.0
 31
0.0
  0
LINE
  5
41C1
  8
0
 62
     0
 10
-0.39
 20
-0.598746
 30
0.0
 11
-0.39
 21
0.0
 31
0.0
  0
LINE
  5
41C2
  8
0
 62
     0
 10
-0.4
 20
-0.592973
 30
0.0
 11
-0.4
 21
0.0
 31
0.0
  0
LINE
  5
41C3
  8
0
 62
     0
 10
-0.41
 20
-0.587199
 30
0.0
 11
-0.41
 21
0.0
 31
0.0
  0
LINE
  5
41C4
  8
0
 62
     0
 10
-0.42
 20
-0.581426
 30
0.0
 11
-0.42
 21
0.0
 31
0.0
  0
LINE
  5
41C5
  8
0
 62
     0
 10
-0.43
 20
-0.575652
 30
0.0
 11
-0.43
 21
0.0
 31
0.0
  0
LINE
  5
41C6
  8
0
 62
     0
 10
-0.44
 20
-0.569083
 30
0.0
 11
-0.44
 21
0.0
 31
0.0
  0
LINE
  5
41C7
  8
0
 62
     0
 10
-0.45
 20
-0.559083
 30
0.0
 11
-0.45
 21
0.0
 31
0.0
  0
LINE
  5
41C8
  8
0
 62
     0
 10
-0.46
 20
-0.549083
 30
0.0
 11
-0.46
 21
0.0
 31
0.0
  0
LINE
  5
41C9
  8
0
 62
     0
 10
-0.47
 20
-0.539083
 30
0.0
 11
-0.47
 21
0.0
 31
0.0
  0
LINE
  5
41CA
  8
0
 62
     0
 10
-0.48
 20
-0.529083
 30
0.0
 11
-0.48
 21
0.0
 31
0.0
  0
LINE
  5
41CB
  8
0
 62
     0
 10
-0.49
 20
-0.519083
 30
0.0
 11
-0.49
 21
0.0
 31
0.0
  0
LINE
  5
41CC
  8
0
 62
     0
 10
-0.5
 20
-0.509083
 30
0.0
 11
-0.5
 21
0.0
 31
0.0
  0
LINE
  5
41CD
  8
0
 62
     0
 10
-0.51
 20
-0.499083
 30
0.0
 11
-0.51
 21
0.0
 31
0.0
  0
LINE
  5
41CE
  8
0
 62
     0
 10
-0.52
 20
-0.489083
 30
0.0
 11
-0.52
 21
0.0
 31
0.0
  0
LINE
  5
41CF
  8
0
 62
     0
 10
-0.53
 20
-0.479083
 30
0.0
 11
-0.53
 21
0.0
 31
0.0
  0
LINE
  5
41D0
  8
0
 62
     0
 10
-0.54
 20
-0.469083
 30
0.0
 11
-0.54
 21
0.0
 31
0.0
  0
LINE
  5
41D1
  8
0
 62
     0
 10
-0.55
 20
-0.459083
 30
0.0
 11
-0.55
 21
0.0
 31
0.0
  0
LINE
  5
41D2
  8
0
 62
     0
 10
-0.56
 20
-0.449083
 30
0.0
 11
-0.56
 21
0.0
 31
0.0
  0
LINE
  5
41D3
  8
0
 62
     0
 10
-0.57
 20
-0.439083
 30
0.0
 11
-0.57
 21
0.0
 31
0.0
  0
LINE
  5
41D4
  8
0
 62
     0
 10
-0.58
 20
-0.422469
 30
0.0
 11
-0.58
 21
0.0
 31
0.0
  0
LINE
  5
41D5
  8
0
 62
     0
 10
-0.59
 20
-0.405149
 30
0.0
 11
-0.59
 21
0.0
 31
0.0
  0
LINE
  5
41D6
  8
0
 62
     0
 10
-0.6
 20
-0.387828
 30
0.0
 11
-0.6
 21
0.0
 31
0.0
  0
LINE
  5
41D7
  8
0
 62
     0
 10
-0.61
 20
-0.370508
 30
0.0
 11
-0.61
 21
0.0
 31
0.0
  0
LINE
  5
41D8
  8
0
 62
     0
 10
-0.62
 20
-0.353187
 30
0.0
 11
-0.62
 21
0.0
 31
0.0
  0
LINE
  5
41D9
  8
0
 62
     0
 10
-0.63
 20
-0.335867
 30
0.0
 11
-0.63
 21
0.0
 31
0.0
  0
LINE
  5
41DA
  8
0
 62
     0
 10
-0.64
 20
-0.318546
 30
0.0
 11
-0.64
 21
0.0
 31
0.0
  0
LINE
  5
41DB
  8
0
 62
     0
 10
-0.65
 20
-0.301226
 30
0.0
 11
-0.65
 21
0.0
 31
0.0
  0
LINE
  5
41DC
  8
0
 62
     0
 10
-0.66
 20
-0.283905
 30
0.0
 11
-0.66
 21
0.0
 31
0.0
  0
LINE
  5
41DD
  8
0
 62
     0
 10
-0.67
 20
-0.256391
 30
0.0
 11
-0.67
 21
0.0
 31
0.0
  0
LINE
  5
41DE
  8
0
 62
     0
 10
-0.68
 20
-0.219071
 30
0.0
 11
-0.68
 21
0.0
 31
0.0
  0
LINE
  5
41DF
  8
0
 62
     0
 10
-0.69
 20
-0.18175
 30
0.0
 11
-0.69
 21
0.0
 31
0.0
  0
LINE
  5
41E0
  8
0
 62
     0
 10
-0.7
 20
-0.14443
 30
0.0
 11
-0.7
 21
0.0
 31
0.0
  0
LINE
  5
41E1
  8
0
 62
     0
 10
-0.71
 20
-0.107109
 30
0.0
 11
-0.71
 21
0.0
 31
0.0
  0
LINE
  5
41E2
  8
0
 62
     0
 10
0.01
 20
-0.713529
 30
0.0
 11
0.01
 21
0.0
 31
0.0
  0
LINE
  5
41E3
  8
0
 62
     0
 10
0.02
 20
-0.713529
 30
0.0
 11
0.02
 21
0.0
 31
0.0
  0
LINE
  5
41E4
  8
0
 62
     0
 10
0.03
 20
-0.713529
 30
0.0
 11
0.03
 21
0.0
 31
0.0
  0
LINE
  5
41E5
  8
0
 62
     0
 10
0.04
 20
-0.713529
 30
0.0
 11
0.04
 21
0.0
 31
0.0
  0
LINE
  5
41E6
  8
0
 62
     0
 10
0.05
 20
-0.713529
 30
0.0
 11
0.05
 21
0.0
 31
0.0
  0
LINE
  5
41E7
  8
0
 62
     0
 10
0.06
 20
-0.713529
 30
0.0
 11
0.06
 21
0.0
 31
0.0
  0
LINE
  5
41E8
  8
0
 62
     0
 10
0.07
 20
-0.713529
 30
0.0
 11
0.07
 21
0.0
 31
0.0
  0
LINE
  5
41E9
  8
0
 62
     0
 10
0.08
 20
-0.713529
 30
0.0
 11
0.08
 21
0.0
 31
0.0
  0
LINE
  5
41EA
  8
0
 62
     0
 10
0.09
 20
-0.713529
 30
0.0
 11
0.09
 21
0.0
 31
0.0
  0
LINE
  5
41EB
  8
0
 62
     0
 10
0.1
 20
-0.711905
 30
0.0
 11
0.1
 21
0.0
 31
0.0
  0
LINE
  5
41EC
  8
0
 62
     0
 10
0.11
 20
-0.709225
 30
0.0
 11
0.11
 21
0.0
 31
0.0
  0
LINE
  5
41ED
  8
0
 62
     0
 10
0.12
 20
-0.706546
 30
0.0
 11
0.12
 21
0.0
 31
0.0
  0
LINE
  5
41EE
  8
0
 62
     0
 10
0.13
 20
-0.703866
 30
0.0
 11
0.13
 21
0.0
 31
0.0
  0
LINE
  5
41EF
  8
0
 62
     0
 10
0.14
 20
-0.701187
 30
0.0
 11
0.14
 21
0.0
 31
0.0
  0
LINE
  5
41F0
  8
0
 62
     0
 10
0.15
 20
-0.698508
 30
0.0
 11
0.15
 21
0.0
 31
0.0
  0
LINE
  5
41F1
  8
0
 62
     0
 10
0.16
 20
-0.695828
 30
0.0
 11
0.16
 21
0.0
 31
0.0
  0
LINE
  5
41F2
  8
0
 62
     0
 10
0.17
 20
-0.693149
 30
0.0
 11
0.17
 21
0.0
 31
0.0
  0
LINE
  5
41F3
  8
0
 62
     0
 10
0.18
 20
-0.690469
 30
0.0
 11
0.18
 21
0.0
 31
0.0
  0
LINE
  5
41F4
  8
0
 62
     0
 10
0.19
 20
-0.68779
 30
0.0
 11
0.19
 21
0.0
 31
0.0
  0
LINE
  5
41F5
  8
0
 62
     0
 10
0.2
 20
-0.68511
 30
0.0
 11
0.2
 21
0.0
 31
0.0
  0
LINE
  5
41F6
  8
0
 62
     0
 10
0.21
 20
-0.682431
 30
0.0
 11
0.21
 21
0.0
 31
0.0
  0
LINE
  5
41F7
  8
0
 62
     0
 10
0.22
 20
-0.679751
 30
0.0
 11
0.22
 21
0.0
 31
0.0
  0
LINE
  5
41F8
  8
0
 62
     0
 10
0.23
 20
-0.677072
 30
0.0
 11
0.23
 21
0.0
 31
0.0
  0
LINE
  5
41F9
  8
0
 62
     0
 10
0.24
 20
-0.674392
 30
0.0
 11
0.24
 21
0.0
 31
0.0
  0
LINE
  5
41FA
  8
0
 62
     0
 10
0.25
 20
-0.671713
 30
0.0
 11
0.25
 21
0.0
 31
0.0
  0
LINE
  5
41FB
  8
0
 62
     0
 10
0.26
 20
-0.669033
 30
0.0
 11
0.26
 21
0.0
 31
0.0
  0
LINE
  5
41FC
  8
0
 62
     0
 10
0.27
 20
-0.666354
 30
0.0
 11
0.27
 21
0.0
 31
0.0
  0
LINE
  5
41FD
  8
0
 62
     0
 10
0.28
 20
-0.662255
 30
0.0
 11
0.28
 21
0.0
 31
0.0
  0
LINE
  5
41FE
  8
0
 62
     0
 10
0.29
 20
-0.656481
 30
0.0
 11
0.29
 21
0.0
 31
0.0
  0
LINE
  5
41FF
  8
0
 62
     0
 10
0.3
 20
-0.650708
 30
0.0
 11
0.3
 21
0.0
 31
0.0
  0
LINE
  5
4200
  8
0
 62
     0
 10
0.31
 20
-0.644934
 30
0.0
 11
0.31
 21
0.0
 31
0.0
  0
LINE
  5
4201
  8
0
 62
     0
 10
0.32
 20
-0.639161
 30
0.0
 11
0.32
 21
0.0
 31
0.0
  0
LINE
  5
4202
  8
0
 62
     0
 10
0.33
 20
-0.633387
 30
0.0
 11
0.33
 21
0.0
 31
0.0
  0
LINE
  5
4203
  8
0
 62
     0
 10
0.34
 20
-0.627614
 30
0.0
 11
0.34
 21
0.0
 31
0.0
  0
LINE
  5
4204
  8
0
 62
     0
 10
0.35
 20
-0.62184
 30
0.0
 11
0.35
 21
0.0
 31
0.0
  0
LINE
  5
4205
  8
0
 62
     0
 10
0.36
 20
-0.616067
 30
0.0
 11
0.36
 21
0.0
 31
0.0
  0
LINE
  5
4206
  8
0
 62
     0
 10
0.37
 20
-0.610293
 30
0.0
 11
0.37
 21
0.0
 31
0.0
  0
LINE
  5
4207
  8
0
 62
     0
 10
0.38
 20
-0.60452
 30
0.0
 11
0.38
 21
0.0
 31
0.0
  0
LINE
  5
4208
  8
0
 62
     0
 10
0.39
 20
-0.598746
 30
0.0
 11
0.39
 21
0.0
 31
0.0
  0
LINE
  5
4209
  8
0
 62
     0
 10
0.4
 20
-0.592973
 30
0.0
 11
0.4
 21
0.0
 31
0.0
  0
LINE
  5
420A
  8
0
 62
     0
 10
0.41
 20
-0.587199
 30
0.0
 11
0.41
 21
0.0
 31
0.0
  0
LINE
  5
420B
  8
0
 62
     0
 10
0.42
 20
-0.581426
 30
0.0
 11
0.42
 21
0.0
 31
0.0
  0
LINE
  5
420C
  8
0
 62
     0
 10
0.43
 20
-0.575652
 30
0.0
 11
0.43
 21
0.0
 31
0.0
  0
LINE
  5
420D
  8
0
 62
     0
 10
0.44
 20
-0.569083
 30
0.0
 11
0.44
 21
0.0
 31
0.0
  0
LINE
  5
420E
  8
0
 62
     0
 10
0.45
 20
-0.559083
 30
0.0
 11
0.45
 21
0.0
 31
0.0
  0
LINE
  5
420F
  8
0
 62
     0
 10
0.46
 20
-0.549083
 30
0.0
 11
0.46
 21
0.0
 31
0.0
  0
LINE
  5
4210
  8
0
 62
     0
 10
0.47
 20
-0.539083
 30
0.0
 11
0.47
 21
0.0
 31
0.0
  0
LINE
  5
4211
  8
0
 62
     0
 10
0.48
 20
-0.529083
 30
0.0
 11
0.48
 21
0.0
 31
0.0
  0
LINE
  5
4212
  8
0
 62
     0
 10
0.49
 20
-0.519083
 30
0.0
 11
0.49
 21
0.0
 31
0.0
  0
LINE
  5
4213
  8
0
 62
     0
 10
0.5
 20
-0.509083
 30
0.0
 11
0.5
 21
0.0
 31
0.0
  0
LINE
  5
4214
  8
0
 62
     0
 10
0.51
 20
-0.499083
 30
0.0
 11
0.51
 21
0.0
 31
0.0
  0
LINE
  5
4215
  8
0
 62
     0
 10
0.52
 20
-0.489083
 30
0.0
 11
0.52
 21
0.0
 31
0.0
  0
LINE
  5
4216
  8
0
 62
     0
 10
0.53
 20
-0.479083
 30
0.0
 11
0.53
 21
0.0
 31
0.0
  0
LINE
  5
4217
  8
0
 62
     0
 10
0.54
 20
-0.469083
 30
0.0
 11
0.54
 21
0.0
 31
0.0
  0
LINE
  5
4218
  8
0
 62
     0
 10
0.55
 20
-0.459083
 30
0.0
 11
0.55
 21
0.0
 31
0.0
  0
LINE
  5
4219
  8
0
 62
     0
 10
0.56
 20
-0.449083
 30
0.0
 11
0.56
 21
0.0
 31
0.0
  0
LINE
  5
421A
  8
0
 62
     0
 10
0.57
 20
-0.439083
 30
0.0
 11
0.57
 21
0.0
 31
0.0
  0
LINE
  5
421B
  8
0
 62
     0
 10
0.58
 20
-0.422469
 30
0.0
 11
0.58
 21
0.0
 31
0.0
  0
LINE
  5
421C
  8
0
 62
     0
 10
0.59
 20
-0.405149
 30
0.0
 11
0.59
 21
0.0
 31
0.0
  0
LINE
  5
421D
  8
0
 62
     0
 10
0.6
 20
-0.387828
 30
0.0
 11
0.6
 21
0.0
 31
0.0
  0
LINE
  5
421E
  8
0
 62
     0
 10
0.61
 20
-0.370508
 30
0.0
 11
0.61
 21
0.0
 31
0.0
  0
LINE
  5
421F
  8
0
 62
     0
 10
0.62
 20
-0.353187
 30
0.0
 11
0.62
 21
0.0
 31
0.0
  0
LINE
  5
4220
  8
0
 62
     0
 10
0.63
 20
-0.335867
 30
0.0
 11
0.63
 21
0.0
 31
0.0
  0
LINE
  5
4221
  8
0
 62
     0
 10
0.64
 20
-0.318546
 30
0.0
 11
0.64
 21
0.0
 31
0.0
  0
LINE
  5
4222
  8
0
 62
     0
 10
0.65
 20
-0.301226
 30
0.0
 11
0.65
 21
0.0
 31
0.0
  0
LINE
  5
4223
  8
0
 62
     0
 10
0.66
 20
-0.283905
 30
0.0
 11
0.66
 21
0.0
 31
0.0
  0
LINE
  5
4224
  8
0
 62
     0
 10
0.67
 20
-0.256391
 30
0.0
 11
0.67
 21
0.0
 31
0.0
  0
LINE
  5
4225
  8
0
 62
     0
 10
0.68
 20
-0.219071
 30
0.0
 11
0.68
 21
0.0
 31
0.0
  0
LINE
  5
4226
  8
0
 62
     0
 10
0.69
 20
-0.18175
 30
0.0
 11
0.69
 21
0.0
 31
0.0
  0
LINE
  5
4227
  8
0
 62
     0
 10
0.7
 20
-0.14443
 30
0.0
 11
0.7
 21
0.0
 31
0.0
  0
LINE
  5
4228
  8
0
 62
     0
 10
0.71
 20
-0.107109
 30
0.0
 11
0.71
 21
0.0
 31
0.0
  0
ENDBLK
  5
4229
  8
0
  0
BLOCK
  8
0
  2
BORLICOM
 70
     0
 10
0.0
 20
0.0
 30
0.0
  3
BORLICOM
  1

  0
POLYLINE
  5
422C
  8
0
 66
     1
 10
0.0
 20
0.0
 30
0.0
 70
     1
  0
VERTEX
  5
43B7
  8
0
 10
-0.1
 20
0.75
 30
0.0
  0
VERTEX
  5
43B8
  8
0
 10
-0.29
 20
0.7
 30
0.0
  0
VERTEX
  5
43B9
  8
0
 10
-0.46
 20
0.6
 30
0.0
  0
VERTEX
  5
43BA
  8
0
 10
-0.6
 20
0.46
 30
0.0
  0
VERTEX
  5
43BB
  8
0
 10
-0.7
 20
0.29
 30
0.0
  0
VERTEX
  5
43BC
  8
0
 10
-0.75
 20
0.1
 30
0.0
  0
VERTEX
  5
43BD
  8
0
 10
-0.75
 20
-0.1
 30
0.0
  0
VERTEX
  5
43BE
  8
0
 10
-0.7
 20
-0.29
 30
0.0
  0
VERTEX
  5
43BF
  8
0
 10
-0.6
 20
-0.46
 30
0.0
  0
VERTEX
  5
43C0
  8
0
 10
-0.46
 20
-0.6
 30
0.0
  0
VERTEX
  5
43C1
  8
0
 10
-0.29
 20
-0.7
 30
0.0
  0
VERTEX
  5
43C2
  8
0
 10
-0.1
 20
-0.75
 30
0.0
  0
VERTEX
  5
43C3
  8
0
 10
0.1
 20
-0.75
 30
0.0
  0
VERTEX
  5
43C4
  8
0
 10
0.29
 20
-0.7
 30
0.0
  0
VERTEX
  5
43C5
  8
0
 10
0.46
 20
-0.6
 30
0.0
  0
VERTEX
  5
43C6
  8
0
 10
0.6
 20
-0.46
 30
0.0
  0
VERTEX
  5
43C7
  8
0
 10
0.7
 20
-0.29
 30
0.0
  0
VERTEX
  5
43C8
  8
0
 10
0.75
 20
-0.1
 30
0.0
  0
VERTEX
  5
43C9
  8
0
 10
0.75
 20
0.1
 30
0.0
  0
VERTEX
  5
43CA
  8
0
 10
0.7
 20
0.29
 30
0.0
  0
VERTEX
  5
43CB
  8
0
 10
0.6
 20
0.46
 30
0.0
  0
VERTEX
  5
43CC
  8
0
 10
0.46
 20
0.6
 30
0.0
  0
VERTEX
  5
43CD
  8
0
 10
0.29
 20
0.7
 30
0.0
  0
VERTEX
  5
43CE
  8
0
 10
0.1
 20
0.75
 30
0.0
  0
SEQEND
  5
43CF
  8
0
  0
ENDBLK
  5
4246
  8
0
  0
BLOCK
  8
0
  2
FLECHRU1
 70
     0
 10
0.0
 20
0.0
 30
0.0
  3
FLECHRU1
  1

  0
POINT
  5
4249
  8
0
 10
0.0
 20
0.0
 30
0.0
  0
ENDBLK
  5
424A
  8
0
  0
BLOCK
  8
0
  2
ARRET1
 70
     0
 10
0.0
 20
0.0
 30
0.0
  3
ARRET1
  1

  0
POINT
  5
424D
  8
0
 10
0.0
 20
0.0
 30
0.0
  0
ENDBLK
  5
424E
  8
0
  0
BLOCK
  8
0
  2
PYLONE1
 70
     0
 10
0.0
 20
0.0
 30
0.0
  3
PYLONE1
  1

  0
POINT
  5
4251
  8
0
 10
0.0
 20
0.0
 30
0.0
  0
ENDBLK
  5
4252
  8
0
  0
BLOCK
  8
0
  2
HALTE1
 70
     0
 10
0.0
 20
0.0
 30
0.0
  3
HALTE1
  1

  0
POINT
  5
4255
  8
0
 10
0.0
 20
0.0
 30
0.0
  0
ENDBLK
  5
4256
  8
0
  0
BLOCK
  8
0
  2
STATION1
 70
     0
 10
0.0
 20
0.0
 30
0.0
  3
STATION1
  1

  0
POINT
  5
4259
  8
0
 10
0.0
 20
0.0
 30
0.0
  0
ENDBLK
  5
425A
  8
0
  0
BLOCK
  8
0
  2
MOSQUEE
 70
     0
 10
0.0
 20
0.0
 30
0.0
  3
MOSQUEE
  1

  0
POLYLINE
  5
425D
  8
0
 66
     1
 10
0.0
 20
0.0
 30
0.0
 40
0.2
 41
0.2
  0
VERTEX
  5
43D0
  8
0
 10
2.5
 20
2.5
 30
0.0
 42
1.0
  0
VERTEX
  5
43D1
  8
0
 10
2.5
 20
-2.5
 30
0.0
 42
1.0
  0
SEQEND
  5
43D2
  8
0
  0
POLYLINE
  5
4261
  8
0
 66
     1
 10
0.0
 20
0.0
 30
0.0
 40
0.2
 41
0.2
  0
VERTEX
  5
43D3
  8
0
 10
-7.12
 20
0.0
 30
0.0
  0
VERTEX
  5
43D4
  8
0
 10
0.0
 20
0.0
 30
0.0
  0
SEQEND
  5
43D5
  8
0
  0
POLYLINE
  5
4265
  8
0
 66
     1
 10
0.0
 20
0.0
 30
0.0
 70
     1
 40
0.2
 41
0.2
  0
VERTEX
  5
43D6
  8
0
 10
-7.42
 20
0.0
 30
0.0
 42
1.0
  0
VERTEX
  5
43D7
  8
0
 10
-7.12
 20
0.0
 30
0.0
 42
1.0
  0
SEQEND
  5
43D8
  8
0
  0
ENDBLK
  5
4269
  8
0
  0
BLOCK
  8
0
  2
SYNAGOG
 70
     0
 10
0.0
 20
0.0
 30
0.0
  3
SYNAGOG
  1

  0
POLYLINE
  5
426C
  8
0
 66
     1
 10
0.0
 20
0.0
 30
0.0
 70
     1
 40
0.2
 41
0.2
  0
VERTEX
  5
43D9
  8
0
 10
0.01
 20
1.26
 30
0.0
  0
VERTEX
  5
43DA
  8
0
 10
-1.1
 20
-0.62
 30
0.0
  0
VERTEX
  5
43DB
  8
0
 10
1.09
 20
-0.64
 30
0.0
  0
SEQEND
  5
43DC
  8
0
  0
POLYLINE
  5
4271
  8
0
 66
     1
 10
0.0
 20
0.0
 30
0.0
 70
     1
 40
0.2
 41
0.2
  0
VERTEX
  5
43DD
  8
0
 10
-1.09
 20
0.64
 30
0.0
  0
VERTEX
  5
43DE
  8
0
 10
1.1
 20
0.62
 30
0.0
  0
VERTEX
  5
43DF
  8
0
 10
-0.01
 20
-1.26
 30
0.0
  0
SEQEND
  5
43E0
  8
0
  0
ENDBLK
  5
4276
  8
0
  0
BLOCK
  8
0
  2
POLYGOBO
 70
     0
 10
0.0
 20
0.0
 30
0.0
  3
POLYGOBO
  1

  0
POLYLINE
  5
4279
  8
0
 66
     1
 10
0.0
 20
0.0
 30
0.0
 70
     1
  0
VERTEX
  5
43E1
  8
0
 10
-0.131652
 20
1.0
 30
0.0
  0
VERTEX
  5
43E2
  8
0
 10
-0.385986
 20
0.931852
 30
0.0
  0
VERTEX
  5
43E3
  8
0
 10
-0.614014
 20
0.800199
 30
0.0
  0
VERTEX
  5
43E4
  8
0
 10
-0.800199
 20
0.614014
 30
0.0
  0
VERTEX
  5
43E5
  8
0
 10
-0.931852
 20
0.385986
 30
0.0
  0
VERTEX
  5
43E6
  8
0
 10
-1.0
 20
0.131652
 30
0.0
  0
VERTEX
  5
43E7
  8
0
 10
-1.0
 20
-0.131652
 30
0.0
  0
VERTEX
  5
43E8
  8
0
 10
-0.931852
 20
-0.385986
 30
0.0
  0
VERTEX
  5
43E9
  8
0
 10
-0.800199
 20
-0.614014
 30
0.0
  0
VERTEX
  5
43EA
  8
0
 10
-0.614014
 20
-0.800199
 30
0.0
  0
VERTEX
  5
43EB
  8
0
 10
-0.385986
 20
-0.931852
 30
0.0
  0
VERTEX
  5
43EC
  8
0
 10
-0.131652
 20
-1.0
 30
0.0
  0
VERTEX
  5
43ED
  8
0
 10
0.131652
 20
-1.0
 30
0.0
  0
VERTEX
  5
43EE
  8
0
 10
0.385986
 20
-0.931852
 30
0.0
  0
VERTEX
  5
43EF
  8
0
 10
0.614014
 20
-0.800199
 30
0.0
  0
VERTEX
  5
43F0
  8
0
 10
0.800199
 20
-0.614014
 30
0.0
  0
VERTEX
  5
43F1
  8
0
 10
0.931852
 20
-0.385986
 30
0.0
  0
VERTEX
  5
43F2
  8
0
 10
1.0
 20
-0.131652
 30
0.0
  0
VERTEX
  5
43F3
  8
0
 10
1.0
 20
0.131652
 30
0.0
  0
VERTEX
  5
43F4
  8
0
 10
0.931852
 20
0.385986
 30
0.0
  0
VERTEX
  5
43F5
  8
0
 10
0.800199
 20
0.614014
 30
0.0
  0
VERTEX
  5
43F6
  8
0
 10
0.614014
 20
0.800199
 30
0.0
  0
VERTEX
  5
43F7
  8
0
 10
0.385986
 20
0.931852
 30
0.0
  0
VERTEX
  5
43F8
  8
0
 10
0.131652
 20
1.0
 30
0.0
  0
SEQEND
  5
43F9
  8
0
  0
POLYLINE
  5
4293
  8
0
 66
     1
 10
0.0
 20
0.0
 30
0.0
 70
     1
  0
VERTEX
  5
43FA
  8
0
 10
-0.065826
 20
0.50
 30
0.0
  0
VERTEX
  5
43FB
  8
0
 10
-0.192993
 20
0.465951
 30
0.0
  0
VERTEX
  5
43FC
  8
0
 10
-0.307007
 20
0.400125
 30
0.0
  0
VERTEX
  5
43FD
  8
0
 10
-0.4001
 20
0.307033
 30
0.0
  0
VERTEX
  5
43FE
  8
0
 10
-0.465926
 20
0.193018
 30
0.0
  0
VERTEX
  5
43FF
  8
0
 10
-0.5
 20
0.065852
 30
0.0
  0
VERTEX
  5
4400
  8
0
 10
-0.5
 20
-0.065801
 30
0.0
  0
VERTEX
  5
4401
  8
0
 10
-0.465926
 20
-0.192967
 30
0.0
  0
VERTEX
  5
4402
  8
0
 10
-0.4001
 20
-0.306982
 30
0.0
  0
VERTEX
  5
4403
  8
0
 10
-0.307007
 20
-0.400074
 30
0.0
  0
VERTEX
  5
4404
  8
0
 10
-0.192993
 20
-0.4659
 30
0.0
  0
VERTEX
  5
4405
  8
0
 10
-0.065826
 20
-0.499975
 30
0.0
  0
VERTEX
  5
4406
  8
0
 10
0.065826
 20
-0.499975
 30
0.0
  0
VERTEX
  5
4407
  8
0
 10
0.192993
 20
-0.4659
 30
0.0
  0
VERTEX
  5
4408
  8
0
 10
0.307007
 20
-0.400074
 30
0.0
  0
VERTEX
  5
4409
  8
0
 10
0.4001
 20
-0.306982
 30
0.0
  0
VERTEX
  5
440A
  8
0
 10
0.465926
 20
-0.192967
 30
0.0
  0
VERTEX
  5
440B
  8
0
 10
0.5
 20
-0.065801
 30
0.0
  0
VERTEX
  5
440C
  8
0
 10
0.5
 20
0.065852
 30
0.0
  0
VERTEX
  5
440D
  8
0
 10
0.465926
 20
0.193018
 30
0.0
  0
VERTEX
  5
440E
  8
0
 10
0.4001
 20
0.307033
 30
0.0
  0
VERTEX
  5
440F
  8
0
 10
0.307007
 20
0.400125
 30
0.0
  0
VERTEX
  5
4410
  8
0
 10
0.192993
 20
0.465951
 30
0.0
  0
VERTEX
  5
4411
  8
0
 10
0.065826
 20
0.50
 30
0.0
  0
SEQEND
  5
4412
  8
0
  0
ENDBLK
  5
42AD
  8
0
  0
BLOCK
  8
0
  2
POLYGOPT
 70
     0
 10
0.0
 20
0.0
 30
0.0
  3
POLYGOPT
  1

  0
POLYLINE
  5
42B0
  8
0
 66
     1
 10
0.0
 20
0.0
 30
0.0
  0
VERTEX
  5
4413
  8
0
 10
0.0
 20
0.5
 30
0.0
  0
VERTEX
  5
4414
  8
0
 10
0.0
 20
1.5
 30
0.0
  0
SEQEND
  5
4415
  8
0
  0
POLYLINE
  5
42B4
  8
0
 66
     1
 10
0.0
 20
0.0
 30
0.0
  0
VERTEX
  5
4416
  8
0
 10
0.0
 20
-1.5
 30
0.0
  0
VERTEX
  5
4417
  8
0
 10
0.0
 20
-0.5
 30
0.0
  0
SEQEND
  5
4418
  8
0
  0
POLYLINE
  5
42B8
  8
0
 66
     1
 10
0.0
 20
0.0
 30
0.0
  0
VERTEX
  5
4419
  8
0
 10
0.5
 20
0.0
 30
0.0
  0
VERTEX
  5
441A
  8
0
 10
1.5
 20
0.0
 30
0.0
  0
SEQEND
  5
441B
  8
0
  0
POLYLINE
  5
42BC
  8
0
 66
     1
 10
0.0
 20
0.0
 30
0.0
  0
VERTEX
  5
441C
  8
0
 10
-1.5
 20
0.0
 30
0.0
  0
VERTEX
  5
441D
  8
0
 10
-0.5
 20
0.0
 30
0.0
  0
SEQEND
  5
441E
  8
0
  0
POLYLINE
  5
42C0
  8
0
 66
     1
 10
0.0
 20
0.0
 30
0.0
 70
     1
 40
0.1
 41
0.1
  0
VERTEX
  5
441F
  8
0
 10
-0.05
 20
0.0
 30
0.0
 42
1.0
  0
VERTEX
  5
4420
  8
0
 10
0.05
 20
0.0
 30
0.0
 42
1.0
  0
SEQEND
  5
4421
  8
0
  0
ENDBLK
  5
42C4
  8
0
  0
BLOCK
  8
0
  2
PUITS
 70
     0
 10
0.0
 20
0.0
 30
0.0
  3
PUITS
  1

  0
LINE
  5
42C7
  8
0
 10
0.6
 20
0.0
 30
0.0
 11
0.6
 21
0.0
 31
0.0
  0
CIRCLE
  5
42C8
  8
0
 10
0.0
 20
0.0
 30
0.0
 40
1.0
  0
CIRCLE
  5
42C9
  8
0
 10
0.0
 20
0.0
 30
0.0
 40
0.8
  0
POLYLINE
  5
42CA
  8
0
 66
     1
 10
0.0
 20
0.0
 30
0.0
  0
VERTEX
  5
4422
  8
0
 10
-1.0
 20
0.0
 30
0.0
  0
VERTEX
  5
4423
  8
0
 10
1.2
 20
0.0
 30
0.0
  0
VERTEX
  5
4424
  8
0
 10
1.2
 20
-0.8
 30
0.0
  0
VERTEX
  5
4425
  8
0
 10
1.4
 20
-0.8
 30
0.0
  0
SEQEND
  5
4426
  8
0
  0
ENDBLK
  5
42D0
  8
0
  0
BLOCK
  8
0
  2
CROIX
 70
     0
 10
0.0
 20
0.0
 30
0.0
  3
CROIX
  1

  0
CIRCLE
  5
42D3
  8
0
 10
0.0
 20
0.0
 30
0.0
 40
0.5
  0
LINE
  5
42D4
  8
0
 10
-0.353553
 20
-0.353553
 30
0.0
 11
0.353553
 21
0.353553
 31
0.0
  0
LINE
  5
42D5
  8
0
 10
-0.353553
 20
0.353553
 30
0.0
 11
0.353553
 21
-0.353553
 31
0.0
  0
ENDBLK
  5
42D6
  8
0
  0
BLOCK
  8
0
  2
BOULON
 70
     0
 10
0.0
 20
0.0
 30
0.0
  3
BOULON
  1

  0
CIRCLE
  5
42D9
  8
0
 10
0.0
 20
0.0
 30
0.0
 40
0.01
  0
CIRCLE
  5
42DA
  8
0
 10
0.0
 20
0.0
 30
0.0
 40
0.009
  0
CIRCLE
  5
42DB
  8
0
 10
0.0
 20
0.0
 30
0.0
 40
0.008
  0
CIRCLE
  5
42DC
  8
0
 10
0.0
 20
0.0
 30
0.0
 40
0.007
  0
CIRCLE
  5
42DD
  8
0
 10
0.0
 20
0.0
 30
0.0
 40
0.006
  0
CIRCLE
  5
42DE
  8
0
 10
0.0
 20
0.0
 30
0.0
 40
0.005
  0
CIRCLE
  5
42DF
  8
0
 10
0.0
 20
0.0
 30
0.0
 40
0.004
  0
CIRCLE
  5
42E0
  8
0
 10
0.0
 20
0.0
 30
0.0
 40
0.003
  0
CIRCLE
  5
42E1
  8
0
 10
0.0
 20
0.0
 30
0.0
 40
0.002
  0
CIRCLE
  5
42E2
  8
0
 10
0.0
 20
0.0
 30
0.0
 40
0.001
  0
LINE
  5
42E3
  8
0
 10
0.0
 20
0.2
 30
0.0
 11
0.5
 21
0.0
 31
0.0
  0
LINE
  5
42E4
  8
0
 10
0.0
 20
-0.2
 30
0.0
 11
0.5
 21
0.0
 31
0.0
  0
ENDBLK
  5
42E5
  8
0
  0
BLOCK
  8
0
  2
IGNBORNE
 70
     0
 10
0.0
 20
0.0
 30
0.0
  3
IGNBORNE
  1

  0
POLYLINE
  5
42E8
  8
0
 66
     1
 10
0.0
 20
0.0
 30
0.0
 70
     1
  0
VERTEX
  5
4427
  8
0
 10
-1.5
 20
-0.87
 30
0.0
  0
VERTEX
  5
4428
  8
0
 10
1.5
 20
-0.87
 30
0.0
  0
VERTEX
  5
4429
  8
0
 10
0.0
 20
1.73
 30
0.0
  0
SEQEND
  5
442A
  8
0
  0
POLYLINE
  5
42ED
  8
0
 66
     1
 10
0.0
 20
0.0
 30
0.0
 70
     1
  0
VERTEX
  5
442B
  8
0
 10
0.0
 20
2.32
 30
0.0
  0
VERTEX
  5
442C
  8
0
 10
-2.01
 20
-1.16
 30
0.0
  0
VERTEX
  5
442D
  8
0
 10
2.01
 20
-1.16
 30
0.0
  0
SEQEND
  5
442E
  8
0
  0
ENDBLK
  5
42F2
  8
0
  0
BLOCK
  8
0
  2
IGNPOINT
 70
     0
 10
0.0
 20
0.0
 30
0.0
  3
IGNPOINT
  1

  0
POLYLINE
  5
42F5
  8
0
 66
     1
 10
0.0
 20
0.0
 30
0.0
 70
     1
  0
VERTEX
  5
442F
  8
0
 10
0.0
 20
2.32
 30
0.0
  0
VERTEX
  5
4430
  8
0
 10
-2.01
 20
-1.16
 30
0.0
  0
VERTEX
  5
4431
  8
0
 10
2.01
 20
-1.16
 30
0.0
  0
SEQEND
  5
4432
  8
0
  0
POLYLINE
  5
42FA
  8
0
 66
     1
 10
0.0
 20
0.0
 30
0.0
 70
     1
  0
VERTEX
  5
4433
  8
0
 10
-1.5
 20
-0.87
 30
0.0
  0
VERTEX
  5
4434
  8
0
 10
1.5
 20
-0.87
 30
0.0
  0
VERTEX
  5
4435
  8
0
 10
0.0
 20
1.73
 30
0.0
  0
SEQEND
  5
4436
  8
0
  0
ENDBLK
  5
42FF
  8
0
  0
BLOCK
  8
0
  2
PONCTDIVERS
 70
     0
 10
0.0
 20
0.0
 30
0.0
  3
PONCTDIVERS
  1

  0
POLYLINE
  5
4302
  8
0
 66
     1
 10
0.0
 20
0.0
 30
0.0
  0
VERTEX
  5
4437
  8
0
 10
0.5
 20
0.0
 30
0.0
  0
VERTEX
  5
4438
  8
0
 10
1.5
 20
0.0
 30
0.0
  0
SEQEND
  5
4439
  8
0
  0
POLYLINE
  5
4306
  8
0
 66
     1
 10
0.0
 20
0.0
 30
0.0
  0
VERTEX
  5
443A
  8
0
 10
-1.5
 20
0.0
 30
0.0
  0
VERTEX
  5
443B
  8
0
 10
-0.5
 20
0.0
 30
0.0
  0
SEQEND
  5
443C
  8
0
  0
POLYLINE
  5
430A
  8
0
 66
     1
 10
0.0
 20
0.0
 30
0.0
  0
VERTEX
  5
443D
  8
0
 10
0.0
 20
0.5
 30
0.0
  0
VERTEX
  5
443E
  8
0
 10
0.0
 20
1.5
 30
0.0
  0
SEQEND
  5
443F
  8
0
  0
POLYLINE
  5
430E
  8
0
 66
     1
 10
0.0
 20
0.0
 30
0.0
  0
VERTEX
  5
4440
  8
0
 10
0.0
 20
-1.5
 30
0.0
  0
VERTEX
  5
4441
  8
0
 10
0.0
 20
0.0
 30
0.0
  0
SEQEND
  5
4442
  8
0
  0
ENDBLK
  5
4312
  8
0
  0
BLOCK
  8
0
  2
CADAPGEO
 70
     0
 10
0.0
 20
0.0
 30
0.0
  3
CADAPGEO
  1

  0
POLYLINE
  5
4315
  8
0
 66
     1
 10
0.0
 20
0.0
 30
0.0
 70
     1
  0
VERTEX
  5
4443
  8
0
 10
0.0
 20
2.32
 30
0.0
  0
VERTEX
  5
4444
  8
0
 10
-2.009179
 20
-1.159975
 30
0.0
  0
VERTEX
  5
4445
  8
0
 10
2.009179
 20
-1.159975
 30
0.0
  0
SEQEND
  5
4446
  8
0
  0
POLYLINE
  5
431A
  8
0
 66
     1
 10
0.0
 20
0.0
 30
0.0
 70
     1
  0
VERTEX
  5
4447
  8
0
 10
-1.5
 20
-0.866
 30
0.0
  0
VERTEX
  5
4448
  8
0
 10
1.5
 20
-0.866
 30
0.0
  0
VERTEX
  5
4449
  8
0
 10
0.0
 20
1.732
 30
0.0
  0
SEQEND
  5
444A
  8
0
  0
CIRCLE
  5
431F
  8
0
 10
0.0
 20
0.0
 30
0.0
 40
0.866
  0
ENDBLK
  5
4320
  8
0
  0
BLOCK
  8
0
  2
CADAPPDV
 70
     0
 10
0.0
 20
0.0
 30
0.0
  3
CADAPPDV
  1

  0
POLYLINE
  5
4323
  8
0
 66
     1
 10
0.0
 20
0.0
 30
0.0
 70
     1
  0
VERTEX
  5
444B
  8
0
 10
0.0
 20
2.32
 30
0.0
  0
VERTEX
  5
444C
  8
0
 10
-2.009179
 20
-1.159975
 30
0.0
  0
VERTEX
  5
444D
  8
0
 10
2.009179
 20
-1.159975
 30
0.0
  0
SEQEND
  5
444E
  8
0
  0
POLYLINE
  5
4328
  8
0
 66
     1
 10
0.0
 20
0.0
 30
0.0
 70
     1
  0
VERTEX
  5
444F
  8
0
 10
-1.5
 20
-0.866
 30
0.0
  0
VERTEX
  5
4450
  8
0
 10
1.5
 20
-0.866
 30
0.0
  0
VERTEX
  5
4451
  8
0
 10
0.0
 20
1.732
 30
0.0
  0
SEQEND
  5
4452
  8
0
  0
CIRCLE
  5
432D
  8
0
 10
0.0
 20
0.0
 30
0.0
 40
0.866
  0
ENDBLK
  5
432E
  8
0
  0
BLOCK
  8
0
  2
CADORDB
 70
     0
 10
0.0
 20
0.0
 30
0.0
  3
CADORDB
  1

  0
POLYLINE
  5
4331
  8
0
 66
     1
 10
0.0
 20
0.0
 30
0.0
 70
     1
  0
VERTEX
  5
4453
  8
0
 10
0.0
 20
2.32
 30
0.0
  0
VERTEX
  5
4454
  8
0
 10
-2.009179
 20
-1.159975
 30
0.0
  0
VERTEX
  5
4455
  8
0
 10
2.009179
 20
-1.159975
 30
0.0
  0
SEQEND
  5
4456
  8
0
  0
POLYLINE
  5
4336
  8
0
 66
     1
 10
0.0
 20
0.0
 30
0.0
 70
     1
  0
VERTEX
  5
4457
  8
0
 10
-1.5
 20
-0.866
 30
0.0
  0
VERTEX
  5
4458
  8
0
 10
1.5
 20
-0.866
 30
0.0
  0
VERTEX
  5
4459
  8
0
 10
0.0
 20
1.732
 30
0.0
  0
SEQEND
  5
445A
  8
0
  0
CIRCLE
  5
433B
  8
0
 10
0.0
 20
0.0
 30
0.0
 40
0.866
  0
ENDBLK
  5
433C
  8
0
  0
BLOCK
  8
0
  2
CADPEREN
 70
     0
 10
0.0
 20
0.0
 30
0.0
  3
CADPEREN
  1

  0
POLYLINE
  5
433F
  8
0
 66
     1
 10
0.0
 20
0.0
 30
0.0
 70
     1
  0
VERTEX
  5
445B
  8
0
 10
0.0
 20
2.32
 30
0.0
  0
VERTEX
  5
445C
  8
0
 10
-2.009179
 20
-1.159975
 30
0.0
  0
VERTEX
  5
445D
  8
0
 10
2.009179
 20
-1.159975
 30
0.0
  0
SEQEND
  5
445E
  8
0
  0
POLYLINE
  5
4344
  8
0
 66
     1
 10
0.0
 20
0.0
 30
0.0
 70
     1
  0
VERTEX
  5
445F
  8
0
 10
-1.5
 20
-0.866
 30
0.0
  0
VERTEX
  5
4460
  8
0
 10
1.5
 20
-0.866
 30
0.0
  0
VERTEX
  5
4461
  8
0
 10
0.0
 20
1.732
 30
0.0
  0
SEQEND
  5
4462
  8
0
  0
CIRCLE
  5
4349
  8
0
 10
0.0
 20
0.0
 30
0.0
 40
0.866
  0
ENDBLK
  5
434A
  8
0
  0
BLOCK
  5
4469
   8
0
   2
TEXT
  70
     66
  10
0.0
  20
0.0
  30
0.0
   0
POINT
  5
446a
   8
0
  10
0.0
  20
0.0
  30
0.0
   0
ENDBLK
  5
446b
   8
0
   0
ENDSEC
  0
SECTION
  2
ENTITIES
  0
POLYLINE
  5
446c
  8
1SUBDSECT
 66
    1
 10
0.0
 20
0.0
 30
0.0
 70
     1
1001
QUPL
1000
01
1001
COPL
1000
02
1001
EOR
1000
2000
1001
DEDI
1000
01/01/1985
1001
ICL
1000
+70.60
1001
DIS
1000
22/06/2005
1001
INP
1000
01
1001
DRED
1000
01/01/1982
1001
IDU
1000
1870000C05
  0
VERTEX
  8
1SUBDSECT
  5
446d
 10
503918.230000
 20
6750737.100000
 30
0.000000
  0
VERTEX
  8
1SUBDSECT
  5
446e
 10
503899.880000
 20
6750716.790000
 30
0.000000
  0
VERTEX
  8
1SUBDSECT
  5
446f
 10
503816.650000
 20
6750622.920000
 30
0.000000
  0
VERTEX
  8
1SUBDSECT
  5
4470
 10
503813.380000
 20
6750619.150000
 30
0.000000
  0
VERTEX
  8
1SUBDSECT
  5
4471
 10
503727.060000
 20
6750517.830000
 30
0.000000
  0
VERTEX
  8
1SUBDSECT
  5
4472
 10
503723.340000
 20
6750513.500000
 30
0.000000
  0
VERTEX
  8
1SUBDSECT
  5
4473
 10
503670.740000
 20
6750452.070000
 30
0.000000
  0
VERTEX
  8
1SUBDSECT
  5
4474
 10
503532.350000
 20
6750290.250000
 30
0.000000
  0
VERTEX
  8
1SUBDSECT
  5
4475
 10
503529.800000
 20
6750298.760000
 30
0.000000
  0
VERTEX
  8
1SUBDSECT
  5
4476
 10
503525.490000
 20
6750296.450000
 30
0.000000
  0
VERTEX
  8
1SUBDSECT
  5
4477
 10
503518.120000
 20
6750293.430000
 30
0.000000
  0
VERTEX
  8
1SUBDSECT
  5
4478
 10
503510.830000
 20
6750290.680000
 30
0.000000
  0
VERTEX
  8
1SUBDSECT
  5
4479
 10
503491.650000
 20
6750284.550000
 30
0.000000
  0
VERTEX
  8
1SUBDSECT
  5
447a
 10
503473.890000
 20
6750278.850000
 30
0.000000
  0
VERTEX
  8
1SUBDSECT
  5
447b
 10
503467.210000
 20
6750277.480000
 30
0.000000
  0
VERTEX
  8
1SUBDSECT
  5
447c
 10
503460.150000
 20
6750276.010000
 30
0.000000
  0
VERTEX
  8
1SUBDSECT
  5
447d
 10
503430.280000
 20
6750268.700000
 30
0.000000
  0
VERTEX
  8
1SUBDSECT
  5
447e
 10
503430.600000
 20
6750267.650000
 30
0.000000
  0
VERTEX
  8
1SUBDSECT
  5
447f
 10
503423.920000
 20
6750264.100000
 30
0.000000
  0
VERTEX
  8
1SUBDSECT
  5
4480
 10
503415.840000
 20
6750259.350000
 30
0.000000
  0
VERTEX
  8
1SUBDSECT
  5
4481
 10
503410.460000
 20
6750256.640000
 30
0.000000
  0
VERTEX
  8
1SUBDSECT
  5
4482
 10
503407.770000
 20
6750255.350000
 30
0.000000
  0
VERTEX
  8
1SUBDSECT
  5
4483
 10
503404.290000
 20
6750254.120000
 30
0.000000
  0
VERTEX
  8
1SUBDSECT
  5
4484
 10
503404.830000
 20
6750243.190000
 30
0.000000
  0
VERTEX
  8
1SUBDSECT
  5
4485
 10
503404.660000
 20
6750242.710000
 30
0.000000
  0
VERTEX
  8
1SUBDSECT
  5
4486
 10
503415.310000
 20
6750219.920000
 30
0.000000
  0
VERTEX
  8
1SUBDSECT
  5
4487
 10
503419.240000
 20
6750212.020000
 30
0.000000
  0
VERTEX
  8
1SUBDSECT
  5
4488
 10
503425.680000
 20
6750200.260000
 30
0.000000
  0
VERTEX
  8
1SUBDSECT
  5
4489
 10
503433.440000
 20
6750186.040000
 30
0.000000
  0
VERTEX
  8
1SUBDSECT
  5
448a
 10
503435.390000
 20
6750182.330000
 30
0.000000
  0
VERTEX
  8
1SUBDSECT
  5
448b
 10
503431.890000
 20
6750179.080000
 30
0.000000
  0
VERTEX
  8
1SUBDSECT
  5
448c
 10
503425.640000
 20
6750173.920000
 30
0.000000
  0
VERTEX
  8
1SUBDSECT
  5
448d
 10
503431.240000
 20
6750159.090000
 30
0.000000
  0
VERTEX
  8
1SUBDSECT
  5
448e
 10
503435.620000
 20
6750141.550000
 30
0.000000
  0
VERTEX
  8
1SUBDSECT
  5
448f
 10
503439.380000
 20
6750125.450000
 30
0.000000
  0
VERTEX
  8
1SUBDSECT
  5
4490
 10
503440.300000
 20
6750118.980000
 30
0.000000
  0
VERTEX
  8
1SUBDSECT
  5
4491
 10
503441.470000
 20
6750104.710000
 30
0.000000
  0
VERTEX
  8
1SUBDSECT
  5
4492
 10
503441.420000
 20
6750101.740000
 30
0.000000
  0
VERTEX
  8
1SUBDSECT
  5
4493
 10
503440.910000
 20
6750098.900000
 30
0.000000
  0
VERTEX
  8
1SUBDSECT
  5
4494
 10
503438.870000
 20
6750091.360000
 30
0.000000
  0
VERTEX
  8
1SUBDSECT
  5
4495
 10
503443.220000
 20
6750086.890000
 30
0.000000
  0
VERTEX
  8
1SUBDSECT
  5
4496
 10
503448.870000
 20
6750081.030000
 30
0.000000
  0
VERTEX
  8
1SUBDSECT
  5
4497
 10
503449.700000
 20
6750075.240000
 30
0.000000
  0
VERTEX
  8
1SUBDSECT
  5
4498
 10
503449.760000
 20
6750071.700000
 30
0.000000
  0
VERTEX
  8
1SUBDSECT
  5
4499
 10
503447.680000
 20
6750030.170000
 30
0.000000
  0
VERTEX
  8
1SUBDSECT
  5
449a
 10
503446.170000
 20
6750005.600000
 30
0.000000
  0
VERTEX
  8
1SUBDSECT
  5
449b
 10
503442.990000
 20
6749955.440000
 30
0.000000
  0
VERTEX
  8
1SUBDSECT
  5
449c
 10
503441.060000
 20
6749924.000000
 30
0.000000
  0
VERTEX
  8
1SUBDSECT
  5
449d
 10
503439.470000
 20
6749897.780000
 30
0.000000
  0
VERTEX
  8
1SUBDSECT
  5
449e
 10
503438.280000
 20
6749873.980000
 30
0.000000
  0
VERTEX
  8
1SUBDSECT
  5
449f
 10
503438.340000
 20
6749859.960000
 30
0.000000
  0
VERTEX
  8
1SUBDSECT
  5
44a0
 10
503438.550000
 20
6749843.400000
 30
0.000000
  0
VERTEX
  8
1SUBDSECT
  5
44a1
 10
503441.200000
 20
6749823.260000
 30
0.000000
  0
VERTEX
  8
1SUBDSECT
  5
44a2
 10
503442.720000
 20
6749809.810000
 30
0.000000
  0
VERTEX
  8
1SUBDSECT
  5
44a3
 10
503443.380000
 20
6749804.770000
 30
0.000000
  0
VERTEX
  8
1SUBDSECT
  5
44a4
 10
503444.450000
 20
6749796.790000
 30
0.000000
  0
VERTEX
  8
1SUBDSECT
  5
44a5
 10
503445.820000
 20
6749785.750000
 30
0.000000
  0
VERTEX
  8
1SUBDSECT
  5
44a6
 10
503448.230000
 20
6749765.710000
 30
0.000000
  0
VERTEX
  8
1SUBDSECT
  5
44a7
 10
503451.160000
 20
6749737.660000
 30
0.000000
  0
VERTEX
  8
1SUBDSECT
  5
44a8
 10
503453.410000
 20
6749716.810000
 30
0.000000
  0
VERTEX
  8
1SUBDSECT
  5
44a9
 10
503453.130000
 20
6749713.360000
 30
0.000000
  0
VERTEX
  8
1SUBDSECT
  5
44aa
 10
503451.080000
 20
6749706.910000
 30
0.000000
  0
VERTEX
  8
1SUBDSECT
  5
44ab
 10
503444.780000
 20
6749686.810000
 30
0.000000
  0
VERTEX
  8
1SUBDSECT
  5
44ac
 10
503441.700000
 20
6749676.930000
 30
0.000000
  0
VERTEX
  8
1SUBDSECT
  5
44ad
 10
503438.050000
 20
6749667.070000
 30
0.000000
  0
VERTEX
  8
1SUBDSECT
  5
44ae
 10
503436.680000
 20
6749664.620000
 30
0.000000
  0
VERTEX
  8
1SUBDSECT
  5
44af
 10
503433.910000
 20
6749661.430000
 30
0.000000
  0
VERTEX
  8
1SUBDSECT
  5
44b0
 10
503431.570000
 20
6749658.710000
 30
0.000000
  0
VERTEX
  8
1SUBDSECT
  5
44b1
 10
503408.650000
 20
6749634.510000
 30
0.000000
  0
VERTEX
  8
1SUBDSECT
  5
44b2
 10
503405.320000
 20
6749630.980000
 30
0.000000
  0
VERTEX
  8
1SUBDSECT
  5
44b3
 10
503387.990000
 20
6749612.160000
 30
0.000000
  0
VERTEX
  8
1SUBDSECT
  5
44b4
 10
503378.120000
 20
6749601.190000
 30
0.000000
  0
VERTEX
  8
1SUBDSECT
  5
44b5
 10
503371.250000
 20
6749592.130000
 30
0.000000
  0
VERTEX
  8
1SUBDSECT
  5
44b6
 10
503350.990000
 20
6749564.870000
 30
0.000000
  0
VERTEX
  8
1SUBDSECT
  5
44b7
 10
503336.190000
 20
6749544.120000
 30
0.000000
  0
VERTEX
  8
1SUBDSECT
  5
44b8
 10
503334.570000
 20
6749541.860000
 30
0.000000
  0
VERTEX
  8
1SUBDSECT
  5
44b9
 10
503317.020000
 20
6749518.450000
 30
0.000000
  0
VERTEX
  8
1SUBDSECT
  5
44ba
 10
503300.080000
 20
6749495.180000
 30
0.000000
  0
VERTEX
  8
1SUBDSECT
  5
44bb
 10
503292.060000
 20
6749482.780000
 30
0.000000
  0
VERTEX
  8
1SUBDSECT
  5
44bc
 10
503286.420000
 20
6749474.130000
 30
0.000000
  0
VERTEX
  8
1SUBDSECT
  5
44bd
 10
503279.510000
 20
6749463.400000
 30
0.000000
  0
VERTEX
  8
1SUBDSECT
  5
44be
 10
503275.880000
 20
6749457.800000
 30
0.000000
  0
VERTEX
  8
1SUBDSECT
  5
44bf
 10
503265.150000
 20
6749441.530000
 30
0.000000
  0
VERTEX
  8
1SUBDSECT
  5
44c0
 10
503262.530000
 20
6749438.450000
 30
0.000000
  0
VERTEX
  8
1SUBDSECT
  5
44c1
 10
503258.830000
 20
6749433.070000
 30
0.000000
  0
VERTEX
  8
1SUBDSECT
  5
44c2
 10
503248.290000
 20
6749418.180000
 30
0.000000
  0
VERTEX
  8
1SUBDSECT
  5
44c3
 10
503244.060000
 20
6749412.020000
 30
0.000000
  0
VERTEX
  8
1SUBDSECT
  5
44c4
 10
503230.180000
 20
6749391.810000
 30
0.000000
  0
VERTEX
  8
1SUBDSECT
  5
44c5
 10
503215.480000
 20
6749369.760000
 30
0.000000
  0
VERTEX
  8
1SUBDSECT
  5
44c6
 10
503210.470000
 20
6749362.200000
 30
0.000000
  0
VERTEX
  8
1SUBDSECT
  5
44c7
 10
503194.480000
 20
6749338.290000
 30
0.000000
  0
VERTEX
  8
1SUBDSECT
  5
44c8
 10
503192.860000
 20
6749335.870000
 30
0.000000
  0
VERTEX
  8
1SUBDSECT
  5
44c9
 10
503182.120000
 20
6749319.520000
 30
0.000000
  0
VERTEX
  8
1SUBDSECT
  5
44ca
 10
503177.870000
 20
6749316.520000
 30
0.000000
  0
VERTEX
  8
1SUBDSECT
  5
44cb
 10
503172.790000
 20
6749313.750000
 30
0.000000
  0
VERTEX
  8
1SUBDSECT
  5
44cc
 10
503172.330000
 20
6749310.770000
 30
0.000000
  0
VERTEX
  8
1SUBDSECT
  5
44cd
 10
503180.260000
 20
6749309.120000
 30
0.000000
  0
VERTEX
  8
1SUBDSECT
  5
44ce
 10
503201.840000
 20
6749304.900000
 30
0.000000
  0
VERTEX
  8
1SUBDSECT
  5
44cf
 10
503242.330000
 20
6749318.690000
 30
0.000000
  0
VERTEX
  8
1SUBDSECT
  5
44d0
 10
503502.180000
 20
6749408.640000
 30
0.000000
  0
VERTEX
  8
1SUBDSECT
  5
44d1
 10
503744.950000
 20
6749493.880000
 30
0.000000
  0
VERTEX
  8
1SUBDSECT
  5
44d2
 10
503834.970000
 20
6749525.700000
 30
0.000000
  0
VERTEX
  8
1SUBDSECT
  5
44d3
 10
504112.370000
 20
6749621.900000
 30
0.000000
  0
VERTEX
  8
1SUBDSECT
  5
44d4
 10
504134.830000
 20
6749629.280000
 30
0.000000
  0
VERTEX
  8
1SUBDSECT
  5
44d5
 10
504133.100000
 20
6749632.940000
 30
0.000000
  0
VERTEX
  8
1SUBDSECT
  5
44d6
 10
504131.770000
 20
6749634.940000
 30
0.000000
  0
VERTEX
  8
1SUBDSECT
  5
44d7
 10
504126.770000
 20
6749639.980000
 30
0.000000
  0
VERTEX
  8
1SUBDSECT
  5
44d8
 10
504117.260000
 20
6749642.860000
 30
0.000000
  0
VERTEX
  8
1SUBDSECT
  5
44d9
 10
504116.310000
 20
6749650.520000
 30
0.000000
  0
VERTEX
  8
1SUBDSECT
  5
44da
 10
504093.730000
 20
6749783.020000
 30
0.000000
  0
VERTEX
  8
1SUBDSECT
  5
44db
 10
504086.860000
 20
6749823.810000
 30
0.000000
  0
VERTEX
  8
1SUBDSECT
  5
44dc
 10
504074.500000
 20
6749897.240000
 30
0.000000
  0
VERTEX
  8
1SUBDSECT
  5
44dd
 10
504059.200000
 20
6749988.350000
 30
0.000000
  0
VERTEX
  8
1SUBDSECT
  5
44de
 10
504051.950000
 20
6750031.640000
 30
0.000000
  0
VERTEX
  8
1SUBDSECT
  5
44df
 10
504041.430000
 20
6750094.440000
 30
0.000000
  0
VERTEX
  8
1SUBDSECT
  5
44e0
 10
504028.790000
 20
6750169.170000
 30
0.000000
  0
VERTEX
  8
1SUBDSECT
  5
44e1
 10
504025.000000
 20
6750191.480000
 30
0.000000
  0
VERTEX
  8
1SUBDSECT
  5
44e2
 10
504010.190000
 20
6750277.770000
 30
0.000000
  0
VERTEX
  8
1SUBDSECT
  5
44e3
 10
503996.260000
 20
6750360.820000
 30
0.000000
  0
VERTEX
  8
1SUBDSECT
  5
44e4
 10
503990.500000
 20
6750396.260000
 30
0.000000
  0
VERTEX
  8
1SUBDSECT
  5
44e5
 10
503970.260000
 20
6750515.040000
 30
0.000000
  0
VERTEX
  8
1SUBDSECT
  5
44e6
 10
503953.540000
 20
6750608.760000
 30
0.000000
  0
VERTEX
  8
1SUBDSECT
  5
44e7
 10
503948.770000
 20
6750636.290000
 30
0.000000
  0
VERTEX
  8
1SUBDSECT
  5
44e8
 10
503936.210000
 20
6750709.460000
 30
0.000000
  0
VERTEX
  8
1SUBDSECT
  5
44e9
 10
503931.500000
 20
6750736.280000
 30
0.000000
  0
VERTEX
  8
1SUBDSECT
  5
44ea
 10
503937.640000
 20
6750739.590000
 30
0.000000
  0
VERTEX
  8
1SUBDSECT
  5
44eb
 10
503940.940000
 20
6750745.430000
 30
0.000000
  0
VERTEX
  8
1SUBDSECT
  5
44ec
 10
503940.050000
 20
6750752.220000
 30
0.000000
  0
VERTEX
  8
1SUBDSECT
  5
44ed
 10
503936.500000
 20
6750759.370000
 30
0.000000
  0
VERTEX
  8
1SUBDSECT
  5
44ee
 10
503929.430000
 20
6750764.590000
 30
0.000000
  0
VERTEX
  8
1SUBDSECT
  5
44ef
 10
503929.200000
 20
6750764.770000
 30
0.000000
  0
VERTEX
  8
1SUBDSECT
  5
44f0
 10
503924.730000
 20
6750765.920000
 30
0.000000
  0
VERTEX
  8
1SUBDSECT
  5
44f1
 10
503917.880000
 20
6750762.770000
 30
0.000000
  0
VERTEX
  8
1SUBDSECT
  5
44f2
 10
503917.570000
 20
6750762.630000
 30
0.000000
  0
VERTEX
  8
1SUBDSECT
  5
44f3
 10
503914.780000
 20
6750760.240000
 30
0.000000
  0
VERTEX
  8
1SUBDSECT
  5
44f4
 10
503911.370000
 20
6750756.340000
 30
0.000000
  0
VERTEX
  8
1SUBDSECT
  5
44f5
 10
503909.790000
 20
6750751.930000
 30
0.000000
  0
VERTEX
  8
1SUBDSECT
  5
44f6
 10
503911.230000
 20
6750744.350000
 30
0.000000
  0
VERTEX
  8
1SUBDSECT
  5
44f7
 10
503912.320000
 20
6750741.960000
 30
0.000000
  0
VERTEX
  8
1SUBDSECT
  5
44f8
 10
503918.230000
 20
6750737.100000
 30
0.000000
  0
SEQEND
  8
1SUBDSECT
  5
44f9
  0
POLYLINE
  5
44fa
  8
1SECTION
 66
    1
 10
0.0
 20
0.0
 30
0.0
 70
     1
1001
IDU
1000
1870000C
  0
VERTEX
  8
1SECTION
  5
44fb
 10
504573.690000
 20
6749782.880000
 30
0.000000
  0
VERTEX
  8
1SECTION
  5
44fc
 10
504581.850000
 20
6749785.130000
 30
0.000000
  0
VERTEX
  8
1SECTION
  5
44fd
 10
504598.800000
 20
6749780.970000
 30
0.000000
  0
VERTEX
  8
1SECTION
  5
44fe
 10
504618.900000
 20
6749775.430000
 30
0.000000
  0
VERTEX
  8
1SECTION
  5
44ff
 10
504634.850000
 20
6749771.170000
 30
0.000000
  0
VERTEX
  8
1SECTION
  5
4500
 10
504647.030000
 20
6749772.810000
 30
0.000000
  0
VERTEX
  8
1SECTION
  5
4501
 10
504648.170000
 20
6749775.440000
 30
0.000000
  0
VERTEX
  8
1SECTION
  5
4502
 10
504656.210000
 20
6749794.670000
 30
0.000000
  0
VERTEX
  8
1SECTION
  5
4503
 10
504666.690000
 20
6749812.430000
 30
0.000000
  0
VERTEX
  8
1SECTION
  5
4504
 10
504674.430000
 20
6749828.110000
 30
0.000000
  0
VERTEX
  8
1SECTION
  5
4505
 10
504678.890000
 20
6749832.800000
 30
0.000000
  0
VERTEX
  8
1SECTION
  5
4506
 10
504687.210000
 20
6749844.170000
 30
0.000000
  0
VERTEX
  8
1SECTION
  5
4507
 10
504689.900000
 20
6749849.480000
 30
0.000000
  0
VERTEX
  8
1SECTION
  5
4508
 10
504693.740000
 20
6749857.060000
 30
0.000000
  0
VERTEX
  8
1SECTION
  5
4509
 10
504708.970000
 20
6749866.470000
 30
0.000000
  0
VERTEX
  8
1SECTION
  5
450a
 10
504715.210000
 20
6749863.050000
 30
0.000000
  0
VERTEX
  8
1SECTION
  5
450b
 10
504719.030000
 20
6749860.960000
 30
0.000000
  0
VERTEX
  8
1SECTION
  5
450c
 10
504722.880000
 20
6749859.560000
 30
0.000000
  0
VERTEX
  8
1SECTION
  5
450d
 10
504728.640000
 20
6749857.470000
 30
0.000000
  0
VERTEX
  8
1SECTION
  5
450e
 10
504739.150000
 20
6749853.960000
 30
0.000000
  0
VERTEX
  8
1SECTION
  5
450f
 10
504744.460000
 20
6749852.310000
 30
0.000000
  0
VERTEX
  8
1SECTION
  5
4510
 10
504750.260000
 20
6749852.860000
 30
0.000000
  0
VERTEX
  8
1SECTION
  5
4511
 10
504759.830000
 20
6749856.200000
 30
0.000000
  0
VERTEX
  8
1SECTION
  5
4512
 10
504765.350000
 20
6749856.560000
 30
0.000000
  0
VERTEX
  8
1SECTION
  5
4513
 10
504780.740000
 20
6749867.920000
 30
0.000000
  0
VERTEX
  8
1SECTION
  5
4514
 10
504783.130000
 20
6749869.680000
 30
0.000000
  0
VERTEX
  8
1SECTION
  5
4515
 10
504772.810000
 20
6749885.100000
 30
0.000000
  0
VERTEX
  8
1SECTION
  5
4516
 10
504753.650000
 20
6749909.440000
 30
0.000000
  0
VERTEX
  8
1SECTION
  5
4517
 10
504750.120000
 20
6749920.320000
 30
0.000000
  0
VERTEX
  8
1SECTION
  5
4518
 10
504751.280000
 20
6749961.620000
 30
0.000000
  0
VERTEX
  8
1SECTION
  5
4519
 10
504748.860000
 20
6749963.410000
 30
0.000000
  0
VERTEX
  8
1SECTION
  5
451a
 10
504740.900000
 20
6749969.350000
 30
0.000000
  0
VERTEX
  8
1SECTION
  5
451b
 10
504728.860000
 20
6749977.960000
 30
0.000000
  0
VERTEX
  8
1SECTION
  5
451c
 10
504724.600000
 20
6749984.820000
 30
0.000000
  0
VERTEX
  8
1SECTION
  5
451d
 10
504712.570000
 20
6749988.340000
 30
0.000000
  0
VERTEX
  8
1SECTION
  5
451e
 10
504710.280000
 20
6749990.360000
 30
0.000000
  0
VERTEX
  8
1SECTION
  5
451f
 10
504701.010000
 20
6749993.750000
 30
0.000000
  0
VERTEX
  8
1SECTION
  5
4520
 10
504688.510000
 20
6750002.120000
 30
0.000000
  0
VERTEX
  8
1SECTION
  5
4521
 10
504673.850000
 20
6750011.950000
 30
0.000000
  0
VERTEX
  8
1SECTION
  5
4522
 10
504662.620000
 20
6750021.460000
 30
0.000000
  0
VERTEX
  8
1SECTION
  5
4523
 10
504646.270000
 20
6750036.580000
 30
0.000000
  0
VERTEX
  8
1SECTION
  5
4524
 10
504641.070000
 20
6750039.930000
 30
0.000000
  0
VERTEX
  8
1SECTION
  5
4525
 10
504640.710000
 20
6750041.630000
 30
0.000000
  0
VERTEX
  8
1SECTION
  5
4526
 10
504632.110000
 20
6750081.740000
 30
0.000000
  0
VERTEX
  8
1SECTION
  5
4527
 10
504625.520000
 20
6750117.070000
 30
0.000000
  0
VERTEX
  8
1SECTION
  5
4528
 10
504624.240000
 20
6750123.930000
 30
0.000000
  0
VERTEX
  8
1SECTION
  5
4529
 10
504620.070000
 20
6750141.500000
 30
0.000000
  0
VERTEX
  8
1SECTION
  5
452a
 10
504612.940000
 20
6750153.010000
 30
0.000000
  0
VERTEX
  8
1SECTION
  5
452b
 10
504605.690000
 20
6750162.420000
 30
0.000000
  0
VERTEX
  8
1SECTION
  5
452c
 10
504595.550000
 20
6750173.440000
 30
0.000000
  0
VERTEX
  8
1SECTION
  5
452d
 10
504594.180000
 20
6750178.170000
 30
0.000000
  0
VERTEX
  8
1SECTION
  5
452e
 10
504607.370000
 20
6750195.420000
 30
0.000000
  0
VERTEX
  8
1SECTION
  5
452f
 10
504613.680000
 20
6750205.380000
 30
0.000000
  0
VERTEX
  8
1SECTION
  5
4530
 10
504609.760000
 20
6750218.280000
 30
0.000000
  0
VERTEX
  8
1SECTION
  5
4531
 10
504610.630000
 20
6750224.950000
 30
0.000000
  0
VERTEX
  8
1SECTION
  5
4532
 10
504618.110000
 20
6750241.980000
 30
0.000000
  0
VERTEX
  8
1SECTION
  5
4533
 10
504642.370000
 20
6750277.600000
 30
0.000000
  0
VERTEX
  8
1SECTION
  5
4534
 10
504666.990000
 20
6750296.340000
 30
0.000000
  0
VERTEX
  8
1SECTION
  5
4535
 10
504677.040000
 20
6750301.130000
 30
0.000000
  0
VERTEX
  8
1SECTION
  5
4536
 10
504677.370000
 20
6750301.290000
 30
0.000000
  0
VERTEX
  8
1SECTION
  5
4537
 10
504686.390000
 20
6750303.700000
 30
0.000000
  0
VERTEX
  8
1SECTION
  5
4538
 10
504706.700000
 20
6750306.760000
 30
0.000000
  0
VERTEX
  8
1SECTION
  5
4539
 10
504711.780000
 20
6750302.600000
 30
0.000000
  0
VERTEX
  8
1SECTION
  5
453a
 10
504712.840000
 20
6750296.350000
 30
0.000000
  0
VERTEX
  8
1SECTION
  5
453b
 10
504709.610000
 20
6750295.080000
 30
0.000000
  0
VERTEX
  8
1SECTION
  5
453c
 10
504709.960000
 20
6750288.740000
 30
0.000000
  0
VERTEX
  8
1SECTION
  5
453d
 10
504731.050000
 20
6750288.970000
 30
0.000000
  0
VERTEX
  8
1SECTION
  5
453e
 10
504720.600000
 20
6750336.140000
 30
0.000000
  0
VERTEX
  8
1SECTION
  5
453f
 10
504734.380000
 20
6750343.320000
 30
0.000000
  0
VERTEX
  8
1SECTION
  5
4540
 10
504747.060000
 20
6750348.450000
 30
0.000000
  0
VERTEX
  8
1SECTION
  5
4541
 10
504753.140000
 20
6750355.030000
 30
0.000000
  0
VERTEX
  8
1SECTION
  5
4542
 10
504767.460000
 20
6750361.940000
 30
0.000000
  0
VERTEX
  8
1SECTION
  5
4543
 10
504778.820000
 20
6750366.960000
 30
0.000000
  0
VERTEX
  8
1SECTION
  5
4544
 10
504798.850000
 20
6750372.420000
 30
0.000000
  0
VERTEX
  8
1SECTION
  5
4545
 10
504788.880000
 20
6750382.710000
 30
0.000000
  0
VERTEX
  8
1SECTION
  5
4546
 10
504785.710000
 20
6750385.980000
 30
0.000000
  0
VERTEX
  8
1SECTION
  5
4547
 10
504765.240000
 20
6750412.540000
 30
0.000000
  0
VERTEX
  8
1SECTION
  5
4548
 10
504751.500000
 20
6750433.390000
 30
0.000000
  0
VERTEX
  8
1SECTION
  5
4549
 10
504743.800000
 20
6750450.230000
 30
0.000000
  0
VERTEX
  8
1SECTION
  5
454a
 10
504738.380000
 20
6750461.100000
 30
0.000000
  0
VERTEX
  8
1SECTION
  5
454b
 10
504733.550000
 20
6750485.550000
 30
0.000000
  0
VERTEX
  8
1SECTION
  5
454c
 10
504723.570000
 20
6750526.780000
 30
0.000000
  0
VERTEX
  8
1SECTION
  5
454d
 10
504712.940000
 20
6750565.480000
 30
0.000000
  0
VERTEX
  8
1SECTION
  5
454e
 10
504708.010000
 20
6750576.230000
 30
0.000000
  0
VERTEX
  8
1SECTION
  5
454f
 10
504694.250000
 20
6750598.550000
 30
0.000000
  0
VERTEX
  8
1SECTION
  5
4550
 10
504668.060000
 20
6750635.200000
 30
0.000000
  0
VERTEX
  8
1SECTION
  5
4551
 10
504647.170000
 20
6750665.540000
 30
0.000000
  0
VERTEX
  8
1SECTION
  5
4552
 10
504636.400000
 20
6750686.540000
 30
0.000000
  0
VERTEX
  8
1SECTION
  5
4553
 10
504628.470000
 20
6750708.760000
 30
0.000000
  0
VERTEX
  8
1SECTION
  5
4554
 10
504618.370000
 20
6750749.090000
 30
0.000000
  0
VERTEX
  8
1SECTION
  5
4555
 10
504609.160000
 20
6750789.090000
 30
0.000000
  0
VERTEX
  8
1SECTION
  5
4556
 10
504591.130000
 20
6750827.880000
 30
0.000000
  0
VERTEX
  8
1SECTION
  5
4557
 10
504578.360000
 20
6750871.840000
 30
0.000000
  0
VERTEX
  8
1SECTION
  5
4558
 10
504570.920000
 20
6750894.660000
 30
0.000000
  0
VERTEX
  8
1SECTION
  5
4559
 10
504562.070000
 20
6750915.410000
 30
0.000000
  0
VERTEX
  8
1SECTION
  5
455a
 10
504552.850000
 20
6750930.360000
 30
0.000000
  0
VERTEX
  8
1SECTION
  5
455b
 10
504537.280000
 20
6750949.730000
 30
0.000000
  0
VERTEX
  8
1SECTION
  5
455c
 10
504525.410000
 20
6750958.980000
 30
0.000000
  0
VERTEX
  8
1SECTION
  5
455d
 10
504488.670000
 20
6750979.630000
 30
0.000000
  0
VERTEX
  8
1SECTION
  5
455e
 10
504452.930000
 20
6750999.310000
 30
0.000000
  0
VERTEX
  8
1SECTION
  5
455f
 10
504452.880000
 20
6751000.330000
 30
0.000000
  0
VERTEX
  8
1SECTION
  5
4560
 10
504449.990000
 20
6751055.940000
 30
0.000000
  0
VERTEX
  8
1SECTION
  5
4561
 10
504446.030000
 20
6751097.100000
 30
0.000000
  0
VERTEX
  8
1SECTION
  5
4562
 10
504445.550000
 20
6751125.770000
 30
0.000000
  0
VERTEX
  8
1SECTION
  5
4563
 10
504441.670000
 20
6751130.630000
 30
0.000000
  0
VERTEX
  8
1SECTION
  5
4564
 10
504439.940000
 20
6751138.680000
 30
0.000000
  0
VERTEX
  8
1SECTION
  5
4565
 10
504438.730000
 20
6751162.270000
 30
0.000000
  0
VERTEX
  8
1SECTION
  5
4566
 10
504436.450000
 20
6751178.450000
 30
0.000000
  0
VERTEX
  8
1SECTION
  5
4567
 10
504438.640000
 20
6751188.150000
 30
0.000000
  0
VERTEX
  8
1SECTION
  5
4568
 10
504446.240000
 20
6751195.730000
 30
0.000000
  0
VERTEX
  8
1SECTION
  5
4569
 10
504452.970000
 20
6751196.980000
 30
0.000000
  0
VERTEX
  8
1SECTION
  5
456a
 10
504448.700000
 20
6751214.840000
 30
0.000000
  0
VERTEX
  8
1SECTION
  5
456b
 10
504438.430000
 20
6751234.920000
 30
0.000000
  0
VERTEX
  8
1SECTION
  5
456c
 10
504423.280000
 20
6751266.930000
 30
0.000000
  0
VERTEX
  8
1SECTION
  5
456d
 10
504419.340000
 20
6751276.520000
 30
0.000000
  0
VERTEX
  8
1SECTION
  5
456e
 10
504419.630000
 20
6751286.760000
 30
0.000000
  0
VERTEX
  8
1SECTION
  5
456f
 10
504427.520000
 20
6751304.740000
 30
0.000000
  0
VERTEX
  8
1SECTION
  5
4570
 10
504434.710000
 20
6751339.730000
 30
0.000000
  0
VERTEX
  8
1SECTION
  5
4571
 10
504436.020000
 20
6751346.180000
 30
0.000000
  0
VERTEX
  8
1SECTION
  5
4572
 10
504436.230000
 20
6751354.890000
 30
0.000000
  0
VERTEX
  8
1SECTION
  5
4573
 10
504436.630000
 20
6751371.780000
 30
0.000000
  0
VERTEX
  8
1SECTION
  5
4574
 10
504435.060000
 20
6751400.470000
 30
0.000000
  0
VERTEX
  8
1SECTION
  5
4575
 10
504422.100000
 20
6751456.440000
 30
0.000000
  0
VERTEX
  8
1SECTION
  5
4576
 10
504410.480000
 20
6751480.800000
 30
0.000000
  0
VERTEX
  8
1SECTION
  5
4577
 10
504407.950000
 20
6751513.800000
 30
0.000000
  0
VERTEX
  8
1SECTION
  5
4578
 10
504397.690000
 20
6751533.530000
 30
0.000000
  0
VERTEX
  8
1SECTION
  5
4579
 10
504382.110000
 20
6751612.400000
 30
0.000000
  0
VERTEX
  8
1SECTION
  5
457a
 10
504376.580000
 20
6751646.620000
 30
0.000000
  0
VERTEX
  8
1SECTION
  5
457b
 10
504367.430000
 20
6751677.780000
 30
0.000000
  0
VERTEX
  8
1SECTION
  5
457c
 10
504354.040000
 20
6751705.530000
 30
0.000000
  0
VERTEX
  8
1SECTION
  5
457d
 10
504347.650000
 20
6751731.250000
 30
0.000000
  0
VERTEX
  8
1SECTION
  5
457e
 10
504344.010000
 20
6751751.530000
 30
0.000000
  0
VERTEX
  8
1SECTION
  5
457f
 10
504327.400000
 20
6751774.490000
 30
0.000000
  0
VERTEX
  8
1SECTION
  5
4580
 10
504313.980000
 20
6751799.660000
 30
0.000000
  0
VERTEX
  8
1SECTION
  5
4581
 10
504308.400000
 20
6751825.890000
 30
0.000000
  0
VERTEX
  8
1SECTION
  5
4582
 10
504305.260000
 20
6751833.530000
 30
0.000000
  0
VERTEX
  8
1SECTION
  5
4583
 10
504301.160000
 20
6751869.980000
 30
0.000000
  0
VERTEX
  8
1SECTION
  5
4584
 10
504302.200000
 20
6751874.790000
 30
0.000000
  0
VERTEX
  8
1SECTION
  5
4585
 10
504305.580000
 20
6751895.620000
 30
0.000000
  0
VERTEX
  8
1SECTION
  5
4586
 10
504300.210000
 20
6751923.330000
 30
0.000000
  0
VERTEX
  8
1SECTION
  5
4587
 10
504294.000000
 20
6751946.580000
 30
0.000000
  0
VERTEX
  8
1SECTION
  5
4588
 10
504288.370000
 20
6751992.880000
 30
0.000000
  0
VERTEX
  8
1SECTION
  5
4589
 10
504285.720000
 20
6752011.160000
 30
0.000000
  0
VERTEX
  8
1SECTION
  5
458a
 10
504276.300000
 20
6752039.850000
 30
0.000000
  0
VERTEX
  8
1SECTION
  5
458b
 10
504275.830000
 20
6752040.170000
 30
0.000000
  0
VERTEX
  8
1SECTION
  5
458c
 10
504269.980000
 20
6752044.180000
 30
0.000000
  0
VERTEX
  8
1SECTION
  5
458d
 10
504258.770000
 20
6752069.670000
 30
0.000000
  0
VERTEX
  8
1SECTION
  5
458e
 10
504245.460000
 20
6752105.780000
 30
0.000000
  0
VERTEX
  8
1SECTION
  5
458f
 10
504240.800000
 20
6752124.680000
 30
0.000000
  0
VERTEX
  8
1SECTION
  5
4590
 10
504240.480000
 20
6752158.570000
 30
0.000000
  0
VERTEX
  8
1SECTION
  5
4591
 10
504242.040000
 20
6752178.740000
 30
0.000000
  0
VERTEX
  8
1SECTION
  5
4592
 10
504236.610000
 20
6752199.840000
 30
0.000000
  0
VERTEX
  8
1SECTION
  5
4593
 10
504227.550000
 20
6752239.350000
 30
0.000000
  0
VERTEX
  8
1SECTION
  5
4594
 10
504228.070000
 20
6752254.590000
 30
0.000000
  0
VERTEX
  8
1SECTION
  5
4595
 10
504219.680000
 20
6752281.830000
 30
0.000000
  0
VERTEX
  8
1SECTION
  5
4596
 10
504212.200000
 20
6752296.330000
 30
0.000000
  0
VERTEX
  8
1SECTION
  5
4597
 10
504200.410000
 20
6752309.040000
 30
0.000000
  0
VERTEX
  8
1SECTION
  5
4598
 10
504206.510000
 20
6752313.200000
 30
0.000000
  0
VERTEX
  8
1SECTION
  5
4599
 10
504292.480000
 20
6752324.490000
 30
0.000000
  0
VERTEX
  8
1SECTION
  5
459a
 10
504315.870000
 20
6752323.980000
 30
0.000000
  0
VERTEX
  8
1SECTION
  5
459b
 10
504352.310000
 20
6752320.250000
 30
0.000000
  0
VERTEX
  8
1SECTION
  5
459c
 10
504391.550000
 20
6752314.930000
 30
0.000000
  0
VERTEX
  8
1SECTION
  5
459d
 10
504404.940000
 20
6752312.950000
 30
0.000000
  0
VERTEX
  8
1SECTION
  5
459e
 10
504423.970000
 20
6752315.600000
 30
0.000000
  0
VERTEX
  8
1SECTION
  5
459f
 10
504496.110000
 20
6752329.340000
 30
0.000000
  0
VERTEX
  8
1SECTION
  5
45a0
 10
504494.180000
 20
6752333.040000
 30
0.000000
  0
VERTEX
  8
1SECTION
  5
45a1
 10
504494.070000
 20
6752333.450000
 30
0.000000
  0
VERTEX
  8
1SECTION
  5
45a2
 10
504448.080000
 20
6752345.640000
 30
0.000000
  0
VERTEX
  8
1SECTION
  5
45a3
 10
504437.700000
 20
6752348.770000
 30
0.000000
  0
VERTEX
  8
1SECTION
  5
45a4
 10
504471.740000
 20
6752391.660000
 30
0.000000
  0
VERTEX
  8
1SECTION
  5
45a5
 10
504519.180000
 20
6752453.490000
 30
0.000000
  0
VERTEX
  8
1SECTION
  5
45a6
 10
504533.520000
 20
6752473.470000
 30
0.000000
  0
VERTEX
  8
1SECTION
  5
45a7
 10
504551.210000
 20
6752498.110000
 30
0.000000
  0
VERTEX
  8
1SECTION
  5
45a8
 10
504549.300000
 20
6752519.870000
 30
0.000000
  0
VERTEX
  8
1SECTION
  5
45a9
 10
504546.810000
 20
6752560.690000
 30
0.000000
  0
VERTEX
  8
1SECTION
  5
45aa
 10
504546.630000
 20
6752603.710000
 30
0.000000
  0
VERTEX
  8
1SECTION
  5
45ab
 10
504546.550000
 20
6752621.290000
 30
0.000000
  0
VERTEX
  8
1SECTION
  5
45ac
 10
504569.270000
 20
6752642.250000
 30
0.000000
  0
VERTEX
  8
1SECTION
  5
45ad
 10
504606.140000
 20
6752675.720000
 30
0.000000
  0
VERTEX
  8
1SECTION
  5
45ae
 10
504610.530000
 20
6752679.250000
 30
0.000000
  0
VERTEX
  8
1SECTION
  5
45af
 10
504634.300000
 20
6752730.040000
 30
0.000000
  0
VERTEX
  8
1SECTION
  5
45b0
 10
504651.410000
 20
6752768.840000
 30
0.000000
  0
VERTEX
  8
1SECTION
  5
45b1
 10
504667.440000
 20
6752805.220000
 30
0.000000
  0
VERTEX
  8
1SECTION
  5
45b2
 10
504675.550000
 20
6752824.430000
 30
0.000000
  0
VERTEX
  8
1SECTION
  5
45b3
 10
504689.450000
 20
6752854.800000
 30
0.000000
  0
VERTEX
  8
1SECTION
  5
45b4
 10
504697.490000
 20
6752875.610000
 30
0.000000
  0
VERTEX
  8
1SECTION
  5
45b5
 10
504702.860000
 20
6752892.960000
 30
0.000000
  0
VERTEX
  8
1SECTION
  5
45b6
 10
504714.660000
 20
6752934.390000
 30
0.000000
  0
VERTEX
  8
1SECTION
  5
45b7
 10
504718.950000
 20
6752951.110000
 30
0.000000
  0
VERTEX
  8
1SECTION
  5
45b8
 10
504721.210000
 20
6752959.970000
 30
0.000000
  0
VERTEX
  8
1SECTION
  5
45b9
 10
504726.950000
 20
6752979.810000
 30
0.000000
  0
VERTEX
  8
1SECTION
  5
45ba
 10
504737.550000
 20
6753009.500000
 30
0.000000
  0
VERTEX
  8
1SECTION
  5
45bb
 10
504742.740000
 20
6753030.450000
 30
0.000000
  0
VERTEX
  8
1SECTION
  5
45bc
 10
504745.140000
 20
6753042.800000
 30
0.000000
  0
VERTEX
  8
1SECTION
  5
45bd
 10
504746.680000
 20
6753059.830000
 30
0.000000
  0
VERTEX
  8
1SECTION
  5
45be
 10
504749.340000
 20
6753089.000000
 30
0.000000
  0
VERTEX
  8
1SECTION
  5
45bf
 10
504749.460000
 20
6753116.940000
 30
0.000000
  0
VERTEX
  8
1SECTION
  5
45c0
 10
504747.490000
 20
6753156.810000
 30
0.000000
  0
VERTEX
  8
1SECTION
  5
45c1
 10
504745.860000
 20
6753196.970000
 30
0.000000
  0
VERTEX
  8
1SECTION
  5
45c2
 10
504745.140000
 20
6753216.010000
 30
0.000000
  0
VERTEX
  8
1SECTION
  5
45c3
 10
504741.300000
 20
6753213.520000
 30
0.000000
  0
VERTEX
  8
1SECTION
  5
45c4
 10
504696.480000
 20
6753202.650000
 30
0.000000
  0
VERTEX
  8
1SECTION
  5
45c5
 10
504635.370000
 20
6753188.290000
 30
0.000000
  0
VERTEX
  8
1SECTION
  5
45c6
 10
504620.790000
 20
6753185.480000
 30
0.000000
  0
VERTEX
  8
1SECTION
  5
45c7
 10
504612.070000
 20
6753226.430000
 30
0.000000
  0
VERTEX
  8
1SECTION
  5
45c8
 10
504594.760000
 20
6753311.430000
 30
0.000000
  0
VERTEX
  8
1SECTION
  5
45c9
 10
504587.540000
 20
6753345.250000
 30
0.000000
  0
VERTEX
  8
1SECTION
  5
45ca
 10
504581.890000
 20
6753343.550000
 30
0.000000
  0
VERTEX
  8
1SECTION
  5
45cb
 10
504550.250000
 20
6753334.080000
 30
0.000000
  0
VERTEX
  8
1SECTION
  5
45cc
 10
504501.640000
 20
6753319.520000
 30
0.000000
  0
VERTEX
  8
1SECTION
  5
45cd
 10
504451.980000
 20
6753304.310000
 30
0.000000
  0
VERTEX
  8
1SECTION
  5
45ce
 10
504451.270000
 20
6753304.120000
 30
0.000000
  0
VERTEX
  8
1SECTION
  5
45cf
 10
504434.570000
 20
6753299.640000
 30
0.000000
  0
VERTEX
  8
1SECTION
  5
45d0
 10
504431.990000
 20
6753303.280000
 30
0.000000
  0
VERTEX
  8
1SECTION
  5
45d1
 10
504427.610000
 20
6753302.000000
 30
0.000000
  0
VERTEX
  8
1SECTION
  5
45d2
 10
504416.510000
 20
6753294.440000
 30
0.000000
  0
VERTEX
  8
1SECTION
  5
45d3
 10
504395.740000
 20
6753274.880000
 30
0.000000
  0
VERTEX
  8
1SECTION
  5
45d4
 10
504383.410000
 20
6753262.960000
 30
0.000000
  0
VERTEX
  8
1SECTION
  5
45d5
 10
504373.430000
 20
6753254.010000
 30
0.000000
  0
VERTEX
  8
1SECTION
  5
45d6
 10
504342.570000
 20
6753230.480000
 30
0.000000
  0
VERTEX
  8
1SECTION
  5
45d7
 10
504336.320000
 20
6753225.610000
 30
0.000000
  0
VERTEX
  8
1SECTION
  5
45d8
 10
504299.500000
 20
6753196.970000
 30
0.000000
  0
VERTEX
  8
1SECTION
  5
45d9
 10
504278.460000
 20
6753183.730000
 30
0.000000
  0
VERTEX
  8
1SECTION
  5
45da
 10
504268.260000
 20
6753178.910000
 30
0.000000
  0
VERTEX
  8
1SECTION
  5
45db
 10
504255.110000
 20
6753174.320000
 30
0.000000
  0
VERTEX
  8
1SECTION
  5
45dc
 10
504235.650000
 20
6753170.760000
 30
0.000000
  0
VERTEX
  8
1SECTION
  5
45dd
 10
504202.150000
 20
6753163.520000
 30
0.000000
  0
VERTEX
  8
1SECTION
  5
45de
 10
504185.620000
 20
6753159.180000
 30
0.000000
  0
VERTEX
  8
1SECTION
  5
45df
 10
504158.050000
 20
6753154.370000
 30
0.000000
  0
VERTEX
  8
1SECTION
  5
45e0
 10
504141.640000
 20
6753150.360000
 30
0.000000
  0
VERTEX
  8
1SECTION
  5
45e1
 10
504118.920000
 20
6753143.040000
 30
0.000000
  0
VERTEX
  8
1SECTION
  5
45e2
 10
504105.640000
 20
6753138.030000
 30
0.000000
  0
VERTEX
  8
1SECTION
  5
45e3
 10
504104.460000
 20
6753137.580000
 30
0.000000
  0
VERTEX
  8
1SECTION
  5
45e4
 10
504087.410000
 20
6753132.490000
 30
0.000000
  0
VERTEX
  8
1SECTION
  5
45e5
 10
504035.380000
 20
6753094.930000
 30
0.000000
  0
VERTEX
  8
1SECTION
  5
45e6
 10
504016.150000
 20
6753082.190000
 30
0.000000
  0
VERTEX
  8
1SECTION
  5
45e7
 10
503987.880000
 20
6753067.050000
 30
0.000000
  0
VERTEX
  8
1SECTION
  5
45e8
 10
503978.630000
 20
6753062.150000
 30
0.000000
  0
VERTEX
  8
1SECTION
  5
45e9
 10
503939.760000
 20
6753041.570000
 30
0.000000
  0
VERTEX
  8
1SECTION
  5
45ea
 10
503934.930000
 20
6753039.210000
 30
0.000000
  0
VERTEX
  8
1SECTION
  5
45eb
 10
503917.490000
 20
6753030.700000
 30
0.000000
  0
VERTEX
  8
1SECTION
  5
45ec
 10
503898.790000
 20
6753019.960000
 30
0.000000
  0
VERTEX
  8
1SECTION
  5
45ed
 10
503880.770000
 20
6753008.310000
 30
0.000000
  0
VERTEX
  8
1SECTION
  5
45ee
 10
503872.200000
 20
6753001.940000
 30
0.000000
  0
VERTEX
  8
1SECTION
  5
45ef
 10
503855.560000
 20
6752986.810000
 30
0.000000
  0
VERTEX
  8
1SECTION
  5
45f0
 10
503837.370000
 20
6752970.270000
 30
0.000000
  0
VERTEX
  8
1SECTION
  5
45f1
 10
503826.070000
 20
6752960.450000
 30
0.000000
  0
VERTEX
  8
1SECTION
  5
45f2
 10
503810.070000
 20
6752946.530000
 30
0.000000
  0
VERTEX
  8
1SECTION
  5
45f3
 10
503806.510000
 20
6752951.370000
 30
0.000000
  0
VERTEX
  8
1SECTION
  5
45f4
 10
503776.080000
 20
6752995.320000
 30
0.000000
  0
VERTEX
  8
1SECTION
  5
45f5
 10
503768.760000
 20
6753005.960000
 30
0.000000
  0
VERTEX
  8
1SECTION
  5
45f6
 10
503766.940000
 20
6753010.430000
 30
0.000000
  0
VERTEX
  8
1SECTION
  5
45f7
 10
503747.480000
 20
6753057.760000
 30
0.000000
  0
VERTEX
  8
1SECTION
  5
45f8
 10
503739.350000
 20
6753076.130000
 30
0.000000
  0
VERTEX
  8
1SECTION
  5
45f9
 10
503730.590000
 20
6753099.920000
 30
0.000000
  0
VERTEX
  8
1SECTION
  5
45fa
 10
503729.190000
 20
6753104.990000
 30
0.000000
  0
VERTEX
  8
1SECTION
  5
45fb
 10
503726.780000
 20
6753113.730000
 30
0.000000
  0
VERTEX
  8
1SECTION
  5
45fc
 10
503714.590000
 20
6753143.790000
 30
0.000000
  0
VERTEX
  8
1SECTION
  5
45fd
 10
503701.570000
 20
6753181.060000
 30
0.000000
  0
VERTEX
  8
1SECTION
  5
45fe
 10
503697.640000
 20
6753191.730000
 30
0.000000
  0
VERTEX
  8
1SECTION
  5
45ff
 10
503690.870000
 20
6753217.270000
 30
0.000000
  0
VERTEX
  8
1SECTION
  5
4600
 10
503688.610000
 20
6753225.770000
 30
0.000000
  0
VERTEX
  8
1SECTION
  5
4601
 10
503669.050000
 20
6753299.490000
 30
0.000000
  0
VERTEX
  8
1SECTION
  5
4602
 10
503656.590000
 20
6753348.960000
 30
0.000000
  0
VERTEX
  8
1SECTION
  5
4603
 10
503647.720000
 20
6753393.360000
 30
0.000000
  0
VERTEX
  8
1SECTION
  5
4604
 10
503646.000000
 20
6753401.980000
 30
0.000000
  0
VERTEX
  8
1SECTION
  5
4605
 10
503648.300000
 20
6753402.390000
 30
0.000000
  0
VERTEX
  8
1SECTION
  5
4606
 10
503637.690000
 20
6753452.180000
 30
0.000000
  0
VERTEX
  8
1SECTION
  5
4607
 10
503633.400000
 20
6753474.030000
 30
0.000000
  0
VERTEX
  8
1SECTION
  5
4608
 10
503629.950000
 20
6753479.970000
 30
0.000000
  0
VERTEX
  8
1SECTION
  5
4609
 10
503602.880000
 20
6753504.090000
 30
0.000000
  0
VERTEX
  8
1SECTION
  5
460a
 10
503561.800000
 20
6753540.900000
 30
0.000000
  0
VERTEX
  8
1SECTION
  5
460b
 10
503561.040000
 20
6753540.250000
 30
0.000000
  0
VERTEX
  8
1SECTION
  5
460c
 10
503552.720000
 20
6753548.040000
 30
0.000000
  0
VERTEX
  8
1SECTION
  5
460d
 10
503545.160000
 20
6753557.620000
 30
0.000000
  0
VERTEX
  8
1SECTION
  5
460e
 10
503541.620000
 20
6753564.420000
 30
0.000000
  0
VERTEX
  8
1SECTION
  5
460f
 10
503535.250000
 20
6753573.630000
 30
0.000000
  0
VERTEX
  8
1SECTION
  5
4610
 10
503516.550000
 20
6753593.980000
 30
0.000000
  0
VERTEX
  8
1SECTION
  5
4611
 10
503511.530000
 20
6753607.900000
 30
0.000000
  0
VERTEX
  8
1SECTION
  5
4612
 10
503506.710000
 20
6753616.410000
 30
0.000000
  0
VERTEX
  8
1SECTION
  5
4613
 10
503501.690000
 20
6753629.240000
 30
0.000000
  0
VERTEX
  8
1SECTION
  5
4614
 10
503481.850000
 20
6753670.660000
 30
0.000000
  0
VERTEX
  8
1SECTION
  5
4615
 10
503474.130000
 20
6753688.220000
 30
0.000000
  0
VERTEX
  8
1SECTION
  5
4616
 10
503464.950000
 20
6753712.170000
 30
0.000000
  0
VERTEX
  8
1SECTION
  5
4617
 10
503458.550000
 20
6753730.810000
 30
0.000000
  0
VERTEX
  8
1SECTION
  5
4618
 10
503392.940000
 20
6753690.830000
 30
0.000000
  0
VERTEX
  8
1SECTION
  5
4619
 10
503373.180000
 20
6753731.080000
 30
0.000000
  0
VERTEX
  8
1SECTION
  5
461a
 10
503372.410000
 20
6753731.020000
 30
0.000000
  0
VERTEX
  8
1SECTION
  5
461b
 10
503368.590000
 20
6753730.690000
 30
0.000000
  0
VERTEX
  8
1SECTION
  5
461c
 10
503369.620000
 20
6753714.140000
 30
0.000000
  0
VERTEX
  8
1SECTION
  5
461d
 10
503363.280000
 20
6753635.080000
 30
0.000000
  0
VERTEX
  8
1SECTION
  5
461e
 10
503362.030000
 20
6753616.670000
 30
0.000000
  0
VERTEX
  8
1SECTION
  5
461f
 10
503362.010000
 20
6753596.220000
 30
0.000000
  0
VERTEX
  8
1SECTION
  5
4620
 10
503363.380000
 20
6753567.220000
 30
0.000000
  0
VERTEX
  8
1SECTION
  5
4621
 10
503363.900000
 20
6753563.960000
 30
0.000000
  0
VERTEX
  8
1SECTION
  5
4622
 10
503359.180000
 20
6753563.210000
 30
0.000000
  0
VERTEX
  8
1SECTION
  5
4623
 10
503359.100000
 20
6753563.190000
 30
0.000000
  0
VERTEX
  8
1SECTION
  5
4624
 10
503328.760000
 20
6753546.210000
 30
0.000000
  0
VERTEX
  8
1SECTION
  5
4625
 10
503323.840000
 20
6753543.490000
 30
0.000000
  0
VERTEX
  8
1SECTION
  5
4626
 10
503321.870000
 20
6753542.410000
 30
0.000000
  0
VERTEX
  8
1SECTION
  5
4627
 10
503293.860000
 20
6753526.940000
 30
0.000000
  0
VERTEX
  8
1SECTION
  5
4628
 10
503259.220000
 20
6753506.700000
 30
0.000000
  0
VERTEX
  8
1SECTION
  5
4629
 10
503227.920000
 20
6753491.060000
 30
0.000000
  0
VERTEX
  8
1SECTION
  5
462a
 10
503214.760000
 20
6753483.950000
 30
0.000000
  0
VERTEX
  8
1SECTION
  5
462b
 10
503194.120000
 20
6753471.660000
 30
0.000000
  0
VERTEX
  8
1SECTION
  5
462c
 10
503125.840000
 20
6753433.490000
 30
0.000000
  0
VERTEX
  8
1SECTION
  5
462d
 10
503059.280000
 20
6753396.370000
 30
0.000000
  0
VERTEX
  8
1SECTION
  5
462e
 10
503027.080000
 20
6753378.760000
 30
0.000000
  0
VERTEX
  8
1SECTION
  5
462f
 10
502924.170000
 20
6753325.350000
 30
0.000000
  0
VERTEX
  8
1SECTION
  5
4630
 10
502884.220000
 20
6753303.380000
 30
0.000000
  0
VERTEX
  8
1SECTION
  5
4631
 10
502847.250000
 20
6753283.650000
 30
0.000000
  0
VERTEX
  8
1SECTION
  5
4632
 10
502782.830000
 20
6753247.900000
 30
0.000000
  0
VERTEX
  8
1SECTION
  5
4633
 10
502749.560000
 20
6753230.320000
 30
0.000000
  0
VERTEX
  8
1SECTION
  5
4634
 10
502677.510000
 20
6753190.740000
 30
0.000000
  0
VERTEX
  8
1SECTION
  5
4635
 10
502662.660000
 20
6753182.620000
 30
0.000000
  0
VERTEX
  8
1SECTION
  5
4636
 10
502641.770000
 20
6753171.200000
 30
0.000000
  0
VERTEX
  8
1SECTION
  5
4637
 10
502621.790000
 20
6753160.290000
 30
0.000000
  0
VERTEX
  8
1SECTION
  5
4638
 10
502637.170000
 20
6753114.660000
 30
0.000000
  0
VERTEX
  8
1SECTION
  5
4639
 10
502651.460000
 20
6753073.820000
 30
0.000000
  0
VERTEX
  8
1SECTION
  5
463a
 10
502597.930000
 20
6753080.830000
 30
0.000000
  0
VERTEX
  8
1SECTION
  5
463b
 10
502580.290000
 20
6753083.140000
 30
0.000000
  0
VERTEX
  8
1SECTION
  5
463c
 10
502518.130000
 20
6753091.400000
 30
0.000000
  0
VERTEX
  8
1SECTION
  5
463d
 10
502524.580000
 20
6753066.220000
 30
0.000000
  0
VERTEX
  8
1SECTION
  5
463e
 10
502525.520000
 20
6753059.380000
 30
0.000000
  0
VERTEX
  8
1SECTION
  5
463f
 10
502526.850000
 20
6753021.780000
 30
0.000000
  0
VERTEX
  8
1SECTION
  5
4640
 10
502528.700000
 20
6752982.500000
 30
0.000000
  0
VERTEX
  8
1SECTION
  5
4641
 10
502530.280000
 20
6752961.950000
 30
0.000000
  0
VERTEX
  8
1SECTION
  5
4642
 10
502530.300000
 20
6752938.440000
 30
0.000000
  0
VERTEX
  8
1SECTION
  5
4643
 10
502530.190000
 20
6752925.840000
 30
0.000000
  0
VERTEX
  8
1SECTION
  5
4644
 10
502534.320000
 20
6752870.670000
 30
0.000000
  0
VERTEX
  8
1SECTION
  5
4645
 10
502458.040000
 20
6752855.790000
 30
0.000000
  0
VERTEX
  8
1SECTION
  5
4646
 10
502385.660000
 20
6752841.650000
 30
0.000000
  0
VERTEX
  8
1SECTION
  5
4647
 10
502389.500000
 20
6752828.620000
 30
0.000000
  0
VERTEX
  8
1SECTION
  5
4648
 10
502369.140000
 20
6752824.860000
 30
0.000000
  0
VERTEX
  8
1SECTION
  5
4649
 10
502366.890000
 20
6752830.010000
 30
0.000000
  0
VERTEX
  8
1SECTION
  5
464a
 10
502348.190000
 20
6752818.190000
 30
0.000000
  0
VERTEX
  8
1SECTION
  5
464b
 10
502284.450000
 20
6752778.440000
 30
0.000000
  0
VERTEX
  8
1SECTION
  5
464c
 10
502255.800000
 20
6752760.850000
 30
0.000000
  0
VERTEX
  8
1SECTION
  5
464d
 10
502254.720000
 20
6752762.390000
 30
0.000000
  0
VERTEX
  8
1SECTION
  5
464e
 10
502215.510000
 20
6752744.370000
 30
0.000000
  0
VERTEX
  8
1SECTION
  5
464f
 10
502193.820000
 20
6752734.190000
 30
0.000000
  0
VERTEX
  8
1SECTION
  5
4650
 10
502177.800000
 20
6752817.040000
 30
0.000000
  0
VERTEX
  8
1SECTION
  5
4651
 10
502168.110000
 20
6752871.390000
 30
0.000000
  0
VERTEX
  8
1SECTION
  5
4652
 10
502165.910000
 20
6752882.020000
 30
0.000000
  0
VERTEX
  8
1SECTION
  5
4653
 10
502163.530000
 20
6752886.290000
 30
0.000000
  0
VERTEX
  8
1SECTION
  5
4654
 10
502158.910000
 20
6752881.960000
 30
0.000000
  0
VERTEX
  8
1SECTION
  5
4655
 10
502106.840000
 20
6752886.530000
 30
0.000000
  0
VERTEX
  8
1SECTION
  5
4656
 10
502065.890000
 20
6752890.410000
 30
0.000000
  0
VERTEX
  8
1SECTION
  5
4657
 10
502049.850000
 20
6752891.900000
 30
0.000000
  0
VERTEX
  8
1SECTION
  5
4658
 10
502047.560000
 20
6752891.330000
 30
0.000000
  0
VERTEX
  8
1SECTION
  5
4659
 10
502046.430000
 20
6752891.130000
 30
0.000000
  0
VERTEX
  8
1SECTION
  5
465a
 10
502044.290000
 20
6752875.900000
 30
0.000000
  0
VERTEX
  8
1SECTION
  5
465b
 10
502036.720000
 20
6752838.700000
 30
0.000000
  0
VERTEX
  8
1SECTION
  5
465c
 10
502033.410000
 20
6752813.710000
 30
0.000000
  0
VERTEX
  8
1SECTION
  5
465d
 10
502031.980000
 20
6752779.880000
 30
0.000000
  0
VERTEX
  8
1SECTION
  5
465e
 10
502031.220000
 20
6752766.440000
 30
0.000000
  0
VERTEX
  8
1SECTION
  5
465f
 10
502029.480000
 20
6752737.980000
 30
0.000000
  0
VERTEX
  8
1SECTION
  5
4660
 10
502026.530000
 20
6752715.360000
 30
0.000000
  0
VERTEX
  8
1SECTION
  5
4661
 10
502024.620000
 20
6752703.870000
 30
0.000000
  0
VERTEX
  8
1SECTION
  5
4662
 10
502021.730000
 20
6752677.820000
 30
0.000000
  0
VERTEX
  8
1SECTION
  5
4663
 10
502021.380000
 20
6752674.240000
 30
0.000000
  0
VERTEX
  8
1SECTION
  5
4664
 10
502015.460000
 20
6752662.590000
 30
0.000000
  0
VERTEX
  8
1SECTION
  5
4665
 10
502008.040000
 20
6752650.070000
 30
0.000000
  0
VERTEX
  8
1SECTION
  5
4666
 10
501982.180000
 20
6752605.750000
 30
0.000000
  0
VERTEX
  8
1SECTION
  5
4667
 10
501970.350000
 20
6752584.310000
 30
0.000000
  0
VERTEX
  8
1SECTION
  5
4668
 10
501969.020000
 20
6752574.450000
 30
0.000000
  0
VERTEX
  8
1SECTION
  5
4669
 10
501977.490000
 20
6752542.830000
 30
0.000000
  0
VERTEX
  8
1SECTION
  5
466a
 10
501991.160000
 20
6752472.520000
 30
0.000000
  0
VERTEX
  8
1SECTION
  5
466b
 10
502002.850000
 20
6752422.680000
 30
0.000000
  0
VERTEX
  8
1SECTION
  5
466c
 10
502002.070000
 20
6752418.580000
 30
0.000000
  0
VERTEX
  8
1SECTION
  5
466d
 10
502007.780000
 20
6752362.790000
 30
0.000000
  0
VERTEX
  8
1SECTION
  5
466e
 10
502011.800000
 20
6752319.540000
 30
0.000000
  0
VERTEX
  8
1SECTION
  5
466f
 10
502015.300000
 20
6752249.500000
 30
0.000000
  0
VERTEX
  8
1SECTION
  5
4670
 10
502015.740000
 20
6752242.140000
 30
0.000000
  0
VERTEX
  8
1SECTION
  5
4671
 10
502017.260000
 20
6752231.580000
 30
0.000000
  0
VERTEX
  8
1SECTION
  5
4672
 10
502019.760000
 20
6752222.400000
 30
0.000000
  0
VERTEX
  8
1SECTION
  5
4673
 10
502024.050000
 20
6752211.250000
 30
0.000000
  0
VERTEX
  8
1SECTION
  5
4674
 10
502030.700000
 20
6752196.950000
 30
0.000000
  0
VERTEX
  8
1SECTION
  5
4675
 10
502040.570000
 20
6752183.980000
 30
0.000000
  0
VERTEX
  8
1SECTION
  5
4676
 10
502060.810000
 20
6752158.200000
 30
0.000000
  0
VERTEX
  8
1SECTION
  5
4677
 10
502097.520000
 20
6752116.180000
 30
0.000000
  0
VERTEX
  8
1SECTION
  5
4678
 10
502100.630000
 20
6752112.870000
 30
0.000000
  0
VERTEX
  8
1SECTION
  5
4679
 10
502106.980000
 20
6752106.610000
 30
0.000000
  0
VERTEX
  8
1SECTION
  5
467a
 10
502115.970000
 20
6752096.910000
 30
0.000000
  0
VERTEX
  8
1SECTION
  5
467b
 10
502131.550000
 20
6752077.270000
 30
0.000000
  0
VERTEX
  8
1SECTION
  5
467c
 10
502138.580000
 20
6752067.480000
 30
0.000000
  0
VERTEX
  8
1SECTION
  5
467d
 10
502162.320000
 20
6752033.380000
 30
0.000000
  0
VERTEX
  8
1SECTION
  5
467e
 10
502183.010000
 20
6751993.640000
 30
0.000000
  0
VERTEX
  8
1SECTION
  5
467f
 10
502219.120000
 20
6751927.150000
 30
0.000000
  0
VERTEX
  8
1SECTION
  5
4680
 10
502238.840000
 20
6751899.780000
 30
0.000000
  0
VERTEX
  8
1SECTION
  5
4681
 10
502245.020000
 20
6751891.820000
 30
0.000000
  0
VERTEX
  8
1SECTION
  5
4682
 10
502266.090000
 20
6751867.280000
 30
0.000000
  0
VERTEX
  8
1SECTION
  5
4683
 10
502272.800000
 20
6751862.240000
 30
0.000000
  0
VERTEX
  8
1SECTION
  5
4684
 10
502281.870000
 20
6751855.410000
 30
0.000000
  0
VERTEX
  8
1SECTION
  5
4685
 10
502284.140000
 20
6751845.440000
 30
0.000000
  0
VERTEX
  8
1SECTION
  5
4686
 10
502288.950000
 20
6751840.500000
 30
0.000000
  0
VERTEX
  8
1SECTION
  5
4687
 10
502295.700000
 20
6751820.140000
 30
0.000000
  0
VERTEX
  8
1SECTION
  5
4688
 10
502307.450000
 20
6751787.730000
 30
0.000000
  0
VERTEX
  8
1SECTION
  5
4689
 10
502309.210000
 20
6751782.790000
 30
0.000000
  0
VERTEX
  8
1SECTION
  5
468a
 10
502318.420000
 20
6751755.950000
 30
0.000000
  0
VERTEX
  8
1SECTION
  5
468b
 10
502323.990000
 20
6751741.370000
 30
0.000000
  0
VERTEX
  8
1SECTION
  5
468c
 10
502337.920000
 20
6751702.200000
 30
0.000000
  0
VERTEX
  8
1SECTION
  5
468d
 10
502344.100000
 20
6751686.570000
 30
0.000000
  0
VERTEX
  8
1SECTION
  5
468e
 10
502345.790000
 20
6751682.920000
 30
0.000000
  0
VERTEX
  8
1SECTION
  5
468f
 10
502351.490000
 20
6751673.480000
 30
0.000000
  0
VERTEX
  8
1SECTION
  5
4690
 10
502353.970000
 20
6751670.150000
 30
0.000000
  0
VERTEX
  8
1SECTION
  5
4691
 10
502380.290000
 20
6751640.480000
 30
0.000000
  0
VERTEX
  8
1SECTION
  5
4692
 10
502384.800000
 20
6751643.850000
 30
0.000000
  0
VERTEX
  8
1SECTION
  5
4693
 10
502395.400000
 20
6751630.190000
 30
0.000000
  0
VERTEX
  8
1SECTION
  5
4694
 10
502437.480000
 20
6751553.800000
 30
0.000000
  0
VERTEX
  8
1SECTION
  5
4695
 10
502439.010000
 20
6751550.710000
 30
0.000000
  0
VERTEX
  8
1SECTION
  5
4696
 10
502508.180000
 20
6751395.540000
 30
0.000000
  0
VERTEX
  8
1SECTION
  5
4697
 10
502518.140000
 20
6751373.460000
 30
0.000000
  0
VERTEX
  8
1SECTION
  5
4698
 10
502529.390000
 20
6751348.730000
 30
0.000000
  0
VERTEX
  8
1SECTION
  5
4699
 10
502540.350000
 20
6751310.380000
 30
0.000000
  0
VERTEX
  8
1SECTION
  5
469a
 10
502552.480000
 20
6751305.530000
 30
0.000000
  0
VERTEX
  8
1SECTION
  5
469b
 10
502566.010000
 20
6751285.860000
 30
0.000000
  0
VERTEX
  8
1SECTION
  5
469c
 10
502629.100000
 20
6751194.440000
 30
0.000000
  0
VERTEX
  8
1SECTION
  5
469d
 10
502671.380000
 20
6751167.700000
 30
0.000000
  0
VERTEX
  8
1SECTION
  5
469e
 10
502725.480000
 20
6751139.390000
 30
0.000000
  0
VERTEX
  8
1SECTION
  5
469f
 10
502779.230000
 20
6751108.230000
 30
0.000000
  0
VERTEX
  8
1SECTION
  5
46a0
 10
502781.810000
 20
6751103.980000
 30
0.000000
  0
VERTEX
  8
1SECTION
  5
46a1
 10
502797.590000
 20
6751082.620000
 30
0.000000
  0
VERTEX
  8
1SECTION
  5
46a2
 10
502804.740000
 20
6751066.610000
 30
0.000000
  0
VERTEX
  8
1SECTION
  5
46a3
 10
502809.910000
 20
6751064.130000
 30
0.000000
  0
VERTEX
  8
1SECTION
  5
46a4
 10
502847.070000
 20
6751026.120000
 30
0.000000
  0
VERTEX
  8
1SECTION
  5
46a5
 10
502875.760000
 20
6750997.920000
 30
0.000000
  0
VERTEX
  8
1SECTION
  5
46a6
 10
502898.060000
 20
6750976.000000
 30
0.000000
  0
VERTEX
  8
1SECTION
  5
46a7
 10
502910.540000
 20
6750981.420000
 30
0.000000
  0
VERTEX
  8
1SECTION
  5
46a8
 10
502966.150000
 20
6751014.030000
 30
0.000000
  0
VERTEX
  8
1SECTION
  5
46a9
 10
503074.510000
 20
6751077.120000
 30
0.000000
  0
VERTEX
  8
1SECTION
  5
46aa
 10
503113.480000
 20
6751110.520000
 30
0.000000
  0
VERTEX
  8
1SECTION
  5
46ab
 10
503142.100000
 20
6751141.080000
 30
0.000000
  0
VERTEX
  8
1SECTION
  5
46ac
 10
503144.150000
 20
6751136.380000
 30
0.000000
  0
VERTEX
  8
1SECTION
  5
46ad
 10
503145.930000
 20
6751123.940000
 30
0.000000
  0
VERTEX
  8
1SECTION
  5
46ae
 10
503148.610000
 20
6751101.800000
 30
0.000000
  0
VERTEX
  8
1SECTION
  5
46af
 10
503150.970000
 20
6751080.160000
 30
0.000000
  0
VERTEX
  8
1SECTION
  5
46b0
 10
503151.700000
 20
6751073.990000
 30
0.000000
  0
VERTEX
  8
1SECTION
  5
46b1
 10
503154.290000
 20
6751051.830000
 30
0.000000
  0
VERTEX
  8
1SECTION
  5
46b2
 10
503156.890000
 20
6751015.130000
 30
0.000000
  0
VERTEX
  8
1SECTION
  5
46b3
 10
503156.820000
 20
6751010.470000
 30
0.000000
  0
VERTEX
  8
1SECTION
  5
46b4
 10
503157.320000
 20
6751007.060000
 30
0.000000
  0
VERTEX
  8
1SECTION
  5
46b5
 10
503157.870000
 20
6751005.460000
 30
0.000000
  0
VERTEX
  8
1SECTION
  5
46b6
 10
503155.980000
 20
6750997.890000
 30
0.000000
  0
VERTEX
  8
1SECTION
  5
46b7
 10
503158.070000
 20
6750981.140000
 30
0.000000
  0
VERTEX
  8
1SECTION
  5
46b8
 10
503160.480000
 20
6750972.360000
 30
0.000000
  0
VERTEX
  8
1SECTION
  5
46b9
 10
503166.940000
 20
6750951.100000
 30
0.000000
  0
VERTEX
  8
1SECTION
  5
46ba
 10
503169.470000
 20
6750943.550000
 30
0.000000
  0
VERTEX
  8
1SECTION
  5
46bb
 10
503177.060000
 20
6750922.370000
 30
0.000000
  0
VERTEX
  8
1SECTION
  5
46bc
 10
503181.340000
 20
6750912.700000
 30
0.000000
  0
VERTEX
  8
1SECTION
  5
46bd
 10
503184.740000
 20
6750907.750000
 30
0.000000
  0
VERTEX
  8
1SECTION
  5
46be
 10
503192.230000
 20
6750899.280000
 30
0.000000
  0
VERTEX
  8
1SECTION
  5
46bf
 10
503196.330000
 20
6750894.500000
 30
0.000000
  0
VERTEX
  8
1SECTION
  5
46c0
 10
503198.920000
 20
6750891.080000
 30
0.000000
  0
VERTEX
  8
1SECTION
  5
46c1
 10
503205.690000
 20
6750880.510000
 30
0.000000
  0
VERTEX
  8
1SECTION
  5
46c2
 10
503223.270000
 20
6750835.820000
 30
0.000000
  0
VERTEX
  8
1SECTION
  5
46c3
 10
503224.690000
 20
6750832.020000
 30
0.000000
  0
VERTEX
  8
1SECTION
  5
46c4
 10
503235.030000
 20
6750802.810000
 30
0.000000
  0
VERTEX
  8
1SECTION
  5
46c5
 10
503233.250000
 20
6750802.340000
 30
0.000000
  0
VERTEX
  8
1SECTION
  5
46c6
 10
503209.190000
 20
6750795.640000
 30
0.000000
  0
VERTEX
  8
1SECTION
  5
46c7
 10
503218.020000
 20
6750775.500000
 30
0.000000
  0
VERTEX
  8
1SECTION
  5
46c8
 10
503226.840000
 20
6750755.350000
 30
0.000000
  0
VERTEX
  8
1SECTION
  5
46c9
 10
503229.980000
 20
6750755.670000
 30
0.000000
  0
VERTEX
  8
1SECTION
  5
46ca
 10
503240.120000
 20
6750743.070000
 30
0.000000
  0
VERTEX
  8
1SECTION
  5
46cb
 10
503240.530000
 20
6750739.060000
 30
0.000000
  0
VERTEX
  8
1SECTION
  5
46cc
 10
503236.710000
 20
6750722.540000
 30
0.000000
  0
VERTEX
  8
1SECTION
  5
46cd
 10
503229.980000
 20
6750692.790000
 30
0.000000
  0
VERTEX
  8
1SECTION
  5
46ce
 10
503227.330000
 20
6750668.150000
 30
0.000000
  0
VERTEX
  8
1SECTION
  5
46cf
 10
503264.220000
 20
6750690.910000
 30
0.000000
  0
VERTEX
  8
1SECTION
  5
46d0
 10
503273.600000
 20
6750675.800000
 30
0.000000
  0
VERTEX
  8
1SECTION
  5
46d1
 10
503288.760000
 20
6750650.820000
 30
0.000000
  0
VERTEX
  8
1SECTION
  5
46d2
 10
503287.290000
 20
6750649.810000
 30
0.000000
  0
VERTEX
  8
1SECTION
  5
46d3
 10
503291.660000
 20
6750643.570000
 30
0.000000
  0
VERTEX
  8
1SECTION
  5
46d4
 10
503314.990000
 20
6750656.680000
 30
0.000000
  0
VERTEX
  8
1SECTION
  5
46d5
 10
503315.920000
 20
6750654.540000
 30
0.000000
  0
VERTEX
  8
1SECTION
  5
46d6
 10
503320.590000
 20
6750638.520000
 30
0.000000
  0
VERTEX
  8
1SECTION
  5
46d7
 10
503321.700000
 20
6750634.550000
 30
0.000000
  0
VERTEX
  8
1SECTION
  5
46d8
 10
503334.270000
 20
6750588.760000
 30
0.000000
  0
VERTEX
  8
1SECTION
  5
46d9
 10
503344.860000
 20
6750593.180000
 30
0.000000
  0
VERTEX
  8
1SECTION
  5
46da
 10
503356.650000
 20
6750598.950000
 30
0.000000
  0
VERTEX
  8
1SECTION
  5
46db
 10
503361.090000
 20
6750601.340000
 30
0.000000
  0
VERTEX
  8
1SECTION
  5
46dc
 10
503369.940000
 20
6750606.150000
 30
0.000000
  0
VERTEX
  8
1SECTION
  5
46dd
 10
503392.460000
 20
6750618.370000
 30
0.000000
  0
VERTEX
  8
1SECTION
  5
46de
 10
503396.050000
 20
6750620.260000
 30
0.000000
  0
VERTEX
  8
1SECTION
  5
46df
 10
503403.270000
 20
6750624.360000
 30
0.000000
  0
VERTEX
  8
1SECTION
  5
46e0
 10
503426.630000
 20
6750637.940000
 30
0.000000
  0
VERTEX
  8
1SECTION
  5
46e1
 10
503450.050000
 20
6750651.250000
 30
0.000000
  0
VERTEX
  8
1SECTION
  5
46e2
 10
503452.100000
 20
6750651.910000
 30
0.000000
  0
VERTEX
  8
1SECTION
  5
46e3
 10
503454.870000
 20
6750648.380000
 30
0.000000
  0
VERTEX
  8
1SECTION
  5
46e4
 10
503455.930000
 20
6750637.330000
 30
0.000000
  0
VERTEX
  8
1SECTION
  5
46e5
 10
503456.940000
 20
6750619.890000
 30
0.000000
  0
VERTEX
  8
1SECTION
  5
46e6
 10
503457.350000
 20
6750607.030000
 30
0.000000
  0
VERTEX
  8
1SECTION
  5
46e7
 10
503457.590000
 20
6750598.600000
 30
0.000000
  0
VERTEX
  8
1SECTION
  5
46e8
 10
503458.400000
 20
6750581.220000
 30
0.000000
  0
VERTEX
  8
1SECTION
  5
46e9
 10
503458.860000
 20
6750576.180000
 30
0.000000
  0
VERTEX
  8
1SECTION
  5
46ea
 10
503459.830000
 20
6750569.740000
 30
0.000000
  0
VERTEX
  8
1SECTION
  5
46eb
 10
503461.350000
 20
6750558.420000
 30
0.000000
  0
VERTEX
  8
1SECTION
  5
46ec
 10
503467.910000
 20
6750531.870000
 30
0.000000
  0
VERTEX
  8
1SECTION
  5
46ed
 10
503481.420000
 20
6750479.480000
 30
0.000000
  0
VERTEX
  8
1SECTION
  5
46ee
 10
503482.290000
 20
6750475.710000
 30
0.000000
  0
VERTEX
  8
1SECTION
  5
46ef
 10
503486.540000
 20
6750456.150000
 30
0.000000
  0
VERTEX
  8
1SECTION
  5
46f0
 10
503496.450000
 20
6750409.620000
 30
0.000000
  0
VERTEX
  8
1SECTION
  5
46f1
 10
503501.030000
 20
6750388.260000
 30
0.000000
  0
VERTEX
  8
1SECTION
  5
46f2
 10
503504.030000
 20
6750380.110000
 30
0.000000
  0
VERTEX
  8
1SECTION
  5
46f3
 10
503510.180000
 20
6750360.310000
 30
0.000000
  0
VERTEX
  8
1SECTION
  5
46f4
 10
503521.210000
 20
6750326.590000
 30
0.000000
  0
VERTEX
  8
1SECTION
  5
46f5
 10
503522.900000
 20
6750321.380000
 30
0.000000
  0
VERTEX
  8
1SECTION
  5
46f6
 10
503524.370000
 20
6750316.750000
 30
0.000000
  0
VERTEX
  8
1SECTION
  5
46f7
 10
503529.800000
 20
6750298.760000
 30
0.000000
  0
VERTEX
  8
1SECTION
  5
46f8
 10
503525.490000
 20
6750296.450000
 30
0.000000
  0
VERTEX
  8
1SECTION
  5
46f9
 10
503518.120000
 20
6750293.430000
 30
0.000000
  0
VERTEX
  8
1SECTION
  5
46fa
 10
503510.830000
 20
6750290.680000
 30
0.000000
  0
VERTEX
  8
1SECTION
  5
46fb
 10
503491.650000
 20
6750284.550000
 30
0.000000
  0
VERTEX
  8
1SECTION
  5
46fc
 10
503473.890000
 20
6750278.850000
 30
0.000000
  0
VERTEX
  8
1SECTION
  5
46fd
 10
503467.210000
 20
6750277.480000
 30
0.000000
  0
VERTEX
  8
1SECTION
  5
46fe
 10
503460.150000
 20
6750276.010000
 30
0.000000
  0
VERTEX
  8
1SECTION
  5
46ff
 10
503430.280000
 20
6750268.700000
 30
0.000000
  0
VERTEX
  8
1SECTION
  5
4700
 10
503430.600000
 20
6750267.650000
 30
0.000000
  0
VERTEX
  8
1SECTION
  5
4701
 10
503423.920000
 20
6750264.100000
 30
0.000000
  0
VERTEX
  8
1SECTION
  5
4702
 10
503415.840000
 20
6750259.350000
 30
0.000000
  0
VERTEX
  8
1SECTION
  5
4703
 10
503410.460000
 20
6750256.640000
 30
0.000000
  0
VERTEX
  8
1SECTION
  5
4704
 10
503407.770000
 20
6750255.350000
 30
0.000000
  0
VERTEX
  8
1SECTION
  5
4705
 10
503404.290000
 20
6750254.120000
 30
0.000000
  0
VERTEX
  8
1SECTION
  5
4706
 10
503404.830000
 20
6750243.190000
 30
0.000000
  0
VERTEX
  8
1SECTION
  5
4707
 10
503404.660000
 20
6750242.710000
 30
0.000000
  0
VERTEX
  8
1SECTION
  5
4708
 10
503415.310000
 20
6750219.920000
 30
0.000000
  0
VERTEX
  8
1SECTION
  5
4709
 10
503419.240000
 20
6750212.020000
 30
0.000000
  0
VERTEX
  8
1SECTION
  5
470a
 10
503425.680000
 20
6750200.260000
 30
0.000000
  0
VERTEX
  8
1SECTION
  5
470b
 10
503433.440000
 20
6750186.040000
 30
0.000000
  0
VERTEX
  8
1SECTION
  5
470c
 10
503435.390000
 20
6750182.330000
 30
0.000000
  0
VERTEX
  8
1SECTION
  5
470d
 10
503431.890000
 20
6750179.080000
 30
0.000000
  0
VERTEX
  8
1SECTION
  5
470e
 10
503425.640000
 20
6750173.920000
 30
0.000000
  0
VERTEX
  8
1SECTION
  5
470f
 10
503431.240000
 20
6750159.090000
 30
0.000000
  0
VERTEX
  8
1SECTION
  5
4710
 10
503435.620000
 20
6750141.550000
 30
0.000000
  0
VERTEX
  8
1SECTION
  5
4711
 10
503439.380000
 20
6750125.450000
 30
0.000000
  0
VERTEX
  8
1SECTION
  5
4712
 10
503440.300000
 20
6750118.980000
 30
0.000000
  0
VERTEX
  8
1SECTION
  5
4713
 10
503441.470000
 20
6750104.710000
 30
0.000000
  0
VERTEX
  8
1SECTION
  5
4714
 10
503441.420000
 20
6750101.740000
 30
0.000000
  0
VERTEX
  8
1SECTION
  5
4715
 10
503440.910000
 20
6750098.900000
 30
0.000000
  0
VERTEX
  8
1SECTION
  5
4716
 10
503438.870000
 20
6750091.360000
 30
0.000000
  0
VERTEX
  8
1SECTION
  5
4717
 10
503443.220000
 20
6750086.890000
 30
0.000000
  0
VERTEX
  8
1SECTION
  5
4718
 10
503448.870000
 20
6750081.030000
 30
0.000000
  0
VERTEX
  8
1SECTION
  5
4719
 10
503449.700000
 20
6750075.240000
 30
0.000000
  0
VERTEX
  8
1SECTION
  5
471a
 10
503449.760000
 20
6750071.700000
 30
0.000000
  0
VERTEX
  8
1SECTION
  5
471b
 10
503447.680000
 20
6750030.170000
 30
0.000000
  0
VERTEX
  8
1SECTION
  5
471c
 10
503446.170000
 20
6750005.600000
 30
0.000000
  0
VERTEX
  8
1SECTION
  5
471d
 10
503442.990000
 20
6749955.440000
 30
0.000000
  0
VERTEX
  8
1SECTION
  5
471e
 10
503441.060000
 20
6749924.000000
 30
0.000000
  0
VERTEX
  8
1SECTION
  5
471f
 10
503439.470000
 20
6749897.780000
 30
0.000000
  0
VERTEX
  8
1SECTION
  5
4720
 10
503438.280000
 20
6749873.980000
 30
0.000000
  0
VERTEX
  8
1SECTION
  5
4721
 10
503438.340000
 20
6749859.960000
 30
0.000000
  0
VERTEX
  8
1SECTION
  5
4722
 10
503438.550000
 20
6749843.400000
 30
0.000000
  0
VERTEX
  8
1SECTION
  5
4723
 10
503441.200000
 20
6749823.260000
 30
0.000000
  0
VERTEX
  8
1SECTION
  5
4724
 10
503442.720000
 20
6749809.810000
 30
0.000000
  0
VERTEX
  8
1SECTION
  5
4725
 10
503443.380000
 20
6749804.770000
 30
0.000000
  0
VERTEX
  8
1SECTION
  5
4726
 10
503444.450000
 20
6749796.790000
 30
0.000000
  0
VERTEX
  8
1SECTION
  5
4727
 10
503445.820000
 20
6749785.750000
 30
0.000000
  0
VERTEX
  8
1SECTION
  5
4728
 10
503448.230000
 20
6749765.710000
 30
0.000000
  0
VERTEX
  8
1SECTION
  5
4729
 10
503451.160000
 20
6749737.660000
 30
0.000000
  0
VERTEX
  8
1SECTION
  5
472a
 10
503453.410000
 20
6749716.810000
 30
0.000000
  0
VERTEX
  8
1SECTION
  5
472b
 10
503453.130000
 20
6749713.360000
 30
0.000000
  0
VERTEX
  8
1SECTION
  5
472c
 10
503451.080000
 20
6749706.910000
 30
0.000000
  0
VERTEX
  8
1SECTION
  5
472d
 10
503444.780000
 20
6749686.810000
 30
0.000000
  0
VERTEX
  8
1SECTION
  5
472e
 10
503441.700000
 20
6749676.930000
 30
0.000000
  0
VERTEX
  8
1SECTION
  5
472f
 10
503438.050000
 20
6749667.070000
 30
0.000000
  0
VERTEX
  8
1SECTION
  5
4730
 10
503436.680000
 20
6749664.620000
 30
0.000000
  0
VERTEX
  8
1SECTION
  5
4731
 10
503433.910000
 20
6749661.430000
 30
0.000000
  0
VERTEX
  8
1SECTION
  5
4732
 10
503431.570000
 20
6749658.710000
 30
0.000000
  0
VERTEX
  8
1SECTION
  5
4733
 10
503408.650000
 20
6749634.510000
 30
0.000000
  0
VERTEX
  8
1SECTION
  5
4734
 10
503405.320000
 20
6749630.980000
 30
0.000000
  0
VERTEX
  8
1SECTION
  5
4735
 10
503387.990000
 20
6749612.160000
 30
0.000000
  0
VERTEX
  8
1SECTION
  5
4736
 10
503378.120000
 20
6749601.190000
 30
0.000000
  0
VERTEX
  8
1SECTION
  5
4737
 10
503371.250000
 20
6749592.130000
 30
0.000000
  0
VERTEX
  8
1SECTION
  5
4738
 10
503350.990000
 20
6749564.870000
 30
0.000000
  0
VERTEX
  8
1SECTION
  5
4739
 10
503336.190000
 20
6749544.120000
 30
0.000000
  0
VERTEX
  8
1SECTION
  5
473a
 10
503334.570000
 20
6749541.860000
 30
0.000000
  0
VERTEX
  8
1SECTION
  5
473b
 10
503317.020000
 20
6749518.450000
 30
0.000000
  0
VERTEX
  8
1SECTION
  5
473c
 10
503300.080000
 20
6749495.180000
 30
0.000000
  0
VERTEX
  8
1SECTION
  5
473d
 10
503292.060000
 20
6749482.780000
 30
0.000000
  0
VERTEX
  8
1SECTION
  5
473e
 10
503286.420000
 20
6749474.130000
 30
0.000000
  0
VERTEX
  8
1SECTION
  5
473f
 10
503279.510000
 20
6749463.400000
 30
0.000000
  0
VERTEX
  8
1SECTION
  5
4740
 10
503275.880000
 20
6749457.800000
 30
0.000000
  0
VERTEX
  8
1SECTION
  5
4741
 10
503265.150000
 20
6749441.530000
 30
0.000000
  0
VERTEX
  8
1SECTION
  5
4742
 10
503262.530000
 20
6749438.450000
 30
0.000000
  0
VERTEX
  8
1SECTION
  5
4743
 10
503258.830000
 20
6749433.070000
 30
0.000000
  0
VERTEX
  8
1SECTION
  5
4744
 10
503248.290000
 20
6749418.180000
 30
0.000000
  0
VERTEX
  8
1SECTION
  5
4745
 10
503244.060000
 20
6749412.020000
 30
0.000000
  0
VERTEX
  8
1SECTION
  5
4746
 10
503230.180000
 20
6749391.810000
 30
0.000000
  0
VERTEX
  8
1SECTION
  5
4747
 10
503215.480000
 20
6749369.760000
 30
0.000000
  0
VERTEX
  8
1SECTION
  5
4748
 10
503210.470000
 20
6749362.200000
 30
0.000000
  0
VERTEX
  8
1SECTION
  5
4749
 10
503194.480000
 20
6749338.290000
 30
0.000000
  0
VERTEX
  8
1SECTION
  5
474a
 10
503192.860000
 20
6749335.870000
 30
0.000000
  0
VERTEX
  8
1SECTION
  5
474b
 10
503182.120000
 20
6749319.520000
 30
0.000000
  0
VERTEX
  8
1SECTION
  5
474c
 10
503177.870000
 20
6749316.520000
 30
0.000000
  0
VERTEX
  8
1SECTION
  5
474d
 10
503172.790000
 20
6749313.750000
 30
0.000000
  0
VERTEX
  8
1SECTION
  5
474e
 10
503172.330000
 20
6749310.770000
 30
0.000000
  0
VERTEX
  8
1SECTION
  5
474f
 10
503180.260000
 20
6749309.120000
 30
0.000000
  0
VERTEX
  8
1SECTION
  5
4750
 10
503201.840000
 20
6749304.900000
 30
0.000000
  0
VERTEX
  8
1SECTION
  5
4751
 10
503242.330000
 20
6749318.690000
 30
0.000000
  0
VERTEX
  8
1SECTION
  5
4752
 10
503502.180000
 20
6749408.640000
 30
0.000000
  0
VERTEX
  8
1SECTION
  5
4753
 10
503744.950000
 20
6749493.880000
 30
0.000000
  0
VERTEX
  8
1SECTION
  5
4754
 10
503834.970000
 20
6749525.700000
 30
0.000000
  0
VERTEX
  8
1SECTION
  5
4755
 10
504112.370000
 20
6749621.900000
 30
0.000000
  0
VERTEX
  8
1SECTION
  5
4756
 10
504134.830000
 20
6749629.280000
 30
0.000000
  0
VERTEX
  8
1SECTION
  5
4757
 10
504333.570000
 20
6749698.360000
 30
0.000000
  0
VERTEX
  8
1SECTION
  5
4758
 10
504392.400000
 20
6749718.560000
 30
0.000000
  0
VERTEX
  8
1SECTION
  5
4759
 10
504438.930000
 20
6749734.900000
 30
0.000000
  0
VERTEX
  8
1SECTION
  5
475a
 10
504566.570000
 20
6749780.440000
 30
0.000000
  0
VERTEX
  8
1SECTION
  5
475b
 10
504573.690000
 20
6749782.880000
 30
0.000000
  0
SEQEND
  8
1SECTION
  5
475c
  0
TEXT
  5
475d
  8
3SECTIONTEX
  10
503003.770000
  20
6752679.990000
  30
0.000000
  40
1.500000
   1
0C
  50
0.000000
   7
STANDARD
  0
POLYLINE
  5
475e
  8
1LIEUDIT
 66
    1
 10
0.0
 20
0.0
 30
0.0
 70
     1
  0
VERTEX
  8
1LIEUDIT
  5
475f
 10
503918.230000
 20
6750737.100000
 30
0.000000
  0
VERTEX
  8
1LIEUDIT
  5
4760
 10
503899.880000
 20
6750716.790000
 30
0.000000
  0
VERTEX
  8
1LIEUDIT
  5
4761
 10
503816.650000
 20
6750622.920000
 30
0.000000
  0
VERTEX
  8
1LIEUDIT
  5
4762
 10
503813.380000
 20
6750619.150000
 30
0.000000
  0
VERTEX
  8
1LIEUDIT
  5
4763
 10
503727.060000
 20
6750517.830000
 30
0.000000
  0
VERTEX
  8
1LIEUDIT
  5
4764
 10
503723.340000
 20
6750513.500000
 30
0.000000
  0
VERTEX
  8
1LIEUDIT
  5
4765
 10
503670.740000
 20
6750452.070000
 30
0.000000
  0
VERTEX
  8
1LIEUDIT
  5
4766
 10
503532.350000
 20
6750290.250000
 30
0.000000
  0
VERTEX
  8
1LIEUDIT
  5
4767
 10
503529.800000
 20
6750298.760000
 30
0.000000
  0
VERTEX
  8
1LIEUDIT
  5
4768
 10
503525.490000
 20
6750296.450000
 30
0.000000
  0
VERTEX
  8
1LIEUDIT
  5
4769
 10
503518.120000
 20
6750293.430000
 30
0.000000
  0
VERTEX
  8
1LIEUDIT
  5
476a
 10
503510.830000
 20
6750290.680000
 30
0.000000
  0
VERTEX
  8
1LIEUDIT
  5
476b
 10
503491.650000
 20
6750284.550000
 30
0.000000
  0
VERTEX
  8
1LIEUDIT
  5
476c
 10
503473.890000
 20
6750278.850000
 30
0.000000
  0
VERTEX
  8
1LIEUDIT
  5
476d
 10
503467.210000
 20
6750277.480000
 30
0.000000
  0
VERTEX
  8
1LIEUDIT
  5
476e
 10
503460.150000
 20
6750276.010000
 30
0.000000
  0
VERTEX
  8
1LIEUDIT
  5
476f
 10
503430.280000
 20
6750268.700000
 30
0.000000
  0
VERTEX
  8
1LIEUDIT
  5
4770
 10
503430.600000
 20
6750267.650000
 30
0.000000
  0
VERTEX
  8
1LIEUDIT
  5
4771
 10
503423.920000
 20
6750264.100000
 30
0.000000
  0
VERTEX
  8
1LIEUDIT
  5
4772
 10
503415.840000
 20
6750259.350000
 30
0.000000
  0
VERTEX
  8
1LIEUDIT
  5
4773
 10
503410.460000
 20
6750256.640000
 30
0.000000
  0
VERTEX
  8
1LIEUDIT
  5
4774
 10
503407.770000
 20
6750255.350000
 30
0.000000
  0
VERTEX
  8
1LIEUDIT
  5
4775
 10
503404.290000
 20
6750254.120000
 30
0.000000
  0
VERTEX
  8
1LIEUDIT
  5
4776
 10
503404.830000
 20
6750243.190000
 30
0.000000
  0
VERTEX
  8
1LIEUDIT
  5
4777
 10
503404.660000
 20
6750242.710000
 30
0.000000
  0
VERTEX
  8
1LIEUDIT
  5
4778
 10
503415.310000
 20
6750219.920000
 30
0.000000
  0
VERTEX
  8
1LIEUDIT
  5
4779
 10
503419.240000
 20
6750212.020000
 30
0.000000
  0
VERTEX
  8
1LIEUDIT
  5
477a
 10
503425.680000
 20
6750200.260000
 30
0.000000
  0
VERTEX
  8
1LIEUDIT
  5
477b
 10
503433.440000
 20
6750186.040000
 30
0.000000
  0
VERTEX
  8
1LIEUDIT
  5
477c
 10
503435.390000
 20
6750182.330000
 30
0.000000
  0
VERTEX
  8
1LIEUDIT
  5
477d
 10
503431.890000
 20
6750179.080000
 30
0.000000
  0
VERTEX
  8
1LIEUDIT
  5
477e
 10
503425.640000
 20
6750173.920000
 30
0.000000
  0
VERTEX
  8
1LIEUDIT
  5
477f
 10
503431.240000
 20
6750159.090000
 30
0.000000
  0
VERTEX
  8
1LIEUDIT
  5
4780
 10
503435.620000
 20
6750141.550000
 30
0.000000
  0
VERTEX
  8
1LIEUDIT
  5
4781
 10
503439.380000
 20
6750125.450000
 30
0.000000
  0
VERTEX
  8
1LIEUDIT
  5
4782
 10
503440.300000
 20
6750118.980000
 30
0.000000
  0
VERTEX
  8
1LIEUDIT
  5
4783
 10
503441.470000
 20
6750104.710000
 30
0.000000
  0
VERTEX
  8
1LIEUDIT
  5
4784
 10
503441.420000
 20
6750101.740000
 30
0.000000
  0
VERTEX
  8
1LIEUDIT
  5
4785
 10
503440.910000
 20
6750098.900000
 30
0.000000
  0
VERTEX
  8
1LIEUDIT
  5
4786
 10
503438.870000
 20
6750091.360000
 30
0.000000
  0
VERTEX
  8
1LIEUDIT
  5
4787
 10
503443.220000
 20
6750086.890000
 30
0.000000
  0
VERTEX
  8
1LIEUDIT
  5
4788
 10
503448.870000
 20
6750081.030000
 30
0.000000
  0
VERTEX
  8
1LIEUDIT
  5
4789
 10
503449.700000
 20
6750075.240000
 30
0.000000
  0
VERTEX
  8
1LIEUDIT
  5
478a
 10
503449.760000
 20
6750071.700000
 30
0.000000
  0
VERTEX
  8
1LIEUDIT
  5
478b
 10
503447.680000
 20
6750030.170000
 30
0.000000
  0
VERTEX
  8
1LIEUDIT
  5
478c
 10
503446.170000
 20
6750005.600000
 30
0.000000
  0
VERTEX
  8
1LIEUDIT
  5
478d
 10
503442.990000
 20
6749955.440000
 30
0.000000
  0
VERTEX
  8
1LIEUDIT
  5
478e
 10
503441.060000
 20
6749924.000000
 30
0.000000
  0
VERTEX
  8
1LIEUDIT
  5
478f
 10
503439.470000
 20
6749897.780000
 30
0.000000
  0
VERTEX
  8
1LIEUDIT
  5
4790
 10
503438.280000
 20
6749873.980000
 30
0.000000
  0
VERTEX
  8
1LIEUDIT
  5
4791
 10
503438.340000
 20
6749859.960000
 30
0.000000
  0
VERTEX
  8
1LIEUDIT
  5
4792
 10
503438.550000
 20
6749843.400000
 30
0.000000
  0
VERTEX
  8
1LIEUDIT
  5
4793
 10
503441.200000
 20
6749823.260000
 30
0.000000
  0
VERTEX
  8
1LIEUDIT
  5
4794
 10
503442.720000
 20
6749809.810000
 30
0.000000
  0
VERTEX
  8
1LIEUDIT
  5
4795
 10
503443.380000
 20
6749804.770000
 30
0.000000
  0
VERTEX
  8
1LIEUDIT
  5
4796
 10
503444.450000
 20
6749796.790000
 30
0.000000
  0
VERTEX
  8
1LIEUDIT
  5
4797
 10
503445.820000
 20
6749785.750000
 30
0.000000
  0
VERTEX
  8
1LIEUDIT
  5
4798
 10
503448.230000
 20
6749765.710000
 30
0.000000
  0
VERTEX
  8
1LIEUDIT
  5
4799
 10
503451.160000
 20
6749737.660000
 30
0.000000
  0
VERTEX
  8
1LIEUDIT
  5
479a
 10
503453.410000
 20
6749716.810000
 30
0.000000
  0
VERTEX
  8
1LIEUDIT
  5
479b
 10
503453.130000
 20
6749713.360000
 30
0.000000
  0
VERTEX
  8
1LIEUDIT
  5
479c
 10
503451.080000
 20
6749706.910000
 30
0.000000
  0
VERTEX
  8
1LIEUDIT
  5
479d
 10
503444.780000
 20
6749686.810000
 30
0.000000
  0
VERTEX
  8
1LIEUDIT
  5
479e
 10
503441.700000
 20
6749676.930000
 30
0.000000
  0
VERTEX
  8
1LIEUDIT
  5
479f
 10
503438.050000
 20
6749667.070000
 30
0.000000
  0
VERTEX
  8
1LIEUDIT
  5
47a0
 10
503436.680000
 20
6749664.620000
 30
0.000000
  0
VERTEX
  8
1LIEUDIT
  5
47a1
 10
503433.910000
 20
6749661.430000
 30
0.000000
  0
VERTEX
  8
1LIEUDIT
  5
47a2
 10
503431.570000
 20
6749658.710000
 30
0.000000
  0
VERTEX
  8
1LIEUDIT
  5
47a3
 10
503408.650000
 20
6749634.510000
 30
0.000000
  0
VERTEX
  8
1LIEUDIT
  5
47a4
 10
503405.320000
 20
6749630.980000
 30
0.000000
  0
VERTEX
  8
1LIEUDIT
  5
47a5
 10
503387.990000
 20
6749612.160000
 30
0.000000
  0
VERTEX
  8
1LIEUDIT
  5
47a6
 10
503378.120000
 20
6749601.190000
 30
0.000000
  0
VERTEX
  8
1LIEUDIT
  5
47a7
 10
503371.250000
 20
6749592.130000
 30
0.000000
  0
VERTEX
  8
1LIEUDIT
  5
47a8
 10
503350.990000
 20
6749564.870000
 30
0.000000
  0
VERTEX
  8
1LIEUDIT
  5
47a9
 10
503336.190000
 20
6749544.120000
 30
0.000000
  0
VERTEX
  8
1LIEUDIT
  5
47aa
 10
503334.570000
 20
6749541.860000
 30
0.000000
  0
VERTEX
  8
1LIEUDIT
  5
47ab
 10
503317.020000
 20
6749518.450000
 30
0.000000
  0
VERTEX
  8
1LIEUDIT
  5
47ac
 10
503300.080000
 20
6749495.180000
 30
0.000000
  0
VERTEX
  8
1LIEUDIT
  5
47ad
 10
503292.060000
 20
6749482.780000
 30
0.000000
  0
VERTEX
  8
1LIEUDIT
  5
47ae
 10
503286.420000
 20
6749474.130000
 30
0.000000
  0
VERTEX
  8
1LIEUDIT
  5
47af
 10
503279.510000
 20
6749463.400000
 30
0.000000
  0
VERTEX
  8
1LIEUDIT
  5
47b0
 10
503275.880000
 20
6749457.800000
 30
0.000000
  0
VERTEX
  8
1LIEUDIT
  5
47b1
 10
503265.150000
 20
6749441.530000
 30
0.000000
  0
VERTEX
  8
1LIEUDIT
  5
47b2
 10
503262.530000
 20
6749438.450000
 30
0.000000
  0
VERTEX
  8
1LIEUDIT
  5
47b3
 10
503258.830000
 20
6749433.070000
 30
0.000000
  0
VERTEX
  8
1LIEUDIT
  5
47b4
 10
503248.290000
 20
6749418.180000
 30
0.000000
  0
VERTEX
  8
1LIEUDIT
  5
47b5
 10
503244.060000
 20
6749412.020000
 30
0.000000
  0
VERTEX
  8
1LIEUDIT
  5
47b6
 10
503230.180000
 20
6749391.810000
 30
0.000000
  0
VERTEX
  8
1LIEUDIT
  5
47b7
 10
503215.480000
 20
6749369.760000
 30
0.000000
  0
VERTEX
  8
1LIEUDIT
  5
47b8
 10
503210.470000
 20
6749362.200000
 30
0.000000
  0
VERTEX
  8
1LIEUDIT
  5
47b9
 10
503194.480000
 20
6749338.290000
 30
0.000000
  0
VERTEX
  8
1LIEUDIT
  5
47ba
 10
503192.860000
 20
6749335.870000
 30
0.000000
  0
VERTEX
  8
1LIEUDIT
  5
47bb
 10
503182.120000
 20
6749319.520000
 30
0.000000
  0
VERTEX
  8
1LIEUDIT
  5
47bc
 10
503177.870000
 20
6749316.520000
 30
0.000000
  0
VERTEX
  8
1LIEUDIT
  5
47bd
 10
503172.790000
 20
6749313.750000
 30
0.000000
  0
VERTEX
  8
1LIEUDIT
  5
47be
 10
503172.330000
 20
6749310.770000
 30
0.000000
  0
VERTEX
  8
1LIEUDIT
  5
47bf
 10
503180.260000
 20
6749309.120000
 30
0.000000
  0
VERTEX
  8
1LIEUDIT
  5
47c0
 10
503201.840000
 20
6749304.900000
 30
0.000000
  0
VERTEX
  8
1LIEUDIT
  5
47c1
 10
503242.330000
 20
6749318.690000
 30
0.000000
  0
VERTEX
  8
1LIEUDIT
  5
47c2
 10
503502.180000
 20
6749408.640000
 30
0.000000
  0
VERTEX
  8
1LIEUDIT
  5
47c3
 10
503744.950000
 20
6749493.880000
 30
0.000000
  0
VERTEX
  8
1LIEUDIT
  5
47c4
 10
503834.970000
 20
6749525.700000
 30
0.000000
  0
VERTEX
  8
1LIEUDIT
  5
47c5
 10
504112.370000
 20
6749621.900000
 30
0.000000
  0
VERTEX
  8
1LIEUDIT
  5
47c6
 10
504134.830000
 20
6749629.280000
 30
0.000000
  0
VERTEX
  8
1LIEUDIT
  5
47c7
 10
504133.100000
 20
6749632.940000
 30
0.000000
  0
VERTEX
  8
1LIEUDIT
  5
47c8
 10
504131.770000
 20
6749634.940000
 30
0.000000
  0
VERTEX
  8
1LIEUDIT
  5
47c9
 10
504126.770000
 20
6749639.980000
 30
0.000000
  0
VERTEX
  8
1LIEUDIT
  5
47ca
 10
504117.260000
 20
6749642.860000
 30
0.000000
  0
VERTEX
  8
1LIEUDIT
  5
47cb
 10
504116.310000
 20
6749650.520000
 30
0.000000
  0
VERTEX
  8
1LIEUDIT
  5
47cc
 10
504093.730000
 20
6749783.020000
 30
0.000000
  0
VERTEX
  8
1LIEUDIT
  5
47cd
 10
504086.860000
 20
6749823.810000
 30
0.000000
  0
VERTEX
  8
1LIEUDIT
  5
47ce
 10
504074.500000
 20
6749897.240000
 30
0.000000
  0
VERTEX
  8
1LIEUDIT
  5
47cf
 10
504059.200000
 20
6749988.350000
 30
0.000000
  0
VERTEX
  8
1LIEUDIT
  5
47d0
 10
504051.950000
 20
6750031.640000
 30
0.000000
  0
VERTEX
  8
1LIEUDIT
  5
47d1
 10
504041.430000
 20
6750094.440000
 30
0.000000
  0
VERTEX
  8
1LIEUDIT
  5
47d2
 10
504028.790000
 20
6750169.170000
 30
0.000000
  0
VERTEX
  8
1LIEUDIT
  5
47d3
 10
504025.000000
 20
6750191.480000
 30
0.000000
  0
VERTEX
  8
1LIEUDIT
  5
47d4
 10
504010.190000
 20
6750277.770000
 30
0.000000
  0
VERTEX
  8
1LIEUDIT
  5
47d5
 10
503996.260000
 20
6750360.820000
 30
0.000000
  0
VERTEX
  8
1LIEUDIT
  5
47d6
 10
503990.500000
 20
6750396.260000
 30
0.000000
  0
VERTEX
  8
1LIEUDIT
  5
47d7
 10
503970.260000
 20
6750515.040000
 30
0.000000
  0
VERTEX
  8
1LIEUDIT
  5
47d8
 10
503953.540000
 20
6750608.760000
 30
0.000000
  0
VERTEX
  8
1LIEUDIT
  5
47d9
 10
503948.770000
 20
6750636.290000
 30
0.000000
  0
VERTEX
  8
1LIEUDIT
  5
47da
 10
503936.210000
 20
6750709.460000
 30
0.000000
  0
VERTEX
  8
1LIEUDIT
  5
47db
 10
503931.500000
 20
6750736.280000
 30
0.000000
  0
VERTEX
  8
1LIEUDIT
  5
47dc
 10
503937.640000
 20
6750739.590000
 30
0.000000
  0
VERTEX
  8
1LIEUDIT
  5
47dd
 10
503940.940000
 20
6750745.430000
 30
0.000000
  0
VERTEX
  8
1LIEUDIT
  5
47de
 10
503940.050000
 20
6750752.220000
 30
0.000000
  0
VERTEX
  8
1LIEUDIT
  5
47df
 10
503936.500000
 20
6750759.370000
 30
0.000000
  0
VERTEX
  8
1LIEUDIT
  5
47e0
 10
503929.430000
 20
6750764.590000
 30
0.000000
  0
VERTEX
  8
1LIEUDIT
  5
47e1
 10
503929.200000
 20
6750764.770000
 30
0.000000
  0
VERTEX
  8
1LIEUDIT
  5
47e2
 10
503924.730000
 20
6750765.920000
 30
0.000000
  0
VERTEX
  8
1LIEUDIT
  5
47e3
 10
503917.880000
 20
6750762.770000
 30
0.000000
  0
VERTEX
  8
1LIEUDIT
  5
47e4
 10
503917.570000
 20
6750762.630000
 30
0.000000
  0
VERTEX
  8
1LIEUDIT
  5
47e5
 10
503914.780000
 20
6750760.240000
 30
0.000000
  0
VERTEX
  8
1LIEUDIT
  5
47e6
 10
503911.370000
 20
6750756.340000
 30
0.000000
  0
VERTEX
  8
1LIEUDIT
  5
47e7
 10
503909.790000
 20
6750751.930000
 30
0.000000
  0
VERTEX
  8
1LIEUDIT
  5
47e8
 10
503911.230000
 20
6750744.350000
 30
0.000000
  0
VERTEX
  8
1LIEUDIT
  5
47e9
 10
503912.320000
 20
6750741.960000
 30
0.000000
  0
VERTEX
  8
1LIEUDIT
  5
47ea
 10
503918.230000
 20
6750737.100000
 30
0.000000
  0
SEQEND
  8
1LIEUDIT
  5
47eb
  0
TEXT
  5
47ec
  8
3LIEUDITTEX
  10
503557.410000
  20
6750104.930000
  30
0.000000
  40
4.000000
   1
FORET DE BERCE
  50
0.000000
   7
STANDARD
  0
POLYLINE
  5
47ed
  8
1ZONCOMM
 66
    1
 10
0.0
 20
0.0
 30
0.0
 70
     0
  0
VERTEX
  8
1ZONCOMM
  5
47ee
 10
504112.370000
 20
6749621.900000
 30
0.000000
  0
VERTEX
  8
1ZONCOMM
  5
47ef
 10
503834.970000
 20
6749525.700000
 30
0.000000
  0
VERTEX
  8
1ZONCOMM
  5
47f0
 10
503744.950000
 20
6749493.880000
 30
0.000000
  0
VERTEX
  8
1ZONCOMM
  5
47f1
 10
503502.180000
 20
6749408.640000
 30
0.000000
  0
VERTEX
  8
1ZONCOMM
  5
47f2
 10
503242.330000
 20
6749318.690000
 30
0.000000
  0
VERTEX
  8
1ZONCOMM
  5
47f3
 10
503201.840000
 20
6749304.900000
 30
0.000000
  0
VERTEX
  8
1ZONCOMM
  5
47f4
 10
503180.260000
 20
6749309.120000
 30
0.000000
  0
SEQEND
  8
1ZONCOMM
  5
47f5
  0
TEXT
  5
47f6
  8
3ZONCOMMTEX
  10
503240.870000
  20
6749316.960000
  30
0.000000
  40
2.500000
   1
Route
  50
18.500000
   7
STANDARD
  0
TEXT
  5
47f7
  8
3ZONCOMMTEX
  10
503384.470000
  20
6749366.420000
  30
0.000000
  40
2.500000
   1
Dpartementale
  50
19.400000
   7
STANDARD
  0
TEXT
  5
47f8
  8
3ZONCOMMTEX
  10
503540.070000
  20
6749420.470000
  30
0.000000
  40
2.500000
   1
N 96
  50
20.300000
   7
STANDARD
  0
TEXT
  5
47f9
  8
3ZONCOMMTEX
  10
503622.900000
  20
6749450.650000
  30
0.000000
  40
2.500000
   1
de
  50
10.500000
   7
STANDARD
  0
TEXT
  5
47fa
  8
3ZONCOMMTEX
  10
503665.930000
  20
6749461.780000
  30
0.000000
  40
2.500000
   1
la
  50
20.200000
   7
STANDARD
  0
TEXT
  5
47fb
  8
3ZONCOMMTEX
  10
503698.700000
  20
6749474.510000
  30
0.000000
  40
2.500000
   1
Route Nationnale N 158
  50
19.900000
   7
STANDARD
  0
TEXT
  5
47fc
  8
3ZONCOMMTEX
  10
503863.880000
  20
6749535.600000
  30
0.000000
  40
2.500000
   1

  50
15.600000
   7
STANDARD
  0
TEXT
  5
47fd
  8
3ZONCOMMTEX
  10
503965.330000
  20
6749569.990000
  30
0.000000
  40
2.500000
   1
Pruill   l'Eguill
  50
19.300000
   7
STANDARD
  0
POLYLINE
  5
47fe
  8
1TRONROU
 66
    1
 10
0.0
 20
0.0
 30
0.0
 70
     1
  0
VERTEX
  8
1TRONROU
  5
47ff
 10
504133.100000
 20
6749632.940000
 30
0.000000
  0
VERTEX
  8
1TRONROU
  5
4800
 10
504131.770000
 20
6749634.940000
 30
0.000000
  0
VERTEX
  8
1TRONROU
  5
4801
 10
504126.770000
 20
6749639.980000
 30
0.000000
  0
VERTEX
  8
1TRONROU
  5
4802
 10
504117.260000
 20
6749642.860000
 30
0.000000
  0
VERTEX
  8
1TRONROU
  5
4803
 10
504116.310000
 20
6749650.520000
 30
0.000000
  0
VERTEX
  8
1TRONROU
  5
4804
 10
504093.730000
 20
6749783.020000
 30
0.000000
  0
VERTEX
  8
1TRONROU
  5
4805
 10
504086.860000
 20
6749823.810000
 30
0.000000
  0
VERTEX
  8
1TRONROU
  5
4806
 10
504074.500000
 20
6749897.240000
 30
0.000000
  0
VERTEX
  8
1TRONROU
  5
4807
 10
504059.200000
 20
6749988.350000
 30
0.000000
  0
VERTEX
  8
1TRONROU
  5
4808
 10
504051.950000
 20
6750031.640000
 30
0.000000
  0
VERTEX
  8
1TRONROU
  5
4809
 10
504041.430000
 20
6750094.440000
 30
0.000000
  0
VERTEX
  8
1TRONROU
  5
480a
 10
504028.790000
 20
6750169.170000
 30
0.000000
  0
VERTEX
  8
1TRONROU
  5
480b
 10
504025.000000
 20
6750191.480000
 30
0.000000
  0
VERTEX
  8
1TRONROU
  5
480c
 10
504010.190000
 20
6750277.770000
 30
0.000000
  0
VERTEX
  8
1TRONROU
  5
480d
 10
503996.260000
 20
6750360.820000
 30
0.000000
  0
VERTEX
  8
1TRONROU
  5
480e
 10
503990.500000
 20
6750396.260000
 30
0.000000
  0
VERTEX
  8
1TRONROU
  5
480f
 10
503970.260000
 20
6750515.040000
 30
0.000000
  0
VERTEX
  8
1TRONROU
  5
4810
 10
503953.540000
 20
6750608.760000
 30
0.000000
  0
VERTEX
  8
1TRONROU
  5
4811
 10
503948.770000
 20
6750636.290000
 30
0.000000
  0
VERTEX
  8
1TRONROU
  5
4812
 10
503936.210000
 20
6750709.460000
 30
0.000000
  0
VERTEX
  8
1TRONROU
  5
4813
 10
503931.500000
 20
6750736.280000
 30
0.000000
  0
VERTEX
  8
1TRONROU
  5
4814
 10
503937.640000
 20
6750739.590000
 30
0.000000
  0
VERTEX
  8
1TRONROU
  5
4815
 10
503940.940000
 20
6750745.430000
 30
0.000000
  0
VERTEX
  8
1TRONROU
  5
4816
 10
503940.050000
 20
6750752.220000
 30
0.000000
  0
VERTEX
  8
1TRONROU
  5
4817
 10
503936.500000
 20
6750759.370000
 30
0.000000
  0
VERTEX
  8
1TRONROU
  5
4818
 10
503929.430000
 20
6750764.590000
 30
0.000000
  0
VERTEX
  8
1TRONROU
  5
4819
 10
503929.200000
 20
6750764.770000
 30
0.000000
  0
VERTEX
  8
1TRONROU
  5
481a
 10
503924.730000
 20
6750765.920000
 30
0.000000
  0
VERTEX
  8
1TRONROU
  5
481b
 10
503917.880000
 20
6750762.770000
 30
0.000000
  0
VERTEX
  8
1TRONROU
  5
481c
 10
503917.570000
 20
6750762.630000
 30
0.000000
  0
VERTEX
  8
1TRONROU
  5
481d
 10
503914.780000
 20
6750760.240000
 30
0.000000
  0
VERTEX
  8
1TRONROU
  5
481e
 10
503911.370000
 20
6750756.340000
 30
0.000000
  0
VERTEX
  8
1TRONROU
  5
481f
 10
503909.790000
 20
6750751.930000
 30
0.000000
  0
VERTEX
  8
1TRONROU
  5
4820
 10
503911.230000
 20
6750744.350000
 30
0.000000
  0
VERTEX
  8
1TRONROU
  5
4821
 10
503912.320000
 20
6750741.960000
 30
0.000000
  0
VERTEX
  8
1TRONROU
  5
4822
 10
503918.230000
 20
6750737.100000
 30
0.000000
  0
VERTEX
  8
1TRONROU
  5
4823
 10
503923.040000
 20
6750734.830000
 30
0.000000
  0
VERTEX
  8
1TRONROU
  5
4824
 10
503938.410000
 20
6750643.680000
 30
0.000000
  0
VERTEX
  8
1TRONROU
  5
4825
 10
503962.930000
 20
6750500.390000
 30
0.000000
  0
VERTEX
  8
1TRONROU
  5
4826
 10
503977.460000
 20
6750417.150000
 30
0.000000
  0
VERTEX
  8
1TRONROU
  5
4827
 10
503992.050000
 20
6750332.040000
 30
0.000000
  0
VERTEX
  8
1TRONROU
  5
4828
 10
504009.600000
 20
6750231.370000
 30
0.000000
  0
VERTEX
  8
1TRONROU
  5
4829
 10
504024.120000
 20
6750146.430000
 30
0.000000
  0
VERTEX
  8
1TRONROU
  5
482a
 10
504032.330000
 20
6750097.450000
 30
0.000000
  0
VERTEX
  8
1TRONROU
  5
482b
 10
504045.830000
 20
6750018.690000
 30
0.000000
  0
VERTEX
  8
1TRONROU
  5
482c
 10
504064.470000
 20
6749908.890000
 30
0.000000
  0
VERTEX
  8
1TRONROU
  5
482d
 10
504087.050000
 20
6749775.850000
 30
0.000000
  0
VERTEX
  8
1TRONROU
  5
482e
 10
504101.710000
 20
6749689.840000
 30
0.000000
  0
VERTEX
  8
1TRONROU
  5
482f
 10
504109.690000
 20
6749640.410000
 30
0.000000
  0
VERTEX
  8
1TRONROU
  5
4830
 10
504104.620000
 20
6749637.920000
 30
0.000000
  0
VERTEX
  8
1TRONROU
  5
4831
 10
504099.010000
 20
6749629.730000
 30
0.000000
  0
VERTEX
  8
1TRONROU
  5
4832
 10
504098.210000
 20
6749621.430000
 30
0.000000
  0
VERTEX
  8
1TRONROU
  5
4833
 10
504133.100000
 20
6749632.940000
 30
0.000000
  0
SEQEND
  8
1TRONROU
  5
4834
  0
TEXT
  5
4835
  8
3TRONROUTEX
  10
503927.940000
  20
6750763.320000
  30
0.000000
  40
2.500000
   1
ROND
  50
292.400000
   7
STANDARD
  0
TEXT
  5
4836
  8
3TRONROUTEX
  10
503923.690000
  20
6750754.340000
  30
0.000000
  40
2.500000
   1
DE
  50
295.300000
   7
STANDARD
  0
TEXT
  5
4837
  8
3TRONROUTEX
  10
503913.550000
  20
6750757.200000
  30
0.000000
  40
2.500000
   1
BERCE
  50
298.600000
   7
STANDARD
  0
TEXT
  5
4838
  8
3TRONROUTEX
  10
503960.160000
  20
6750544.270000
  30
0.000000
  40
2.500000
   1
Route
  50
282.100000
   7
STANDARD
  0
TEXT
  5
4839
  8
3TRONROUTEX
  10
504009.090000
  20
6750253.060000
  30
0.000000
  40
2.500000
   1
Forestire
  50
282.200000
   7
STANDARD
  0
POLYLINE
  5
483a
  8
1TRONROU
 66
    1
 10
0.0
 20
0.0
 30
0.0
 70
     1
  0
VERTEX
  8
1TRONROU
  5
483b
 10
503172.790000
 20
6749313.750000
 30
0.000000
  0
VERTEX
  8
1TRONROU
  5
483c
 10
503177.590000
 20
6749313.330000
 30
0.000000
  0
VERTEX
  8
1TRONROU
  5
483d
 10
503185.480000
 20
6749311.220000
 30
0.000000
  0
VERTEX
  8
1TRONROU
  5
483e
 10
503195.880000
 20
6749310.480000
 30
0.000000
  0
VERTEX
  8
1TRONROU
  5
483f
 10
503201.750000
 20
6749310.280000
 30
0.000000
  0
VERTEX
  8
1TRONROU
  5
4840
 10
503207.710000
 20
6749311.120000
 30
0.000000
  0
VERTEX
  8
1TRONROU
  5
4841
 10
503217.970000
 20
6749314.650000
 30
0.000000
  0
VERTEX
  8
1TRONROU
  5
4842
 10
503210.010000
 20
6749322.910000
 30
0.000000
  0
VERTEX
  8
1TRONROU
  5
4843
 10
503202.280000
 20
6749324.930000
 30
0.000000
  0
VERTEX
  8
1TRONROU
  5
4844
 10
503196.980000
 20
6749324.740000
 30
0.000000
  0
VERTEX
  8
1TRONROU
  5
4845
 10
503216.610000
 20
6749353.720000
 30
0.000000
  0
VERTEX
  8
1TRONROU
  5
4846
 10
503250.610000
 20
6749402.040000
 30
0.000000
  0
VERTEX
  8
1TRONROU
  5
4847
 10
503272.890000
 20
6749433.450000
 30
0.000000
  0
VERTEX
  8
1TRONROU
  5
4848
 10
503291.290000
 20
6749461.750000
 30
0.000000
  0
VERTEX
  8
1TRONROU
  5
4849
 10
503316.190000
 20
6749500.600000
 30
0.000000
  0
VERTEX
  8
1TRONROU
  5
484a
 10
503341.470000
 20
6749535.830000
 30
0.000000
  0
VERTEX
  8
1TRONROU
  5
484b
 10
503354.960000
 20
6749554.890000
 30
0.000000
  0
VERTEX
  8
1TRONROU
  5
484c
 10
503376.540000
 20
6749583.160000
 30
0.000000
  0
VERTEX
  8
1TRONROU
  5
484d
 10
503388.200000
 20
6749598.820000
 30
0.000000
  0
VERTEX
  8
1TRONROU
  5
484e
 10
503408.330000
 20
6749620.420000
 30
0.000000
  0
VERTEX
  8
1TRONROU
  5
484f
 10
503429.430000
 20
6749643.770000
 30
0.000000
  0
VERTEX
  8
1TRONROU
  5
4850
 10
503444.800000
 20
6749660.430000
 30
0.000000
  0
VERTEX
  8
1TRONROU
  5
4851
 10
503452.120000
 20
6749681.350000
 30
0.000000
  0
VERTEX
  8
1TRONROU
  5
4852
 10
503464.140000
 20
6749717.960000
 30
0.000000
  0
VERTEX
  8
1TRONROU
  5
4853
 10
503458.520000
 20
6749766.770000
 30
0.000000
  0
VERTEX
  8
1TRONROU
  5
4854
 10
503454.940000
 20
6749796.160000
 30
0.000000
  0
VERTEX
  8
1TRONROU
  5
4855
 10
503459.220000
 20
6749800.690000
 30
0.000000
  0
VERTEX
  8
1TRONROU
  5
4856
 10
503458.680000
 20
6749806.070000
 30
0.000000
  0
VERTEX
  8
1TRONROU
  5
4857
 10
503456.260000
 20
6749809.190000
 30
0.000000
  0
VERTEX
  8
1TRONROU
  5
4858
 10
503453.100000
 20
6749810.590000
 30
0.000000
  0
VERTEX
  8
1TRONROU
  5
4859
 10
503448.230000
 20
6749851.810000
 30
0.000000
  0
VERTEX
  8
1TRONROU
  5
485a
 10
503448.100000
 20
6749874.630000
 30
0.000000
  0
VERTEX
  8
1TRONROU
  5
485b
 10
503450.050000
 20
6749914.580000
 30
0.000000
  0
VERTEX
  8
1TRONROU
  5
485c
 10
503451.850000
 20
6749953.400000
 30
0.000000
  0
VERTEX
  8
1TRONROU
  5
485d
 10
503455.990000
 20
6750011.650000
 30
0.000000
  0
VERTEX
  8
1TRONROU
  5
485e
 10
503459.180000
 20
6750082.900000
 30
0.000000
  0
VERTEX
  8
1TRONROU
  5
485f
 10
503453.410000
 20
6750093.950000
 30
0.000000
  0
VERTEX
  8
1TRONROU
  5
4860
 10
503448.210000
 20
6750135.190000
 30
0.000000
  0
VERTEX
  8
1TRONROU
  5
4861
 10
503441.320000
 20
6750167.250000
 30
0.000000
  0
VERTEX
  8
1TRONROU
  5
4862
 10
503441.200000
 20
6750172.790000
 30
0.000000
  0
VERTEX
  8
1TRONROU
  5
4863
 10
503445.270000
 20
6750182.660000
 30
0.000000
  0
VERTEX
  8
1TRONROU
  5
4864
 10
503444.840000
 20
6750189.680000
 30
0.000000
  0
VERTEX
  8
1TRONROU
  5
4865
 10
503431.110000
 20
6750213.240000
 30
0.000000
  0
VERTEX
  8
1TRONROU
  5
4866
 10
503421.610000
 20
6750234.370000
 30
0.000000
  0
VERTEX
  8
1TRONROU
  5
4867
 10
503418.840000
 20
6750242.060000
 30
0.000000
  0
VERTEX
  8
1TRONROU
  5
4868
 10
503419.040000
 20
6750248.170000
 30
0.000000
  0
VERTEX
  8
1TRONROU
  5
4869
 10
503422.170000
 20
6750251.480000
 30
0.000000
  0
VERTEX
  8
1TRONROU
  5
486a
 10
503441.220000
 20
6750260.050000
 30
0.000000
  0
VERTEX
  8
1TRONROU
  5
486b
 10
503473.160000
 20
6750266.930000
 30
0.000000
  0
VERTEX
  8
1TRONROU
  5
486c
 10
503522.370000
 20
6750282.890000
 30
0.000000
  0
VERTEX
  8
1TRONROU
  5
486d
 10
503532.350000
 20
6750290.250000
 30
0.000000
  0
VERTEX
  8
1TRONROU
  5
486e
 10
503529.800000
 20
6750298.760000
 30
0.000000
  0
VERTEX
  8
1TRONROU
  5
486f
 10
503525.490000
 20
6750296.450000
 30
0.000000
  0
VERTEX
  8
1TRONROU
  5
4870
 10
503518.120000
 20
6750293.430000
 30
0.000000
  0
VERTEX
  8
1TRONROU
  5
4871
 10
503510.830000
 20
6750290.680000
 30
0.000000
  0
VERTEX
  8
1TRONROU
  5
4872
 10
503491.650000
 20
6750284.550000
 30
0.000000
  0
VERTEX
  8
1TRONROU
  5
4873
 10
503473.890000
 20
6750278.850000
 30
0.000000
  0
VERTEX
  8
1TRONROU
  5
4874
 10
503467.210000
 20
6750277.480000
 30
0.000000
  0
VERTEX
  8
1TRONROU
  5
4875
 10
503460.150000
 20
6750276.010000
 30
0.000000
  0
VERTEX
  8
1TRONROU
  5
4876
 10
503430.280000
 20
6750268.700000
 30
0.000000
  0
VERTEX
  8
1TRONROU
  5
4877
 10
503430.600000
 20
6750267.650000
 30
0.000000
  0
VERTEX
  8
1TRONROU
  5
4878
 10
503423.920000
 20
6750264.100000
 30
0.000000
  0
VERTEX
  8
1TRONROU
  5
4879
 10
503415.840000
 20
6750259.350000
 30
0.000000
  0
VERTEX
  8
1TRONROU
  5
487a
 10
503410.460000
 20
6750256.640000
 30
0.000000
  0
VERTEX
  8
1TRONROU
  5
487b
 10
503407.770000
 20
6750255.350000
 30
0.000000
  0
VERTEX
  8
1TRONROU
  5
487c
 10
503404.290000
 20
6750254.120000
 30
0.000000
  0
VERTEX
  8
1TRONROU
  5
487d
 10
503404.830000
 20
6750243.190000
 30
0.000000
  0
VERTEX
  8
1TRONROU
  5
487e
 10
503404.660000
 20
6750242.710000
 30
0.000000
  0
VERTEX
  8
1TRONROU
  5
487f
 10
503415.310000
 20
6750219.920000
 30
0.000000
  0
VERTEX
  8
1TRONROU
  5
4880
 10
503419.240000
 20
6750212.020000
 30
0.000000
  0
VERTEX
  8
1TRONROU
  5
4881
 10
503425.680000
 20
6750200.260000
 30
0.000000
  0
VERTEX
  8
1TRONROU
  5
4882
 10
503433.440000
 20
6750186.040000
 30
0.000000
  0
VERTEX
  8
1TRONROU
  5
4883
 10
503435.390000
 20
6750182.330000
 30
0.000000
  0
VERTEX
  8
1TRONROU
  5
4884
 10
503431.890000
 20
6750179.080000
 30
0.000000
  0
VERTEX
  8
1TRONROU
  5
4885
 10
503425.640000
 20
6750173.920000
 30
0.000000
  0
VERTEX
  8
1TRONROU
  5
4886
 10
503431.240000
 20
6750159.090000
 30
0.000000
  0
VERTEX
  8
1TRONROU
  5
4887
 10
503435.620000
 20
6750141.550000
 30
0.000000
  0
VERTEX
  8
1TRONROU
  5
4888
 10
503439.380000
 20
6750125.450000
 30
0.000000
  0
VERTEX
  8
1TRONROU
  5
4889
 10
503440.300000
 20
6750118.980000
 30
0.000000
  0
VERTEX
  8
1TRONROU
  5
488a
 10
503441.470000
 20
6750104.710000
 30
0.000000
  0
VERTEX
  8
1TRONROU
  5
488b
 10
503441.420000
 20
6750101.740000
 30
0.000000
  0
VERTEX
  8
1TRONROU
  5
488c
 10
503440.910000
 20
6750098.900000
 30
0.000000
  0
VERTEX
  8
1TRONROU
  5
488d
 10
503438.870000
 20
6750091.360000
 30
0.000000
  0
VERTEX
  8
1TRONROU
  5
488e
 10
503443.220000
 20
6750086.890000
 30
0.000000
  0
VERTEX
  8
1TRONROU
  5
488f
 10
503448.870000
 20
6750081.030000
 30
0.000000
  0
VERTEX
  8
1TRONROU
  5
4890
 10
503449.700000
 20
6750075.240000
 30
0.000000
  0
VERTEX
  8
1TRONROU
  5
4891
 10
503449.760000
 20
6750071.700000
 30
0.000000
  0
VERTEX
  8
1TRONROU
  5
4892
 10
503447.680000
 20
6750030.170000
 30
0.000000
  0
VERTEX
  8
1TRONROU
  5
4893
 10
503446.170000
 20
6750005.600000
 30
0.000000
  0
VERTEX
  8
1TRONROU
  5
4894
 10
503442.990000
 20
6749955.440000
 30
0.000000
  0
VERTEX
  8
1TRONROU
  5
4895
 10
503441.060000
 20
6749924.000000
 30
0.000000
  0
VERTEX
  8
1TRONROU
  5
4896
 10
503439.470000
 20
6749897.780000
 30
0.000000
  0
VERTEX
  8
1TRONROU
  5
4897
 10
503438.280000
 20
6749873.980000
 30
0.000000
  0
VERTEX
  8
1TRONROU
  5
4898
 10
503438.340000
 20
6749859.960000
 30
0.000000
  0
VERTEX
  8
1TRONROU
  5
4899
 10
503438.550000
 20
6749843.400000
 30
0.000000
  0
VERTEX
  8
1TRONROU
  5
489a
 10
503441.200000
 20
6749823.260000
 30
0.000000
  0
VERTEX
  8
1TRONROU
  5
489b
 10
503442.720000
 20
6749809.810000
 30
0.000000
  0
VERTEX
  8
1TRONROU
  5
489c
 10
503443.380000
 20
6749804.770000
 30
0.000000
  0
VERTEX
  8
1TRONROU
  5
489d
 10
503444.450000
 20
6749796.790000
 30
0.000000
  0
VERTEX
  8
1TRONROU
  5
489e
 10
503445.820000
 20
6749785.750000
 30
0.000000
  0
VERTEX
  8
1TRONROU
  5
489f
 10
503448.230000
 20
6749765.710000
 30
0.000000
  0
VERTEX
  8
1TRONROU
  5
48a0
 10
503451.160000
 20
6749737.660000
 30
0.000000
  0
VERTEX
  8
1TRONROU
  5
48a1
 10
503453.410000
 20
6749716.810000
 30
0.000000
  0
VERTEX
  8
1TRONROU
  5
48a2
 10
503453.130000
 20
6749713.360000
 30
0.000000
  0
VERTEX
  8
1TRONROU
  5
48a3
 10
503451.080000
 20
6749706.910000
 30
0.000000
  0
VERTEX
  8
1TRONROU
  5
48a4
 10
503444.780000
 20
6749686.810000
 30
0.000000
  0
VERTEX
  8
1TRONROU
  5
48a5
 10
503441.700000
 20
6749676.930000
 30
0.000000
  0
VERTEX
  8
1TRONROU
  5
48a6
 10
503438.050000
 20
6749667.070000
 30
0.000000
  0
VERTEX
  8
1TRONROU
  5
48a7
 10
503436.680000
 20
6749664.620000
 30
0.000000
  0
VERTEX
  8
1TRONROU
  5
48a8
 10
503433.910000
 20
6749661.430000
 30
0.000000
  0
VERTEX
  8
1TRONROU
  5
48a9
 10
503431.570000
 20
6749658.710000
 30
0.000000
  0
VERTEX
  8
1TRONROU
  5
48aa
 10
503408.650000
 20
6749634.510000
 30
0.000000
  0
VERTEX
  8
1TRONROU
  5
48ab
 10
503405.320000
 20
6749630.980000
 30
0.000000
  0
VERTEX
  8
1TRONROU
  5
48ac
 10
503387.990000
 20
6749612.160000
 30
0.000000
  0
VERTEX
  8
1TRONROU
  5
48ad
 10
503378.120000
 20
6749601.190000
 30
0.000000
  0
VERTEX
  8
1TRONROU
  5
48ae
 10
503371.250000
 20
6749592.130000
 30
0.000000
  0
VERTEX
  8
1TRONROU
  5
48af
 10
503350.990000
 20
6749564.870000
 30
0.000000
  0
VERTEX
  8
1TRONROU
  5
48b0
 10
503336.190000
 20
6749544.120000
 30
0.000000
  0
VERTEX
  8
1TRONROU
  5
48b1
 10
503334.570000
 20
6749541.860000
 30
0.000000
  0
VERTEX
  8
1TRONROU
  5
48b2
 10
503317.020000
 20
6749518.450000
 30
0.000000
  0
VERTEX
  8
1TRONROU
  5
48b3
 10
503300.080000
 20
6749495.180000
 30
0.000000
  0
VERTEX
  8
1TRONROU
  5
48b4
 10
503292.060000
 20
6749482.780000
 30
0.000000
  0
VERTEX
  8
1TRONROU
  5
48b5
 10
503286.420000
 20
6749474.130000
 30
0.000000
  0
VERTEX
  8
1TRONROU
  5
48b6
 10
503279.510000
 20
6749463.400000
 30
0.000000
  0
VERTEX
  8
1TRONROU
  5
48b7
 10
503275.880000
 20
6749457.800000
 30
0.000000
  0
VERTEX
  8
1TRONROU
  5
48b8
 10
503265.150000
 20
6749441.530000
 30
0.000000
  0
VERTEX
  8
1TRONROU
  5
48b9
 10
503262.530000
 20
6749438.450000
 30
0.000000
  0
VERTEX
  8
1TRONROU
  5
48ba
 10
503258.830000
 20
6749433.070000
 30
0.000000
  0
VERTEX
  8
1TRONROU
  5
48bb
 10
503248.290000
 20
6749418.180000
 30
0.000000
  0
VERTEX
  8
1TRONROU
  5
48bc
 10
503244.060000
 20
6749412.020000
 30
0.000000
  0
VERTEX
  8
1TRONROU
  5
48bd
 10
503230.180000
 20
6749391.810000
 30
0.000000
  0
VERTEX
  8
1TRONROU
  5
48be
 10
503215.480000
 20
6749369.760000
 30
0.000000
  0
VERTEX
  8
1TRONROU
  5
48bf
 10
503210.470000
 20
6749362.200000
 30
0.000000
  0
VERTEX
  8
1TRONROU
  5
48c0
 10
503194.480000
 20
6749338.290000
 30
0.000000
  0
VERTEX
  8
1TRONROU
  5
48c1
 10
503192.860000
 20
6749335.870000
 30
0.000000
  0
VERTEX
  8
1TRONROU
  5
48c2
 10
503182.120000
 20
6749319.520000
 30
0.000000
  0
VERTEX
  8
1TRONROU
  5
48c3
 10
503177.870000
 20
6749316.520000
 30
0.000000
  0
VERTEX
  8
1TRONROU
  5
48c4
 10
503172.790000
 20
6749313.750000
 30
0.000000
  0
SEQEND
  8
1TRONROU
  5
48c5
  0
TEXT
  5
48c6
  8
3TRONROUTEX
  10
503414.150000
  20
6750241.520000
  30
0.000000
  40
2.500000
   1
Route
  50
291.200000
   7
STANDARD
  0
TEXT
  5
48c7
  8
3TRONROUTEX
  10
503453.520000
  20
6750078.300000
  30
0.000000
  40
2.500000
   1
Forestire
  50
268.100000
   7
STANDARD
  0
TEXT
  5
48c8
  8
3TRONROUTEX
  10
503460.030000
  20
6749716.230000
  30
0.000000
  40
2.500000
   1
Mayet
  50
250.100000
   7
STANDARD
  0
TEXT
  5
48c9
  8
3TRONROUTEX
  10
503443.490000
  20
6749873.040000
  30
0.000000
  40
2.500000
   1
de
  50
272.500000
   7
STANDARD
  0
TEXT
  5
48ca
  8
3TRONROUTEX
  10
503339.530000
  20
6749541.930000
  30
0.000000
  40
2.500000
   1
au
  50
227.000000
   7
STANDARD
  0
TEXT
  5
48cb
  8
3TRONROUTEX
  10
503274.750000
  20
6749447.050000
  30
0.000000
  40
2.500000
   1
Grand
  50
232.000000
   7
STANDARD
  0
TEXT
  5
48cc
  8
3TRONROUTEX
  10
503218.810000
  20
6749366.660000
  30
0.000000
  40
2.500000
   1
Luc
  50
240.500000
   7
STANDARD
  0
POLYLINE
  5
48cd
  8
3FLECHEPAR
 66
    1
 10
0.0
 20
0.0
 30
0.0
 70
     0
  0
VERTEX
  8
3FLECHEPAR
  5
48ce
 10
503207.010000
 20
6749328.460000
 30
0.000000
  0
VERTEX
  8
3FLECHEPAR
  5
48cf
 10
503219.480000
 20
6749334.770000
 30
0.000000
  0
VERTEX
  8
3FLECHEPAR
  5
48d0
 10
503227.420000
 20
6749334.700000
 30
0.000000
  0
SEQEND
  8
3FLECHEPAR
  5
48d1
  0
POLYLINE
  5
48d2
  8
3BATIDUR
 66
    1
 10
0.0
 20
0.0
 30
0.0
 70
     1
  0
VERTEX
  8
3BATIDUR
  5
48d3
 10
503203.560000
 20
6749330.530000
 30
0.000000
  0
VERTEX
  8
3BATIDUR
  5
48d4
 10
503202.700000
 20
6749326.230000
 30
0.000000
  0
VERTEX
  8
3BATIDUR
  5
48d5
 10
503207.520000
 20
6749325.650000
 30
0.000000
  0
VERTEX
  8
3BATIDUR
  5
48d6
 10
503208.310000
 20
6749330.080000
 30
0.000000
  0
VERTEX
  8
3BATIDUR
  5
48d7
 10
503203.560000
 20
6749330.530000
 30
0.000000
  0
SEQEND
  8
3BATIDUR
  5
48d8
  0
TEXT
  5
48d9
  8
3ENSIMMO
  10
504063.960000
  20
6749641.760000
  30
0.000000
  40
1.125000
   1
ROND DU MAI
  50
0.000000
   7
STANDARD
  0
TEXT
  5
48da
  8
3ENSIMMO
  10
503640.820000
  20
6749944.180000
  30
0.000000
  40
1.125000
   1
CANTON DE BERCE
  50
0.000000
   7
STANDARD
  0
POLYLINE
  5
48db
  8
3FLECHEPAR
 66
    1
 10
0.0
 20
0.0
 30
0.0
 70
     0
  0
VERTEX
  8
3FLECHEPAR
  5
48dc
 10
504034.910000
 20
6750116.340000
 30
0.000000
  0
VERTEX
  8
3FLECHEPAR
  5
48dd
 10
504029.790000
 20
6750096.160000
 30
0.000000
  0
VERTEX
  8
3FLECHEPAR
  5
48de
 10
504021.850000
 20
6750096.230000
 30
0.000000
  0
SEQEND
  8
3FLECHEPAR
  5
48df
  0
POLYLINE
  5
48e0
  8
1PARCELLE
 66
    1
 10
0.0
 20
0.0
 30
0.0
 70
     1
1001
SUPF
1000
000620174
1001
INDP
1000
01
1001
IDU
1000
1870000C0162
  0
VERTEX
  8
1PARCELLE
  5
48e1
 10
503210.010000
 20
6749322.910000
 30
0.000000
  0
VERTEX
  8
1PARCELLE
  5
48e2
 10
503202.280000
 20
6749324.930000
 30
0.000000
  0
VERTEX
  8
1PARCELLE
  5
48e3
 10
503196.980000
 20
6749324.740000
 30
0.000000
  0
VERTEX
  8
1PARCELLE
  5
48e4
 10
503216.610000
 20
6749353.720000
 30
0.000000
  0
VERTEX
  8
1PARCELLE
  5
48e5
 10
503250.610000
 20
6749402.040000
 30
0.000000
  0
VERTEX
  8
1PARCELLE
  5
48e6
 10
503272.890000
 20
6749433.450000
 30
0.000000
  0
VERTEX
  8
1PARCELLE
  5
48e7
 10
503291.290000
 20
6749461.750000
 30
0.000000
  0
VERTEX
  8
1PARCELLE
  5
48e8
 10
503316.190000
 20
6749500.600000
 30
0.000000
  0
VERTEX
  8
1PARCELLE
  5
48e9
 10
503341.470000
 20
6749535.830000
 30
0.000000
  0
VERTEX
  8
1PARCELLE
  5
48ea
 10
503354.960000
 20
6749554.890000
 30
0.000000
  0
VERTEX
  8
1PARCELLE
  5
48eb
 10
503376.540000
 20
6749583.160000
 30
0.000000
  0
VERTEX
  8
1PARCELLE
  5
48ec
 10
503388.200000
 20
6749598.820000
 30
0.000000
  0
VERTEX
  8
1PARCELLE
  5
48ed
 10
503408.330000
 20
6749620.420000
 30
0.000000
  0
VERTEX
  8
1PARCELLE
  5
48ee
 10
503429.430000
 20
6749643.770000
 30
0.000000
  0
VERTEX
  8
1PARCELLE
  5
48ef
 10
503444.800000
 20
6749660.430000
 30
0.000000
  0
VERTEX
  8
1PARCELLE
  5
48f0
 10
503452.120000
 20
6749681.350000
 30
0.000000
  0
VERTEX
  8
1PARCELLE
  5
48f1
 10
503464.140000
 20
6749717.960000
 30
0.000000
  0
VERTEX
  8
1PARCELLE
  5
48f2
 10
503458.520000
 20
6749766.770000
 30
0.000000
  0
VERTEX
  8
1PARCELLE
  5
48f3
 10
503454.940000
 20
6749796.160000
 30
0.000000
  0
VERTEX
  8
1PARCELLE
  5
48f4
 10
503459.220000
 20
6749800.690000
 30
0.000000
  0
VERTEX
  8
1PARCELLE
  5
48f5
 10
503458.680000
 20
6749806.070000
 30
0.000000
  0
VERTEX
  8
1PARCELLE
  5
48f6
 10
503456.260000
 20
6749809.190000
 30
0.000000
  0
VERTEX
  8
1PARCELLE
  5
48f7
 10
503453.100000
 20
6749810.590000
 30
0.000000
  0
VERTEX
  8
1PARCELLE
  5
48f8
 10
503448.230000
 20
6749851.810000
 30
0.000000
  0
VERTEX
  8
1PARCELLE
  5
48f9
 10
503448.100000
 20
6749874.630000
 30
0.000000
  0
VERTEX
  8
1PARCELLE
  5
48fa
 10
503450.050000
 20
6749914.580000
 30
0.000000
  0
VERTEX
  8
1PARCELLE
  5
48fb
 10
503451.850000
 20
6749953.400000
 30
0.000000
  0
VERTEX
  8
1PARCELLE
  5
48fc
 10
503455.990000
 20
6750011.650000
 30
0.000000
  0
VERTEX
  8
1PARCELLE
  5
48fd
 10
503459.180000
 20
6750082.900000
 30
0.000000
  0
VERTEX
  8
1PARCELLE
  5
48fe
 10
503453.410000
 20
6750093.950000
 30
0.000000
  0
VERTEX
  8
1PARCELLE
  5
48ff
 10
503448.210000
 20
6750135.190000
 30
0.000000
  0
VERTEX
  8
1PARCELLE
  5
4900
 10
503441.320000
 20
6750167.250000
 30
0.000000
  0
VERTEX
  8
1PARCELLE
  5
4901
 10
503441.200000
 20
6750172.790000
 30
0.000000
  0
VERTEX
  8
1PARCELLE
  5
4902
 10
503445.270000
 20
6750182.660000
 30
0.000000
  0
VERTEX
  8
1PARCELLE
  5
4903
 10
503444.840000
 20
6750189.680000
 30
0.000000
  0
VERTEX
  8
1PARCELLE
  5
4904
 10
503431.110000
 20
6750213.240000
 30
0.000000
  0
VERTEX
  8
1PARCELLE
  5
4905
 10
503421.610000
 20
6750234.370000
 30
0.000000
  0
VERTEX
  8
1PARCELLE
  5
4906
 10
503418.840000
 20
6750242.060000
 30
0.000000
  0
VERTEX
  8
1PARCELLE
  5
4907
 10
503419.040000
 20
6750248.170000
 30
0.000000
  0
VERTEX
  8
1PARCELLE
  5
4908
 10
503422.170000
 20
6750251.480000
 30
0.000000
  0
VERTEX
  8
1PARCELLE
  5
4909
 10
503441.220000
 20
6750260.050000
 30
0.000000
  0
VERTEX
  8
1PARCELLE
  5
490a
 10
503473.160000
 20
6750266.930000
 30
0.000000
  0
VERTEX
  8
1PARCELLE
  5
490b
 10
503522.370000
 20
6750282.890000
 30
0.000000
  0
VERTEX
  8
1PARCELLE
  5
490c
 10
503532.350000
 20
6750290.250000
 30
0.000000
  0
VERTEX
  8
1PARCELLE
  5
490d
 10
503670.740000
 20
6750452.070000
 30
0.000000
  0
VERTEX
  8
1PARCELLE
  5
490e
 10
503723.340000
 20
6750513.500000
 30
0.000000
  0
VERTEX
  8
1PARCELLE
  5
490f
 10
503727.060000
 20
6750517.830000
 30
0.000000
  0
VERTEX
  8
1PARCELLE
  5
4910
 10
503813.380000
 20
6750619.150000
 30
0.000000
  0
VERTEX
  8
1PARCELLE
  5
4911
 10
503816.650000
 20
6750622.920000
 30
0.000000
  0
VERTEX
  8
1PARCELLE
  5
4912
 10
503899.880000
 20
6750716.790000
 30
0.000000
  0
VERTEX
  8
1PARCELLE
  5
4913
 10
503918.230000
 20
6750737.100000
 30
0.000000
  0
VERTEX
  8
1PARCELLE
  5
4914
 10
503923.040000
 20
6750734.830000
 30
0.000000
  0
VERTEX
  8
1PARCELLE
  5
4915
 10
503938.410000
 20
6750643.680000
 30
0.000000
  0
VERTEX
  8
1PARCELLE
  5
4916
 10
503962.930000
 20
6750500.390000
 30
0.000000
  0
VERTEX
  8
1PARCELLE
  5
4917
 10
503977.460000
 20
6750417.150000
 30
0.000000
  0
VERTEX
  8
1PARCELLE
  5
4918
 10
503992.050000
 20
6750332.040000
 30
0.000000
  0
VERTEX
  8
1PARCELLE
  5
4919
 10
504009.600000
 20
6750231.370000
 30
0.000000
  0
VERTEX
  8
1PARCELLE
  5
491a
 10
504024.120000
 20
6750146.430000
 30
0.000000
  0
VERTEX
  8
1PARCELLE
  5
491b
 10
504032.330000
 20
6750097.450000
 30
0.000000
  0
VERTEX
  8
1PARCELLE
  5
491c
 10
504045.830000
 20
6750018.690000
 30
0.000000
  0
VERTEX
  8
1PARCELLE
  5
491d
 10
504064.470000
 20
6749908.890000
 30
0.000000
  0
VERTEX
  8
1PARCELLE
  5
491e
 10
504087.050000
 20
6749775.850000
 30
0.000000
  0
VERTEX
  8
1PARCELLE
  5
491f
 10
504101.710000
 20
6749689.840000
 30
0.000000
  0
VERTEX
  8
1PARCELLE
  5
4920
 10
504109.690000
 20
6749640.410000
 30
0.000000
  0
VERTEX
  8
1PARCELLE
  5
4921
 10
504104.620000
 20
6749637.920000
 30
0.000000
  0
VERTEX
  8
1PARCELLE
  5
4922
 10
504099.010000
 20
6749629.730000
 30
0.000000
  0
VERTEX
  8
1PARCELLE
  5
4923
 10
504098.210000
 20
6749621.430000
 30
0.000000
  0
VERTEX
  8
1PARCELLE
  5
4924
 10
504023.360000
 20
6749595.430000
 30
0.000000
  0
VERTEX
  8
1PARCELLE
  5
4925
 10
503931.150000
 20
6749563.220000
 30
0.000000
  0
VERTEX
  8
1PARCELLE
  5
4926
 10
503807.350000
 20
6749520.380000
 30
0.000000
  0
VERTEX
  8
1PARCELLE
  5
4927
 10
503712.910000
 20
6749487.620000
 30
0.000000
  0
VERTEX
  8
1PARCELLE
  5
4928
 10
503665.760000
 20
6749471.160000
 30
0.000000
  0
VERTEX
  8
1PARCELLE
  5
4929
 10
503585.200000
 20
6749442.940000
 30
0.000000
  0
VERTEX
  8
1PARCELLE
  5
492a
 10
503495.750000
 20
6749411.360000
 30
0.000000
  0
VERTEX
  8
1PARCELLE
  5
492b
 10
503343.880000
 20
6749358.570000
 30
0.000000
  0
VERTEX
  8
1PARCELLE
  5
492c
 10
503238.610000
 20
6749321.760000
 30
0.000000
  0
VERTEX
  8
1PARCELLE
  5
492d
 10
503217.970000
 20
6749314.650000
 30
0.000000
  0
VERTEX
  8
1PARCELLE
  5
492e
 10
503210.010000
 20
6749322.910000
 30
0.000000
  0
SEQEND
  8
1PARCELLE
  5
492f
  0
POLYLINE
  5
4930
  8
1TROUPARCELLE
 66
    1
 10
0.0
 20
0.0
 30
0.0
 70
     1
  0
VERTEX
  8
1TROUPARCELLE
  5
4931
 10
503202.700000
 20
6749326.230000
 30
0.000000
  0
VERTEX
  8
1TROUPARCELLE
  5
4932
 10
503203.560000
 20
6749330.530000
 30
0.000000
  0
VERTEX
  8
1TROUPARCELLE
  5
4933
 10
503208.310000
 20
6749330.080000
 30
0.000000
  0
VERTEX
  8
1TROUPARCELLE
  5
4934
 10
503207.520000
 20
6749325.650000
 30
0.000000
  0
VERTEX
  8
1TROUPARCELLE
  5
4935
 10
503202.700000
 20
6749326.230000
 30
0.000000
  0
SEQEND
  8
1PARCELLE
  5
4936
  0
TEXT
  5
4937
  8
3PARCELLETEX
  10
503791.770000
  20
6750021.030000
  30
0.000000
  40
2.000000
   1
162
  50
0.000000
   7
STANDARD
  0
POLYLINE
  5
4938
  8
1PARCELLE
 66
    1
 10
0.0
 20
0.0
 30
0.0
 70
     1
1001
SUPF
1000
000011650
1001
INDP
1000
01
1001
IDU
1000
1870000C0164
  0
VERTEX
  8
1PARCELLE
  5
4939
 10
503217.970000
 20
6749314.650000
 30
0.000000
  0
VERTEX
  8
1PARCELLE
  5
493a
 10
503207.710000
 20
6749311.120000
 30
0.000000
  0
VERTEX
  8
1PARCELLE
  5
493b
 10
503201.750000
 20
6749310.280000
 30
0.000000
  0
VERTEX
  8
1PARCELLE
  5
493c
 10
503195.880000
 20
6749310.480000
 30
0.000000
  0
VERTEX
  8
1PARCELLE
  5
493d
 10
503185.480000
 20
6749311.220000
 30
0.000000
  0
VERTEX
  8
1PARCELLE
  5
493e
 10
503177.590000
 20
6749313.330000
 30
0.000000
  0
VERTEX
  8
1PARCELLE
  5
493f
 10
503172.790000
 20
6749313.750000
 30
0.000000
  0
VERTEX
  8
1PARCELLE
  5
4940
 10
503177.870000
 20
6749316.520000
 30
0.000000
  0
VERTEX
  8
1PARCELLE
  5
4941
 10
503182.120000
 20
6749319.520000
 30
0.000000
  0
VERTEX
  8
1PARCELLE
  5
4942
 10
503192.860000
 20
6749335.870000
 30
0.000000
  0
VERTEX
  8
1PARCELLE
  5
4943
 10
503194.480000
 20
6749338.290000
 30
0.000000
  0
VERTEX
  8
1PARCELLE
  5
4944
 10
503210.470000
 20
6749362.200000
 30
0.000000
  0
VERTEX
  8
1PARCELLE
  5
4945
 10
503215.480000
 20
6749369.760000
 30
0.000000
  0
VERTEX
  8
1PARCELLE
  5
4946
 10
503230.180000
 20
6749391.810000
 30
0.000000
  0
VERTEX
  8
1PARCELLE
  5
4947
 10
503244.060000
 20
6749412.020000
 30
0.000000
  0
VERTEX
  8
1PARCELLE
  5
4948
 10
503248.290000
 20
6749418.180000
 30
0.000000
  0
VERTEX
  8
1PARCELLE
  5
4949
 10
503258.830000
 20
6749433.070000
 30
0.000000
  0
VERTEX
  8
1PARCELLE
  5
494a
 10
503262.530000
 20
6749438.450000
 30
0.000000
  0
VERTEX
  8
1PARCELLE
  5
494b
 10
503265.150000
 20
6749441.530000
 30
0.000000
  0
VERTEX
  8
1PARCELLE
  5
494c
 10
503275.880000
 20
6749457.800000
 30
0.000000
  0
VERTEX
  8
1PARCELLE
  5
494d
 10
503279.510000
 20
6749463.400000
 30
0.000000
  0
VERTEX
  8
1PARCELLE
  5
494e
 10
503286.420000
 20
6749474.130000
 30
0.000000
  0
VERTEX
  8
1PARCELLE
  5
494f
 10
503292.060000
 20
6749482.780000
 30
0.000000
  0
VERTEX
  8
1PARCELLE
  5
4950
 10
503300.080000
 20
6749495.180000
 30
0.000000
  0
VERTEX
  8
1PARCELLE
  5
4951
 10
503317.020000
 20
6749518.450000
 30
0.000000
  0
VERTEX
  8
1PARCELLE
  5
4952
 10
503334.570000
 20
6749541.860000
 30
0.000000
  0
VERTEX
  8
1PARCELLE
  5
4953
 10
503336.190000
 20
6749544.120000
 30
0.000000
  0
VERTEX
  8
1PARCELLE
  5
4954
 10
503350.990000
 20
6749564.870000
 30
0.000000
  0
VERTEX
  8
1PARCELLE
  5
4955
 10
503371.250000
 20
6749592.130000
 30
0.000000
  0
VERTEX
  8
1PARCELLE
  5
4956
 10
503378.120000
 20
6749601.190000
 30
0.000000
  0
VERTEX
  8
1PARCELLE
  5
4957
 10
503387.990000
 20
6749612.160000
 30
0.000000
  0
VERTEX
  8
1PARCELLE
  5
4958
 10
503405.320000
 20
6749630.980000
 30
0.000000
  0
VERTEX
  8
1PARCELLE
  5
4959
 10
503408.650000
 20
6749634.510000
 30
0.000000
  0
VERTEX
  8
1PARCELLE
  5
495a
 10
503431.570000
 20
6749658.710000
 30
0.000000
  0
VERTEX
  8
1PARCELLE
  5
495b
 10
503433.910000
 20
6749661.430000
 30
0.000000
  0
VERTEX
  8
1PARCELLE
  5
495c
 10
503436.680000
 20
6749664.620000
 30
0.000000
  0
VERTEX
  8
1PARCELLE
  5
495d
 10
503438.050000
 20
6749667.070000
 30
0.000000
  0
VERTEX
  8
1PARCELLE
  5
495e
 10
503441.700000
 20
6749676.930000
 30
0.000000
  0
VERTEX
  8
1PARCELLE
  5
495f
 10
503444.780000
 20
6749686.810000
 30
0.000000
  0
VERTEX
  8
1PARCELLE
  5
4960
 10
503451.080000
 20
6749706.910000
 30
0.000000
  0
VERTEX
  8
1PARCELLE
  5
4961
 10
503453.130000
 20
6749713.360000
 30
0.000000
  0
VERTEX
  8
1PARCELLE
  5
4962
 10
503453.410000
 20
6749716.810000
 30
0.000000
  0
VERTEX
  8
1PARCELLE
  5
4963
 10
503451.160000
 20
6749737.660000
 30
0.000000
  0
VERTEX
  8
1PARCELLE
  5
4964
 10
503448.230000
 20
6749765.710000
 30
0.000000
  0
VERTEX
  8
1PARCELLE
  5
4965
 10
503445.820000
 20
6749785.750000
 30
0.000000
  0
VERTEX
  8
1PARCELLE
  5
4966
 10
503444.450000
 20
6749796.790000
 30
0.000000
  0
VERTEX
  8
1PARCELLE
  5
4967
 10
503443.380000
 20
6749804.770000
 30
0.000000
  0
VERTEX
  8
1PARCELLE
  5
4968
 10
503442.720000
 20
6749809.810000
 30
0.000000
  0
VERTEX
  8
1PARCELLE
  5
4969
 10
503441.200000
 20
6749823.260000
 30
0.000000
  0
VERTEX
  8
1PARCELLE
  5
496a
 10
503438.550000
 20
6749843.400000
 30
0.000000
  0
VERTEX
  8
1PARCELLE
  5
496b
 10
503438.340000
 20
6749859.960000
 30
0.000000
  0
VERTEX
  8
1PARCELLE
  5
496c
 10
503438.280000
 20
6749873.980000
 30
0.000000
  0
VERTEX
  8
1PARCELLE
  5
496d
 10
503439.470000
 20
6749897.780000
 30
0.000000
  0
VERTEX
  8
1PARCELLE
  5
496e
 10
503441.060000
 20
6749924.000000
 30
0.000000
  0
VERTEX
  8
1PARCELLE
  5
496f
 10
503442.990000
 20
6749955.440000
 30
0.000000
  0
VERTEX
  8
1PARCELLE
  5
4970
 10
503446.170000
 20
6750005.600000
 30
0.000000
  0
VERTEX
  8
1PARCELLE
  5
4971
 10
503447.680000
 20
6750030.170000
 30
0.000000
  0
VERTEX
  8
1PARCELLE
  5
4972
 10
503449.760000
 20
6750071.700000
 30
0.000000
  0
VERTEX
  8
1PARCELLE
  5
4973
 10
503449.700000
 20
6750075.240000
 30
0.000000
  0
VERTEX
  8
1PARCELLE
  5
4974
 10
503448.870000
 20
6750081.030000
 30
0.000000
  0
VERTEX
  8
1PARCELLE
  5
4975
 10
503443.220000
 20
6750086.890000
 30
0.000000
  0
VERTEX
  8
1PARCELLE
  5
4976
 10
503438.870000
 20
6750091.360000
 30
0.000000
  0
VERTEX
  8
1PARCELLE
  5
4977
 10
503440.910000
 20
6750098.900000
 30
0.000000
  0
VERTEX
  8
1PARCELLE
  5
4978
 10
503441.420000
 20
6750101.740000
 30
0.000000
  0
VERTEX
  8
1PARCELLE
  5
4979
 10
503441.470000
 20
6750104.710000
 30
0.000000
  0
VERTEX
  8
1PARCELLE
  5
497a
 10
503440.300000
 20
6750118.980000
 30
0.000000
  0
VERTEX
  8
1PARCELLE
  5
497b
 10
503439.380000
 20
6750125.450000
 30
0.000000
  0
VERTEX
  8
1PARCELLE
  5
497c
 10
503435.620000
 20
6750141.550000
 30
0.000000
  0
VERTEX
  8
1PARCELLE
  5
497d
 10
503431.240000
 20
6750159.090000
 30
0.000000
  0
VERTEX
  8
1PARCELLE
  5
497e
 10
503425.640000
 20
6750173.920000
 30
0.000000
  0
VERTEX
  8
1PARCELLE
  5
497f
 10
503431.890000
 20
6750179.080000
 30
0.000000
  0
VERTEX
  8
1PARCELLE
  5
4980
 10
503435.390000
 20
6750182.330000
 30
0.000000
  0
VERTEX
  8
1PARCELLE
  5
4981
 10
503433.440000
 20
6750186.040000
 30
0.000000
  0
VERTEX
  8
1PARCELLE
  5
4982
 10
503425.680000
 20
6750200.260000
 30
0.000000
  0
VERTEX
  8
1PARCELLE
  5
4983
 10
503419.240000
 20
6750212.020000
 30
0.000000
  0
VERTEX
  8
1PARCELLE
  5
4984
 10
503415.310000
 20
6750219.920000
 30
0.000000
  0
VERTEX
  8
1PARCELLE
  5
4985
 10
503404.660000
 20
6750242.710000
 30
0.000000
  0
VERTEX
  8
1PARCELLE
  5
4986
 10
503404.830000
 20
6750243.190000
 30
0.000000
  0
VERTEX
  8
1PARCELLE
  5
4987
 10
503404.290000
 20
6750254.120000
 30
0.000000
  0
VERTEX
  8
1PARCELLE
  5
4988
 10
503407.770000
 20
6750255.350000
 30
0.000000
  0
VERTEX
  8
1PARCELLE
  5
4989
 10
503410.460000
 20
6750256.640000
 30
0.000000
  0
VERTEX
  8
1PARCELLE
  5
498a
 10
503415.840000
 20
6750259.350000
 30
0.000000
  0
VERTEX
  8
1PARCELLE
  5
498b
 10
503423.920000
 20
6750264.100000
 30
0.000000
  0
VERTEX
  8
1PARCELLE
  5
498c
 10
503430.600000
 20
6750267.650000
 30
0.000000
  0
VERTEX
  8
1PARCELLE
  5
498d
 10
503430.280000
 20
6750268.700000
 30
0.000000
  0
VERTEX
  8
1PARCELLE
  5
498e
 10
503460.150000
 20
6750276.010000
 30
0.000000
  0
VERTEX
  8
1PARCELLE
  5
498f
 10
503467.210000
 20
6750277.480000
 30
0.000000
  0
VERTEX
  8
1PARCELLE
  5
4990
 10
503473.890000
 20
6750278.850000
 30
0.000000
  0
VERTEX
  8
1PARCELLE
  5
4991
 10
503491.650000
 20
6750284.550000
 30
0.000000
  0
VERTEX
  8
1PARCELLE
  5
4992
 10
503510.830000
 20
6750290.680000
 30
0.000000
  0
VERTEX
  8
1PARCELLE
  5
4993
 10
503518.120000
 20
6750293.430000
 30
0.000000
  0
VERTEX
  8
1PARCELLE
  5
4994
 10
503525.490000
 20
6750296.450000
 30
0.000000
  0
VERTEX
  8
1PARCELLE
  5
4995
 10
503529.800000
 20
6750298.760000
 30
0.000000
  0
VERTEX
  8
1PARCELLE
  5
4996
 10
503532.350000
 20
6750290.250000
 30
0.000000
  0
VERTEX
  8
1PARCELLE
  5
4997
 10
503522.370000
 20
6750282.890000
 30
0.000000
  0
VERTEX
  8
1PARCELLE
  5
4998
 10
503473.160000
 20
6750266.930000
 30
0.000000
  0
VERTEX
  8
1PARCELLE
  5
4999
 10
503441.220000
 20
6750260.050000
 30
0.000000
  0
VERTEX
  8
1PARCELLE
  5
499a
 10
503422.170000
 20
6750251.480000
 30
0.000000
  0
VERTEX
  8
1PARCELLE
  5
499b
 10
503419.040000
 20
6750248.170000
 30
0.000000
  0
VERTEX
  8
1PARCELLE
  5
499c
 10
503418.840000
 20
6750242.060000
 30
0.000000
  0
VERTEX
  8
1PARCELLE
  5
499d
 10
503421.610000
 20
6750234.370000
 30
0.000000
  0
VERTEX
  8
1PARCELLE
  5
499e
 10
503431.110000
 20
6750213.240000
 30
0.000000
  0
VERTEX
  8
1PARCELLE
  5
499f
 10
503444.840000
 20
6750189.680000
 30
0.000000
  0
VERTEX
  8
1PARCELLE
  5
49a0
 10
503445.270000
 20
6750182.660000
 30
0.000000
  0
VERTEX
  8
1PARCELLE
  5
49a1
 10
503441.200000
 20
6750172.790000
 30
0.000000
  0
VERTEX
  8
1PARCELLE
  5
49a2
 10
503441.320000
 20
6750167.250000
 30
0.000000
  0
VERTEX
  8
1PARCELLE
  5
49a3
 10
503448.210000
 20
6750135.190000
 30
0.000000
  0
VERTEX
  8
1PARCELLE
  5
49a4
 10
503453.410000
 20
6750093.950000
 30
0.000000
  0
VERTEX
  8
1PARCELLE
  5
49a5
 10
503459.180000
 20
6750082.900000
 30
0.000000
  0
VERTEX
  8
1PARCELLE
  5
49a6
 10
503455.990000
 20
6750011.650000
 30
0.000000
  0
VERTEX
  8
1PARCELLE
  5
49a7
 10
503451.850000
 20
6749953.400000
 30
0.000000
  0
VERTEX
  8
1PARCELLE
  5
49a8
 10
503450.050000
 20
6749914.580000
 30
0.000000
  0
VERTEX
  8
1PARCELLE
  5
49a9
 10
503448.100000
 20
6749874.630000
 30
0.000000
  0
VERTEX
  8
1PARCELLE
  5
49aa
 10
503448.230000
 20
6749851.810000
 30
0.000000
  0
VERTEX
  8
1PARCELLE
  5
49ab
 10
503453.100000
 20
6749810.590000
 30
0.000000
  0
VERTEX
  8
1PARCELLE
  5
49ac
 10
503456.260000
 20
6749809.190000
 30
0.000000
  0
VERTEX
  8
1PARCELLE
  5
49ad
 10
503458.680000
 20
6749806.070000
 30
0.000000
  0
VERTEX
  8
1PARCELLE
  5
49ae
 10
503459.220000
 20
6749800.690000
 30
0.000000
  0
VERTEX
  8
1PARCELLE
  5
49af
 10
503454.940000
 20
6749796.160000
 30
0.000000
  0
VERTEX
  8
1PARCELLE
  5
49b0
 10
503458.520000
 20
6749766.770000
 30
0.000000
  0
VERTEX
  8
1PARCELLE
  5
49b1
 10
503464.140000
 20
6749717.960000
 30
0.000000
  0
VERTEX
  8
1PARCELLE
  5
49b2
 10
503452.120000
 20
6749681.350000
 30
0.000000
  0
VERTEX
  8
1PARCELLE
  5
49b3
 10
503444.800000
 20
6749660.430000
 30
0.000000
  0
VERTEX
  8
1PARCELLE
  5
49b4
 10
503429.430000
 20
6749643.770000
 30
0.000000
  0
VERTEX
  8
1PARCELLE
  5
49b5
 10
503408.330000
 20
6749620.420000
 30
0.000000
  0
VERTEX
  8
1PARCELLE
  5
49b6
 10
503388.200000
 20
6749598.820000
 30
0.000000
  0
VERTEX
  8
1PARCELLE
  5
49b7
 10
503376.540000
 20
6749583.160000
 30
0.000000
  0
VERTEX
  8
1PARCELLE
  5
49b8
 10
503354.960000
 20
6749554.890000
 30
0.000000
  0
VERTEX
  8
1PARCELLE
  5
49b9
 10
503341.470000
 20
6749535.830000
 30
0.000000
  0
VERTEX
  8
1PARCELLE
  5
49ba
 10
503316.190000
 20
6749500.600000
 30
0.000000
  0
VERTEX
  8
1PARCELLE
  5
49bb
 10
503291.290000
 20
6749461.750000
 30
0.000000
  0
VERTEX
  8
1PARCELLE
  5
49bc
 10
503272.890000
 20
6749433.450000
 30
0.000000
  0
VERTEX
  8
1PARCELLE
  5
49bd
 10
503250.610000
 20
6749402.040000
 30
0.000000
  0
VERTEX
  8
1PARCELLE
  5
49be
 10
503216.610000
 20
6749353.720000
 30
0.000000
  0
VERTEX
  8
1PARCELLE
  5
49bf
 10
503196.980000
 20
6749324.740000
 30
0.000000
  0
VERTEX
  8
1PARCELLE
  5
49c0
 10
503202.280000
 20
6749324.930000
 30
0.000000
  0
VERTEX
  8
1PARCELLE
  5
49c1
 10
503210.010000
 20
6749322.910000
 30
0.000000
  0
VERTEX
  8
1PARCELLE
  5
49c2
 10
503217.970000
 20
6749314.650000
 30
0.000000
  0
SEQEND
  8
1PARCELLE
  5
49c3
  0
TEXT
  5
49c4
  8
3PARCELLETEX
  10
503445.770000
  20
6749802.140000
  30
0.000000
  40
2.000000
   1
164
  50
0.000000
   7
STANDARD
  0
POLYLINE
  5
49c5
  8
1PARCELLE
 66
    1
 10
0.0
 20
0.0
 30
0.0
 70
     1
1001
SUPF
1000
000010060
1001
INDP
1000
01
1001
IDU
1000
1870000C0161
  0
VERTEX
  8
1PARCELLE
  5
49c6
 10
504098.210000
 20
6749621.430000
 30
0.000000
  0
VERTEX
  8
1PARCELLE
  5
49c7
 10
504133.100000
 20
6749632.940000
 30
0.000000
  0
VERTEX
  8
1PARCELLE
  5
49c8
 10
504131.770000
 20
6749634.940000
 30
0.000000
  0
VERTEX
  8
1PARCELLE
  5
49c9
 10
504126.770000
 20
6749639.980000
 30
0.000000
  0
VERTEX
  8
1PARCELLE
  5
49ca
 10
504117.260000
 20
6749642.860000
 30
0.000000
  0
VERTEX
  8
1PARCELLE
  5
49cb
 10
504116.310000
 20
6749650.520000
 30
0.000000
  0
VERTEX
  8
1PARCELLE
  5
49cc
 10
504093.730000
 20
6749783.020000
 30
0.000000
  0
VERTEX
  8
1PARCELLE
  5
49cd
 10
504086.860000
 20
6749823.810000
 30
0.000000
  0
VERTEX
  8
1PARCELLE
  5
49ce
 10
504074.500000
 20
6749897.240000
 30
0.000000
  0
VERTEX
  8
1PARCELLE
  5
49cf
 10
504059.200000
 20
6749988.350000
 30
0.000000
  0
VERTEX
  8
1PARCELLE
  5
49d0
 10
504051.950000
 20
6750031.640000
 30
0.000000
  0
VERTEX
  8
1PARCELLE
  5
49d1
 10
504041.430000
 20
6750094.440000
 30
0.000000
  0
VERTEX
  8
1PARCELLE
  5
49d2
 10
504028.790000
 20
6750169.170000
 30
0.000000
  0
VERTEX
  8
1PARCELLE
  5
49d3
 10
504025.000000
 20
6750191.480000
 30
0.000000
  0
VERTEX
  8
1PARCELLE
  5
49d4
 10
504010.190000
 20
6750277.770000
 30
0.000000
  0
VERTEX
  8
1PARCELLE
  5
49d5
 10
503996.260000
 20
6750360.820000
 30
0.000000
  0
VERTEX
  8
1PARCELLE
  5
49d6
 10
503990.500000
 20
6750396.260000
 30
0.000000
  0
VERTEX
  8
1PARCELLE
  5
49d7
 10
503970.260000
 20
6750515.040000
 30
0.000000
  0
VERTEX
  8
1PARCELLE
  5
49d8
 10
503953.540000
 20
6750608.760000
 30
0.000000
  0
VERTEX
  8
1PARCELLE
  5
49d9
 10
503948.770000
 20
6750636.290000
 30
0.000000
  0
VERTEX
  8
1PARCELLE
  5
49da
 10
503936.210000
 20
6750709.460000
 30
0.000000
  0
VERTEX
  8
1PARCELLE
  5
49db
 10
503931.500000
 20
6750736.280000
 30
0.000000
  0
VERTEX
  8
1PARCELLE
  5
49dc
 10
503937.640000
 20
6750739.590000
 30
0.000000
  0
VERTEX
  8
1PARCELLE
  5
49dd
 10
503940.940000
 20
6750745.430000
 30
0.000000
  0
VERTEX
  8
1PARCELLE
  5
49de
 10
503940.050000
 20
6750752.220000
 30
0.000000
  0
VERTEX
  8
1PARCELLE
  5
49df
 10
503936.500000
 20
6750759.370000
 30
0.000000
  0
VERTEX
  8
1PARCELLE
  5
49e0
 10
503929.430000
 20
6750764.590000
 30
0.000000
  0
VERTEX
  8
1PARCELLE
  5
49e1
 10
503929.200000
 20
6750764.770000
 30
0.000000
  0
VERTEX
  8
1PARCELLE
  5
49e2
 10
503924.730000
 20
6750765.920000
 30
0.000000
  0
VERTEX
  8
1PARCELLE
  5
49e3
 10
503917.880000
 20
6750762.770000
 30
0.000000
  0
VERTEX
  8
1PARCELLE
  5
49e4
 10
503917.570000
 20
6750762.630000
 30
0.000000
  0
VERTEX
  8
1PARCELLE
  5
49e5
 10
503914.780000
 20
6750760.240000
 30
0.000000
  0
VERTEX
  8
1PARCELLE
  5
49e6
 10
503911.370000
 20
6750756.340000
 30
0.000000
  0
VERTEX
  8
1PARCELLE
  5
49e7
 10
503909.790000
 20
6750751.930000
 30
0.000000
  0
VERTEX
  8
1PARCELLE
  5
49e8
 10
503911.230000
 20
6750744.350000
 30
0.000000
  0
VERTEX
  8
1PARCELLE
  5
49e9
 10
503912.320000
 20
6750741.960000
 30
0.000000
  0
VERTEX
  8
1PARCELLE
  5
49ea
 10
503918.230000
 20
6750737.100000
 30
0.000000
  0
VERTEX
  8
1PARCELLE
  5
49eb
 10
503923.040000
 20
6750734.830000
 30
0.000000
  0
VERTEX
  8
1PARCELLE
  5
49ec
 10
503938.410000
 20
6750643.680000
 30
0.000000
  0
VERTEX
  8
1PARCELLE
  5
49ed
 10
503962.930000
 20
6750500.390000
 30
0.000000
  0
VERTEX
  8
1PARCELLE
  5
49ee
 10
503977.460000
 20
6750417.150000
 30
0.000000
  0
VERTEX
  8
1PARCELLE
  5
49ef
 10
503992.050000
 20
6750332.040000
 30
0.000000
  0
VERTEX
  8
1PARCELLE
  5
49f0
 10
504009.600000
 20
6750231.370000
 30
0.000000
  0
VERTEX
  8
1PARCELLE
  5
49f1
 10
504024.120000
 20
6750146.430000
 30
0.000000
  0
VERTEX
  8
1PARCELLE
  5
49f2
 10
504032.330000
 20
6750097.450000
 30
0.000000
  0
VERTEX
  8
1PARCELLE
  5
49f3
 10
504045.830000
 20
6750018.690000
 30
0.000000
  0
VERTEX
  8
1PARCELLE
  5
49f4
 10
504064.470000
 20
6749908.890000
 30
0.000000
  0
VERTEX
  8
1PARCELLE
  5
49f5
 10
504087.050000
 20
6749775.850000
 30
0.000000
  0
VERTEX
  8
1PARCELLE
  5
49f6
 10
504101.710000
 20
6749689.840000
 30
0.000000
  0
VERTEX
  8
1PARCELLE
  5
49f7
 10
504109.690000
 20
6749640.410000
 30
0.000000
  0
VERTEX
  8
1PARCELLE
  5
49f8
 10
504104.620000
 20
6749637.920000
 30
0.000000
  0
VERTEX
  8
1PARCELLE
  5
49f9
 10
504099.010000
 20
6749629.730000
 30
0.000000
  0
VERTEX
  8
1PARCELLE
  5
49fa
 10
504098.210000
 20
6749621.430000
 30
0.000000
  0
SEQEND
  8
1PARCELLE
  5
49fb
  0
TEXT
  5
49fc
  8
3PARCELLETEX
  10
504021.860000
  20
6750097.230000
  30
0.000000
  40
2.000000
   1
161
  50
0.000000
   7
STANDARD
  0
POLYLINE
  5
49fd
  8
1PARCELLE
 66
    1
 10
0.0
 20
0.0
 30
0.0
 70
     1
1001
SUPF
1000
000000020
1001
INDP
1000
01
1001
IDU
1000
1870000C0163
  0
VERTEX
  8
1PARCELLE
  5
49fe
 10
503203.560000
 20
6749330.530000
 30
0.000000
  0
VERTEX
  8
1PARCELLE
  5
49ff
 10
503208.310000
 20
6749330.080000
 30
0.000000
  0
VERTEX
  8
1PARCELLE
  5
4a00
 10
503207.520000
 20
6749325.650000
 30
0.000000
  0
VERTEX
  8
1PARCELLE
  5
4a01
 10
503202.700000
 20
6749326.230000
 30
0.000000
  0
VERTEX
  8
1PARCELLE
  5
4a02
 10
503203.560000
 20
6749330.530000
 30
0.000000
  0
SEQEND
  8
1PARCELLE
  5
4a03
  0
TEXT
  5
4a04
  8
3PARCELLETEX
  10
503219.490000
  20
6749335.770000
  30
0.000000
  40
2.000000
   1
163
  50
0.000000
   7
STANDARD
  0
ENDSEC
  0
EOF
