<?xml version="1.0" encoding="UTF-8" standalone="no"?>
<!-- Created with Inkscape (http://www.inkscape.org/) -->

<svg
   width="110mm"
   height="110mm"
   viewBox="0 0 110 110"
   version="1.1"
   id="svg1"
   xml:space="preserve"
   inkscape:version="1.4 (86a8ad7, 2024-10-11)"
   sodipodi:docname="frcadastre_logo.svg"
   inkscape:export-filename="frcadastre_logo.png"
   inkscape:export-xdpi="300"
   inkscape:export-ydpi="300"
   xmlns:inkscape="http://www.inkscape.org/namespaces/inkscape"
   xmlns:sodipodi="http://sodipodi.sourceforge.net/DTD/sodipodi-0.dtd"
   xmlns="http://www.w3.org/2000/svg"
   xmlns:svg="http://www.w3.org/2000/svg"><sodipodi:namedview
     id="namedview1"
     pagecolor="#ffffff"
     bordercolor="#666666"
     borderopacity="1.0"
     inkscape:showpageshadow="2"
     inkscape:pageopacity="0.0"
     inkscape:pagecheckerboard="0"
     inkscape:deskcolor="#d1d1d1"
     inkscape:document-units="mm"
     showguides="false"
     inkscape:zoom="1.3191499"
     inkscape:cx="229.31435"
     inkscape:cy="312.70138"
     inkscape:window-width="1920"
     inkscape:window-height="1017"
     inkscape:window-x="-8"
     inkscape:window-y="-8"
     inkscape:window-maximized="1"
     inkscape:current-layer="layer1" /><defs
     id="defs1" /><g
     inkscape:label="Calque 1"
     inkscape:groupmode="layer"
     id="layer1"
     style="display:inline"><path
       sodipodi:type="star"
       style="display:inline;fill:#ffffff;stroke:#ffffff;stroke-width:0.733629;stroke-miterlimit:3.3;stroke-opacity:1;paint-order:fill markers stroke"
       id="path3-6"
       inkscape:flatsided="true"
       sodipodi:sides="6"
       sodipodi:cx="34.951614"
       sodipodi:cy="43.467743"
       sodipodi:r1="37.571453"
       sodipodi:r2="32.537834"
       sodipodi:arg1="0.72860312"
       sodipodi:arg2="1.2522019"
       inkscape:rounded="0"
       inkscape:randomized="0"
       d="M 62.983871,68.483871 27.303141,80.252454 -0.7291164,55.236326 6.9193574,18.451615 42.600088,6.6830323 70.632345,31.69916 Z"
       transform="matrix(0.87916791,0.97849368,-0.97761073,0.87996195,66.766194,-17.449894)" /><path
       id="path3-2-3"
       style="fill:#ffd42a;stroke:none;stroke-width:0.965;stroke-miterlimit:3.3;paint-order:fill markers stroke"
       d="m 40.742016,15.587507 -0.126721,0.199802 -0.12672,0.199291 -0.0031,0.105776 -0.0031,0.106287 0.371476,0.0884 0.371476,0.0884 0.82522,0.108332 0.82573,0.108333 0.291254,0.08074 0.291253,0.08074 -0.08993,0.145125 -0.08993,0.145636 0.623896,0.162499 0.623896,0.163011 0.577909,0.159944 0.577909,0.160454 0.221762,0.01482 0.223294,0.01482 1.123627,-0.341352 1.123625,-0.34135 0.09657,-0.360257 0.09657,-0.360258 0.002,-0.206446 0.002,-0.205933 h -0.577909 -0.577908 v 0.302003 0.302514 l -0.551339,0.169654 -0.551849,0.169142 -2.785307,-0.630068 z m 12.286313,1.637256 -10e-7,0.211555 v 0.211555 l 0.445057,0.0373 0.445567,0.03628 -0.321404,-0.243235 -0.321916,-0.243235 -0.123654,-0.0051 z m -12.606692,0.742999 -0.214097,0.825271 -0.214098,0.825271 -0.0031,0.104754 -0.0026,0.104752 0.31578,0.08227 0.315781,0.08278 0.08124,-0.310686 0.08124,-0.311201 0.221762,0.0041 0.221761,0.0041 1.485906,0.393473 1.485394,0.393474 0.206433,0.01533 0.205921,0.01482 -2e-6,-0.188047 -3e-6,-0.188048 0.274391,-0.200825 0.27439,-0.200826 -0.09147,-0.238636 -0.09147,-0.238637 -2.122576,-0.486475 -2.122576,-0.486987 h -0.153802 z m 41.640098,3.218812 -0.742441,0.187027 -0.742954,0.187028 0.09198,0.239147 0.09198,0.239147 -3e-6,0.16966 7e-6,0.169652 0.371476,-0.08892 0.370966,-0.0884 0.784341,-0.112931 0.78434,-0.113443 10e-7,-0.393984 10e-7,-0.359747 -0.05978,-0.03424 h -0.445055 z m -5.098474,0.313757 v 0.408802 0.409315 l 0.289209,0.07563 0.288699,0.07563 0.682658,0.01891 0.683169,0.01942 0.06591,-0.454281 0.06592,-0.453772 -1.037783,-0.05008 z m -2.932466,0.01737 -0.07818,0.407781 -0.07767,0.40727 0.141027,-0.08687 0.141538,-0.08738 -3e-6,0.174757 6e-6,0.174767 h 0.722003 0.722003 l 0.516081,-0.103222 0.515572,-0.103223 -10e-7,-0.39194 -10e-7,-0.39194 -1.301444,-10e-7 z m 9.720723,0.09249 -0.102708,0.06643 0.221251,0.0015 z m -3.209924,0.623934 -0.385783,0.07358 -0.385783,0.07359 0.002,0.104754 0.002,0.104754 0.33111,1.072597 0.33162,1.073108 0.06898,0.193672 0.06898,0.193672 0.314759,-0.08227 0.315269,-0.08278 -0.33162,-1.362336 z m -9.174495,0.89528 -0.818066,0.294337 -0.817553,0.293827 0.07716,0.200826 0.07715,0.201336 -0.50535,0.175784 -0.505352,0.176297 -4e-6,0.163007 -4e-6,0.163006 0.160957,0.423112 0.160957,0.423622 0.07664,4e-6 0.07665,-5e-6 1.206915,-0.430264 1.206403,-0.429755 0.127758,-0.118536 0.127212,-0.118576 -0.26826,-0.648463 -0.268771,-0.647952 -0.05727,-0.06078 z m 6.229767,0.404204 -0.68828,0.08789 -0.688278,0.08738 -0.06082,0.05262 -0.06128,0.05216 0.114969,0.767017 0.11548,0.767016 0.560025,-0.06541 0.560535,-0.06541 0.08738,0.227395 0.08738,0.227395 v 0.316822 0.316312 h 0.324977 0.324979 l -0.06387,-0.205935 -0.06387,-0.206447 -0.274904,-1.179396 z m 10.936324,2.401205 -1.368893,0.368434 -1.369404,0.368945 -0.619297,0.246814 -0.618786,0.247327 -10e-7,0.216154 v 0.216155 l 0.100657,0.26266 0.100666,0.262652 0.68368,-0.07205 0.68317,-0.07154 1.320349,-0.494652 1.320862,-0.494652 -0.03372,-0.445595 -0.03424,-0.445595 -0.08226,-0.08278 z m -14.752261,3.15136 -0.430748,0.107823 -0.43075,0.107821 -0.132341,0.234552 -0.13183,0.234551 -0.445567,0.0031 -0.446079,0.0026 -0.207457,0.131834 -0.207459,0.131836 0.106282,0.773659 0.105771,0.77366 h 0.461408 l 0.461407,-5.12e-4 0.05263,-0.369454 0.05263,-0.369457 0.620831,-0.100156 0.62083,-0.100157 0.08634,-0.08638 0.08634,-0.08638 -0.110882,-0.694455 z m 22.661591,3.491689 0.002,0.454282 0.002,0.453772 0.09913,0.371499 0.09964,0.3715 0.21512,1e-6 h 0.215119 l 0.261103,-0.100161 0.261103,-0.100161 v -0.440996 -0.440996 l -0.332131,-0.284118 -0.33162,-0.284628 -0.245778,-1e-6 z m -5.125045,0.29025 -0.903909,0.07461 -0.90442,0.07512 -0.09814,0.09807 -0.0976,0.09811 0.264172,0.908564 0.264173,0.909076 0.994861,-0.335729 0.994862,-0.336241 -0.11037,-0.354125 -0.11037,-0.354637 -0.146648,-0.391429 z m 5.124534,1.690912 v 0.316822 l -10e-7,0.316311 0.100155,0.261119 0.100146,0.261128 h 0.147154 0.147153 l -0.002,-0.205935 -0.002,-0.206445 -0.09964,-0.371499 -0.09913,-0.371501 -0.146134,3e-6 z m 1.22531,1.202391 -0.978,0.166587 -0.226351,0.207989 -0.226351,0.207989 0.278991,1.294885 0.278991,1.294882 0.08584,0.298938 0.08533,0.298426 0.522212,-0.111399 0.193143,-0.0414 -0.0087,-2.28112 -0.0097,-0.0465 -0.08482,-0.397561 0.093,0.0051 z m -16.215684,0.231486 -0.79967,0.215131 -0.799672,0.215644 -0.119578,0.10321 -0.120116,0.103693 0.181907,0.591741 0.181395,0.592255 0.895733,-0.266233 0.895733,-0.265722 -0.0082,-0.12366 -0.0077,-0.123662 -0.0031,-0.289227 -0.0031,-0.288717 -0.147159,-0.231996 z m -5.677406,1.502861 -0.519658,0.104245 -0.519658,0.104244 -0.618786,0.09913 -0.619298,0.09913 v 0.378144 0.378143 l 0.104234,0.270835 0.103723,0.270324 0.204896,-0.0787 0.205407,-0.0787 0.73682,-0.110376 0.736311,-0.110378 0.210009,-0.129795 0.210009,-0.129796 -0.117012,-0.533487 z m 14.433927,0.18345 -0.444546,0.11191 -0.445057,0.111399 0.093,0.370989 0.093,0.370477 -0.740397,0.207468 -0.740909,0.207467 v 0.212578 l -10e-7,0.212577 0.100146,0.261128 0.100155,0.261119 h 0.229936 l 0.229937,5.11e-4 10e-7,-0.321932 v -0.321933 l 0.914128,-0.287695 0.914129,-0.288206 -0.107816,-0.504361 -0.108326,-0.504871 -0.04344,-0.04906 z m 3.014731,0.374565 -0.907485,0.204914 -0.907996,0.204402 0.0138,0.276452 0.0138,0.276452 0.02708,0.341352 0.02759,0.34135 0.288703,-0.0838 0.289213,-0.0838 0.712295,-0.184472 0.712805,-0.183961 -0.112925,-0.527356 -0.112924,-0.527355 -0.02201,-0.02705 z m -8.444827,0.126219 -0.275921,0.105782 -0.27541,0.105782 v 0.229952 0.229951 l 0.206433,-0.0031 0.205922,-0.002 0.197743,-0.12571 0.197743,-0.125711 -0.128251,-0.207469 z m -2.784795,1.012809 -0.688279,0.20338 -0.688279,0.203379 -0.108868,0.109321 -0.109335,0.108856 0.111391,0.507427 0.111391,0.506915 0.149714,-4e-6 0.149202,-3e-6 0.750617,-0.200824 0.750619,-0.200824 -0.105261,-0.500783 -0.10526,-0.500784 -0.108866,-0.118017 z m 7.835238,0.814029 -0.572288,0.23915 -0.572799,0.23915 3e-6,0.117533 3e-6,0.118046 0.241689,0.839579 0.24169,0.84009 0.0884,0.440486 0.0884,0.440995 0.701564,-0.265721 0.701564,-0.265722 0.05823,-0.04091 0.05877,-0.04086 -0.443523,-1.331166 -0.443013,-1.330652 -0.0746,10e-7 z m 4.034121,0.577434 -0.237091,0.02708 -0.237602,0.02708 -0.632582,0.1068 -0.633094,0.1068 0.09658,0.250899 0.09607,0.251411 v 0.409314 0.409314 l 0.784342,-0.11191 0.784341,-0.11191 0.112429,-0.104738 0.112897,-0.104276 -0.123151,-0.577933 z m -7.603257,0.890169 -0.727624,0.281051 -0.727623,0.281564 -0.138993,0.122631 -0.138992,0.122632 0.185992,0.347995 0.186505,0.347482 0.241689,-10e-7 0.24169,10e-7 v -0.223308 -0.22382 l 0.523746,-0.150235 0.523234,-0.150235 0.05161,-0.162501 0.05161,-0.162501 -0.136428,-0.215645 z m 2.276889,0.207467 -0.839526,0.268788 -0.839016,0.268277 0.09862,0.255497 0.09861,0.256017 0.50484,1.444608 0.504841,1.444095 0.0838,2e-6 0.08431,2e-6 0.640758,-0.191627 0.640759,-0.192137 -0.107305,-0.344417 -0.107303,-0.344927 -0.13643,-0.364856 -0.13643,-0.364857 -0.510461,0.177829 -0.509948,0.17783 -0.07259,-0.07253 -0.07207,-0.07254 -0.101172,-0.505894 -0.101172,-0.505893 0.59426,-0.196737 0.594771,-0.196225 3e-6,-0.05876 2e-6,-0.05927 -0.155846,-0.410848 z m -10.877053,0.946378 -0.925369,0.2693 -0.92588,0.268788 v 0.30507 l -10e-7,0.305068 0.100146,0.261128 0.100145,0.261128 0.163512,10e-7 0.162999,2e-6 0.880404,-0.256013 0.880916,-0.256013 -0.17833,-0.528378 -0.177818,-0.527866 -0.0404,-0.05107 z m 7.857211,0.849801 -0.356146,0.184984 -0.355635,0.184985 -0.05466,0.04601 -0.05412,0.04553 0.290742,0.922361 0.290744,0.922361 0.156863,3e-6 h 0.158401 l 0.637693,-0.191115 0.638204,-0.191116 -0.0026,-0.262656 -0.0031,-0.262656 -0.136429,-0.215133 -0.136428,-0.215133 -0.150225,0.02811 -0.149713,0.02862 -0.215119,-0.01993 -0.214609,-0.01942 -0.171686,-0.493119 z m 12.18565,1.287217 -0.2141,0.06438 0.171176,0.642331 0.04598,0.172723 z m -1.097564,1.039897 -0.782808,0.261122 -0.782809,0.261123 -0.04958,0.03932 -0.04904,0.03884 0.108326,0.432311 0.108326,0.432308 0.2003,1e-6 0.200813,-1e-6 0.772078,-0.263167 0.772078,-0.263167 v -0.220243 -0.220241 l -0.248846,-0.248856 z m -3.319271,0.657661 -0.237603,0.09147 -0.237094,0.09096 -7e-6,0.09505 -7e-6,0.09556 0.270305,0.964264 0.270304,0.963753 0.237089,-0.337774 0.236579,-0.337776 -0.269793,-0.812496 z m -13.2265,0.137971 -0.350527,0.109865 -0.351037,0.109866 -0.761859,0.348505 -0.761858,0.348505 0.229426,0.546263 0.229937,0.546262 0.366877,-0.115997 0.366878,-0.115998 0.718937,-0.307624 0.718427,-0.308135 -0.118038,-0.287182 -0.118549,-0.287692 -0.08431,-0.293316 z m 3.896669,2.154903 -0.772078,0.263166 -0.772078,0.263168 -0.347973,0.488518 -0.347971,0.489031 0.29692,0.327512 0.296363,0.328065 0.254464,-0.419535 0.254464,-0.419022 0.271837,10e-7 0.271837,-2e-6 0.576375,-0.240682 0.575865,-0.241194 -0.08022,-0.419534 -0.07971,-0.419534 h -0.199279 z m 6.781616,0.171697 -0.655577,0.177318 -0.655066,0.177319 -0.126206,0.118556 -0.125739,0.119019 0.182928,0.525313 0.183439,0.525311 0.394981,-0.09913 0.395491,-0.09914 0.09198,0.24017 0.09249,0.24068 0.40469,-0.07716 0.404177,-0.07716 10e-7,-0.20389 -10e-7,-0.203891 -0.187527,-0.561082 -0.187526,-0.561082 -0.106255,-0.120621 z m -9.195446,1.488043 -1.205382,1.522791 -1.205381,1.522791 0.525784,0.449688 0.525795,0.449679 0.206431,0.0041 0.206434,0.0046 10e-7,-0.131836 1e-6,-0.131837 -0.191099,-0.191119 -0.190588,-0.190609 0.562069,-0.828337 0.562069,-0.827827 0.536521,0.09607 0.53652,0.09607 -4e-6,-0.112417 -4e-6,-0.11293 -0.257023,-0.257032 -0.257022,-0.257031 0.09606,-0.250391 0.09606,-0.249879 -0.273907,-0.302491 z m 15.761942,0.468079 -0.554405,0.143592 -0.554915,0.144103 v 0.40216 0.40216 l -0.265196,0.109863 -0.265199,0.109351 0.25753,0.83958 0.25753,0.839579 0.337753,-0.0031 0.337752,-0.002 0.218695,-0.138482 0.218185,-0.138482 -0.112925,-0.601962 -0.112924,-0.601451 0.267749,-1e-6 h 0.268259 l -0.107814,-0.701608 -0.107304,-0.701608 -0.04138,-0.05059 z m -20.027021,0.683211 0.08584,0.138995 0.08584,0.138994 -0.407244,0.185495 -0.407755,0.186005 -2e-6,0.179363 -10e-7,0.179364 0.171174,0.319379 0.170661,0.319379 h 0.24169 0.2422 l -1e-6,0.165056 -10e-7,0.165057 0.205922,-0.0031 0.206432,-0.002 0.227382,-0.143592 0.226869,-0.144104 -0.286655,-0.751176 -0.286654,-0.750664 -0.238111,-0.09147 z m 16.854397,1.580536 v 0.177318 0.177318 l 0.103216,0.516116 0.103216,0.515601 0.157376,2e-6 0.157376,2e-6 -0.112924,-0.536554 -0.112925,-0.536042 -0.147672,-0.156877 z m -44.899585,0.396027 v 0.652553 0.652551 l 0.866608,-0.09811 0.867118,-0.0976 0.02197,-0.01839 0.02146,-0.01788 0.114969,-0.536554 0.114969,-0.536555 h -1.003549 z m 17.085868,0.876372 -0.1211,0.180895 -0.121612,0.180896 -0.0026,0.772126 -0.0031,0.771615 0.288699,0.07563 0.28921,0.07563 0.349505,0.01942 0.350526,0.01891 0.102195,-0.619338 0.102194,-0.618825 0.002,-0.353615 0.002,-0.353103 -0.618786,-0.07512 z m -51.090518,0.113953 v 0.137978 l -1e-6,0.137465 0.105743,0.105291 0.10528,0.105759 0.142048,-0.0879 0.142047,-0.0879 -2e-6,-0.155337 8e-6,-0.155347 h -0.24731 z m 28.557693,0.142571 5.1e-4,0.217687 10e-4,0.217688 0.172198,0.619336 0.171687,0.618826 h 0.312714 0.312715 l 0.08993,-0.146148 0.09044,-0.146148 -0.220228,-0.637733 -0.219718,-0.638244 -0.355636,-0.05263 z m 2.806256,0.419024 -0.577909,0.06745 -0.577909,0.06745 -10e-7,0.642331 v 0.642332 h 0.577909 0.577911 v -0.709784 z m -32.797735,0.111397 -1.34641,0.441508 -0.264173,0.08636 0.01073,2.699633 0.915149,-0.307624 0.123686,0.143564 0.123628,0.143105 0.194169,0.683723 0.19417,0.684234 1.022454,-0.318355 1.022455,-0.318355 0.07354,-0.07363 0.07408,-0.07411 -0.478781,-1.665361 -0.478268,-1.665872 -0.454255,0.06592 -0.453742,0.06592 v -0.209512 -0.209 l -0.138987,-0.08585 z m 28.762081,0.349016 -0.601417,0.432817 -0.601928,0.432304 0.579442,0.872283 0.579442,0.872795 0.100155,-10e-4 0.100668,-5.1e-4 0.550829,-0.335727 0.55134,-0.33624 -0.290234,-0.447638 -0.290745,-0.447126 -0.338774,-0.521224 z m -25.002863,4.055326 -0.254975,0.0976 -0.254464,0.09811 8e-6,0.170164 -2e-6,0.170172 0.123659,-0.0031 0.123652,-0.002 0.243222,-0.153302 0.24271,-0.153814 -0.111883,-0.111929 z m -2.106224,0.783368 -0.480825,0.04088 -0.480824,0.04037 -1.708179,0.365367 -0.573821,0.122642 0.0056,1.339851 0.613677,-0.154323 1.403129,-0.351571 0.07,-3e-6 0.07,-3e-6 0.108328,0.577434 0.108325,0.577945 0.327022,10e-7 h 0.32651 l 0.150737,-0.395007 0.150225,-0.395517 0.169639,-0.05877 0.16964,-0.05877 -0.214608,-0.825272 z m 35.789983,1.536589 -0.504839,0.111398 -0.505351,0.110889 -0.07614,0.123661 -0.07665,0.123661 0.0884,0.337774 0.0884,0.337774 0.650468,-0.165055 0.650977,-0.165565 -0.107304,-0.350037 -0.107303,-0.350549 -0.05008,-0.05673 z m 22.921673,0.03168 v 0.330108 l 10e-7,0.330109 0.165047,-10e-7 0.165048,-1e-6 -10e-7,0.990325 v 0.990837 h 0.330088 l 0.330087,-10e-7 V 64.27389 l 10e-7,-0.330108 0.330088,-10e-7 0.330086,10e-7 1e-6,-0.660729 v -0.660216 h -0.23658 l -0.23658,-10e-7 -0.104748,-0.330107 -0.10475,-0.330108 h -0.483891 z m 0.495132,3.136541 v 0.495162 l -10e-7,0.495163 0.660175,-10e-7 0.660176,10e-7 v -0.395006 l 10e-7,-0.395006 -0.261105,-0.100158 -0.261105,-0.100159 h -0.399069 z m -53.835458,0.02913 -0.506373,0.145636 -0.506883,0.145125 -0.0756,0.07566 -0.07613,0.07613 0.115479,0.524291 0.114969,0.524289 0.514548,-0.102712 0.514548,-0.103223 0.130798,-0.13083 0.131333,-0.131311 -0.178329,-0.511516 z m 56.476669,0.135927 v 0.330108 l 10e-7,0.330109 h 0.24731 0.247822 l -10e-7,-0.330109 10e-7,-0.330109 h -0.247822 z m -39.756655,0.780302 -0.264176,0.101175 -0.264176,0.101687 -0.0976,0.253454 -0.09709,0.253454 0.208467,0.250912 0.207945,0.250921 0.391433,-0.367379 0.391424,-0.367901 -0.238112,-0.238129 z m -14.190193,0.176808 -0.511484,0.112421 -0.511481,0.112421 0.0031,0.27543 0.0031,0.275942 0.121103,0.165052 0.121102,0.165053 0.327018,0.180898 0.326516,0.180891 0.300962,-0.07818 0.29943,-0.0787 -0.108326,-0.515091 -0.108326,-0.515092 -0.131358,-0.140491 z m -11.119764,1.189106 0.0051,1.363868 0.223295,-0.023 0.0848,-0.08536 0.08481,-0.08483 -0.109857,-0.58561 -0.109859,-0.5851 -0.173222,-4e-6 z m 2.531354,1.155379 -0.236583,0.09096 -0.236584,0.09044 0.07716,0.404715 0.07716,0.404204 0.187526,-0.01124 0.187014,-0.01176 0.268257,-0.112423 0.26826,-0.111911 -0.139496,-0.371499 -0.138984,-0.3715 -0.156864,-2e-6 z m 19.377575,5.695136 -0.12621,0.981639 -0.12621,0.982149 0.204392,0.129791 0.204393,0.129792 0.288698,0.0031 0.28921,0.002 V 76.076531 75.66364 l -0.149714,4e-6 -0.149714,4e-6 0.177308,-0.577435 0.177307,-0.577944 -0.06899,-0.06694 -0.06899,-0.06694 -0.325489,-0.05672 z m 25.329884,1.733324 v 0.825783 l 10e-7,0.82527 0.577397,10e-7 0.577909,-10e-7 10e-7,-0.564148 v -0.564658 l -0.100146,-0.261128 -0.100155,-0.261119 h -0.477758 z m -37.636635,0.329598 -0.370965,0.0031 -0.371476,0.0026 -0.224319,0.142057 -0.223808,0.142057 0.119567,0.556993 0.119567,0.556995 0.06336,0.108324 0.06336,0.108325 0.344907,-0.08994 0.344394,-0.09096 -0.07409,-0.389896 -0.0746,-0.389386 0.142043,-1e-6 0.142043,-10e-7 v -0.330109 z m 2.558946,0.0077 -0.53652,0.342882 -0.536522,0.342883 2e-6,0.122649 1e-6,0.122136 0.574843,-0.01993 0.574842,-0.01993 0.168641,-0.168609 0.16864,-0.16861 -0.206943,-0.276965 z m 30.620484,1.478845 v 0.424644 0.425154 l 0.28921,-0.05519 0.288699,-0.05519 0.05263,-0.369455 0.05263,-0.369968 -0.341329,10e-7 z m -29.102898,0.01175 -0.147671,0.09147 -0.148181,0.09147 0.187483,0.225392 0.187019,0.225861 -0.110881,0.179361 -0.110882,0.179873 0.199839,0.240128 0.199317,0.240138 h 0.124679 0.124679 l 0.210522,-0.253456 0.210522,-0.253456 -0.463447,-0.483412 z m 33.524846,0.978572 0.100146,0.261128 0.100145,0.261128 10e-7,0.481876 v 0.481877 h 0.485422 l 0.485423,-10e-7 0.08585,-0.1395 0.08635,-0.138996 -0.09811,-0.604007 -0.0976,-0.603494 -0.57382,-1e-6 z m -34.364884,1.154869 -0.158442,0.158367 -0.15844,0.158367 0.189587,0.228915 0.189528,0.228456 -0.107815,0.10731 -0.107347,0.107775 0.300992,0.332636 0.300935,0.332178 0.307094,-0.277986 0.307605,-0.277986 -0.531922,-0.548819 z m 39.570152,0.908565 v 1.073108 1.073108 l 0.06643,-0.536554 0.06643,-0.536554 -0.06642,-0.536554 z m 0.821643,1.320945 v 0.908053 l -10e-7,0.908054 0.06898,-0.454282 0.06898,-0.453772 -0.06898,-0.454281 z m -3.92835,0.567724 -0.123656,0.0051 -0.124168,0.0051 -0.577399,10e-7 -0.577908,-10e-7 v 0.907542 0.908055 l 0.495131,-10e-7 0.495131,5.12e-4 10e-7,-0.236084 v -0.235574 l 0.258552,-0.258566 0.259064,-0.258567 -0.05263,-0.419023 z m -37.864529,0.34084 -0.102706,0.166586 -0.103219,0.166074 0.104238,0.329086 0.10475,0.328575 0.112412,-0.0031 0.112927,-0.002 0.185478,-0.121112 0.185486,-0.121616 -0.138984,-0.371501 -0.138984,-0.370987 -0.160449,2e-6 z m 0.495132,1.485488 -0.102706,0.166586 -0.103217,0.166586 0.104748,0.328576 0.104239,0.328576 0.112414,-0.0026 0.112926,-0.002 0.200304,-0.127236 0.199793,-0.127237 -0.09555,-0.365879 -0.09555,-0.365367 h -0.218695 z m 33.655144,1.320433 v 0.219732 0.220243 l 0.110378,0.109859 0.109816,0.110415 h 0.220228 0.219718 l 10e-7,-0.330109 -10e-7,-0.330108 -0.330087,10e-7 z m 2.131774,0.289229 -0.0833,0.08329 -0.08382,0.08377 0.108836,0.431798 0.108327,0.432309 0.229426,10e-7 0.229937,-10e-7 v -0.418001 -0.41749 l -0.25446,-0.09812 z m -2.626905,0.701097 v 0.247837 0.247325 H 57.5678 57.81511 V 87.137767 86.88993 H 57.5678 Z m 7.472449,0.08227 -0.0031,0.660727 -0.0031,0.660217 0.07511,-0.287184 0.0746,-0.286672 -0.07205,-0.373544 z m 0.830328,0.660727 -0.002,0.825271 -0.002,0.825271 0.07103,-0.368945 0.07103,-0.369455 -0.06898,-0.455815 z m -0.671416,3.961812 -10e-7,0.577946 10e-7,0.577433 0.07562,-0.288717 0.07562,-0.288717 -0.07562,-0.289228 z m 0.83237,0.825273 v 0.743 l 10e-7,0.742999 0.07154,-0.3715 0.07154,-0.371499 -0.07154,-0.371501 z m -0.656599,3.797268 -0.0015,0.825271 -0.002,0.825272 0.07102,-0.368945 0.07103,-0.369455 -0.06949,-0.456327 z m 0.821643,0.495164 1e-6,0.742487 -1e-6,0.143075 0.130302,-0.07562 0.01277,-0.06746 -0.07154,-0.370988 z" /><path
       id="path49"
       style="display:inline;fill:#cccccc;stroke-width:0.999995"
       d="m 54.622819,5.0067954 -0.130797,0.076142 1.296324,0.6781017 1.442487,0.7547565 0.59272,0.4425214 0.593245,0.4420171 6.555759,6.0083819 6.55577,6.007873 -0.05824,0.05824 -0.05775,0.05775 -8.4055,-0.902426 -8.40547,-0.902437 -0.784338,-0.102712 -0.783834,-0.103217 v 0.263164 0.263163 H 52.20797 51.382241 v 0.330109 0.330108 l -0.205915,0.002 -0.20643,0.002 -1.575331,-0.594301 -1.574817,-0.5943 -0.61214,0.361287 -0.612141,0.360763 v 0.23149 0.231481 h -0.2514 -0.250895 l -0.150732,0.371502 -0.150741,0.370988 -1.075092,3.384375 -1.075082,3.384378 -0.742937,5.117193 -0.742968,5.117698 -0.586075,7.930775 -0.5866,7.930785 v 0.117011 0.117021 h -0.180366 -0.180375 l 0.05676,-0.904474 0.05626,-0.903969 -0.412355,-0.0802 -0.41287,-0.0797 -1.69182,-0.110375 -1.69183,-0.109872 -0.0049,-0.01997 -0.0049,-0.01997 -0.229934,-2.394052 -0.229933,-2.393537 -0.970339,-2.393538 -0.969826,-2.394061 0.114967,-1.650534 0.115481,-1.651057 0.285127,-0.708256 0.285118,-0.707731 -0.156872,-0.792061 -0.156357,-0.791547 -5.722377,-7.255231 -3.877245,-4.915853 -0.220234,0.128264 1.878841,2.388939 3.59009,4.565819 0.756237,0.949447 0.756236,0.948933 h -0.08177 -0.08177 l -4.37698,-5.501976 -2.594201,-3.26174 -0.221251,0.129283 3.992221,5.015509 5.595664,7.029367 0.100659,0.619843 0.100659,0.620356 -0.298921,0.769575 -0.298932,0.770079 -0.100144,1.717488 -0.100659,1.717993 0.99231,2.409379 0.992311,2.408874 0.500239,5.116175 0.500239,5.116165 0.06902,0.06902 0.06951,0.06952 0.330593,-0.299444 0.330592,-0.29894 -0.143058,-0.181405 -0.143078,-0.181405 -0.109855,-1.485484 -0.109865,-1.486008 -0.101173,-0.80636 -0.100658,-0.80636 0.725584,0.0976 0.726088,0.09809 1.288671,0.109861 1.288671,0.109872 -0.112416,0.928997 -0.112415,0.928493 -0.186002,0.233537 -0.174244,0.219219 -0.0705,-0.07001 -1.332108,1.032738 -1.332613,1.032738 v 0.05567 0.05567 h 0.07663 0.07614 l 1.328015,-1.016392 1.327491,-1.016897 -0.06744,-0.06793 0.395487,-0.203891 0.412869,-0.21206 -0.165049,0.158919 -0.165039,0.158918 -1.650954,1.319416 -1.650429,1.319921 -0.908006,0.622917 -0.907987,0.623423 0.577909,-0.508963 0.577394,-0.508962 -0.134387,-0.004 -0.1349,-0.004 -0.565144,0.431288 -0.565123,0.430774 0.08326,0.135423 0.08375,0.135414 -0.193131,0.119067 -0.19316,0.119572 0.117538,-0.190601 0.118031,-0.190611 h -0.154834 -0.154311 l -0.183954,0.22178 -0.183945,0.221265 0.122116,0.135414 0.122649,0.134909 -0.216654,-0.125199 -0.216654,-0.125198 -0.278483,0.239658 -0.278492,0.239668 -2.228853,1.164058 -2.228348,1.164067 -4.126608,1.17889 -4.126608,1.177862 -0.197234,0.06596 -0.197234,0.06645 -0.247306,-0.857968 -0.246802,-0.857978 -0.284614,-1.031719 -0.284099,-1.031719 h -0.117527 -0.118032 l -4.092881,0.995952 -2.936045,0.713873 9.89e-4,0.271855 2.942176,-0.722564 3.79652,-0.932073 0.166067,0.002 0.166572,0.002 0.458344,1.609655 0.458858,1.609664 -0.0059,0.165059 -0.0059,0.165049 -3.927327,1.113992 -3.928356,1.115515 H 12.22225 l 0.004,0.933101 6.430579,-1.749172 11.184663,-3.042511 1.205889,-0.542178 1.205899,-0.542178 2.343325,-1.599953 2.343305,-1.599944 2.4266,-1.913716 2.42661,-1.913193 0.0079,-0.349015 0.0079,-0.34953 1.196703,-0.42311 1.196694,-0.423625 0.374544,-0.106282 0.374544,-0.105787 1.853804,-0.215125 1.854308,-0.215135 1.568172,0.137461 1.568172,0.13746 2.228348,0.404718 2.228348,0.404707 2.888524,0.08178 2.889038,0.08178 5.777552,-0.295875 5.777552,-0.29536 0.0526,0.04806 0.0531,0.04806 -1.677512,3.93678 -1.678037,3.936256 -0.388338,0.577945 -0.388337,0.577945 -2.164986,5.856618 -2.164472,5.856103 -0.09295,0.08633 -0.09304,0.08633 0.122126,-0.412382 0.121601,-0.412885 1.95293,-5.321085 1.95294,-5.321075 0.271839,-0.621899 0.271838,-0.621889 1.068952,-2.258124 1.068437,-2.258124 0.146648,-1.037336 0.146647,-1.037346 -0.06487,-0.06487 -0.06437,-0.06437 -7.810188,-0.03016 -7.809704,-0.03016 -3.714253,-0.557495 -3.713739,-0.557001 -2.063813,0.189069 -2.063299,0.189582 -0.990264,0.310698 -0.990253,0.311202 -0.495641,0.221265 -0.495147,0.220752 -2.683627,2.111971 -2.684131,2.111982 H 36.360226 36.19671 v 0.148189 0.148189 l -0.652513,0.388372 -0.651999,0.388362 -0.08019,3.113541 -0.08069,3.114055 -0.38016,0.270322 -0.379656,0.270323 -4.375961,2.998062 -4.375951,2.998567 -0.120089,-0.274406 -0.120069,-0.274417 -0.924865,-3.610241 -0.924855,-3.610746 0.136937,-0.126217 0.136948,-0.126731 2.806246,-0.767528 2.806257,-0.767527 1.783807,-0.723583 1.783798,-0.723583 1.068447,-0.695984 1.068962,-0.696499 -0.07614,-0.07565 -0.07564,-0.07614 -0.713324,0.489541 -0.713323,0.489027 -0.990264,0.494654 -0.990263,0.494653 -1.403124,0.510496 -1.403123,0.50998 -3.054087,0.820669 -3.053562,0.821183 -2.31112,0.605029 -2.31113,0.605544 -1.155302,0.302509 -1.155313,0.302006 -3.088309,0.830379 5.14e-4,0.20849 0.115986,-0.03065 2.641217,-0.696498 0.230447,-0.01938 0.230952,-0.01997 0.538565,2.015914 0.53806,2.015914 -0.899315,0.336744 -0.8988,0.33624 h -0.104743 -0.104752 l -0.260596,0.234041 -0.260596,0.234042 -0.875297,0.331127 -0.871718,0.330109 9.89e-4,0.270837 0.953985,-0.359745 1.122099,-0.424139 0.168619,-0.20491 0.168104,-0.205424 0.944275,-0.297407 0.943771,-0.297912 0.05616,0.071 0.05676,0.0705 0.701052,2.614813 0.701053,2.614803 -0.05419,0.04905 -0.05419,0.04855 -1.815478,0.778256 -1.815993,0.777753 -0.175777,0.07258 -0.175778,0.07258 -1.717885,-3.690981 0.002,0.588674 0.420018,0.890679 0.909015,1.926997 0.226364,0.761911 0.226364,0.761901 -1.524745,0.98368 0.239139,0.136957 1.514521,-0.968868 -0.09245,-0.586627 -0.09196,-0.587151 1.688755,-0.716938 1.688765,-0.717442 1.54109,-0.635694 1.540584,-0.635179 h 0.251905 0.251914 l 4.892545,-3.358312 4.892554,-3.358321 2.10469,-1.441025 2.1047,-1.44154 v -1.69602 -1.695516 l 0.106285,-1.495709 0.106285,-1.495194 0.388852,-0.177322 0.389356,-0.177311 -0.0069,1.688357 -0.0069,1.688862 -0.211542,0.905502 -0.211038,0.904988 0.300454,0.966821 0.300968,0.966306 -5.14e-4,0.604515 v 0.604002 l -0.239643,1.362342 -0.239653,1.361818 -0.480819,0.619338 -0.480315,0.618824 -1.287653,3.548922 -1.287652,3.549437 -1.450644,2.913743 -1.451159,2.913229 -1.296344,0.91368 -1.29582,0.913156 -0.485931,0.116002 -0.485941,0.115488 -1.138444,0.680657 8.335484,4.774309 -0.385272,-0.375586 -1.896728,-1.089469 -1.897242,-1.089458 -0.935069,-0.687806 -0.935079,-0.688321 -0.698502,-0.314267 -0.697987,-0.313763 0.289726,-0.192134 0.289201,-0.19163 0.660176,-0.199293 0.660176,-0.199284 1.238084,-0.86309 1.238084,-0.86308 0.974424,-1.895314 0.974423,-1.895828 1.950893,-4.9552 1.950894,-4.955199 0.55747,-0.495168 0.55747,-0.495158 0.910557,-0.683722 0.910033,-0.683218 0.539593,-0.942802 0.539583,-0.942802 1.492035,-1.593308 1.49255,-1.592794 1.168078,-0.837024 1.168592,-0.837025 0.825225,-0.345445 0.825729,-0.34595 1.815468,-0.345436 1.816003,-0.344932 2.097531,0.190097 2.098055,0.190602 2.383687,-0.189583 2.383677,-0.189069 h 2.666758 2.666767 l 1.5181,0.428737 1.5181,0.428727 0.783824,-0.09098 0.784338,-0.09097 v 0.06032 0.06032 l -0.358189,0.963756 -0.357675,0.963755 -0.103734,0.123152 -0.103724,0.123151 -4.180764,-0.584085 -4.180774,-0.58458 -0.08583,0.08633 -0.08632,0.08583 0.749088,1.724124 0.749078,1.723609 -1.17932,0.484439 -1.178807,0.484429 -8.583818,3.505997 -8.583808,3.505996 -0.259577,0.297407 -0.260082,0.296894 -2.347912,4.312356 -2.348427,4.312356 0.125191,0.202873 0.125695,0.202873 5.342721,7.264427 5.343226,7.264427 -0.09601,0.730228 -0.09601,0.729704 -0.06546,0.06487 -0.06487,0.06546 -0.340816,0.05112 0.378627,0.216657 0.340827,-0.04806 0.05003,-0.962737 0.05003,-0.962727 -0.256502,-0.391427 -0.256512,-0.391428 0.31936,-0.170676 0.319359,-0.170675 h 0.174235 0.174245 l -0.101173,1.526877 -0.101688,1.526877 -0.301976,0.247836 -0.02245,0.01839 0.202346,0.115992 0.163507,-0.05211 0.330088,-0.104749 v -1.728218 -1.727703 l 0.72149,-0.309669 0.721491,-0.309155 1.30196,-0.807388 1.30195,-0.807389 3.705571,-2.785479 3.705562,-2.784974 1.16349,-0.359231 1.162965,-0.358726 1.177284,-0.116002 1.177274,-0.115992 0.102705,2.443108 0.102706,2.443109 0.179357,5.777915 0.01018,0.327043 0.173216,-0.10118 -0.199785,-6.168838 -0.32549,-10.069831 5.14e-4,-3.467164 5.05e-4,-3.46665 0.24169,-0.825267 0.24169,-0.825276 -0.07713,1.238162 -0.07712,1.238162 -0.100659,2.228488 -0.101173,2.228488 0.182926,5.19997 0.182422,5.19998 0.159423,4.704812 0.08988,2.658243 0.851279,-0.496701 -0.02759,-0.720003 -0.244241,-6.311411 -0.168629,-5.115146 -0.168618,-5.115661 0.02304,-1.157422 0.02353,-1.157926 0.12263,1.56827 0.123144,1.568271 0.19928,7.181126 0.199785,7.181136 0.24527,0.385811 0.245784,0.386315 0.440456,-0.101179 0.440457,-0.101684 3.610014,-1.83093 3.610519,-1.831434 0.220748,-0.01375 0.379131,-0.221265 -0.118536,0.02096 -0.602954,0.106292 -3.246713,1.645431 -3.246713,1.644927 -0.659148,0.233013 -0.659671,0.232509 -0.238625,-0.276454 -0.238111,-0.276453 -0.280005,-9.657461 -0.28053,-9.656946 0.159937,-1.073112 0.159937,-1.073103 1.344873,-3.788067 1.344369,-3.788076 0.144087,-0.256518 0.144096,-0.256529 0.111398,0.28923 0.111387,0.288715 h 6.317144 6.317649 l 0.172198,0.207976 0.172712,0.207985 0.376077,1.277508 0.376076,1.278013 h 0.19059 0.191103 l 1.005076,1.856996 1.0056,1.85749 0.649952,1.419063 0.649961,1.419567 0.116499,0.366904 0.1165,0.367408 -3.616659,4.816721 -3.61666,4.81672 -1.944238,2.831985 -1.717381,2.502894 0.498706,-0.290762 1.539557,-2.237684 1.931473,-2.806433 3.47461,-4.647577 3.475114,-4.648092 0.597328,1.181442 0.597318,1.180927 1.537016,2.841181 0.603459,1.116543 0.220727,-0.128768 -1.0153,-1.87436 -2.099577,-3.876985 5.04e-4,-0.359754 5.14e-4,-0.35923 1.443486,-0.820669 1.444009,-0.820164 1.765407,-1.194217 1.764901,-1.194218 0.957555,-0.250387 0.958069,-0.249883 0.19315,0.20133 0.193665,0.200826 1.73679,3.646018 -0.002,-0.545243 -0.38629,-0.812501 v -0.09661 -0.09661 l 0.381693,-0.181405 -9.89e-4,-0.282584 -0.555938,0.253453 -0.609085,-1.231013 -0.609075,-1.231003 -0.3352,0.002 -0.33519,0.002 -0.864054,0.230462 -0.864055,0.229948 -1.282026,0.895277 -1.282026,0.895792 -1.858916,1.101215 -1.85943,1.101206 H 87.28948 87.21492 L 87.062135,76.200198 86.909357,75.910969 86.462256,74.837866 86.015669,73.765267 84.853721,71.619052 83.69126,69.472837 83.398983,69.225515 83.106192,68.977679 82.768956,67.835583 82.431719,66.693488 82.5983,65.915736 82.765376,65.137994 82.086809,62.7654 l -0.678568,-2.372079 -0.09611,-0.323978 -0.09601,-0.323968 0.407767,0.4737 0.407243,0.4737 0.707173,-0.422091 0.707707,-0.421578 0.720472,0.245285 0.720977,0.245789 0.208476,-0.07456 0.208991,-0.07466 0.466007,0.235575 0.466007,0.23506 0.228915,-0.190087 0.229429,-0.190612 0.100145,-0.315285 0.100154,-0.315286 0.277969,0.0049 0.277455,0.0049 0.430242,0.709789 0.430747,0.710293 1.034205,0.219218 1.033692,0.219733 0.725584,-0.396539 0.725575,-0.396026 0.581487,-0.876371 0.582002,-0.876884 0.261615,-0.100151 0.261614,-0.100161 0.560031,0.202359 0.560021,0.202358 0.61572,-0.190611 0.616234,-0.191115 1.320351,-0.634151 0.566666,-0.271856 -0.003,-0.563636 -0.39958,0.271341 -0.652513,0.442532 -0.643317,0.227396 -0.643307,0.226882 h -0.23198 -0.23199 l -0.06595,-0.206442 -0.06645,-0.206443 -0.258549,-0.933091 -0.259063,-0.933606 V 55.95186 55.688183 h 0.320378 0.320378 l 0.0884,-0.143077 0.0879,-0.142573 -0.417981,-1.855968 -0.417972,-1.856471 0.05063,-0.03323 0.05063,-0.03323 1.880373,-0.422596 1.465467,-0.32909 -0.002,-0.608095 -1.347434,0.286164 -1.665766,0.354632 -0.128256,-0.002 -0.127742,-0.002 -0.149208,-0.391942 -0.149199,-0.392456 -0.188552,-0.701601 -0.189057,-0.702124 0.135919,-0.123152 0.135405,-0.123656 1.620291,-0.532982 1.619777,-0.532972 0.06595,0.06596 0.06595,0.06596 0.29636,1.272397 -0.01275,-3.330723 -0.004,-0.01434 -0.251915,-0.901913 0.0879,-0.08791 0.0879,-0.08791 0.07614,-0.004 -0.002,-0.509467 -0.182927,0.07407 -0.156871,0.01276 -0.156358,0.01276 0.156358,-0.147686 0.156871,-0.147675 0.181898,-0.03115 -0.003,-0.602982 -0.459867,0.135927 -0.610617,0.179873 -0.04954,0.327557 -0.04954,0.327548 -3.384165,1.191152 -3.383651,1.191152 -1.981041,0.750667 -1.980528,0.750658 -0.577908,0.119068 -0.577908,0.119067 -1.733212,0.711826 -1.733221,0.711311 -3.218611,1.762452 -3.219116,1.762966 -0.364834,0.355146 -0.365348,0.355147 -0.513015,0.908053 -0.513528,0.907549 0.0532,-0.181919 0.0526,-0.182434 0.881427,-2.064961 0.881428,-2.064457 3.030573,-1.28006 3.030574,-1.279555 0.255997,-0.283099 0.256503,-0.283098 v -0.108329 -0.108843 l -1.009674,-2.436978 -1.009684,-2.437492 -1.062307,-2.888695 -1.061802,-2.88922 -1.239617,-3.961808 -1.240131,-3.961817 -0.88653,-3.61126 -0.887054,-3.61126 0.403674,-0.639778 0.403664,-0.639778 0.28666,0.01078 0.287164,0.01018 -0.371478,0.149722 -0.371479,0.149208 v 0.176807 0.177321 l 0.739378,2.944407 0.739378,2.944398 1.000478,3.492202 1.001002,3.492202 0.92179,2.347041 0.92179,2.347546 1.366854,3.304152 1.366331,3.304152 0.472651,0.987765 0.473156,0.988279 0.327023,0.04648 0.327023,0.04697 3.425555,-1.243778 3.425556,-1.243789 h 0.153292 0.152778 l 2.596247,-0.931044 2.596247,-0.931559 1.335678,-0.809435 0.686241,-0.415446 -9.89e-4,-0.22535 -0.751639,0.442531 -1.23757,0.728181 -0.05567,-0.166592 -0.05567,-0.167096 h -0.237596 -0.238111 l -0.156872,0.412895 -0.156871,0.412886 h -0.06951 -0.06951 l -0.268259,-1.444605 -0.267745,-1.444605 -0.547256,-2.918855 -0.54776,-2.918341 1.229403,-0.115488 1.229393,-0.114974 0.116499,0.18805 0.115995,0.18805 0.469072,2.350611 0.468558,2.350621 0.05211,0.100151 0.05211,0.100161 0.918724,-0.158414 -9.88e-4,-0.288201 -0.165553,0.02245 -0.275418,0.07772 -0.275408,0.07713 -0.08276,-0.29536 -0.08227,-0.295865 -0.440971,-2.117598 -0.440457,-2.117608 0.08069,-0.08069 0.08069,-0.08128 0.113434,0.670947 0.113434,0.670442 0.115995,0.07209 0.116499,0.07159 1.12823,-0.216668 -9.89e-4,-0.2785 -0.942742,0.193162 -0.05616,-0.05617 -0.05616,-0.05617 -0.101687,-0.509467 -0.101687,-0.509477 1.118519,-0.119572 0.13592,-0.01483 -9.89e-4,-0.240163 -1.008665,0.01483 -0.105257,-0.770079 -0.105771,-0.769575 0.05161,-0.05162 0.05161,-0.05162 1.109828,-0.103216 -9.89e-4,-0.269809 -0.239139,0.03115 -1.219178,0.158919 -0.43841,0.0049 -0.43842,0.0049 -0.110883,-1.609664 -0.110873,-1.609654 -0.08069,-0.288725 -0.08128,-0.288715 h 0.49309 0.49309 l 0.130293,-0.05004 -0.430747,-0.246818 -0.209495,0.02047 -1.031654,0.09965 -1.410282,0.108339 -1.410282,0.108329 -0.424617,-2.90608 -0.273885,-0.156881 0.436373,2.936229 -0.07772,0.125713 -0.07871,0.126217 h -0.568199 -0.568198 l -0.0049,-0.206452 -0.0049,-0.206443 -0.237093,-1.73332 -0.237092,-1.73333 -9.88e-4,-0.07713 -0.255494,-0.146142 0.187534,1.422118 0.212046,1.607617 0.0059,0.536552 0.0059,0.536561 h -0.660176 -0.660176 v 0.254985 0.254996 l 0.269287,1.07157 0.268763,1.07158 -0.09097,0.09097 -0.09146,0.09147 -2.364781,0.728181 -2.365285,0.728181 h -0.0971 -0.09759 l -0.962153,-3.306703 -0.962162,-3.306703 0.15176,-0.131844 0.151759,-0.131329 3.438835,-0.949951 3.138391,-0.86666 -0.309135,-0.177321 -0.384768,0.114459 -1.132313,0.336754 -0.312201,-0.0049 -0.312201,-0.0049 0.247307,-0.142059 0.24782,-0.141544 1.196694,-0.335726 0.09354,-0.0261 -0.293295,-0.168125 -1.175751,0.328072 h -0.122115 -0.12264 l -0.07406,-0.205939 -0.07456,-0.206443 -0.222785,-0.942287 -0.293305,-0.167611 0.360751,1.56213 -0.06744,0.06744 -0.06694,0.06695 -2.09141,0.573347 -2.090896,0.573347 h -0.07149 -0.07159 l -0.16147,-0.619339 -0.161459,-0.618824 -0.257531,-1.014335 -0.25753,-1.014345 V 21.89386 21.576528 l 2.157323,-0.534 -1.820087,-1.042447 -0.08889,0.01938 -1.403123,0.186003 -1.403133,0.186001 L 76.854681,20.284671 75.50163,20.177865 74.837875,19.9796 74.17412,19.780821 69.268286,15.158786 64.361937,10.53625 64.063016,10.320611 63.76359,10.104972 v 0.07307 0.07256 l 4.952337,4.654733 4.952337,4.654736 v 0.07258 0.07258 L 65.86828,12.485767 62.435062,9.3078362 59.275214,7.4983745 l 4.984018,4.6005675 7.015131,6.476456 0.577909,0.581524 0.577908,0.581525 L 72.117092,19.57441 71.803863,19.410379 64.893998,13.087221 57.984133,6.7645807 57.283585,6.361907 56.583551,5.9592354 55.655116,5.4824691 54.726682,5.0062139 Z m 8.478047,4.683353 0.413374,0.4179976 0.04805,0.0087 0.04805,0.0087 0.125191,-0.07154 z m -9.303776,8.7902836 8.902663,0.947905 8.903168,0.948428 0.453746,0.08791 0.454251,0.08791 v 0.330108 0.329605 l -2.971306,1.423146 -2.971295,1.423147 v 0.197751 0.198275 l -2.004031,1.182974 -2.004545,1.182974 -0.300444,0.360763 -0.300454,0.361277 -0.890623,2.641384 -0.89011,2.641373 -1.991265,3.10384 -1.991256,3.10384 -0.44812,1.22947 -0.44812,1.22948 -0.101687,-0.01177 -0.101677,-0.01226 -6.025372,-2.160524 -6.024869,-2.160524 -0.06743,-0.05468 -0.06793,-0.05518 0.7736,-5.329776 0.77361,-5.329767 0.809898,-2.464063 0.810393,-2.463548 0.333667,-0.123656 0.333678,-0.123151 1.732707,0.817088 1.732697,0.817613 h 0.142049 0.141545 l 0.474689,-1.486008 0.475203,-1.485452 h 0.203374 0.203365 l 0.108836,-0.495158 0.108836,-0.495682 h 0.798132 0.798656 l 0.06595,-0.197247 z m -5.634474,0.06339 1.538014,0.595833 1.538024,0.595319 -0.07149,0.189068 -0.07159,0.189079 -0.384758,1.197281 -0.384768,1.196768 -0.17373,-0.01483 -0.173731,-0.01434 -1.609553,-0.756284 -1.609563,-0.756284 v -0.384783 -0.38479 h -0.159937 -0.159937 l 0.110369,-0.288715 0.110379,-0.28923 0.520163,-0.536551 0.520173,-0.536551 0.230962,-5.15e-4 z m 32.189162,1.817135 -0.412869,0.139505 -0.412355,0.139498 -0.577909,0.09097 -0.577908,0.09147 -0.412356,-0.131844 -0.412859,-0.131833 0.495127,-0.0179 0.495137,-0.0179 0.907996,-0.08079 z m -6.225671,0.629551 0.925883,0.192144 0.92536,0.192134 v 0.153302 0.153302 h 0.313743 0.314247 l 0.1165,1.006671 0.117003,1.006168 0.370975,-0.071 0.370954,-0.071 0.28667,1.169694 0.287155,1.16917 0.07001,0.175274 0.0705,0.175789 -1.28254,0.300977 -1.283045,0.300987 -0.204897,0.07713 -0.204917,0.07713 -0.0797,-0.223313 -0.0797,-0.223817 -0.65097,-2.640869 -0.65098,-2.641374 0.133872,-0.139507 z m 6.225671,0.488009 0.452718,1.945903 0.452718,1.946418 -0.06645,0.06645 -0.06645,0.06645 -1.211505,0.314781 -1.21204,0.314267 -0.104238,0.003 -0.103724,0.003 L 78.299152,25.354398 78.105488,24.570515 77.943,23.951177 77.780512,23.332353 h -0.406225 -0.406729 v -0.825267 -0.825781 h 0.71894 0.718425 l 0.973395,-0.101179 z m -8.005899,0.698545 h 0.247306 0.24782 v 0.165049 0.165059 h -0.24782 -0.247306 v -0.165059 z m -0.247821,0.202359 0.05676,0.245275 0.05616,0.245284 0.397533,-0.07614 0.397039,-0.07614 0.156357,0.596338 0.155844,0.596337 0.103724,0.429251 0.10321,0.429745 -2.492009,0.932073 -2.492009,0.932587 h -0.06852 -0.06902 l -0.07357,-0.123666 -0.07406,-0.12417 -0.197758,-0.962223 -0.197748,-0.962223 0.107817,-0.107824 0.107808,-0.107815 2.01119,-0.933605 z m 14.031272,2.160524 0.06842,0.05676 0.06902,0.05617 -0.103714,0.10374 -0.10323,0.103217 -1.946286,0.553421 -1.946285,0.552393 -0.20643,0.004 -0.205925,0.004 V 25.84998 l 5.14e-4,-0.124171 2.186957,-0.592767 z M 66.7206,24.653382 h 0.171684 0.17117 v 0.108329 0.108843 l 0.730686,3.069091 0.730687,3.069092 2.138931,7.594022 2.138932,7.593517 0.542658,2.439529 0.543152,2.439529 -0.170151,0.170172 -0.170151,0.170161 -4.686629,0.229444 -4.686629,0.229948 -1.485905,0.06289 -1.485401,0.0624 -2.641207,-0.09913 -2.641217,-0.09859 -2.176734,-0.404203 -2.177257,-0.403689 0.534481,-0.748621 0.534471,-0.748117 0.532434,-0.935138 0.532434,-0.935128 0.906464,-3.02668 0.906463,-3.02667 0.478268,-1.256564 0.478268,-1.256041 1.94681,-3.035876 1.9468,-3.035876 0.874269,-2.534577 0.874278,-2.534578 0.259053,-0.436905 0.258559,-0.436914 2.045422,-1.196769 z m 6.854681,0.349015 0.01889,0.03164 0.01889,0.03164 0.416953,1.788004 0.417467,1.788508 -0.184468,0.06339 -0.183945,0.06339 -2.343829,0.583058 -2.343829,0.583561 h -0.147666 -0.147675 l -0.29381,-1.399127 -0.293295,-1.399128 0.01019,-0.111908 0.01078,-0.111909 2.522661,-0.955577 z m 7.706465,0.773659 0.08484,0.08484 0.08484,0.08484 1.05055,3.599502 1.051075,3.599513 -0.03273,0.0266 -0.03224,0.02709 -1.188012,0.266743 -1.188506,0.267257 h -0.164031 -0.16402 L 80.708362,33.608776 80.632722,33.48512 79.6256,30.0246 78.618467,26.564081 V 26.4578 26.351519 l 1.331594,-0.287697 z m 10.192856,0.166078 0.04647,0.444568 0.05161,0.174256 0.05162,0.174759 1.071503,-0.09404 -0.308107,-0.176807 -0.264689,0.002 -0.278483,0.002 -0.04242,-0.339305 z m -72.994841,0.135927 -0.239139,0.139498 0.622879,0.963755 v 0.363839 0.363324 l 0.468043,1.136982 0.46755,1.136983 0.626448,2.063943 0.625934,2.063429 0.805805,2.205497 0.806309,2.206001 0.241186,0.435372 0.24169,0.435887 1.406703,5.104417 1.406702,5.104931 -0.05567,0.05567 -0.05567,0.05518 -5.597177,1.668421 -5.597187,1.668432 -0.330088,-0.0069 -0.330087,-0.0069 -1.820591,-0.736349 9.89e-4,0.2555 1.973882,0.786434 h 0.192122 0.192132 l 5.82099,-1.730255 5.820989,-1.730264 0.04598,-0.04549 0.04598,-0.04598 -1.48284,-5.358384 -1.482839,-5.35787 -0.149209,-0.179368 -0.148694,-0.179872 -0.813468,-2.223376 -0.812954,-2.223376 -0.691857,-2.224908 -0.691856,-2.224918 -0.475203,-1.238162 -0.475203,-1.238162 -0.09047,-0.443036 -0.09047,-0.44355 z m 59.932881,0.624441 0.433307,1.533018 0.432794,1.533008 v 0.14819 0.148189 l -0.371469,0.09661 -0.371479,0.0971 -1.09195,0.3158 -1.091941,0.3158 -0.432794,-1.613243 -0.432289,-1.613234 -0.09048,-0.23506 -0.08988,-0.23507 1.55335,-0.24579 z m 16.350064,1.87794 0.107304,1.461474 0.106809,1.461979 0.07762,0.371502 0.07713,0.371502 h -0.333144 -0.333153 v 0.16505 0.165059 h -0.56361 -0.563611 l -0.104742,-1.279556 -0.104743,-1.279041 -0.08889,-0.619338 -0.08889,-0.618824 H 93.357 93.76373 l 0.499734,-0.100161 z m -1.985619,0.181405 0.120078,1.833995 0.119565,1.833995 -0.05982,0.05261 -0.05982,0.0532 -1.692344,0.116507 -1.69183,0.116506 -0.07614,-0.219733 -0.07663,-0.219723 -0.397029,-1.593318 -0.397019,-1.593308 1.670364,-0.107311 1.670364,-0.10731 0.435354,-0.08277 z m 3.669272,0.02808 v 0.364343 0.739929 l 0.107304,0.538094 0.107818,0.537569 0.990768,-0.07466 -0.002,-0.292799 -0.874259,0.03016 v -1.091506 -0.562103 z m -22.056087,0.152788 0.114452,0.125198 0.113958,0.124685 1.009674,3.275534 1.009179,3.275525 v 0.195209 0.1952 l -2.599826,0.534 -2.599827,0.535019 -0.12877,-0.002 -0.129274,-0.002 -0.08326,-0.217686 -0.08385,-0.217182 -0.897268,-3.203991 -0.897782,-3.203476 0.119574,-0.106806 0.119565,-0.106292 2.466973,-0.600421 z m 4.961028,1.34036 0.06081,0.06131 0.06131,0.06081 0.490539,1.681198 0.490539,1.680693 -0.06081,0.06081 -0.06081,0.06081 -1.198227,0.25193 -1.198236,0.25192 h -0.24169 -0.242194 l -0.07307,-0.205939 -0.07258,-0.206442 -0.429214,-1.37767 -0.429214,-1.377155 0.06902,-0.06952 0.06951,-0.06902 1.38218,-0.401652 z m 9.642536,1.514101 0.103734,0.413914 0.103724,0.413409 -0.132854,0.131834 -0.132854,0.132348 -2.284036,0.834473 -2.284047,0.834977 h -0.05211 -0.05211 l -0.183441,-0.526336 -0.18344,-0.526327 0.125715,-0.115488 0.126199,-0.116002 2.422527,-0.738396 z m 7.204703,0.871772 0.04954,0.757313 0.04904,0.756799 -0.523742,0.104749 -0.524267,0.105273 h -1.152237 -1.152752 l 0.09502,-0.247836 0.09502,-0.247836 h -0.159927 -0.159937 v -0.330109 -0.330108 h 0.73478 0.73477 l 0.131835,-0.233024 0.131826,-0.233527 0.825739,-0.05063 z m -2.723475,0.05013 0.370974,0.07149 0.371469,0.07159 h -0.742443 -0.742957 l 0.371478,-0.07159 z m -1.073035,0.07149 0.03728,0.0271 0.03728,0.02759 0.155329,1.062888 0.155339,1.062888 0.7639,4.044594 0.763396,4.044595 0.03421,0.219733 0.03372,0.220237 -0.825225,0.317333 -0.825215,0.317333 -0.289211,0.09246 -0.288697,0.09305 v -0.07921 -0.07871 l -1.398021,-5.495341 -1.397507,-5.494816 0.04341,-0.04391 0.0439,-0.04341 1.477728,-0.14717 z m -3.363727,0.307632 0.06289,0.193667 0.06289,0.193667 0.504837,1.93109 0.504323,1.931585 v 0.07258 0.07258 l -0.592721,0.11088 -0.593244,0.111404 0.0971,0.386315 0.0971,0.386829 -0.519155,0.180901 -0.51863,0.180891 h -0.144611 -0.1446 l -0.173731,-0.454279 -0.17373,-0.453775 -0.649962,-1.882537 -0.649961,-1.882024 0.04341,-0.02759 0.0439,-0.02808 1.371966,-0.512027 z m -5.447978,0.334707 0.159937,0.420549 0.159422,0.420045 -0.05112,0.05162 -0.05161,0.05112 -2.305503,0.512542 -2.305503,0.512532 -0.629524,0.14104 -0.629513,0.14104 -0.181394,-0.398587 -0.181393,-0.398072 0.0966,-0.09661 0.0966,-0.09602 2.199733,-0.468587 2.200246,-0.468588 0.711781,-0.161994 z m 2.373977,0.8498 1.251878,3.563222 1.252392,3.563231 -0.509435,0.182938 -0.509444,0.182937 -0.339284,0.106806 -0.338779,0.10731 -1.209973,-3.555567 -1.210497,-3.555054 0.06388,-0.05518 0.06338,-0.05468 0.742947,-0.243238 z m -51.705215,0.247322 0.139489,0.220237 0.140012,0.220247 0.003,0.598385 0.003,0.598384 -0.239643,0.680153 -0.240168,0.680657 -0.111397,1.616813 -0.111377,1.616813 0.841569,2.130889 0.840551,2.130878 -0.05369,0.05369 -0.05369,0.05369 -0.866616,-2.108401 -0.866605,-2.108916 0.108836,-1.775742 0.108836,-1.775732 0.256512,-0.613207 0.255988,-0.613207 -0.07713,-0.802781 z m 49.750238,0.01434 0.317313,1.038355 0.316798,1.038879 v 0.146656 0.147171 l -2.776622,0.864613 -2.776613,0.864109 -0.134386,-0.351062 -0.134387,-0.351063 -0.411336,-1.010251 -0.411327,-1.010251 2.827208,-0.622404 2.827199,-0.622918 0.177825,-0.06596 z m -7.314557,1.82122 0.120078,0.128254 0.120069,0.128264 0.820113,2.311275 0.820617,2.31076 -0.0445,0.05211 -0.04449,0.05211 -2.533914,0.707732 -2.533904,0.707741 -0.332639,0.105778 -0.333153,0.105777 -0.752153,-2.681748 -0.752668,-2.681234 0.260092,-0.120086 0.259567,-0.120086 2.463393,-0.503336 z m 8.239412,0.787453 -0.07307,0.218714 -0.07258,0.218704 -2.627414,0.877904 -2.626909,0.877399 h -0.127742 -0.127742 v -0.241705 -0.241706 l 2.352006,-0.739938 2.352511,-0.739425 0.475717,-0.114974 z m -41.888435,0.249883 6.024869,2.145197 6.024868,2.144682 0.05003,0.04549 0.05003,0.04549 -0.835439,2.78446 -0.835439,2.783946 -0.437391,0.825267 -0.437392,0.825277 -0.649447,0.937175 -0.649447,0.93667 -2.172136,-0.01375 -2.171631,-0.01434 -1.485904,0.268276 -1.485401,0.268275 -1.062821,0.418512 -1.063325,0.418513 h -0.04855 -0.04904 l 0.08939,-0.949437 0.08939,-0.948943 0.471634,-6.410533 0.472137,-6.410543 0.05517,-0.04954 z m 47.045165,0.326014 0.108322,0.106806 0.108322,0.106282 0.819094,3.237217 0.81857,3.237206 -0.858942,0.270827 -0.859447,0.270837 H 90.113384 89.99995 l -0.175777,-0.453775 -0.175768,-0.454278 -0.578422,-1.650544 -0.577909,-1.651057 -0.234026,-0.732779 -0.233513,-0.733284 0.125181,-0.113441 0.1252,-0.113955 0.62541,-0.199808 0.62543,-0.199798 -0.100135,-0.316314 -0.100669,-0.316314 0.383236,-0.146657 z m -5.167972,0.09711 0.124172,0.14104 0.124162,0.140526 0.442504,1.219759 0.442493,1.219255 -0.04598,0.04292 -0.04548,0.04292 -2.658066,0.911119 -2.658076,0.911633 -0.520688,-1.265761 -0.521181,-1.265751 9.89e-4,-0.169144 9.88e-4,-0.168629 2.657058,-0.87995 z m 1.16348,3.005726 h 0.06289 0.06229 v 0.234041 0.234032 l -1.333631,0.444064 -1.334155,0.444578 0.106285,0.435887 0.106285,0.435886 0.08434,0.347987 0.08375,0.347483 -1.17676,0.4364 -1.176769,0.4364 -0.03224,-5.14e-4 h -0.03164 l -0.368413,-0.938717 -0.3679,-0.938204 0.04341,-0.04341 0.0439,-0.04391 2.614134,-0.916231 z m 0.290239,0.682189 v 0.03985 0.03985 l 0.741929,2.040952 0.741929,2.040952 -0.04697,0.04697 -0.04707,0.04697 -2.262065,0.832426 -2.26258,0.832426 H 83.0962 82.950571 l -0.1676,-0.206443 -0.1676,-0.206452 -0.492576,-1.092524 -0.49308,-1.092524 1.310127,-0.456326 1.309623,-0.455821 -0.08227,-0.214107 -0.08227,-0.214106 -0.106809,-0.569777 -0.10679,-0.569767 1.252906,-0.421063 z m -8.084597,0.142563 h 0.273361 0.272866 l -0.101173,0.101694 -0.101677,0.101693 -1.678551,0.467569 -1.678541,0.468074 -0.05725,0.05725 -0.05725,0.05725 0.239643,0.90039 0.239644,0.90039 0.002,0.02907 0.002,0.02967 -0.892156,0.259594 -0.892156,0.259079 h -0.228411 -0.2284 l -0.274904,-1.025588 -0.274389,-1.026093 0.03322,-0.03164 0.03322,-0.03224 2.684645,-0.757817 z m 10.215342,0.0353 0.503818,1.320435 0.504333,1.31992 0.09403,0.375586 0.09453,0.375596 -0.785367,0.267762 -0.784852,0.267257 h -0.01177 l -0.01226,-5.14e-4 -0.601926,-1.70675 -0.60243,-1.70675 0.801197,-0.256528 z m -9.973652,0.459906 h 0.189571 0.18957 l 0.273886,0.685255 0.273875,0.684741 -0.13234,0.122133 -0.13234,0.122133 -1.516567,0.431288 -1.516567,0.430774 h -0.161974 -0.161974 l -0.166581,-0.781836 -0.167086,-0.782351 0.05468,-0.05419 0.05419,-0.05468 1.45984,-0.401642 z m 0.946322,1.785956 0.13489,0.138994 0.135415,0.138993 0.744994,1.815592 0.745509,1.816107 -0.279502,0.28208 -0.279501,0.282584 -1.715848,0.749135 -1.715838,0.74964 h -0.03836 -0.03836 l -0.605496,-2.419604 -0.605505,-2.419089 0.131321,-0.11447 0.130807,-0.113955 1.627954,-0.452746 z m 16.858481,0.351567 0.158404,0.158414 0.158404,0.158414 -0.08988,0.233014 -0.08939,0.233023 -2.449599,0.851837 -2.44959,0.851333 -0.516594,0.09859 -0.516593,0.09859 -0.121098,-0.196218 -0.121107,-0.196228 0.142564,-0.142059 0.14205,-0.142058 2.876263,-1.003102 z m 0.460894,0.421588 0.14206,0.330098 0.141535,0.330109 0.01177,0.206453 0.01177,0.206442 h -0.165049 -0.165049 l 0.01127,-0.536551 z m -21.513943,0.412371 h 0.226868 0.226878 l 0.585057,2.470707 0.584553,2.470193 -1.045448,0.418512 -1.044934,0.418513 h -0.05369 -0.0531 l -0.541115,-2.427782 -0.540612,-2.427781 -0.07614,-0.198265 -0.07614,-0.198275 0.903902,-0.262649 z m -39.775568,0.08277 0.187534,0.29178 0.18701,0.291781 -0.06437,0.616273 -0.06437,0.615758 -0.02808,-0.605533 -0.02759,-0.605544 -0.09502,-0.302005 z m 61.101483,0.04697 v 0.347997 0.347997 h 0.12876 0.128761 l 0.199795,0.529392 0.199785,0.529402 -0.122116,0.110376 -0.12264,0.110376 -1.650429,0.53758 -1.650954,0.538084 -0.17731,0.138993 -0.1773,0.138993 -0.289725,-0.918268 -0.289726,-0.918793 0.07614,-0.07565 0.07564,-0.07614 1.546715,-0.555962 1.546706,-0.555973 0.288707,-0.113955 z m -6.899651,1.356202 h 0.230952 0.230438 v 0.217181 0.217686 l -0.889586,0.280538 -0.889604,0.280547 -0.922809,0.492607 -0.923332,0.492093 h -0.155844 -0.156357 l -0.05824,-0.288716 -0.05824,-0.288715 1.796572,-0.701611 z m 2.819536,0.247331 0.633093,1.981157 0.632579,1.981166 0.004,0.172208 0.004,0.171695 -0.745509,0.199293 -0.746022,0.199798 H 92.16466 92.015461 l -0.673979,-2.02255 -0.67397,-2.022549 V 47.33224 47.14776 l 0.619299,-0.09913 0.618785,-0.09913 0.312715,-0.04648 z m -56.616685,0.16505 0.06902,0.456326 0.06951,0.456325 -0.07149,0.369465 -0.071,0.368941 0.002,-0.825276 z m 54.316294,0.250397 0.05211,0.05211 0.05211,0.05211 0.722509,2.169721 0.722519,2.170234 -0.870185,0.252949 -0.870185,0.252938 h -0.227382 -0.227382 l -0.636672,-1.939762 -0.636673,-1.939773 -0.07001,-0.187536 -0.07001,-0.18805 1.029607,-0.347483 z m -4.38669,0.804827 0.266202,0.781322 0.266232,0.781332 v 0.04905 0.04905 l -1.278971,0.370988 -1.279465,0.370988 -0.424626,0.462971 -0.424112,0.462961 -0.314247,-0.346969 -0.313734,-0.346968 -0.458343,-0.270837 -0.458344,-0.270827 v -0.261631 -0.261126 l 1.69183,-0.67861 1.69183,-0.67862 0.518126,-0.106282 z m 2.109802,0.05004 0.703099,2.075186 0.70309,2.075186 -0.181394,0.112423 -0.181394,0.111908 -3.167511,0.878418 -3.167006,0.878417 -0.604477,0.377633 -0.603964,0.377633 -0.08741,-0.22791 -0.08741,-0.228416 0.173217,-0.631095 0.173226,-0.6316 0.236578,-0.459391 0.236578,-0.459391 0.138984,0.08633 0.139499,0.08633 0.203878,-0.246303 0.203869,-0.245799 -0.18344,-0.221266 -0.183945,-0.22177 0.0971,-0.0971 0.0971,-0.0971 0.258044,0.09913 0.257531,0.09859 0.345414,-0.425662 0.34491,-0.425661 1.444514,-0.437419 1.444009,-0.437419 v -0.0618 -0.0618 l -0.160451,-0.42311 -0.160955,-0.422606 0.784338,-0.397558 z m -51.878945,0.875866 0.07149,0.371502 0.07159,0.371492 -0.07159,0.371502 -0.07149,0.371502 v -0.743004 z m 44.821404,0.900894 0.470605,0.468598 0.470091,0.468587 0.322425,0.179359 0.322424,0.179367 -0.2187,0.263678 -0.218691,0.263678 0.208467,0.251415 0.208486,0.250902 -0.229429,-0.08583 -0.229943,-0.08534 -0.642793,1.225387 -0.642813,1.2259 0.272857,0.272874 0.272857,0.272883 -0.08177,0.132853 -0.08227,0.132358 0.183955,0.527355 0.183945,0.527355 -0.632075,0.647441 -0.632064,0.646927 H 79.98386 79.765674 l -1.19261,0.600946 -1.192096,0.600421 -2.692822,0.554954 -2.693327,0.554954 h -0.317797 -0.317837 l 0.42258,-0.948933 0.422065,-0.949446 0.665278,-1.568271 0.665298,-1.568271 0.437381,-0.712339 0.437401,-0.711826 1.073036,-0.589702 1.073035,-0.589702 2.170613,-1.219256 z m -44.656365,0.915213 0.07159,0.373035 0.07258,0.373539 -0.07515,0.287182 -0.07515,0.286679 0.003,-0.660218 z m 57.763286,0.886081 0.0439,0.05211 0.0439,0.05211 0.10935,0.606562 0.109865,0.606048 -0.949902,0.197247 -0.950405,0.197246 -0.210514,0.08069 -0.210513,0.08069 -0.02452,-0.43027 -0.02502,-0.430259 -0.01632,-0.197247 -0.01632,-0.197246 1.04799,-0.309165 z m -44.85001,0.49414 3.466432,0.514065 3.466432,0.514074 2.929905,0.100666 2.929915,0.100665 V 53.962981 54.498 l -0.164021,1.70931 -0.16402,1.709816 -0.09245,0.693432 -0.09245,0.693433 -0.940192,-0.01325 -0.940181,-0.01276 -2.726036,0.125703 -2.72655,0.125703 -2.186957,-0.193152 -2.187472,-0.193677 -1.276399,0.398587 -1.275896,0.398586 -0.778722,0.112413 -0.778722,0.112423 -0.104238,-0.463475 -0.104753,-0.463485 -0.259063,-0.859511 -0.259063,-0.860015 0.234541,-0.956092 0.234027,-0.956082 -0.0059,-1.51513 -0.0059,-1.515634 0.500753,-0.08791 0.500753,-0.08791 1.403123,-0.100151 z m 42.411139,0.18805 h 0.02403 0.02353 l 0.212056,1.238162 0.211542,1.238162 h 0.06645 0.06694 l 1.07355,-0.269809 1.074064,-0.269808 -0.103734,-0.473196 -0.104239,-0.473185 h 0.144097 0.144096 l 0.195187,0.93054 0.195188,0.930025 -0.0884,0.142563 -0.0879,0.143087 H 94.390753 94.17052 l -0.0884,-0.229957 -0.0879,-0.229948 -2.507335,0.720003 -2.506831,0.720003 -0.28665,0.09098 -0.287174,0.09097 -0.433802,-1.519728 -0.433822,-1.519718 0.06951,-0.06952 0.06951,-0.06952 1.94322,-0.560067 z m -46.560746,0.165049 h 0.07357 0.07307 l -0.08177,1.856996 -0.08128,1.85749 -0.234551,0.528384 -0.234531,0.528373 -0.203365,-0.32551 -0.203879,-0.325511 -0.391402,-1.811508 -0.391917,-1.810995 0.83799,-0.248854 z m -2.017321,0.596347 0.150751,0.238126 0.150208,0.23864 0.003,0.288715 0.002,0.288715 -0.04084,-0.0069 -0.04143,-0.0069 -0.577918,-0.307622 -0.577899,-0.307622 0.465997,-0.212583 z m 27.626201,0.20849 0.642289,0.01018 0.642803,0.01019 -0.09964,0.951998 -0.09964,0.951493 -1.077129,2.256077 -1.077119,2.256077 -0.153816,0.09503 -0.153807,0.09503 -0.714836,0.07258 -0.71536,0.07258 -1.320866,-0.399091 -1.320342,-0.399091 -1.69183,-0.0049 -1.692334,-0.0049 5.04e-4,-0.288716 9.89e-4,-0.289229 0.252418,-2.633206 0.252933,-2.633205 0.03935,-0.03936 0.03935,-0.03936 4.123029,-0.02047 z m 23.104097,0.04391 0.123638,0.194695 0.123658,0.194686 0.003,0.186517 0.003,0.187032 -0.733752,0.18447 -0.734266,0.18447 h -0.174244 -0.174749 v -0.399091 -0.39909 l 0.781787,-0.167107 z m -6.401469,0.306604 0.356153,1.299481 0.356142,1.298966 v 0.269304 0.26879 h -0.234017 l -0.234531,9.89e-4 -0.250896,0.09602 -0.250876,0.09661 -0.187019,-0.715406 -0.186506,-0.715405 -0.236578,-0.815566 -0.236074,-0.815042 0.20644,-0.131329 0.206944,-0.13133 0.345414,-0.003 z m -45.538297,0.03115 0.81858,0.379165 0.81857,0.37968 0.205925,1.09201 0.20643,1.092524 0.474185,0.6546 0.474184,0.654591 0.306584,1.144142 0.307099,1.144646 -1.446561,1.002588 -1.447075,1.002588 -0.751639,0.952512 -0.751649,0.952512 -0.832364,0.712854 -0.831859,0.71234 -0.591198,1.02098 -0.591188,1.020476 -0.882446,0.619338 -0.882456,0.618824 H 36.2846 36.18908 l 0.07772,-0.371502 0.07821,-0.371502 0.167096,-0.848258 0.167086,-0.848781 -0.305052,-1.574916 -0.305052,-1.57542 0.24169,-1.042962 0.242205,-1.042953 -0.100155,-0.629049 -0.09963,-0.629048 0.107303,-1.047551 0.107304,-1.047561 2.604414,-2.063439 z m 44.230226,0.29894 0.195178,0.784387 0.194683,0.783883 0.250885,0.87381 0.2514,0.873305 0.357676,-0.102712 0.357685,-0.102198 0.309649,-0.08692 0.30965,-0.08742 -0.105257,0.170162 -0.105257,0.170162 -0.507912,0.111404 -0.508416,0.111908 0.101163,0.354632 0.101687,0.355147 0.104239,0.479831 0.104248,0.479326 -0.184469,-0.113955 -0.184973,-0.11446 -0.315276,0.3158 -0.31578,0.315286 -0.0618,0.16761 -0.0618,0.167097 -1.073035,-0.151769 -1.073035,-0.15177 -0.422065,-0.233013 -0.422066,-0.233023 -0.485931,0.397568 -0.485931,0.398063 -0.09914,0.0059 -0.09965,0.0059 -0.765433,-0.974484 -0.765947,-0.974999 0.579441,-0.508448 0.579441,-0.508953 0.14563,-0.382231 0.145114,-0.381727 -0.08276,-0.43282 -0.08276,-0.432811 0.535499,-0.276968 0.535499,-0.276453 1.338229,-0.392961 1.338753,-0.39296 0.186506,-0.004 z m 11.737012,0.915717 -0.307613,0.10731 v 0.217686 0.217686 l 0.312201,0.728695 -0.003,-0.676573 -0.115471,-0.293313 0.114453,-0.04292 z m -3.939084,0.428222 v 0.133881 0.133881 l -2.517559,0.70161 -2.517046,0.701097 -0.124172,0.07051 -0.123648,0.071 V 57.04117 56.888887 l 1.526791,-0.433839 1.526772,-0.434354 1.114436,-0.319379 z m 0.161459,0.495158 0.14205,0.524804 0.14206,0.525308 -0.03579,0.04648 -0.03579,0.04648 -2.456758,0.744023 -2.456749,0.744022 -0.176796,0.05923 -0.176796,0.05983 -0.166571,-0.625469 -0.167096,-0.625469 1.251374,-0.347997 1.251373,-0.347987 1.442982,-0.401652 z m 0.19673,1.42468 0.147666,0.148189 0.14818,0.147685 0.106285,0.531439 0.106285,0.531449 H 94.48014 94.288522 l -0.398552,-0.26164 -0.399066,-0.261117 -0.349507,0.11089 -0.350012,0.111394 -0.565648,0.884035 -0.565647,0.884548 -0.552358,0.421578 -0.552873,0.421073 -0.562068,-0.01018 -0.562068,-0.01078 -0.536527,-0.266743 -0.536518,-0.267257 v -0.1952 -0.195713 l -0.314247,-0.399605 -0.314248,-0.399101 -0.191618,-0.712844 -0.192122,-0.71234 0.0526,-0.05211 0.05211,-0.05261 0.442504,-0.110889 0.442493,-0.111395 0.202346,0.675545 0.202347,0.675544 h 0.161983 0.161974 l 2.549744,-0.761901 z m -14.443637,1.028654 h 0.203364 0.203365 l 0.443018,0.528373 0.443522,0.528888 -0.04242,0.135423 -0.04291,0.135414 0.74449,2.591812 0.743976,2.592316 -0.003,0.499252 -0.003,0.499766 -0.121087,0.16505 -0.120593,0.165059 -6.367721,0.02353 -6.367227,0.02403 -0.203365,-0.325006 -0.20286,-0.324997 0.941734,-2.464062 0.9412,-2.464052 h 0.411327 0.411841 l 2.97795,-0.597366 2.978454,-0.597366 1.014786,-0.558019 z m -46.578634,0.148703 -0.412355,0.340838 -0.412869,0.340838 -1.364798,0.657666 -1.365322,0.657656 h -0.0792 -0.0792 v -0.08079 -0.08128 l 1.856869,-0.917764 z m 37.602395,2.079785 -0.12263,0.330108 -0.12264,0.330109 -0.580974,1.485484 -0.579945,1.485998 -1.789938,4.952134 -1.790442,4.952648 -0.0069,-0.291266 -0.0069,-0.290763 2.321343,-6.312429 2.321344,-6.311915 0.178833,-0.165059 z m -10.460098,1.360285 3.926309,0.541159 3.926813,0.540636 0.06081,0.05063 0.06081,0.05004 -0.775656,2.113 -0.775143,2.112485 -0.110883,0.11447 -0.110883,0.113945 -2.498139,0.422606 -2.498644,0.422092 h -0.234027 -0.234027 l -0.371983,-1.155899 -0.372507,-1.15589 0.08889,-0.143077 0.0884,-0.143591 0.498707,-0.206443 0.498716,-0.206957 v -0.136442 -0.136946 l -0.660176,-1.521775 -0.659671,-1.521765 0.07614,-0.07614 z m -37.463419,1.725152 0.159432,0.603497 0.159423,0.602982 0.585571,2.25762 0.585572,2.257609 v 0.08791 0.08742 l -1.627954,0.502317 -1.627451,0.502318 h -0.06437 -0.06437 L 20.183368,67.697728 19.44041,64.850416 v -0.16505 -0.165059 l 1.689784,-0.437933 z m -3.721402,0.974999 0.01997,0.03323 0.02047,0.03323 0.769527,2.904536 0.77003,2.904547 v 0.09196 0.09196 l -0.520163,0.181405 -0.519659,0.181405 h -0.278483 -0.278987 l -0.785881,-2.847826 -0.786385,-2.847817 -0.02452,-0.147171 -0.02502,-0.147685 0.819598,-0.215639 z m -1.971836,0.50385 0.02245,0.02858 0.02244,0.02917 1.265672,4.456976 1.265681,4.45748 0.08434,0.282584 0.08434,0.283099 -0.607553,0.253463 -0.606524,0.253967 H 18.45879 18.260023 l -1.2667,-4.688457 -1.267204,-4.687952 V 65.64397 65.496285 l 0.700538,-0.187032 z m 42.727443,0.954035 0.116499,0.129797 0.1165,0.129796 0.350526,1.060337 0.35104,1.060327 -0.04034,0.03273 -0.04034,0.03273 -5.116872,0.861548 -5.117376,0.861043 -0.495137,0.07209 -0.495127,0.07149 0.330088,-0.16761 0.330088,-0.168115 4.855248,-1.988315 z m 6.38816,1.77676 0.09914,0.09914 0.09858,0.09859 -0.712295,1.966343 -0.712799,1.965829 -1.257504,0.412381 -1.258009,0.411867 -0.67295,-2.033278 -0.672951,-2.033289 0.272342,-0.07713 0.272867,-0.07713 2.271775,-0.366389 z m -5.371327,0.901418 0.01938,0.02858 0.01889,0.02858 0.674473,2.031242 0.67398,2.030727 -0.197234,0.07407 -0.19673,0.07456 -5.146496,1.715956 -5.146515,1.715946 -1.574303,-2.740001 -1.574817,-2.740516 0.07258,-0.07209 0.07208,-0.07209 6.152096,-1.03785 z m -36.478258,1.0077 0.195701,0.639768 0.196206,0.640292 0.05161,0.34595 0.05162,0.345436 -1.89826,1.291817 -1.89826,1.291817 -0.504837,0.10118 -0.504836,0.100675 -0.432794,-1.530971 -0.432279,-1.531476 0.04647,-0.04598 0.04647,-0.04648 2.541567,-0.801248 z m 23.683527,1.150263 0.31578,0.518159 0.316295,0.517645 2.140454,3.731356 2.140978,3.731346 0.288698,0.891193 0.288182,0.890679 1.817526,4.257169 1.817021,4.257682 -0.06229,0.04905 -0.06229,0.04954 -2.393397,1.821723 -2.393387,1.82122 -1.485904,0.894763 -1.485401,0.894773 -1.042887,0.447129 -1.042383,0.44713 h -0.205925 -0.205916 l -4.941609,-6.719708 -4.942122,-6.719698 -0.04598,-0.175274 -0.04548,-0.175779 2.366313,-4.347114 2.366304,-4.347619 0.282567,-0.1579 0.283081,-0.158414 2.965679,-1.209545 z m 16.593802,1.448699 h 0.107303 0.107304 l -0.310668,1.196769 -0.310668,1.196768 -0.003,1.176329 -0.003,1.176339 -0.0971,0.486476 -0.09759,0.486981 -5.391261,0.529916 -5.390767,0.53042 -0.08434,-0.0059 -0.08434,-0.0059 -0.174235,-0.288715 -0.174759,-0.28923 -0.528854,-0.934109 -0.528855,-0.93412 6.482698,-2.161028 z m -0.661194,5.981302 0.121097,0.187022 0.121097,0.187031 0.003,1.197283 0.003,1.196769 H 64.02916 63.801264 l -4.187923,0.408287 -4.188437,0.408297 -0.607029,0.08682 -0.607038,0.08692 -0.337237,-0.900904 -0.337246,-0.901409 -0.103724,-0.412381 -0.10322,-0.412381 0.387319,-0.08376 0.387823,-0.08435 4.951833,-0.481373 z m -20.880861,0.937175 v 1.823266 1.823771 h 1.155817 1.155312 v -0.247836 -0.247837 h -0.907996 -0.907996 v -0.57744 -0.577945 h 0.825729 0.825215 v -0.247836 -0.247322 h -0.825215 -0.825729 v -0.486476 -0.48699 l 0.866605,-0.04954 0.866606,-0.05004 v -0.16505 -0.165059 l -1.113912,-0.04905 z m -2.332586,0.01483 -0.313734,0.168115 -0.313733,0.16761 -0.181908,0.676059 -0.181907,0.676059 0.111397,0.659198 0.111387,0.659189 0.312201,0.312735 0.312714,0.312734 h 0.48338 0.483381 l 0.341844,-0.434857 0.342349,-0.434868 V 81.11103 80.164648 l -0.342349,-0.434867 -0.341844,-0.434858 h -0.411842 z m 0.431261,0.310173 0.290744,0.358222 0.290229,0.358716 v 0.770593 0.770089 l -0.257016,0.366904 -0.257016,0.366894 -0.114463,-0.01276 -0.114452,-0.01325 -0.203365,-0.08227 -0.203374,-0.08227 -0.174235,-0.647442 -0.174759,-0.647441 0.173227,-0.643357 0.173216,-0.643348 0.285632,-0.109871 z m 22.984017,1.688357 0.118032,2.738983 0.118546,2.738983 -0.192122,0.118554 -0.192131,0.119058 -1.062307,0.09913 -1.062307,0.09914 -1.136912,0.33879 -1.136911,0.338287 -0.964209,0.707227 -0.963685,0.707228 -0.172712,0.104759 -0.173216,0.104759 -1.532408,-3.552503 -1.532407,-3.552492 0.05468,-0.05468 0.05517,-0.05518 4.456696,-0.426176 4.456686,-0.42669 0.430757,-0.07357 z" /><path
       id="path3-2-1"
       style="fill:#99c1d9;stroke:none;stroke-width:0.965;stroke-miterlimit:3.3;paint-order:fill markers stroke"
       d="m 29.844357,19.875283 -0.27337,0.302004 -0.27337,0.302513 0.184972,0.530422 0.184972,0.530422 1.672921,0.83447 1.673432,0.83498 1.238084,0.931559 1.237573,0.932071 1.403128,0.525823 1.403128,0.525311 0.05723,0.01073 0.05723,0.01125 0.479291,-0.341351 0.479292,-0.34135 v -0.313245 l 10e-7,-0.313246 0.320893,-0.171694 0.320382,-0.171182 0.383739,0.174763 0.383741,0.174763 0.392425,-0.145636 0.392426,-0.145125 -0.855366,-0.526333 -0.855366,-0.526335 -1.390865,0.220243 -1.390864,0.220754 -1.202828,-0.765995 -1.202827,-0.765995 -2.409742,-1.267288 z m -4.970731,2.594366 -0.179863,0.104755 2.114401,2.644445 2.821585,3.530013 4e-6,0.111906 2e-6,0.04088 0.312713,0.283098 0.347457,0.314269 v 0.149215 l -1e-6,0.149215 -0.190597,-0.117527 -0.190596,-0.118039 0.124681,0.201843 0.124682,0.201331 0.09402,-0.09351 0.09351,-0.09402 0.302499,0.273383 0.301987,0.273896 -10e-7,0.149214 -3e-6,0.07819 0.313225,0.283608 0.347458,0.31427 -1e-6,0.149214 -1e-6,0.148703 -0.190592,-0.118034 -0.190597,-0.117527 0.119567,0.193159 0.119053,0.193157 0.136433,-0.08431 0.136433,-0.08431 1.277938,1.589224 1.277938,1.589223 0.08073,0.713873 0.08073,0.714382 -0.27337,0.682702 -0.272859,0.68219 -0.100661,1.759385 -0.100151,1.759386 1.000483,2.431867 1.000483,2.432378 0.11599,1.488554 0.116502,1.488554 h 0.08534 l 0.08483,10e-4 -0.113436,-1.501329 -0.113435,-1.501328 -0.997927,-2.500342 -0.998439,-2.500341 0.117012,-1.652586 0.117523,-1.652586 0.282057,-0.742489 0.282056,-0.742999 -0.128764,-0.705185 -0.128765,-0.705697 -0.585579,-0.714889 -0.586082,-0.714386 -1e-6,-0.117021 -10e-7,-0.116508 0.190596,0.118038 0.190597,0.117528 -0.119568,-0.193161 -0.119056,-0.19316 -0.138985,0.08585 -0.138474,0.08585 -1.170639,-1.46811 -1.170639,-1.46811 -5e-6,-0.110372 5e-6,-0.110893 0.190596,0.118039 0.190596,0.118038 -0.119055,-0.193671 -0.119567,-0.19316 -0.138985,0.08585 -0.138984,0.08585 -0.840035,-1.055736 -0.840034,-1.055736 -5e-6,-0.110372 -5e-6,-0.10986 0.190596,0.117527 0.190597,0.118038 -0.119567,-0.193671 -0.119568,-0.193159 -0.138473,0.08585 -0.138474,0.08585 -1.170639,-1.46811 -1.17064,-1.467599 5e-6,-0.110892 -5e-6,-0.110372 0.190597,0.117527 0.190596,0.118038 -0.119567,-0.193671 -0.119568,-0.193159 -0.138473,0.08585 -0.138473,0.08585 -1.170639,-1.46811 z m 6.076474,8.082545 -0.03421,-0.03119 -0.09861,0.02555 0.132858,0.07665 z m -0.132857,-0.0056 -0.07307,-0.04241 -0.206428,-0.118557 0.08224,0.09507 0.08282,0.09552 0.106284,-0.0276 z m -1.187498,-1.644921 -0.03479,-0.03164 -0.06439,0.04496 0.09913,0.05723 z m -0.09913,0.01329 -0.107298,-0.06133 -0.206428,-0.118557 0.11037,0.122641 0.109859,0.12264 0.0792,-0.05518 z m 0.346957,1.844717 -0.495132,0.08789 -0.495641,0.08789 -0.302497,0.364857 -0.302495,0.364856 0.09555,0.475744 0.09504,0.475744 1.692849,2.128841 1.69285,2.129354 0.441989,10e-4 0.441992,0.0015 0.348486,-0.443035 0.347968,-0.442534 -0.08584,-0.224841 -0.08636,-0.224841 -1.694381,-2.391498 z m 6.239474,18.084932 10e-7,0.908054 -10e-7,0.908054 0.06847,-0.454282 0.06898,-0.453772 -0.06898,-0.454283 z m 0.164533,1.815597 -0.002,0.825782 -0.002,0.825271 0.07154,-0.368945 0.07052,-0.369456 -0.06898,-0.456326 z m 0.160956,1.816618 v 0.742999 l 10e-7,0.742489 0.07154,-0.370989 0.07154,-0.3715 -0.07154,-0.3715 z m 0.165045,1.815596 v 0.742999 l -10e-7,0.743 0.07154,-0.3715 0.07154,-0.371499 -0.07153,-0.3715 z m -20.682092,24.626288 -0.439436,0.233018 -0.439434,0.23353 -1.013261,0.94382 5.118914,2.932139 -0.102195,-0.322955 -0.50995,-1.609662 -0.704114,-0.889149 -0.704115,-0.88915 -0.603458,-0.315801 z m 18.830836,3.871875 -0.504839,0.144614 -0.50433,0.144614 -0.660689,0.523264 -0.660688,0.523265 -0.252931,0.490054 -0.253443,0.490052 0.263661,0.402161 0.263659,0.402672 -0.430746,0.430268 -0.430746,0.430781 -0.185481,-0.184985 -0.185481,-0.185496 -0.420529,0.0051 -0.421041,0.0046 -0.289208,0.219224 -0.288694,0.219736 v 0.244771 0.245282 l 1.856871,1.246339 1.857381,1.246337 1.022966,0.884037 1.022964,0.884036 1.485395,1.896335 0.01276,0.01637 7.685523,4.401786 0.05876,-0.07819 -0.227382,-0.971928 -0.227894,-0.971419 -0.860476,-1.816107 -0.860476,-1.816107 -0.564113,-0.701607 -0.564114,-0.701607 -0.191612,10e-7 -0.191102,2e-6 -1.129248,0.443041 -1.129247,0.443039 -0.395491,-0.483921 -0.396003,-0.484432 -0.0061,-0.140017 -0.0056,-0.140019 0.990263,-0.915208 0.990263,-0.915207 -10e-7,-0.3204 10e-7,-0.319888 L 39.046998,86.67729 38.0644,85.328751 36.942306,84.235715 35.820212,83.142166 35.288291,82.96638 Z m -2.238055,7.820401 0.569249,0.618801 0.02453,0.02709 0.289722,0.165563 -0.264169,-0.242728 z"
       sodipodi:nodetypes="cccccccccccccccccccccccccccccccccccccccccccccccccccccccccccccccccccccccccccccccccccccccccccccccccccccccccccccccccccccccccccccccccccccccccccccccccccccccccccccccccccccccccccccccccccccccccccccccccccccccccccccccccccccccccccccccccccccccccccccccccccccccccccccccccccccccccc" /><path
       sodipodi:type="star"
       style="display:inline;fill:none;stroke:#3558a2;stroke-width:0.733629;stroke-miterlimit:3.3;stroke-opacity:1;paint-order:fill markers stroke"
       id="path3"
       inkscape:flatsided="true"
       sodipodi:sides="6"
       sodipodi:cx="34.951614"
       sodipodi:cy="43.467743"
       sodipodi:r1="37.571453"
       sodipodi:r2="32.537834"
       sodipodi:arg1="0.72860312"
       sodipodi:arg2="1.2522019"
       inkscape:rounded="0"
       inkscape:randomized="0"
       d="M 62.983871,68.483871 27.303141,80.252454 -0.7291164,55.236326 6.9193574,18.451615 42.600088,6.6830323 70.632345,31.69916 Z"
       transform="matrix(0.87916791,0.97849368,-0.97761073,0.87996195,66.766194,-17.449894)" /><g
       id="g2"
       transform="matrix(1.4739777,0,0,1.4740703,-122.87841,-124.36087)"
       style="display:inline;fill:#3558a2;fill-opacity:1;stroke-width:0.678415"><path
         style="font-weight:bold;font-size:10.5833px;line-height:1.25;font-family:'Century Gothic';-inkscape-font-specification:'Century Gothic Bold';text-align:center;text-anchor:middle;fill:#3558a2;fill-opacity:1;stroke-width:0.179497"
         d="m 96.714732,120.66306 h 0.501259 q 0.0052,-1.10587 0.03617,-1.30741 0.05684,-0.46509 0.387572,-0.7338 0.335896,-0.27389 0.945676,-0.27389 0.439248,0 0.992184,0.20154 v 1.07487 q -0.30489,-0.0879 -0.50126,-0.0879 -0.248046,0 -0.361734,0.10335 -0.08268,0.0775 -0.08268,0.32039 l -0.0052,0.7028 h 0.893999 v 1.19889 h -0.893999 v 4.42349 h -1.410763 v -4.42349 h -0.501259 z m 3.302118,0 h 1.20922 v 0.70797 q 0.19637,-0.41858 0.52193,-0.63562 0.32556,-0.21704 0.71313,-0.21704 0.27389,0 0.57361,0.14469 l -0.43925,1.21439 q -0.24805,-0.12402 -0.40824,-0.12402 -0.32556,0 -0.55294,0.40307 -0.22221,0.40308 -0.22221,1.5813 l 0.005,0.27388 v 2.27376 h -1.40042 z"
         id="text49"
         aria-label="fr" /><path
         d="m 106.41691,126.28543 c -0.58209,0 -1.02659,-0.17383 -1.33403,-0.52144 -0.30718,-0.35573 -0.46064,-0.8691 -0.46064,-1.54011 0,-0.4204 0.0807,-0.84079 0.24236,-1.26119 0.16986,-0.42847 0.39634,-0.82058 0.67918,-1.17628 0.29104,-0.36381 0.61437,-0.65485 0.97023,-0.87313 0.3638,-0.21828 0.73554,-0.32742 1.11575,-0.32742 0.29898,0 0.5416,0.0566 0.7276,0.16976 0.18574,0.10511 0.33549,0.24659 0.44847,0.42444 0.0487,0.0728 0.081,0.1334 0.0971,0.1819 0.0161,0.0485 0.0243,0.10107 0.0243,0.15764 0,0.0566 -0.0161,0.11319 -0.0487,0.16978 -0.0241,0.0566 -0.0685,0.1051 -0.13335,0.14552 l -0.35163,0.20617 h -0.0849 l -0.24236,-0.35169 c -0.12938,-0.19402 -0.26299,-0.33549 -0.40031,-0.42444 -0.12938,-0.097 -0.31936,-0.14552 -0.56992,-0.14552 -0.2667,0 -0.52149,0.12935 -0.76411,0.38806 -0.23442,0.25871 -0.42836,0.59018 -0.58209,0.99441 -0.14552,0.39614 -0.21828,0.81248 -0.21828,1.24905 0,0.57401 0.0971,1.0146 0.29104,1.3218 0.20215,0.30724 0.52547,0.46083 0.97023,0.46083 0.13732,0 0.29104,-0.0242 0.46091,-0.0728 0.16959,-0.0566 0.3556,-0.16574 0.55774,-0.32742 0.20214,-0.16979 0.42439,-0.42445 0.66701,-0.76399 h 0.0243 l 0.12118,0.097 c -0.34766,0.61442 -0.69929,1.07119 -1.05516,1.37033 -0.3556,0.29911 -0.73951,0.44868 -1.15199,0.44868 z m 4.4233,0 c -0.32332,0 -0.58605,-0.13745 -0.78819,-0.4123 -0.19394,-0.28297 -0.29104,-0.70336 -0.29104,-1.26119 0,-0.50125 0.0767,-0.99036 0.23045,-1.46735 0.16166,-0.47699 0.37994,-0.9095 0.65484,-1.29757 0.28284,-0.38804 0.60643,-0.69524 0.97023,-0.92162 0.3638,-0.22638 0.75168,-0.33954 1.16417,-0.33954 0.20214,0 0.39608,0.0242 0.58208,0.0728 0.18574,0.0485 0.35163,0.11316 0.49715,0.19402 l 0.42439,-0.26678 h 0.30322 l -0.73978,4.13523 c -0.0405,0.24251 -0.0484,0.41634 -0.0243,0.52144 0.0325,0.10509 0.10107,0.15766 0.20611,0.15766 0.13758,0 0.28707,-0.0728 0.44873,-0.21831 0.16166,-0.15359 0.31539,-0.38399 0.46091,-0.69122 l 0.15769,0.0728 c -0.23442,0.60635 -0.48921,1.04696 -0.76412,1.32183 -0.2667,0.26678 -0.5416,0.40018 -0.82444,0.40018 -0.2831,0 -0.47704,-0.10914 -0.58208,-0.32742 -0.10531,-0.21828 -0.12541,-0.50932 -0.0609,-0.87312 l 0.0609,-0.31531 h -0.0487 c -0.30718,0.4689 -0.6305,0.8408 -0.96996,1.11567 -0.33973,0.26678 -0.69533,0.40018 -1.06733,0.40018 z m -0.15769,-2.14643 c 0,0.45273 0.0487,0.79227 0.14552,1.01865 0.10531,0.21828 0.29925,0.32742 0.58208,0.32742 0.19421,0 0.38815,-0.0647 0.58209,-0.19405 0.1942,-0.12932 0.3802,-0.29506 0.558,-0.49717 0.1778,-0.20212 0.3355,-0.40828 0.47281,-0.61847 l 0.44874,-2.49811 c -0.15346,-0.20212 -0.31115,-0.35574 -0.47281,-0.46083 -0.15373,-0.10509 -0.3437,-0.15764 -0.57018,-0.15764 -0.3474,0 -0.65484,0.14957 -0.92154,0.44868 -0.25877,0.29914 -0.46091,0.68316 -0.60643,1.15205 -0.14552,0.4689 -0.21828,0.96205 -0.21828,1.47947 z m 6.22194,2.14643 c -0.32332,0 -0.58605,-0.13745 -0.78819,-0.4123 -0.19394,-0.28297 -0.29104,-0.70336 -0.29104,-1.26119 0,-0.50125 0.0767,-0.99036 0.23045,-1.46735 0.16166,-0.47699 0.37994,-0.9095 0.65484,-1.29757 0.28284,-0.38804 0.60643,-0.69524 0.97023,-0.92162 0.3638,-0.22638 0.75168,-0.33954 1.16417,-0.33954 0.29104,0 0.56991,0.0525 0.83661,0.15764 l 0.49715,-2.82554 -1.05489,-0.4123 v -0.0728 l 2.09788,-0.3638 h 0.0362 l -1.34594,7.65199 c -0.0405,0.24251 -0.0484,0.41634 -0.0243,0.52144 0.0243,0.10509 0.0931,0.15766 0.20611,0.15766 0.13759,0 0.28708,-0.0728 0.44874,-0.21831 0.16166,-0.15359 0.31538,-0.38399 0.4609,-0.69122 l 0.15769,0.0728 c -0.23442,0.60635 -0.48921,1.04696 -0.76411,1.32183 -0.2667,0.26678 -0.54161,0.40018 -0.82445,0.40018 -0.2831,0 -0.47704,-0.10914 -0.58208,-0.32742 -0.1053,-0.21828 -0.12541,-0.50932 -0.0609,-0.87312 l 0.0609,-0.31531 h -0.0487 c -0.67892,1.01058 -1.35811,1.51585 -2.03729,1.51585 z m -0.15769,-2.14643 c 0,0.50932 0.0566,0.86098 0.16986,1.05503 0.11324,0.19402 0.29925,0.29104 0.55774,0.29104 0.23469,0 0.49742,-0.11724 0.78846,-0.35168 0.29104,-0.24255 0.56568,-0.56187 0.82444,-0.95801 l 0.43657,-2.486 c -0.1696,-0.22635 -0.33549,-0.38806 -0.49716,-0.48506 -0.15345,-0.097 -0.33152,-0.14552 -0.53366,-0.14552 -0.32332,0 -0.61833,0.14147 -0.88503,0.42442 -0.25876,0.28297 -0.46911,0.65889 -0.63077,1.12781 -0.15346,0.4608 -0.23045,0.97012 -0.23045,1.52797 z m 6.36244,2.14643 c -0.32333,0 -0.58606,-0.13745 -0.7882,-0.4123 -0.1942,-0.28297 -0.29104,-0.70336 -0.29104,-1.26119 0,-0.50125 0.0767,-0.99036 0.23019,-1.46735 0.16192,-0.47699 0.3802,-0.9095 0.65511,-1.29757 0.28284,-0.38804 0.60616,-0.69524 0.96996,-0.92162 0.3638,-0.22638 0.75194,-0.33954 1.16417,-0.33954 0.20214,0 0.39608,0.0242 0.58208,0.0728 0.186,0.0485 0.35163,0.11316 0.49715,0.19402 l 0.42466,-0.26678 h 0.30294 l -0.73951,4.13523 c -0.0405,0.24251 -0.0487,0.41634 -0.0243,0.52144 0.0323,0.10509 0.10108,0.15766 0.20612,0.15766 0.13731,0 0.28707,-0.0728 0.44873,-0.21831 0.16166,-0.15359 0.31538,-0.38399 0.4609,-0.69122 l 0.15743,0.0728 c -0.23442,0.60635 -0.48895,1.04696 -0.76385,1.32183 -0.2667,0.26678 -0.5416,0.40018 -0.82471,0.40018 -0.28284,0 -0.47704,-0.10914 -0.58208,-0.32742 -0.10504,-0.21828 -0.12515,-0.50932 -0.0606,-0.87312 l 0.0606,-0.31531 h -0.0484 c -0.30718,0.4689 -0.6305,0.8408 -0.97023,1.11567 -0.33946,0.26678 -0.69532,0.40018 -1.06706,0.40018 z m -0.1577,-2.14643 c 0,0.45273 0.0484,0.79227 0.14552,1.01865 0.10504,0.21828 0.29925,0.32742 0.58209,0.32742 0.19394,0 0.38814,-0.0647 0.58208,-0.19405 0.19394,-0.12932 0.37994,-0.29506 0.55774,-0.49717 0.17807,-0.20212 0.33549,-0.40828 0.47308,-0.61847 l 0.44873,-2.49811 c -0.15372,-0.20212 -0.31141,-0.35574 -0.47307,-0.46083 -0.15346,-0.10509 -0.34343,-0.15764 -0.56992,-0.15764 -0.34766,0 -0.65484,0.14957 -0.92154,0.44868 -0.25876,0.29914 -0.4609,0.68316 -0.60642,1.15205 -0.14553,0.4689 -0.21829,0.96205 -0.21829,1.47947 z m 6.36456,2.14643 c -0.41222,0 -0.74772,-0.0566 -1.00648,-0.16978 -0.25876,-0.12126 -0.44476,-0.27083 -0.55774,-0.44868 -0.0487,-0.0728 -0.081,-0.1334 -0.0971,-0.1819 -0.0161,-0.0485 -0.0243,-0.10107 -0.0243,-0.15767 0,-0.0485 0.008,-0.097 0.0243,-0.14552 0.0161,-0.0566 0.0566,-0.10104 0.12118,-0.13337 l 0.26696,-0.14552 h 0.0847 l 0.20638,0.35165 c 0.12118,0.20212 0.28284,0.35574 0.48498,0.46083 0.20214,0.097 0.40428,0.14552 0.60643,0.14552 0.30718,0 0.55774,-0.0808 0.75168,-0.24252 0.20214,-0.16171 0.30321,-0.39616 0.30321,-0.70337 0,-0.3153 -0.10504,-0.55782 -0.31538,-0.7276 -0.20188,-0.16978 -0.43233,-0.33147 -0.6911,-0.48506 -0.30718,-0.18595 -0.53763,-0.35573 -0.69135,-0.50932 -0.15346,-0.15362 -0.2585,-0.31126 -0.31512,-0.47295 -0.0566,-0.16171 -0.0849,-0.35573 -0.0849,-0.58208 0,-0.23447 0.0889,-0.46892 0.2667,-0.70337 0.1778,-0.24254 0.41248,-0.44463 0.70353,-0.60634 0.29104,-0.16169 0.59822,-0.24252 0.92154,-0.24252 0.3556,0 0.63473,0.0566 0.83661,0.16976 0.20214,0.10511 0.35984,0.24254 0.47308,0.41232 0.0728,0.11319 0.10901,0.21828 0.10901,0.31528 0,0.0566 -0.0161,0.11319 -0.0484,0.16978 -0.0243,0.0566 -0.0646,0.10107 -0.12118,0.13341 l -0.23046,0.12125 h -0.0849 l -0.2667,-0.37592 c -0.11324,-0.16168 -0.24262,-0.28297 -0.38814,-0.3638 -0.13732,-0.0889 -0.31115,-0.1334 -0.52149,-0.1334 -0.23442,0 -0.43657,0.0728 -0.60616,0.21828 -0.16193,0.13745 -0.24263,0.31935 -0.24263,0.5457 0,0.25871 0.0767,0.47295 0.23046,0.64273 0.16166,0.16978 0.34766,0.3153 0.55774,0.43656 0.29104,0.16979 0.52943,0.33147 0.71543,0.48506 0.19421,0.15362 0.33973,0.32742 0.43656,0.52147 0.0971,0.19402 0.14552,0.44061 0.14552,0.73972 0,0.28297 -0.0849,0.5538 -0.25452,0.81251 -0.16987,0.25061 -0.40429,0.45675 -0.70353,0.61846 -0.29104,0.1536 -0.6223,0.2304 -0.99431,0.2304 z m 4.15395,0 c -0.26696,0 -0.46884,-0.0849 -0.60642,-0.25466 -0.13732,-0.16978 -0.20611,-0.40828 -0.20611,-0.71548 0,-0.0647 0.004,-0.13743 0.0122,-0.21828 0.008,-0.0808 0.0201,-0.16169 0.0362,-0.24255 l 0.64267,-3.61376 h -0.8972 v -0.0728 l 1.03082,-0.46082 1.04272,-1.33395 h 0.0728 l -0.23045,1.33395 h 1.51606 v 0.53358 h -1.6129 l -0.54584,3.0802 c -0.0161,0.1051 -0.0283,0.20212 -0.0362,0.29105 -0.008,0.0808 -0.0122,0.15359 -0.0122,0.21828 0,0.19402 0.0323,0.33147 0.0971,0.4123 0.0646,0.0809 0.14949,0.12128 0.25453,0.12128 0.18601,0 0.38418,-0.10512 0.59426,-0.3153 0.21828,-0.21021 0.41645,-0.51337 0.59425,-0.90951 l 0.15769,0.0728 c -0.26696,0.76803 -0.56594,1.30564 -0.89746,1.61285 -0.32332,0.30721 -0.65882,0.46082 -1.00648,0.46082 z m 2.86465,-0.12125 0.83661,-4.71734 -0.94588,-0.42442 v -0.0728 l 1.71,-0.3638 h 0.0363 v 1.49159 h 0.0484 c 0.25876,-0.47699 0.47704,-0.81653 0.65484,-1.01865 0.186,-0.21021 0.34766,-0.33956 0.48525,-0.38806 0.14552,-0.0566 0.2749,-0.0849 0.38788,-0.0849 0.14552,0 0.27913,0.0485 0.40031,0.14552 0.12118,0.0889 0.18177,0.19402 0.18177,0.31528 0,0.0404 -0.0119,0.0849 -0.0362,0.1334 l -0.30321,0.61846 h -0.0728 l -0.13335,-0.097 c -0.0648,-0.0485 -0.13759,-0.0808 -0.21829,-0.097 -0.0728,-0.0243 -0.14552,-0.0364 -0.21828,-0.0364 -0.14552,0 -0.27887,0.0323 -0.40031,0.097 -0.11298,0.0566 -0.24236,0.1819 -0.38788,0.37595 -0.13758,0.18595 -0.31538,0.46889 -0.53366,0.84886 l -0.56992,3.27425 z m 5.83512,0.12125 c -0.6223,0 -1.07924,-0.16978 -1.37028,-0.50932 -0.29104,-0.34763 -0.43656,-0.81653 -0.43656,-1.40671 0,-0.47699 0.0767,-0.93779 0.23045,-1.38245 0.16166,-0.45273 0.37994,-0.85696 0.65485,-1.21269 0.28283,-0.3638 0.60642,-0.65079 0.97022,-0.86098 0.37174,-0.21828 0.77206,-0.32742 1.20042,-0.32742 0.40428,0 0.70749,0.093 0.90963,0.2789 0.21008,0.18595 0.31512,0.40423 0.31512,0.65484 0,0.27488 -0.0968,0.52954 -0.29104,0.76401 -0.19394,0.22635 -0.5334,0.43656 -1.01864,0.63058 -0.47678,0.18595 -1.152,0.35169 -2.02513,0.49721 -0.0161,0.16168 -0.0241,0.33144 -0.0241,0.50932 0,0.49316 0.10504,0.88524 0.31512,1.17629 0.21035,0.29104 0.54161,0.43656 0.99457,0.43656 0.2667,0 0.52943,-0.0728 0.7882,-0.21828 0.25849,-0.14552 0.52546,-0.38402 0.80036,-0.71549 h 0.0241 l 0.12144,0.097 c -0.2749,0.47699 -0.60642,0.86101 -0.99456,1.15205 -0.37995,0.29104 -0.76783,0.43656 -1.16417,0.43656 z m 0.92181,-5.27515 c -0.43657,0 -0.80857,0.1819 -1.11575,0.5457 -0.29924,0.35573 -0.50112,0.82868 -0.60643,1.41886 0.60643,-0.10512 1.0795,-0.21829 1.41896,-0.33957 0.33947,-0.12126 0.57812,-0.26273 0.71544,-0.42442 0.13732,-0.16978 0.20611,-0.37999 0.20611,-0.63061 0,-0.16168 -0.0524,-0.29509 -0.15769,-0.40018 -0.10504,-0.11319 -0.2585,-0.16978 -0.46064,-0.16978 z"
         fill="#161616"
         id="path22"
         style="fill:#3558a2;fill-opacity:1;stroke-width:0.179497"
         sodipodi:nodetypes="scscccsccssccccccsccscsccccccssscsccssccccccsccccscccccssscscscccscssscsccssccccccccsccccsccccsssssccccsccsscsccssccccccsccccssccccsscscccccscsssccssccccccscscccssccsccsccccccscsccccsccssscsccccccccccccccscsccccssccccccccccscscccccscccccscscccscscccscscccccsssccccscs" /></g></g></svg>
