<?xml version="1.0" encoding="UTF-8" standalone="no"?>
<!-- Created with Inkscape (http://www.inkscape.org/) -->

<svg
   width="110mm"
   height="110mm"
   viewBox="0 0 110 110"
   version="1.1"
   id="svg1"
   xml:space="preserve"
   inkscape:version="1.4 (86a8ad7, 2024-10-11)"
   sodipodi:docname="frcadastre_logo.svg"
   xmlns:inkscape="http://www.inkscape.org/namespaces/inkscape"
   xmlns:sodipodi="http://sodipodi.sourceforge.net/DTD/sodipodi-0.dtd"
   xmlns="http://www.w3.org/2000/svg"
   xmlns:svg="http://www.w3.org/2000/svg"><sodipodi:namedview
     id="namedview1"
     pagecolor="#ffffff"
     bordercolor="#666666"
     borderopacity="1.0"
     inkscape:showpageshadow="2"
     inkscape:pageopacity="0.0"
     inkscape:pagecheckerboard="0"
     inkscape:deskcolor="#d1d1d1"
     inkscape:document-units="mm"
     showguides="false"
     inkscape:zoom="1.3729593"
     inkscape:cx="136.56632"
     inkscape:cy="270.5834"
     inkscape:window-width="1920"
     inkscape:window-height="1017"
     inkscape:window-x="-8"
     inkscape:window-y="-8"
     inkscape:window-maximized="1"
     inkscape:current-layer="layer1" /><defs
     id="defs1" /><g
     inkscape:label="Calque 1"
     inkscape:groupmode="layer"
     id="layer1"
     style="display:inline"><g
       id="g1"
       transform="matrix(0.98879041,0,0,0.98885254,-65.039489,-78.501856)"
       style="stroke-width:1.0113"><path
         id="path49"
         style="display:inline;fill:#cccccc;stroke-width:1.0113"
         d="m 121.01888,84.450055 -0.13228,0.077 1.31102,0.685746 1.45884,0.763265 0.59944,0.44751 0.59997,0.447 6.63008,6.076116 6.63009,6.0756 -0.0589,0.0589 -0.0584,0.0584 -8.50079,-0.9126 -8.50076,-0.91261 -0.79323,-0.10387 -0.79272,-0.10438 v 0.26613 0.26613 h -0.83458 -0.83509 v 0.33383 0.33383 l -0.20825,0.002 -0.20877,0.002 -1.59319,-0.601 -1.59267,-0.601 -0.61908,0.36536 -0.61908,0.36483 v 0.2341 0.23409 h -0.25425 -0.25374 l -0.15244,0.37569 -0.15245,0.37517 -1.08728,3.422528 -1.08727,3.42253 -0.75136,5.17488 -0.75139,5.17539 -0.59272,8.02018 -0.59325,8.02019 v 0.11833 0.11834 h -0.18241 -0.18242 l 0.0574,-0.91467 0.0569,-0.91416 -0.41703,-0.0811 -0.41755,-0.0806 -1.711,-0.11162 -1.71101,-0.11111 -0.005,-0.0202 -0.005,-0.0202 -0.23254,-2.42104 -0.23254,-2.42052 -0.98134,-2.42052 -0.98082,-2.42105 0.11627,-1.66914 0.11679,-1.66967 0.28836,-0.71624 0.28835,-0.71571 -0.15865,-0.80099 -0.15813,-0.80047 -5.78725,-7.33702 -3.9212,-4.97127 -0.22273,0.12971 1.90014,2.41587 3.63079,4.61729 0.76481,0.96015 0.76481,0.95963 h -0.0827 -0.0827 l -4.4266,-5.564 -2.62361,-3.29851 -0.22376,0.13074 4.03748,5.07205 5.6591,7.10861 0.1018,0.62683 0.1018,0.62735 -0.30231,0.77825 -0.30232,0.77876 -0.10128,1.73685 -0.1018,1.73736 1.00356,2.43654 1.00356,2.43603 0.50591,5.17385 0.50591,5.17384 0.0698,0.0698 0.0703,0.0703 0.33434,-0.30282 0.33434,-0.30231 -0.14468,-0.18345 -0.1447,-0.18345 -0.1111,-1.50223 -0.11111,-1.50276 -0.10232,-0.81545 -0.1018,-0.81545 0.73381,0.0987 0.73432,0.0992 1.30328,0.1111 1.30328,0.11111 -0.11369,0.93947 -0.11369,0.93896 -0.18811,0.23617 -0.17622,0.22169 -0.0713,-0.0708 -1.34721,1.04438 -1.34772,1.04438 v 0.0563 0.0563 h 0.0775 0.077 l 1.34307,-1.02785 1.34254,-1.02836 -0.0682,-0.0687 0.39997,-0.20619 0.41755,-0.21445 -0.16692,0.16071 -0.16691,0.16071 -1.66967,1.33429 -1.66914,1.3348 -0.9183,0.62994 -0.91828,0.63045 0.58446,-0.5147 0.58394,-0.5147 -0.13591,-0.004 -0.13643,-0.004 -0.57155,0.43615 -0.57153,0.43563 0.0842,0.13695 0.0847,0.13694 -0.19532,0.12041 -0.19535,0.12092 0.11887,-0.19275 0.11937,-0.19276 h -0.15659 -0.15606 l -0.18604,0.22428 -0.18603,0.22376 0.1235,0.13694 0.12404,0.13643 -0.21911,-0.12661 -0.21911,-0.12661 -0.28164,0.24236 -0.28165,0.24237 -2.25412,1.17718 -2.25361,1.17719 -4.17339,1.19218 -4.17339,1.19114 -0.19947,0.0667 -0.19947,0.0672 -0.25011,-0.86764 -0.2496,-0.86765 -0.28784,-1.04335 -0.28732,-1.04335 h -0.11886 -0.11937 l -4.13928,1.00718 -2.96933,0.72192 10e-4,0.27492 2.97553,-0.73071 3.83956,-0.94258 0.16795,0.002 0.16846,0.002 0.46354,1.6278 0.46406,1.62781 -0.006,0.16692 -0.006,0.16691 -3.97185,1.12655 -3.97289,1.12809 h -0.10594 l 0.004,0.94362 6.50348,-1.76889 11.31146,-3.07681 1.21956,-0.54829 1.21957,-0.54829 2.36989,-1.61799 2.36987,-1.61798 2.45411,-1.93529 2.45412,-1.93476 0.008,-0.35295 0.008,-0.35347 1.21027,-0.42788 1.21026,-0.4284 0.37879,-0.10748 0.37879,-0.10698 1.87482,-0.21755 1.87533,-0.21756 1.58595,0.13901 1.58595,0.13901 2.25361,0.40928 2.25361,0.40927 2.92127,0.0827 2.92179,0.0827 5.84305,-0.29921 5.84305,-0.29869 0.0532,0.0486 0.0537,0.0486 -1.69653,3.98116 -1.69706,3.98063 -0.39274,0.58446 -0.39274,0.58446 -2.18953,5.92264 -2.18901,5.92212 -0.094,0.0873 -0.0941,0.0873 0.12351,-0.41703 0.12298,-0.41754 1.97507,-5.38107 1.97508,-5.38106 0.27492,-0.62891 0.27492,-0.6289 1.08107,-2.28358 1.08055,-2.28358 0.14831,-1.04903 0.14831,-1.04904 -0.0656,-0.0656 -0.0651,-0.0651 -7.89873,-0.0305 -7.89824,-0.0305 -3.75636,-0.56378 -3.75584,-0.56328 -2.08721,0.1912 -2.08669,0.19172 -1.00149,0.3142 -1.00148,0.31471 -0.50126,0.22376 -0.50076,0.22324 -2.71405,2.13578 -2.71456,2.13579 h -0.16536 -0.16537 v 0.14986 0.14986 l -0.65991,0.39275 -0.65939,0.39274 -0.0811,3.14864 -0.0816,3.14916 -0.38447,0.27337 -0.38396,0.27337 -4.42557,3.03186 -4.42556,3.03237 -0.12145,-0.2775 -0.12143,-0.27751 -0.93535,-3.65094 -0.93534,-3.65145 0.13849,-0.12764 0.1385,-0.12816 2.83806,-0.77618 2.83807,-0.77618 1.80403,-0.73174 1.80402,-0.73174 1.08056,-0.70383 1.08108,-0.70435 -0.077,-0.0765 -0.0765,-0.077 -0.72141,0.49506 -0.72141,0.49454 -1.00149,0.50023 -1.00149,0.50023 -1.41903,0.51625 -1.41903,0.51573 -3.08871,0.82992 -3.08818,0.83044 -2.33732,0.61185 -2.33733,0.61237 -1.1684,0.30592 -1.16841,0.30541 -3.12332,0.83974 5.2e-4,0.21084 0.1173,-0.031 2.67116,-0.70435 0.23306,-0.0196 0.23357,-0.0202 0.54467,2.03864 0.54416,2.03864 -0.90951,0.34054 -0.90899,0.34003 H 80.56254 80.4566 l -0.26355,0.23668 -0.26355,0.23668 -0.88522,0.33486 -0.8816,0.33383 0.001,0.27389 0.9648,-0.3638 1.13482,-0.42892 0.17053,-0.20722 0.17001,-0.20774 0.95498,-0.30076 0.95447,-0.30127 0.0568,0.0718 0.0574,0.0713 0.709,2.64429 0.709,2.64428 -0.0548,0.0496 -0.0548,0.0491 -1.83606,0.78703 -1.83658,0.78652 -0.17777,0.0734 -0.17777,0.0734 -1.73736,-3.73259 0.002,0.59531 0.42478,0.90072 0.91932,1.94872 0.22893,0.7705 0.22893,0.77049 -1.54203,0.99477 0.24185,0.1385 1.53169,-0.97979 -0.0935,-0.59324 -0.093,-0.59377 1.7079,-0.72502 1.70791,-0.72553 1.55856,-0.64286 1.55805,-0.64234 h 0.25476 0.25477 l 4.94801,-3.39617 4.94802,-3.39618 2.12855,-1.45727 2.12856,-1.45779 v -1.71514 -1.71463 l 0.10749,-1.51257 0.10749,-1.51205 0.39326,-0.17932 0.39377,-0.17931 -0.007,1.70739 -0.007,1.7079 -0.21394,0.91571 -0.21343,0.91519 0.30386,0.97772 0.30438,0.9772 -5.2e-4,0.61133 v 0.61081 l -0.24236,1.3777 -0.24237,1.37717 -0.48627,0.62632 -0.48576,0.6258 -1.30225,3.58893 -1.30225,3.58945 -1.46709,2.94659 -1.46761,2.94607 -1.31104,0.92398 -1.31051,0.92345 -0.49144,0.11731 -0.49145,0.11679 -1.15135,0.68833 8.42998,4.82813 -0.38964,-0.37982 -1.91823,-1.10175 -1.91875,-1.10174 -0.94567,-0.69556 -0.94568,-0.69608 -0.70642,-0.31781 -0.7059,-0.3173 0.29301,-0.1943 0.29248,-0.19379 0.66766,-0.20154 0.66766,-0.20153 1.25212,-0.87282 1.25212,-0.87281 0.98547,-1.91668 0.98547,-1.9172 1.97301,-5.01106 1.97301,-5.01106 0.56379,-0.50075 0.56379,-0.50074 0.92088,-0.69143 0.92035,-0.69092 0.54571,-0.95343 0.5457,-0.95343 1.50895,-1.61127 1.50947,-1.61075 1.18132,-0.84646 1.18184,-0.84646 0.83458,-0.34934 0.83509,-0.34985 1.83605,-0.34933 1.83659,-0.34882 2.12131,0.19224 2.12184,0.19275 2.41071,-0.19172 2.4107,-0.1912 h 2.69699 2.697 l 1.53531,0.43357 1.53531,0.43356 0.79271,-0.092 0.79323,-0.092 v 0.061 0.061 l -0.36225,0.97462 -0.36173,0.97462 -0.10491,0.12454 -0.1049,0.12454 -4.22816,-0.59067 -4.22817,-0.59117 -0.0868,0.0873 -0.0873,0.0868 0.75758,1.74356 0.75757,1.74304 -1.19269,0.4899 -1.19217,0.48989 -8.68113,3.54552 -8.68112,3.54552 -0.26252,0.30076 -0.26303,0.30024 -2.37453,4.36097 -2.37505,4.36097 0.12661,0.20516 0.12712,0.20516 5.40329,7.34632 5.4038,7.34632 -0.0971,0.73846 -0.0971,0.73793 -0.0662,0.0656 -0.0656,0.0662 -0.34468,0.0517 0.38292,0.2191 0.34469,-0.0486 0.0506,-0.97359 0.0506,-0.97358 -0.25941,-0.39584 -0.25942,-0.39584 0.32298,-0.1726 0.32298,-0.1726 h 0.17621 0.17622 l -0.10232,1.54409 -0.10284,1.54409 -0.3054,0.25063 -0.0227,0.0186 0.20464,0.1173 0.16536,-0.0527 0.33383,-0.10593 v -1.7477 -1.74718 l 0.72967,-0.31316 0.72967,-0.31264 1.31672,-0.81649 1.31671,-0.81649 3.74758,-2.81688 3.74757,-2.81637 1.17668,-0.36328 1.17615,-0.36277 1.19063,-0.11731 1.19062,-0.1173 0.10387,2.47065 0.10387,2.47065 0.18139,5.84305 0.0103,0.33073 0.17518,-0.10232 -0.20205,-6.23838 -0.32918,-10.18335 5.2e-4,-3.50625 5.1e-4,-3.50573 0.24443,-0.83457 0.24443,-0.83458 -0.078,1.25212 -0.078,1.25212 -0.1018,2.25361 -0.10232,2.25361 0.185,5.25859 0.18449,5.2586 0.16123,4.75785 0.0909,2.68821 0.86093,-0.5023 -0.0279,-0.72812 -0.24701,-6.38256 -0.17054,-5.17281 -0.17053,-5.17333 0.0233,-1.17047 0.0238,-1.17098 0.12402,1.58595 0.12454,1.58595 0.20154,7.26208 0.20205,7.26209 0.24805,0.39016 0.24857,0.39067 0.44545,-0.10232 0.44545,-0.10283 3.65094,-1.85157 3.65145,-1.85208 0.22325,-0.0139 0.38343,-0.22376 -0.11988,0.0212 -0.60979,0.10749 -3.28352,1.66398 -3.28352,1.66347 -0.66662,0.23564 -0.66715,0.23513 -0.24133,-0.27957 -0.24081,-0.27957 -0.28318,-9.76633 -0.28371,-9.76581 0.16175,-1.08521 0.16175,-1.0852 1.36012,-3.83077 1.35961,-3.83078 0.14572,-0.25941 0.14573,-0.25942 0.11266,0.29249 0.11265,0.29197 h 6.38876 6.38927 l 0.17415,0.21032 0.17467,0.21033 0.38034,1.29191 0.38034,1.29242 h 0.19275 0.19327 l 1.01647,1.87793 1.017,1.87843 0.65732,1.43506 0.65733,1.43557 0.11782,0.37104 0.11782,0.37155 -3.65766,4.87102 -3.65766,4.87102 -1.96628,2.86391 -1.73685,2.53111 0.50436,-0.29404 1.55701,-2.26291 1.95337,-2.83807 3.514,-4.69997 3.51451,-4.70049 0.6041,1.19476 0.60409,1.19424 1.55444,2.87321 0.6103,1.12913 0.22323,-0.13022 -1.02681,-1.89549 -2.12338,-3.92069 5.1e-4,-0.36381 5.2e-4,-0.36328 1.45985,-0.82992 1.46038,-0.82941 1.78542,-1.20768 1.78491,-1.20768 0.96841,-0.25321 0.96893,-0.2527 0.19534,0.2036 0.19586,0.20309 1.75648,3.68712 -0.002,-0.55139 -0.39067,-0.82166 v -0.0977 -0.0977 l 0.38602,-0.18345 -0.001,-0.28577 -0.56224,0.25631 -0.61599,-1.24489 -0.61598,-1.24488 -0.339,0.002 -0.33899,0.002 -0.87385,0.23306 -0.87385,0.23254 -1.29656,0.90537 -1.29656,0.90589 -1.87999,1.11363 -1.88051,1.11362 h -0.0754 -0.0754 l -0.15452,-0.29197 -0.15451,-0.29249 -0.45217,-1.0852 -0.45165,-1.08469 -1.17512,-2.17041 -1.17564,-2.17041 -0.29559,-0.25011 -0.29611,-0.25063 -0.34106,-1.15497 -0.34106,-1.15497 0.16847,-0.78652 0.16897,-0.78651 -0.68626,-2.39934 -0.68626,-2.39882 -0.0972,-0.32763 -0.0971,-0.32762 0.41239,0.47904 0.41186,0.47904 0.71519,-0.42685 0.71573,-0.42633 0.72864,0.24805 0.72915,0.24856 0.21084,-0.0754 0.21136,-0.0755 0.47129,0.23823 0.47129,0.23771 0.23151,-0.19223 0.23203,-0.19276 0.10128,-0.31884 0.10129,-0.31884 0.28112,0.005 0.2806,0.005 0.43512,0.71779 0.43563,0.7183 1.04593,0.22169 1.04541,0.22221 0.73381,-0.40101 0.7338,-0.40049 0.58808,-0.88625 0.5886,-0.88677 0.26458,-0.10128 0.26458,-0.10129 0.56638,0.20464 0.56637,0.20464 0.6227,-0.19276 0.62322,-0.19327 1.33532,-0.6413 0.57309,-0.27492 -0.003,-0.56999 -0.40411,0.2744 -0.65991,0.44752 -0.65061,0.22996 -0.6506,0.22944 h -0.23461 -0.23462 l -0.0667,-0.20877 -0.0672,-0.20877 -0.26148,-0.94361 -0.262,-0.94413 v -0.26614 -0.26665 h 0.32401 0.32401 l 0.0894,-0.14469 0.0889,-0.14418 -0.42272,-1.87689 -0.42271,-1.8774 0.0512,-0.0336 0.0512,-0.0336 1.90169,-0.42736 1.48208,-0.3328 -0.002,-0.61495 -1.36271,0.28939 -1.68465,0.35863 -0.12971,-0.002 -0.12919,-0.002 -0.1509,-0.39636 -0.15089,-0.39688 -0.19069,-0.70951 -0.1912,-0.71004 0.13746,-0.12454 0.13694,-0.12505 1.63866,-0.53899 1.63814,-0.53898 0.0667,0.0667 0.0667,0.0667 0.29972,1.28674 -0.0129,-3.36827 -0.004,-0.0145 -0.25477,-0.91208 0.0889,-0.0889 0.0889,-0.0889 0.077,-0.004 -0.002,-0.51521 -0.185,0.0749 -0.15865,0.0129 -0.15813,0.0129 0.15813,-0.14935 0.15865,-0.14934 0.18396,-0.0315 -0.003,-0.60978 -0.46508,0.13746 -0.61754,0.1819 -0.0501,0.33125 -0.0501,0.33124 -3.42253,1.20458 -3.42201,1.20458 -2.0035,0.75913 -2.00298,0.75912 -0.58446,0.12041 -0.58446,0.12041 -1.75286,0.71985 -1.75287,0.71933 -3.2551,1.78232 -3.25561,1.78284 -0.36897,0.35915 -0.36949,0.35915 -0.51883,0.91829 -0.51935,0.91778 0.0538,-0.18397 0.0532,-0.18449 0.89142,-2.08824 0.89142,-2.08773 3.06493,-1.29449 3.06493,-1.29398 0.2589,-0.28629 0.25941,-0.28629 v -0.10955 -0.11007 l -1.02112,-2.46445 -1.02113,-2.46497 -1.07435,-2.92126 -1.07384,-2.92179 -1.25367,-4.00647 -1.25419,-4.00648 -0.89658,-3.65197 -0.89711,-3.65197 0.40825,-0.64699 0.40824,-0.64699 0.28991,0.0109 0.29042,0.0103 -0.37569,0.15141 -0.37569,0.15089 v 0.1788 0.17932 l 0.74776,2.9776 0.74776,2.97759 1.01182,3.53157 1.01235,3.53157 0.93224,2.3735 0.93224,2.37401 1.38235,3.3414 1.38182,3.3414 0.47801,0.9989 0.47852,0.99942 0.33073,0.047 0.33073,0.0475 3.46439,-1.2578 3.46439,-1.25781 h 0.15503 0.15451 l 2.62568,-0.94154 2.62568,-0.94206 1.35082,-0.81856 0.69402,-0.42013 -10e-4,-0.22789 -0.76016,0.44752 -1.2516,0.73639 -0.0563,-0.16847 -0.0563,-0.16898 h -0.24029 -0.24081 l -0.15865,0.41755 -0.15865,0.41754 h -0.0703 -0.0703 l -0.2713,-1.46089 -0.27078,-1.46089 -0.55346,-2.95176 -0.55397,-2.95124 1.24334,-0.11679 1.24333,-0.11627 0.11782,0.19017 0.11731,0.19017 0.47439,2.37711 0.47387,2.37712 0.0527,0.10128 0.0527,0.10129 0.92914,-0.1602 -0.001,-0.29145 -0.16743,0.0227 -0.27854,0.0786 -0.27853,0.078 -0.0837,-0.29869 -0.0832,-0.2992 -0.44597,-2.14147 -0.44545,-2.14148 0.0816,-0.0816 0.0816,-0.0822 0.11472,0.67851 0.11472,0.678 0.11731,0.0729 0.11782,0.0724 1.14102,-0.21911 -0.001,-0.28164 -0.95343,0.19534 -0.0568,-0.0568 -0.0568,-0.0568 -0.10284,-0.51521 -0.10284,-0.51522 1.1312,-0.12092 0.13746,-0.015 -0.001,-0.24287 -1.0201,0.015 -0.10645,-0.77876 -0.10697,-0.77825 0.0522,-0.0522 0.0522,-0.0522 1.12241,-0.10438 -10e-4,-0.27285 -0.24185,0.0315 -1.233,0.16071 -0.44338,0.005 -0.44339,0.005 -0.11214,-1.62781 -0.11213,-1.6278 -0.0816,-0.29198 -0.0822,-0.29197 h 0.49868 0.49868 l 0.13177,-0.0506 -0.43563,-0.2496 -0.21187,0.0207 -1.04335,0.10077 -1.42627,0.10956 -1.42627,0.10955 -0.42943,-2.93884 -0.27699,-0.15865 0.44132,2.96933 -0.0786,0.12713 -0.0796,0.12764 h -0.57464 -0.57464 l -0.005,-0.20878 -0.005,-0.20877 -0.23978,-1.75286 -0.23978,-1.75287 -10e-4,-0.078 -0.25839,-0.14779 0.18966,1.43815 0.21445,1.62574 0.006,0.5426 0.006,0.54261 h -0.66766 -0.66766 v 0.25786 0.25787 l 0.27234,1.08365 0.27181,1.08366 -0.092,0.092 -0.0925,0.0925 -2.39159,0.73639 -2.3921,0.73639 h -0.0982 -0.0987 l -0.97306,-3.34398 -0.97307,-3.34398 0.15348,-0.13333 0.15348,-0.13281 3.47782,-0.96066 3.17397,-0.87643 -0.31264,-0.17932 -0.38913,0.11575 -1.14515,0.34055 -0.31574,-0.005 -0.31574,-0.005 0.25011,-0.14366 0.25063,-0.14314 1.21026,-0.33951 0.0946,-0.0264 -0.29662,-0.17002 -1.18908,0.33177 h -0.1235 -0.12403 l -0.0749,-0.20826 -0.0754,-0.20877 -0.22531,-0.95291 -0.29663,-0.1695 0.36484,1.57974 -0.0682,0.0682 -0.0677,0.0677 -2.11512,0.57981 -2.1146,0.57981 h -0.0723 -0.0724 l -0.1633,-0.62632 -0.16329,-0.6258 -0.26045,-1.02577 -0.26045,-1.02578 v -0.32091 -0.32091 l 2.18178,-0.54002 -1.84072,-1.054198 -0.0899,0.0196 -1.41903,0.1881 -1.41904,0.188098 -1.36787,-0.107998 -1.36839,-0.10801 -0.67128,-0.2005 -0.67128,-0.20102 -4.96145,-4.67414 -4.96197,-4.674646 -0.30231,-0.21807 -0.30282,-0.21807 v 0.07389 0.07338 l 5.00848,4.707206 5.00848,4.70721 v 0.0734 0.0734 l -7.88841,-7.30085 -3.47214,-3.213756 -3.19567,-1.82986 5.04052,4.65243 7.09466,6.549466 0.58446,0.58808 0.58446,0.58808 -0.31678,-0.16589 -0.31678,-0.16588 -6.9882,-6.39444 -6.9882,-6.393916 -0.70849,-0.407213 -0.70797,-0.407211 -0.93896,-0.482141 -0.93896,-0.481624 z m 8.57416,4.736149 0.41806,0.42271 0.0486,0.0088 0.0486,0.0088 0.12661,-0.07235 z m -9.40925,8.889378 9.00359,0.95859 9.0041,0.95912 0.45889,0.0889 0.4594,0.0889 v 0.33383 0.33332 l -3.00499,1.43919 -3.00498,1.43919 v 0.19998 0.20051 l -2.02675,1.19631 -2.02727,1.19631 -0.30385,0.36483 -0.30386,0.36535 -0.90072,2.67116 -0.9002,2.67115 -2.01384,3.13883 -2.01383,3.13883 -0.4532,1.24333 -0.4532,1.24334 -0.10284,-0.0119 -0.10283,-0.0124 -6.09368,-2.18488 -6.09317,-2.18488 -0.0682,-0.0553 -0.0687,-0.0558 0.78237,-5.38986 0.78238,-5.38985 0.81908,-2.49184 0.81958,-2.49132 0.33745,-0.12505 0.33746,-0.12454 1.75235,0.8263 1.75234,0.82683 h 0.14366 0.14315 l 0.48007,-1.50276 0.48059,-1.5022 h 0.20568 0.20567 l 0.11007,-0.50074 0.11007,-0.50127 h 0.80718 0.80771 l 0.0667,-0.19947 z m -5.69835,0.0641 1.55545,0.60255 1.55546,0.60203 -0.0723,0.1912 -0.0724,0.19121 -0.38912,1.210778 -0.38913,1.21026 -0.1757,-0.015 -0.1757,-0.0145 -1.6278,-0.76481 -1.62781,-0.76481 v -0.38912 -0.389128 h -0.16175 -0.16175 l 0.11162,-0.29197 0.11163,-0.29249 0.52606,-0.5426 0.52607,-0.5426 0.23358,-5.2e-4 z m 32.55408,1.83762 -0.41755,0.141078 -0.41703,0.14107 -0.58446,0.092 -0.58446,0.0925 -0.41703,-0.13333 -0.41754,-0.13332 0.50074,-0.0181 0.50075,-0.0181 0.91829,-0.0817 z m -6.29625,0.636648 0.93638,0.19431 0.93585,0.1943 v 0.15503 0.15503 h 0.3173 0.31781 l 0.11782,1.01802 0.11833,1.01751 0.37518,-0.0718 0.37516,-0.0718 0.28992,1.18288 0.29041,1.18235 0.0708,0.17725 0.0713,0.17777 -1.29708,0.30437 -1.29759,0.30438 -0.20722,0.078 -0.20724,0.078 -0.0806,-0.22583 -0.0806,-0.22634 -0.65835,-2.67064 -0.65836,-2.67115 0.13539,-0.14108 z m 6.29625,0.49351 0.45785,1.96784 0.45785,1.96836 -0.0672,0.0672 -0.0672,0.0672 -1.22524,0.31833 -1.22578,0.31781 -0.10542,0.003 -0.1049,0.003 -0.19585,-0.79323 -0.19586,-0.79272 -0.16433,-0.62632 -0.16433,-0.6258 h -0.41083 -0.41134 v -0.83457 -0.83509 h 0.72709 0.72657 l 0.98443,-0.10232 z m -8.09666,0.70642 h 0.25011 0.25063 v 0.16691 0.16692 h -0.25063 -0.25011 v -0.16692 z m -0.25063,0.20464 0.0574,0.24804 0.0568,0.24805 0.40204,-0.077 0.40154,-0.077 0.15813,0.60306 0.15761,0.60306 0.1049,0.43409 0.10438,0.43459 -2.52026,0.94258 -2.52026,0.9431 h -0.0693 -0.0698 l -0.0744,-0.12506 -0.0749,-0.12557 -0.2,-0.97307 -0.19999,-0.97307 0.10904,-0.10904 0.10903,-0.10903 2.03399,-0.94413 z m 14.19034,2.18488 0.0692,0.0574 0.0698,0.0568 -0.10489,0.10491 -0.1044,0.10438 -1.96835,0.55966 -1.96835,0.55862 -0.20877,0.004 -0.20826,0.004 v -0.12506 l 5.2e-4,-0.12557 2.21175,-0.59945 z m -19.62876,0.11472 h 0.17363 0.17311 v 0.10955 0.11007 l 0.73897,3.10369 0.73897,3.10369 2.16318,7.67963 2.16318,7.67912 0.54881,2.46703 0.54931,2.46703 -0.17208,0.17209 -0.17208,0.17208 -4.73976,0.23203 -4.73976,0.23254 -1.50275,0.0636 -1.50224,0.0631 -2.67115,-0.10025 -2.67116,-0.0997 -2.20141,-0.40876 -2.20194,-0.40824 0.54054,-0.75706 0.54053,-0.75655 0.53847,-0.94568 0.53847,-0.94567 0.91674,-3.0608 0.91674,-3.06079 0.48369,-1.27073 0.48369,-1.2702 1.96888,-3.0701 1.96887,-3.0701 0.88418,-2.56315 0.88419,-2.56315 0.26199,-0.44183 0.26149,-0.44184 2.06861,-1.21026 z m 6.93239,0.35295 0.0191,0.032 0.0191,0.032 0.42168,1.80816 0.4222,1.80867 -0.18656,0.0641 -0.18603,0.0641 -2.3704,0.58963 -2.3704,0.59014 h -0.14934 -0.14935 l -0.29714,-1.4149 -0.29662,-1.4149 0.0103,-0.11317 0.0109,-0.11317 2.55126,-0.96635 z m 7.79383,0.78238 0.0858,0.0858 0.0858,0.0858 1.06246,3.64008 1.06299,3.64009 -0.0331,0.0269 -0.0326,0.0274 -1.20148,0.26975 -1.20198,0.27027 h -0.16589 -0.16588 l -0.076,-0.12506 -0.0765,-0.12505 -1.01854,-3.49953 -1.01855,-3.49953 v -0.10749 -0.10748 l 1.34669,-0.29094 z m 10.30841,0.16795 0.047,0.44958 0.0522,0.17622 0.0522,0.17673 1.08365,-0.0951 -0.3116,-0.1788 -0.26769,0.002 -0.28164,0.002 -0.0429,-0.34313 z m -73.82236,0.13746 -0.24185,0.14107 0.62994,0.97462 v 0.36794 0.36742 l 0.47335,1.1498 0.47285,1.1498 0.63355,2.08721 0.63303,2.08669 0.81494,2.23036 0.81545,2.23087 0.24392,0.44028 0.24443,0.4408 1.42265,5.16196 1.42265,5.16248 -0.0563,0.0563 -0.0563,0.0558 -5.66063,1.68723 -5.66064,1.68724 -0.33383,-0.007 -0.33383,-0.007 -1.84123,-0.74465 0.001,0.25838 1.99626,0.7953 h 0.1943 0.19431 l 5.88698,-1.74976 5.88698,-1.74977 0.0465,-0.046 0.0465,-0.0465 -1.49965,-5.41879 -1.49965,-5.41827 -0.1509,-0.18139 -0.15038,-0.1819 -0.82269,-2.24844 -0.82217,-2.24844 -0.6997,-2.24999 -0.6997,-2.25 -0.48059,-1.25212 -0.48059,-1.25212 -0.0915,-0.44803 -0.0915,-0.44855 z m 60.61232,0.63148 0.43822,1.5503 0.4377,1.55029 v 0.14986 0.14986 l -0.37568,0.0977 -0.37569,0.0982 -1.10433,0.31936 -1.10432,0.31936 -0.4377,-1.63143 -0.43719,-1.63142 -0.0915,-0.23771 -0.0909,-0.23772 1.57096,-0.24856 z m 16.53542,1.89911 0.10852,1.47795 0.10802,1.47846 0.0785,0.37569 0.078,0.37569 h -0.33692 -0.33693 v 0.16691 0.16692 h -0.57 -0.57 l -0.10593,-1.29398 -0.10593,-1.29346 -0.0899,-0.62632 -0.0899,-0.6258 h 0.41082 0.41134 l 0.5054,-0.10129 z m -2.00813,0.18345 0.12144,1.85467 0.12092,1.85467 -0.0605,0.0532 -0.0605,0.0538 -1.71153,0.11782 -1.71101,0.11782 -0.077,-0.22221 -0.0775,-0.2222 -0.40153,-1.61128 -0.40152,-1.61127 1.6893,-0.10852 1.6893,-0.10852 0.44029,-0.0837 z m 3.71087,0.0284 v 0.36845 0.74827 l 0.10852,0.54416 0.10904,0.54363 1.002,-0.0755 -0.002,-0.2961 -0.88417,0.0305 v -1.10381 -0.56844 z m -22.30613,0.15451 0.11575,0.12661 0.11525,0.12609 1.02112,3.31246 1.02062,3.31245 v 0.19741 0.1974 l -2.6293,0.54002 -2.6293,0.54105 -0.13023,-0.002 -0.13074,-0.002 -0.0842,-0.22014 -0.0848,-0.21963 -0.90744,-3.24011 -0.90796,-3.23959 0.12093,-0.10801 0.12092,-0.10749 2.49494,-0.60719 z m 5.01727,1.35547 0.0615,0.062 0.062,0.0615 0.4961,1.70015 0.4961,1.69964 -0.0615,0.0615 -0.0615,0.0615 -1.21181,0.25477 -1.21182,0.25476 h -0.24443 -0.24494 l -0.0739,-0.20826 -0.0734,-0.20877 -0.43408,-1.3932 -0.43408,-1.39268 0.0698,-0.0703 0.0703,-0.0698 1.39785,-0.40618 z m 9.75185,1.53117 0.10491,0.41858 0.1049,0.41807 -0.13436,0.13332 -0.13436,0.13384 -2.30993,0.84388 -2.30994,0.84439 h -0.0527 -0.0527 l -0.18552,-0.53227 -0.18552,-0.53226 0.12714,-0.11679 0.12763,-0.11731 2.44999,-0.74672 z m 7.28638,0.8816 0.0501,0.76585 0.0496,0.76533 -0.52968,0.10593 -0.53021,0.10646 h -1.1653 -1.16582 l 0.0961,-0.25063 0.0961,-0.25063 h -0.16174 -0.16175 v -0.33383 -0.33383 h 0.74311 0.7431 l 0.13333,-0.23565 0.13332,-0.23616 0.8351,-0.0512 z m -2.75435,0.0507 0.37518,0.0723 0.37568,0.0724 h -0.75086 -0.75138 l 0.37569,-0.0724 z m -1.0852,0.0723 0.0377,0.0274 0.0377,0.0279 0.15709,1.07487 0.1571,1.07487 0.77256,4.09019 0.77205,4.09019 0.0346,0.22221 0.0341,0.22272 -0.83458,0.32091 -0.83457,0.32091 -0.29249,0.0935 -0.29197,0.0941 v -0.0801 -0.0796 l -1.41387,-5.55729 -1.41335,-5.55676 0.0439,-0.0444 0.0444,-0.0439 1.49448,-0.14883 z m -3.40186,0.3111 0.0636,0.19585 0.0636,0.19585 0.51056,1.95286 0.51004,1.95336 v 0.0734 0.0734 l -0.59944,0.11213 -0.59997,0.11266 0.0982,0.39067 0.0982,0.39119 -0.52504,0.18294 -0.52451,0.18293 h -0.14625 -0.14624 l -0.1757,-0.4594 -0.1757,-0.45889 -0.65733,-1.90376 -0.65733,-1.90324 0.0439,-0.0279 0.0444,-0.0284 1.38752,-0.5178 z m -5.50974,0.33848 0.16175,0.42529 0.16123,0.42478 -0.0517,0.0522 -0.0522,0.0517 -2.33164,0.51832 -2.33164,0.51831 -0.63666,0.14263 -0.63665,0.14263 -0.18345,-0.40308 -0.18345,-0.40256 0.0977,-0.0977 0.0977,-0.0971 2.22467,-0.47387 2.22519,-0.47387 0.71985,-0.16382 z m 2.40089,0.85938 1.26607,3.60339 1.26659,3.6034 -0.51521,0.185 -0.51522,0.185 -0.34313,0.10801 -0.34262,0.10852 -1.22369,-3.59565 -1.22422,-3.59513 0.0646,-0.0558 0.0641,-0.0553 0.75137,-0.24598 z m -52.29138,0.25011 0.14107,0.22272 0.1416,0.22273 0.003,0.60513 0.003,0.60513 -0.24236,0.68782 -0.24289,0.68833 -0.11266,1.63504 -0.11264,1.63504 0.85111,2.15491 0.85008,2.1549 -0.0543,0.0543 -0.0543,0.0543 -0.87644,-2.13217 -0.87643,-2.13269 0.11007,-1.79576 0.11007,-1.79575 0.25942,-0.62012 0.25889,-0.62012 -0.078,-0.81183 z m 50.31424,0.0145 0.32091,1.05006 0.32039,1.05059 v 0.14831 0.14883 l -2.8081,0.87436 -2.80809,0.87385 -0.13591,-0.35502 -0.13591,-0.35502 -0.416,-1.02164 -0.41599,-1.02164 2.85926,-0.62942 2.85925,-0.62994 0.17984,-0.0667 z m -7.39748,1.84175 0.12144,0.1297 0.12143,0.12971 0.82941,2.33733 0.82992,2.33681 -0.045,0.0527 -0.045,0.0527 -2.56264,0.71571 -2.56263,0.71572 -0.33641,0.10697 -0.33693,0.10697 -0.76068,-2.71198 -0.7612,-2.71146 0.26304,-0.12144 0.26251,-0.12144 2.49132,-0.50901 z m 8.33282,0.79633 -0.0739,0.22118 -0.0734,0.22117 -2.6572,0.8878 -2.65669,0.88729 h -0.12919 -0.12919 v -0.24443 -0.24443 l 2.37867,-0.74828 2.37918,-0.74776 0.48111,-0.11627 z m -42.36331,0.2527 6.09317,2.16938 6.09317,2.16886 0.0506,0.046 0.0506,0.046 -0.84491,2.81585 -0.84491,2.81533 -0.44235,0.83457 -0.44235,0.83458 -0.65681,0.94774 -0.65681,0.94723 -2.19676,-0.0139 -2.19625,-0.0145 -1.50275,0.2713 -1.50224,0.2713 -1.07487,0.42323 -1.07538,0.42323 h -0.0491 -0.0496 l 0.0904,-0.96014 0.0904,-0.95964 0.47698,-6.4828 0.47749,-6.48281 0.0558,-0.0501 z m 47.5785,0.32969 0.10955,0.10801 0.10955,0.10748 0.82838,3.27371 0.82785,3.2737 -0.86868,0.27388 -0.86919,0.27389 h -0.11473 -0.11472 l -0.17777,-0.45889 -0.17776,-0.4594 -0.58498,-1.66915 -0.58446,-1.66967 -0.23668,-0.74104 -0.23616,-0.74155 0.1266,-0.11472 0.12662,-0.11524 0.6325,-0.20206 0.63252,-0.20205 -0.10127,-0.31988 -0.10181,-0.31988 0.38758,-0.14831 z m -5.22656,0.0982 0.12558,0.14263 0.12557,0.14211 0.44752,1.23351 0.44751,1.233 -0.0465,0.0434 -0.046,0.0434 -2.6882,0.92139 -2.68821,0.92191 -0.52659,-1.28003 -0.52709,-1.28002 0.001,-0.17105 0.001,-0.17053 2.68718,-0.88987 z m 1.17667,3.03961 h 0.0636 0.063 v 0.23668 0.23667 l -1.34875,0.44907 -1.34928,0.44959 0.10749,0.4408 0.10749,0.4408 0.0853,0.35191 0.0847,0.3514 -1.1901,0.44132 -1.19011,0.44132 -0.0326,-5.2e-4 h -0.032 l -0.37259,-0.9493 -0.37207,-0.94878 0.0439,-0.0439 0.0444,-0.0444 2.64377,-0.92656 z m 0.29353,0.68988 v 0.0403 0.0403 l 0.75034,2.06396 0.75034,2.06396 -0.0475,0.0475 -0.0476,0.0475 -2.28771,0.84181 -2.28823,0.84181 h -0.14728 -0.14728 l -0.1695,-0.20877 -0.1695,-0.20878 -0.49816,-1.10484 -0.49867,-1.10484 1.32498,-0.46147 1.32447,-0.46096 -0.0832,-0.21652 -0.0832,-0.21652 -0.10802,-0.5762 -0.108,-0.57619 1.26711,-0.42581 z m -8.17625,0.14417 h 0.27646 0.27596 l -0.10232,0.10284 -0.10283,0.10284 -1.69758,0.47284 -1.69757,0.47335 -0.0579,0.0579 -0.0579,0.0579 0.24236,0.91054 0.24236,0.91054 0.002,0.0294 0.002,0.03 -0.90227,0.26252 -0.90227,0.262 h -0.231 -0.23099 l -0.27802,-1.03715 -0.2775,-1.03766 0.0336,-0.032 0.0336,-0.0326 2.71508,-0.76636 z m 10.33115,0.0357 0.50953,1.33532 0.51005,1.3348 0.0951,0.37982 0.0956,0.37983 -0.79427,0.27078 -0.79375,0.27027 h -0.0119 l -0.0124,-5.2e-4 -0.60875,-1.72599 -0.60926,-1.72599 0.81028,-0.25942 z m -10.08672,0.46509 h 0.19172 0.19172 l 0.27699,0.69298 0.27698,0.69246 -0.13384,0.12351 -0.13384,0.12351 -1.53376,0.43615 -1.53376,0.43563 h -0.16381 -0.16381 l -0.16847,-0.79065 -0.16898,-0.79117 0.0553,-0.0548 0.0548,-0.0553 1.47639,-0.40617 z m 0.95705,1.80609 0.13642,0.14056 0.13695,0.14056 0.75344,1.83606 0.75396,1.83658 -0.28267,0.28526 -0.28267,0.28577 -1.7353,0.75758 -1.73529,0.75809 h -0.0388 -0.0388 l -0.61236,-2.44688 -0.61237,-2.44636 0.13281,-0.11576 0.13229,-0.11524 1.64641,-0.45785 z m 17.0496,0.35553 0.1602,0.1602 0.1602,0.1602 -0.0909,0.23564 -0.0904,0.23565 -2.47737,0.86144 -2.47736,0.86093 -0.52245,0.0997 -0.52245,0.0997 -0.12247,-0.19843 -0.12248,-0.19844 0.14418,-0.14366 0.14366,-0.14366 2.90887,-1.01441 z m 0.46612,0.42634 0.14367,0.33382 0.14314,0.33383 0.0119,0.20878 0.0119,0.20877 h -0.16692 -0.16692 l 0.0114,-0.5426 z m -21.75784,0.41702 h 0.22944 0.22945 l 0.59169,2.49856 0.59118,2.49804 -1.0573,0.42323 -1.05678,0.42323 h -0.0543 -0.0537 l -0.54725,-2.45515 -0.54674,-2.45515 -0.077,-0.2005 -0.077,-0.20051 0.91415,-0.26561 z m -40.22649,0.0837 0.18966,0.29507 0.18913,0.29507 -0.0651,0.62322 -0.0651,0.6227 -0.0284,-0.61236 -0.0279,-0.61237 -0.0961,-0.30541 z m 61.79417,0.0475 v 0.35192 0.35192 h 0.13022 0.13022 l 0.20206,0.53536 0.20205,0.53537 -0.1235,0.11162 -0.12403,0.11162 -1.66914,0.54364 -1.66967,0.54415 -0.17932,0.14056 -0.17931,0.14056 -0.29301,-0.92862 -0.29301,-0.92915 0.077,-0.0765 0.0765,-0.077 1.56425,-0.56223 1.56424,-0.56224 0.29198,-0.11524 z m -6.97787,1.37149 h 0.23357 0.23305 v 0.21963 0.22014 l -0.89967,0.2837 -0.89969,0.28371 -0.93327,0.49816 -0.9338,0.49764 h -0.15761 -0.15813 l -0.0589,-0.29197 -0.0589,-0.29197 1.81694,-0.70952 z m 2.8515,0.25012 0.64027,2.00349 0.63975,2.0035 0.004,0.17415 0.004,0.17363 -0.75396,0.20154 -0.75448,0.20205 h -0.15038 -0.15089 l -0.68162,-2.04535 -0.68161,-2.04535 v -0.18655 -0.18656 l 0.62632,-0.10025 0.6258,-0.10025 0.31626,-0.047 z m -57.25853,0.16691 0.0698,0.46147 0.0703,0.46147 -0.0723,0.37363 -0.0718,0.3731 0.002,-0.83458 z m 54.93206,0.25322 0.0527,0.0527 0.0527,0.0527 0.7307,2.19418 0.73071,2.1947 -0.88005,0.2558 -0.88005,0.25579 h -0.22996 -0.22996 l -0.64389,-1.96163 -0.64389,-1.96164 -0.0708,-0.18965 -0.0708,-0.19017 1.04128,-0.3514 z m -4.43642,0.8139 0.26922,0.79013 0.26925,0.79014 v 0.0496 0.0496 l -1.29347,0.37517 -1.29397,0.37517 -0.42944,0.46819 -0.42892,0.46818 -0.31781,-0.35088 -0.31729,-0.35088 -0.46354,-0.27389 -0.46354,-0.27388 v -0.26458 -0.26407 l 1.71101,-0.68626 1.71101,-0.68627 0.524,-0.10748 z m 2.13372,0.0506 0.71107,2.09858 0.71106,2.09858 -0.18345,0.11369 -0.18345,0.11317 -3.20342,0.88832 -3.20291,0.88832 -0.61133,0.38189 -0.61081,0.38189 -0.0884,-0.23048 -0.0884,-0.23099 0.17518,-0.63821 0.17519,-0.63872 0.23926,-0.46457 0.23926,-0.46457 0.14056,0.0873 0.14108,0.0873 0.20619,-0.24908 0.20618,-0.24857 -0.18552,-0.22376 -0.18603,-0.22427 0.0982,-0.0982 0.0982,-0.0982 0.26097,0.10025 0.26045,0.0997 0.34933,-0.43046 0.34882,-0.43046 1.46089,-0.44235 1.46038,-0.44235 v -0.0625 -0.0625 l -0.16227,-0.42788 -0.16278,-0.42737 0.79323,-0.40204 z m -52.46708,0.88574 0.0723,0.37569 0.0724,0.37568 -0.0724,0.37569 -0.0723,0.37569 v -0.75138 z m 45.32953,0.91105 0.47594,0.47388 0.47542,0.47387 0.32608,0.18138 0.32608,0.18139 -0.22118,0.26665 -0.22117,0.26665 0.21083,0.25425 0.21085,0.25373 -0.23203,-0.0868 -0.23255,-0.0863 -0.65008,1.2392 -0.6501,1.23972 0.27595,0.27595 0.27595,0.27596 -0.0827,0.13435 -0.0832,0.13385 0.18604,0.5333 0.18603,0.5333 -0.63924,0.65474 -0.63923,0.65422 h -0.22066 -0.22066 l -1.20613,0.60772 -1.20561,0.60719 -2.72335,0.56121 -2.72386,0.56121 h -0.3214 -0.32144 l 0.42737,-0.95963 0.42685,-0.96015 0.67282,-1.58595 0.67284,-1.58595 0.44234,-0.72037 0.44236,-0.71985 1.0852,-0.59635 1.0852,-0.59635 2.19522,-1.233 z m -45.16262,0.92553 0.0724,0.37724 0.0734,0.37775 -0.076,0.29042 -0.076,0.28991 0.003,-0.66766 z m 58.41813,0.89607 0.0444,0.0527 0.0444,0.0527 0.11059,0.6134 0.11111,0.61288 -0.96067,0.19947 -0.96118,0.19947 -0.2129,0.0816 -0.2129,0.0816 -0.0248,-0.43512 -0.0253,-0.43511 -0.0165,-0.19947 -0.0165,-0.19947 1.05987,-0.31265 z m -45.35846,0.49971 3.50573,0.51986 3.50573,0.51987 2.96312,0.1018 2.96313,0.1018 v 0.54054 0.54105 l -0.16588,1.72858 -0.16588,1.72909 -0.0935,0.70125 -0.0935,0.70125 -0.95085,-0.0134 -0.95084,-0.0129 -2.75694,0.12712 -2.75746,0.12712 -2.21175,-0.19533 -2.21227,-0.19586 -1.29087,0.40308 -1.29036,0.40308 -0.78755,0.11368 -0.78755,0.11369 -0.10542,-0.4687 -0.10594,-0.46871 -0.262,-0.8692 -0.262,-0.86971 0.2372,-0.96687 0.23668,-0.96686 -0.006,-1.53221 -0.006,-1.53272 0.50643,-0.0889 0.50643,-0.0889 1.41903,-0.10128 z m 42.89194,0.19017 h 0.0243 0.0238 l 0.21446,1.25212 0.21394,1.25212 h 0.0672 0.0677 l 1.08572,-0.27285 1.08624,-0.27285 -0.10491,-0.47853 -0.10542,-0.47852 h 0.14573 0.14573 l 0.1974,0.94103 0.1974,0.94051 -0.0894,0.14417 -0.0889,0.1447 h -0.22273 -0.22273 l -0.0894,-0.23255 -0.0889,-0.23254 -2.53576,0.72812 -2.53525,0.72812 -0.2899,0.092 -0.29043,0.092 -0.43872,-1.53686 -0.43874,-1.53685 0.0703,-0.0703 0.0703,-0.0703 1.96525,-0.56638 z m -47.08859,0.16691 h 0.0744 0.0739 l -0.0827,1.87793 -0.0822,1.87843 -0.23721,0.53434 -0.23719,0.53433 -0.20567,-0.32918 -0.20619,-0.32918 -0.39584,-1.83193 -0.39636,-1.83141 0.84749,-0.25166 z m -2.04019,0.60307 0.15246,0.24081 0.15191,0.24133 0.003,0.29197 0.002,0.29197 -0.0413,-0.007 -0.0419,-0.007 -0.58447,-0.31109 -0.58445,-0.31109 0.47128,-0.21498 z m 27.93939,0.21084 0.64957,0.0103 0.65009,0.0103 -0.10077,0.96273 -0.10077,0.96222 -1.08934,2.28151 -1.08933,2.28151 -0.15556,0.0961 -0.15555,0.0961 -0.72294,0.0734 -0.72347,0.0734 -1.33584,-0.40359 -1.33531,-0.40359 -1.71101,-0.005 -1.71152,-0.005 5.1e-4,-0.29197 0.001,-0.29249 0.25528,-2.66289 0.2558,-2.66289 0.0398,-0.0398 0.0398,-0.0398 4.16977,-0.0207 z m 23.36602,0.0444 0.12504,0.19689 0.12506,0.19688 0.003,0.18862 0.003,0.18914 -0.74207,0.18655 -0.74259,0.18655 h -0.17622 -0.17673 v -0.40359 -0.40359 l 0.79065,-0.16899 z m -6.47404,0.31006 0.36019,1.31413 0.36018,1.31361 v 0.27234 0.27182 h -0.23667 l -0.23719,0.001 -0.25374,0.0971 -0.25372,0.0977 -0.18914,-0.72347 -0.18862,-0.72347 -0.23926,-0.82476 -0.23875,-0.82423 0.20878,-0.13281 0.20929,-0.13281 0.34933,-0.003 z m -46.05455,0.0315 0.82786,0.38344 0.82785,0.38396 0.20826,1.10432 0.20877,1.10484 0.47956,0.66198 0.47956,0.66197 0.31006,1.15704 0.31058,1.15755 -1.46296,1.01389 -1.46348,1.01389 -0.76016,0.96325 -0.76017,0.96325 -0.8418,0.72089 -0.84129,0.72037 -0.5979,1.03249 -0.59789,1.03198 -0.89245,0.62632 -0.89246,0.6258 h -0.0966 -0.0966 l 0.0786,-0.37569 0.0791,-0.37569 0.16899,-0.85782 0.16898,-0.85835 -0.30851,-1.59267 -0.30851,-1.59318 0.24443,-1.05472 0.24495,-1.05471 -0.10129,-0.63614 -0.10076,-0.63614 0.10852,-1.05936 0.10852,-1.05937 2.63394,-2.0867 z m 44.73165,0.30231 0.19739,0.79323 0.19689,0.79272 0.25373,0.88366 0.25425,0.88315 0.36173,-0.10387 0.36174,-0.10335 0.31316,-0.0879 0.31316,-0.0884 -0.10645,0.17208 -0.10645,0.17208 -0.51367,0.11266 -0.51418,0.11317 0.10231,0.35863 0.10284,0.35915 0.10542,0.48524 0.10543,0.48473 -0.18656,-0.11524 -0.18707,-0.11575 -0.31885,0.31936 -0.31936,0.31884 -0.0625,0.1695 -0.0625,0.16898 -1.0852,-0.15348 -1.0852,-0.15348 -0.42685,-0.23564 -0.42685,-0.23565 -0.49144,0.40205 -0.49144,0.40255 -0.10026,0.006 -0.10078,0.006 -0.77411,-0.98547 -0.77463,-0.98599 0.58601,-0.51418 0.58601,-0.51469 0.14728,-0.38654 0.14676,-0.38603 -0.0837,-0.4377 -0.0837,-0.43769 0.54157,-0.28009 0.54157,-0.27957 1.3534,-0.39739 1.35393,-0.39739 0.18862,-0.004 z m 11.87007,0.92604 -0.3111,0.10852 v 0.22014 0.22014 l 0.31574,0.73691 -0.003,-0.6842 -0.11678,-0.29662 0.11575,-0.0434 z m -3.98374,0.43305 v 0.13539 0.13539 l -2.5461,0.70952 -2.54558,0.709 -0.12558,0.0713 -0.12505,0.0718 v -0.15399 -0.154 l 1.5441,-0.43873 1.54408,-0.43925 1.12707,-0.32298 z m 0.16329,0.50074 0.14366,0.53072 0.14367,0.53123 -0.0362,0.047 -0.0362,0.047 -2.48461,0.75241 -2.4846,0.75241 -0.1788,0.0599 -0.1788,0.0605 -0.16846,-0.63252 -0.16899,-0.63252 1.26556,-0.35192 1.26556,-0.35191 1.45934,-0.40618 z m 0.19896,1.44074 0.14934,0.14986 0.14986,0.14935 0.10749,0.53743 0.10749,0.53744 h -0.19379 -0.19379 l -0.40307,-0.26459 -0.40359,-0.26406 -0.35347,0.11214 -0.35398,0.11265 -0.57206,0.894 -0.57206,0.89452 -0.55862,0.42633 -0.55914,0.42582 -0.56844,-0.0103 -0.56844,-0.0109 -0.54261,-0.26975 -0.5426,-0.27027 v -0.1974 -0.19792 l -0.31781,-0.40411 -0.31781,-0.4036 -0.19379,-0.72088 -0.1943,-0.72037 0.0532,-0.0527 0.0527,-0.0532 0.44752,-0.11214 0.44751,-0.11265 0.20464,0.68316 0.20464,0.68316 h 0.16382 0.16381 l 2.57865,-0.77049 z m -14.60738,1.04025 h 0.20567 0.20567 l 0.44804,0.53433 0.44855,0.53485 -0.0429,0.13695 -0.0434,0.13694 0.75293,2.62103 0.75241,2.62154 -0.003,0.50488 -0.003,0.5054 -0.12246,0.16691 -0.12196,0.16692 -6.43991,0.0238 -6.43941,0.0243 -0.20567,-0.32867 -0.20516,-0.32866 0.95241,-2.49184 0.95187,-2.49183 h 0.41599 0.41651 l 3.01171,-0.6041 3.01222,-0.6041 1.02629,-0.56431 z m -47.10668,0.15038 -0.41703,0.34468 -0.41755,0.34468 -1.38027,0.66508 -1.3808,0.66507 h -0.0801 -0.0801 v -0.0817 -0.0822 l 1.87792,-0.92811 z m 38.02868,2.10323 -0.12402,0.33383 -0.12403,0.33383 -0.58756,1.50223 -0.58652,1.50275 -1.81023,5.00796 -1.81074,5.00848 -0.007,-0.29455 -0.007,-0.29404 2.34766,-6.38359 2.34766,-6.38307 0.18086,-0.16692 z m -10.57868,1.37562 3.97082,0.54726 3.97133,0.54673 0.0615,0.0512 0.0615,0.0506 -0.78445,2.13682 -0.78393,2.1363 -0.11214,0.11576 -0.11214,0.11523 -2.52646,0.42737 -2.52697,0.42685 h -0.23668 -0.23668 l -0.3762,-1.16893 -0.37673,-1.16892 0.0899,-0.14469 0.0894,-0.14521 0.50436,-0.20877 0.50437,-0.20929 v -0.13798 -0.13849 l -0.66766,-1.53893 -0.66715,-1.53892 0.077,-0.077 z m -37.88813,1.7446 0.16124,0.6103 0.16123,0.60978 0.59221,2.28307 0.59221,2.28306 v 0.0889 0.0884 l -1.64641,0.50798 -1.6459,0.50798 h -0.0651 -0.0651 L 86.189,147.84771 85.43762,144.9683 v -0.16691 -0.16692 l 1.70894,-0.44287 z m -3.76359,0.98599 0.0202,0.0336 0.0207,0.0336 0.77825,2.93728 0.77876,2.93729 v 0.093 0.093 l -0.52606,0.18345 -0.52555,0.18345 h -0.28164 -0.28215 l -0.79479,-2.87993 -0.7953,-2.87992 -0.0248,-0.14883 -0.0253,-0.14935 0.82889,-0.21807 z m -1.99419,0.50953 0.0227,0.0289 0.0227,0.0295 1.28002,4.50722 1.28003,4.50773 0.0853,0.28577 0.0853,0.28629 -0.61444,0.25632 -0.6134,0.25683 h -0.20102 -0.20102 l -1.28106,-4.74131 -1.28157,-4.7408 v -0.14934 -0.14935 l 0.70848,-0.18914 z m 43.21183,0.96479 0.11782,0.13126 0.11782,0.13126 0.3545,1.07229 0.35502,1.07228 -0.0408,0.0331 -0.0408,0.0331 -5.17488,0.87126 -5.17539,0.87075 -0.50075,0.0729 -0.50074,0.0723 0.33383,-0.1695 0.33383,-0.17001 4.91029,-2.01073 z m 6.46058,1.79679 0.10026,0.10026 0.0997,0.0997 -0.72037,1.98851 -0.72088,1.98799 -1.27176,0.41703 -1.27227,0.41651 -0.68058,-2.0562 -0.68058,-2.05621 0.27543,-0.078 0.27596,-0.078 2.29753,-0.37052 z m -5.43222,0.91158 0.0196,0.0289 0.0191,0.0289 0.68212,2.05414 0.68162,2.05362 -0.19947,0.0749 -0.19896,0.0754 -5.20484,1.7353 -5.20486,1.73529 -1.59215,-2.77089 -1.59267,-2.77141 0.0734,-0.0729 0.0729,-0.0729 6.22184,-1.04955 z m -36.8918,1.01906 0.19792,0.64698 0.19843,0.64751 0.0522,0.34985 0.0522,0.34933 -1.91978,1.30638 -1.91978,1.30638 -0.51056,0.10232 -0.51056,0.10181 -0.4377,-1.54823 -0.43718,-1.54874 0.047,-0.0465 0.047,-0.047 2.57038,-0.81028 z m 23.95202,1.16323 0.31936,0.524 0.31988,0.52348 2.16472,3.77342 2.16525,3.77341 0.29197,0.90124 0.29145,0.90072 1.83813,4.30516 1.83762,4.30568 -0.063,0.0496 -0.063,0.0501 -2.42053,1.84226 -2.42052,1.84175 -1.50275,0.90485 -1.50224,0.90486 -1.05471,0.45217 -1.0542,0.45217 h -0.20826 -0.20825 l -4.99763,-6.79546 -4.99815,-6.79545 -0.0465,-0.17725 -0.046,-0.17776 2.39314,-4.39612 2.39313,-4.39663 0.28577,-0.15968 0.28629,-0.1602 2.9993,-1.22318 z m 16.78192,1.46503 h 0.10852 0.10852 l -0.31419,1.21026 -0.31419,1.21026 -0.003,1.18959 -0.003,1.1896 -0.0982,0.49196 -0.0987,0.49247 -5.45238,0.53589 -5.45188,0.5364 -0.0853,-0.006 -0.0853,-0.006 -0.17621,-0.29197 -0.17674,-0.29249 -0.53485,-0.94464 -0.53485,-0.94465 6.55619,-2.18539 z m -0.66869,6.04873 0.12247,0.18913 0.12247,0.18914 0.003,1.21078 0.003,1.21026 h -0.23048 -0.23048 l -4.2354,0.41289 -4.23592,0.4129 -0.61391,0.0878 -0.61392,0.0879 -0.34106,-0.91106 -0.34107,-0.91157 -0.1049,-0.41703 -0.10439,-0.41703 0.39171,-0.0847 0.39222,-0.0853 5.00797,-0.4868 z m -21.11758,0.94774 v 1.84382 1.84433 h 1.16892 1.16841 v -0.25063 -0.25063 h -0.91829 -0.91829 v -0.58395 -0.58446 h 0.83509 0.83457 v -0.25063 -0.25011 h -0.83457 -0.83509 v -0.49196 -0.49248 l 0.87643,-0.0501 0.87643,-0.0506 v -0.16691 -0.16692 l -1.12654,-0.0496 z m -2.35903,0.015 -0.31729,0.17001 -0.31729,0.1695 -0.18397,0.68368 -0.18397,0.68368 0.11266,0.66663 0.11265,0.66662 0.31574,0.31626 0.31626,0.31626 h 0.48886 0.48886 l 0.34572,-0.43976 0.34623,-0.43977 v -0.95653 -0.95705 l -0.34623,-0.43977 -0.34572,-0.43976 h -0.41651 z m 0.43615,0.31367 0.29404,0.36226 0.29352,0.36276 v 0.77928 0.77877 l -0.25993,0.37104 -0.25993,0.37103 -0.11576,-0.0129 -0.11575,-0.0134 -0.20567,-0.0832 -0.20568,-0.0832 -0.17621,-0.65474 -0.17674,-0.65474 0.17519,-0.65061 0.17518,-0.6506 0.28887,-0.11111 z m 23.24458,1.70739 0.11937,2.76986 0.11989,2.76986 -0.1943,0.11989 -0.19431,0.1204 -1.07435,0.10025 -1.07435,0.10026 -1.1498,0.34261 -1.1498,0.3421 -0.97514,0.7152 -0.97461,0.7152 -0.17467,0.10594 -0.17518,0.10594 -1.54978,-3.59255 -1.54978,-3.59254 0.0553,-0.0553 0.0558,-0.0558 4.50722,-0.43098 4.50721,-0.4315 0.43564,-0.0744 z" /><path
         id="path3-2-3"
         style="fill:#ffd42a;stroke:none;stroke-width:0.733629;stroke-miterlimit:3.3;paint-order:fill markers stroke"
         d="m 5.7618836,31.759169 0.048444,0.173189 0.048156,0.172929 0.058207,0.05548 0.058496,0.05574 0.2388768,-0.165161 0.2388768,-0.165161 0.4809033,-0.411641 0.4811633,-0.41193 0.1937459,-0.123688 0.193746,-0.123687 0.036261,0.1246 0.03655,0.12486 0.409119,-0.270263 0.4094078,-0.270003 0.3842869,-0.245554 0.3845756,-0.245295 0.1211575,-0.117883 0.1219371,-0.11875 0.3785874,-0.808895 0.378588,-0.808894 -0.154437,-0.237671 -0.154437,-0.237672 -0.115607,-0.106056 -0.1153173,-0.105796 -0.2939151,0.326826 -0.2939151,0.326825 0.1706382,0.153455 0.1709268,0.153715 -0.1845441,0.398005 -0.1850927,0.398033 -1.772563,1.255025 z m 7.1737034,-6.116364 0.119533,0.107497 0.119533,0.107496 0.247426,-0.232738 0.247108,-0.233547 -0.300894,0.05817 -0.301154,0.05846 -0.06578,0.06733 z m -5.9917489,7.507015 0.3574091,0.540419 0.3574091,0.54042 0.05763,0.05496 0.05789,0.05467 L 7.9812623,34.20351 8.1886371,34.06699 8.05441,33.86318 7.9198944,33.659105 8.0349886,33.535769 8.1500828,33.412433 9.1281106,32.77204 l 0.9777684,-0.640103 0.11365,-0.108955 0.113101,-0.108925 -0.106252,-0.09555 -0.106252,-0.09555 0.02608,-0.257221 0.02608,-0.257221 -0.1813532,-0.06953 -0.181353,-0.06953 -1.3543766,0.953193 -1.3546654,0.952933 -0.078221,0.08698 z M 29.940013,11.2366 l -0.271919,0.514907 -0.27218,0.515197 0.181902,0.0695 0.181902,0.0695 0.09586,0.08621 0.09586,0.0862 0.138688,-0.255261 0.138717,-0.254713 0.335095,-0.500953 0.334805,-0.501212 -0.222609,-0.200193 -0.203264,-0.182797 -0.04975,0.01641 -0.226348,0.251693 z m -2.415722,3.042774 0.230982,0.207723 0.231271,0.207983 0.189819,-0.125128 0.189559,-0.12484 0.357872,-0.376457 0.35842,-0.376487 -0.223155,-0.268109 -0.222867,-0.26785 -0.556095,0.561453 z m -1.481588,1.66723 0.190644,0.251416 0.190616,0.250868 0.02264,-0.123897 0.02261,-0.124446 0.09874,0.0888 0.09875,0.0888 0.367199,-0.408315 0.367199,-0.408315 0.204148,-0.34431 0.203888,-0.344022 -0.221455,-0.199154 -0.221454,-0.199154 -0.661894,0.736007 z m 4.996062,-5.450376 -0.0147,0.09184 0.113391,-0.124345 z m -1.279979,2.132349 -0.154626,0.255563 -0.154626,0.255563 0.06023,0.05207 0.06023,0.05207 0.774437,0.35776 0.774985,0.357731 0.14451,0.0594 0.144511,0.0594 0.113596,-0.21981 0.113567,-0.220359 -0.938405,-0.504695 z m -4.160148,5.643378 -0.249748,0.612202 -0.249776,0.611653 0.152711,0.05841 0.152999,0.05867 -0.157691,0.375112 -0.157402,0.375373 0.0921,0.08283 0.0921,0.08283 0.320927,0.123967 0.321215,0.124227 0.03898,-0.04334 0.03898,-0.04335 0.370709,-0.901176 0.370737,-0.900628 -0.002,-0.132482 -0.0023,-0.132194 -0.502828,-0.177791 -0.502799,-0.177242 -0.06347,0.0015 z m 3.396742,-3.317742 -0.300387,0.433904 -0.300674,0.433644 -0.0012,0.06113 -0.0017,0.06116 0.491852,0.324722 0.492111,0.324432 0.247863,-0.349947 0.248122,-0.350236 0.172922,0.06613 0.172922,0.06613 0.179011,0.160985 0.178723,0.160726 0.165278,-0.183785 0.165279,-0.183786 -0.148841,-0.06852 -0.14913,-0.06878 -0.806195,-0.443814 z m 6.918769,-4.9647213 -0.488024,0.9613623 -0.487995,0.961911 -0.175509,0.475644 -0.17496,0.475616 0.122131,0.109834 0.122132,0.109833 0.199601,0.07654 0.199601,0.07653 0.306998,-0.423254 0.307027,-0.422705 0.39202,-0.998044 0.39228,-0.998334 -0.268922,-0.207346 -0.269182,-0.2070566 -0.08861,0.00446 z m -5.722176,9.9441493 -0.15815,0.298389 -0.158151,0.298389 0.06522,0.194025 0.06548,0.193735 -0.224876,0.25354 -0.225425,0.25357 -0.03102,0.184312 -0.03102,0.184313 0.491187,0.33301 0.490927,0.333299 0.234665,-0.260941 0.234375,-0.2612 -0.181983,-0.217493 -0.181984,-0.217494 0.259154,-0.401991 0.259154,-0.401991 -0.0049,-0.09272 -0.0049,-0.09272 -0.448774,-0.290163 z m 13.498195,-11.0416246 0.257718,0.2296762 0.25743,0.2294166 0.26032,0.132708 0.26058,0.132419 0.109407,-0.1216566 0.109406,-0.1216565 0.0762,-0.198556 0.0762,-0.198556 -0.249172,-0.2240812 -0.249172,-0.2240811 -0.329449,0.043463 -0.329478,0.042915 -0.124999,0.1389948 z m -2.442518,3.0458566 -0.417559,0.549098 -0.41753,0.549647 0.0055,0.105336 0.0058,0.105047 0.647711,0.312266 0.648001,0.312526 0.316276,-0.733217 0.315988,-0.733478 -0.256221,-0.117522 -0.256509,-0.117782 -0.295749,-0.115961 z m 3.561656,-2.0388903 0.179011,0.1609853 0.178722,0.160726 0.198475,0.07604 0.198475,0.07605 0.07484,-0.08322 0.07484,-0.08322 -0.117397,-0.103484 -0.117685,-0.1037444 -0.26058,-0.132419 -0.260321,-0.132708 -0.07432,0.082645 z m 1.302549,-0.081986 -0.40327,0.6377363 0.0024,0.233693 0.0024,0.233693 0.873527,0.500185 0.873526,0.500184 0.212564,0.103351 0.212016,0.103379 0.202646,-0.351932 0.07484,-0.130263 -1.293299,-1.154181 -0.03121,-0.01814 -0.267769,-0.154042 0.05018,-0.05 z m -8.11624,9.2881003 -0.285145,0.561552 -0.284857,0.561813 -0.0025,0.120069 -0.0025,0.120618 0.426861,0.197805 0.426891,0.198355 0.305128,-0.641845 0.305417,-0.641585 -0.07403,-0.05821 -0.07377,-0.0585 -0.164979,-0.14523 -0.16469,-0.14497 -0.205926,-0.03466 z m -2.038288,3.974392 -0.205389,0.346852 -0.20539,0.346852 -0.258691,0.400316 -0.258952,0.400605 0.213659,0.192144 0.213659,0.192144 0.206039,0.07867 0.205491,0.0787 0.05974,-0.155864 0.06,-0.156153 0.31237,-0.47278 0.31211,-0.472492 0.03347,-0.184719 0.03347,-0.184719 -0.360942,-0.204904 z m 7.444514,-8.069622 -0.162857,0.308269 -0.163406,0.308298 0.256913,0.135916 0.256624,0.135656 -0.25933,0.524137 -0.259591,0.524427 0.120111,0.108016 0.12011,0.108016 0.198475,0.07605 0.198475,0.07604 0.116942,-0.130036 0.117231,-0.129777 -0.181898,-0.163582 -0.181899,-0.163582 0.302357,-0.663153 0.302069,-0.663413 -0.339808,-0.195305 -0.340356,-0.195276 -0.04981,-3.65e-4 z m 1.744881,-1.514599 -0.345752,0.617333 -0.346301,0.617362 0.163218,0.13267 0.163218,0.13267 0.206644,0.158134 0.206903,0.157844 0.09948,-0.205852 0.09974,-0.20614 0.258031,-0.49656 0.258579,-0.496589 -0.355399,-0.2041 -0.355398,-0.2041 -0.02648,-0.0013 z m -4.223586,4.839949 -0.08056,0.209792 -0.0803,0.209504 0.129928,0.116844 0.129927,0.116844 0.103256,-0.118302 0.103574,-0.117494 0.02954,-0.175706 0.02954,-0.175707 -0.182451,-0.03289 z m -0.844043,2.089522 -0.235134,0.492586 -0.235134,0.492585 0.0064,0.117117 0.0059,0.117145 0.343358,0.194841 0.34307,0.194581 0.07614,-0.08467 0.07588,-0.08438 0.268282,-0.526541 0.268282,-0.526542 -0.336487,-0.194932 -0.336487,-0.194933 -0.122049,0.0016 z m 4.444818,-4.017444 -0.155932,0.445165 -0.156191,0.445454 0.06641,0.05972 0.0667,0.05998 0.597299,0.289928 0.597588,0.290188 0.293842,0.173829 0.294129,0.174089 0.206666,-0.531776 0.206666,-0.531776 0.0065,-0.05372 0.0068,-0.054 -0.977705,-0.425572 -0.977156,-0.4256 -0.03794,0.04219 z m 2.377951,-1.988013 -0.105278,0.147844 -0.105538,0.148133 -0.261377,0.412013 -0.261637,0.412302 0.190881,0.07287 0.19091,0.07342 0.231271,0.207982 0.231271,0.207983 0.335672,-0.500434 0.335672,-0.500434 -0.002,-0.116802 -0.0015,-0.116832 -0.389181,-0.224026 z m -3.363929,4.752197 -0.211258,0.554303 -0.210968,0.554563 -0.0014,0.140917 -0.0014,0.140917 0.291217,0.07164 0.291188,0.07109 0.122919,-0.136683 0.12292,-0.136683 -0.126174,-0.113468 -0.126463,-0.113729 0.181483,-0.372533 0.181222,-0.372243 -0.06557,-0.111756 -0.06557,-0.111756 -0.191229,-0.03242 z m 1.275212,-1.182233 -0.275099,0.611356 -0.275127,0.610808 0.194519,0.07405 0.194808,0.07432 1.072987,0.448538 1.072698,0.448278 0.04262,-0.04739 0.04288,-0.04768 0.217606,-0.459739 0.217318,-0.459999 -0.249176,-0.114322 -0.249464,-0.114583 -0.275537,-0.108237 -0.275538,-0.108238 -0.159135,0.379041 -0.158874,0.378752 -0.0779,0.0042 -0.07764,0.0039 -0.337295,-0.199841 -0.337295,-0.199841 0.191071,-0.43604 0.191619,-0.436068 -0.0332,-0.02986 -0.03349,-0.03012 -0.311398,-0.120626 z m -4.997169,6.632192 -0.318468,0.660163 -0.319017,0.660192 0.172371,0.155014 0.17237,0.155013 0.198475,0.07605 0.198475,0.07605 0.08316,-0.09247 0.0829,-0.09218 0.303106,-0.627983 0.303367,-0.628272 -0.38924,-0.167631 -0.388691,-0.16766 -0.0494,-0.0031 z m 4.476205,-4.011694 -0.07661,0.295407 -0.07635,0.295118 -0.0018,0.05429 -0.0018,0.05374 0.66902,0.304251 0.669021,0.30425 0.07978,-0.08871 0.08056,-0.08958 0.216336,-0.457746 0.216596,-0.458035 -0.149706,-0.132017 -0.149965,-0.131728 -0.19094,-0.03216 -0.19094,-0.03216 -0.06052,0.09924 -0.05997,0.09921 -0.120667,0.11153 -0.120118,0.111501 -0.365939,-0.153472 z m 6.924729,-6.237299 -0.07251,0.153795 0.449988,0.229579 0.120978,0.06176 z m 0.02936,1.149104 -0.250584,0.575385 -0.250584,0.575386 -0.003,0.04802 -0.003,0.04747 0.299357,0.158406 0.299356,0.158405 0.10187,-0.113276 0.10213,-0.113566 0.243971,-0.570356 0.243972,-0.570356 -0.124442,-0.111911 -0.124441,-0.11191 -0.267168,0.01428 z m -1.316535,2.211326 -0.06916,0.180849 -0.06919,0.180301 0.0537,0.0483 0.05399,0.04856 0.682302,0.337101 0.682013,0.336841 -0.07027,-0.305713 -0.07053,-0.305425 -0.59629,-0.260273 z m -6.648827,7.550106 -0.116196,0.254059 -0.116455,0.254348 -0.190557,0.607939 -0.190556,0.607939 0.425332,0.147822 0.425592,0.147533 0.121047,-0.266422 0.121047,-0.266422 0.191826,-0.562893 0.191277,-0.562864 -0.222296,-0.07917 -0.222844,-0.07914 -0.208609,-0.101361 z m 3.199348,-1.108729 -0.243972,0.570356 -0.243971,0.570356 0.09905,0.445018 0.09934,0.445277 0.33606,-0.0015 0.336089,-9.05e-4 -0.10763,-0.357083 -0.10734,-0.356823 0.138252,-0.153732 0.138251,-0.153733 0.157145,-0.448255 0.156596,-0.448226 -0.277845,-0.167808 -0.277586,-0.168096 -0.10135,0.112699 z m 3.546032,-3.747972 -0.233227,0.460849 -0.232967,0.46056 0.0028,0.131615 0.0033,0.131586 0.389847,0.163473 0.390106,0.163183 0.144868,-0.273746 0.145127,-0.274036 0.182479,0.07002 0.183028,0.06999 0.162221,-0.268072 0.16196,-0.267783 -0.115202,-0.103602 -0.115203,-0.103602 -0.412396,-0.179047 -0.412396,-0.179048 -0.122193,-0.0012 z m -3.835879,5.956424 0.247371,1.455449 0.247372,1.455449 0.521488,-0.06885 0.521489,-0.06886 0.107298,-0.114666 0.107587,-0.114408 -0.07449,-0.06699 -0.07449,-0.06699 -0.205176,0.01096 -0.204628,0.01093 -0.182169,-0.738766 -0.18188,-0.738507 0.327147,-0.254604 0.327146,-0.254604 -0.06352,-0.05712 -0.06381,-0.05738 -0.275946,0.01475 -0.275945,0.01475 -0.09262,-0.181556 -0.09233,-0.181298 -0.310218,0.0012 z m 8.280743,-8.676029 -0.200829,0.386496 -0.2008,0.387044 0.227229,0.204348 0.227229,0.204347 -0.0728,0.205801 -0.07309,0.205542 0.605356,0.28097 0.605355,0.28097 0.170043,-0.192568 0.17062,-0.192048 0.03298,-0.194045 0.03272,-0.193757 -0.397553,-0.242009 -0.397264,-0.24175 0.136173,-0.151421 0.136432,-0.151709 -0.451256,-0.295532 -0.450996,-0.295821 -0.04963,-0.0023 z m -9.79939,11.673064 0.122193,0.02208 0.122192,0.02208 -0.102309,0.324564 -0.102281,0.325112 0.101343,0.09114 0.101344,0.09114 0.267512,0.06548 0.267252,0.06577 0.122919,-0.136683 0.123179,-0.136972 0.09326,0.08387 0.09326,0.08387 0.102996,-0.118013 0.103833,-0.117783 0.03451,-0.201554 0.03396,-0.201525 -0.570218,-0.219579 -0.569929,-0.219319 -0.172783,0.08818 z m 9.464909,-8.72858 0.100189,0.0901 0.100188,0.0901 0.34411,0.203879 0.34382,0.203618 0.08004,-0.089 0.08004,-0.089 -0.360596,-0.208774 -0.360307,-0.208514 -0.163742,0.0038 z m -22.611437,25.593352 0.368706,0.331578 0.368705,0.331578 0.385307,-0.539948 0.385855,-0.539976 7.81e-4,-0.02177 8.09e-4,-0.02122 -0.244693,-0.337655 -0.244693,-0.337655 -0.510389,0.567538 z m 9.184764,-9.217287 0.04062,0.160403 0.04036,0.160693 0.434969,0.393781 0.434419,0.393811 0.18956,-0.124839 0.189819,-0.125129 0.188724,-0.187789 0.188955,-0.188626 -0.297964,-0.372495 -0.297675,-0.372235 -0.19876,-0.180836 -0.198472,-0.180576 -0.357147,0.311774 z m -25.919423,28.951189 0.07796,0.07011 0.07767,0.06985 0.113271,-0.0063 0.1133,-0.0058 0.02258,-0.124995 0.02258,-0.124994 -0.08777,-0.07893 -0.08777,-0.07894 -0.125778,0.139862 z m 14.604535,-16.077825 0.123257,0.110324 0.123518,0.110034 0.437515,0.217317 0.436967,0.217347 0.159041,-0.17685 0.159042,-0.17685 -0.03684,-0.12512 -0.03658,-0.125408 -0.472337,-0.199502 -0.472366,-0.20005 -0.21061,0.174379 z m 1.663973,-1.374109 -0.255803,0.361099 -0.255803,0.3611 0.36293,0.326385 0.362931,0.326385 0.293915,-0.326826 0.293916,-0.326826 -0.401043,-0.360659 z m -16.617454,18.604749 -0.435301,0.985778 -0.08556,0.193279 1.530807,1.365682 0.291616,-0.673857 0.144021,0.003 0.143733,0.0028 0.485069,0.237608 0.485358,0.237867 0.340126,-0.739994 0.340127,-0.739994 -0.0042,-0.079 -0.0042,-0.07955 -1.184464,-0.575446 -1.184492,-0.575995 -0.193781,0.29039 -0.19352,0.290101 -0.118378,-0.106458 -0.11809,-0.106198 -0.119192,0.03498 z m 14.825129,-16.088513 -0.06132,0.560045 -0.06187,0.560074 0.787553,0.115536 0.787842,0.115796 0.05036,-0.05716 0.05091,-0.05719 0.09045,-0.482102 0.09042,-0.482652 -0.400533,-0.06332 -0.400504,-0.06277 -0.466797,-0.07326 z m -10.424706,16.200513 -0.07453,0.19379 -0.07398,0.193761 0.09615,0.08646 0.09615,0.08647 0.06116,-0.07149 0.06173,-0.07097 0.03708,-0.215446 0.03653,-0.215417 -0.120144,0.0064 z m -0.628572,1.589185 -0.221441,0.292694 -0.22173,0.292433 -0.662312,1.151681 -0.222541,0.386831 0.759903,0.677633 0.22491,-0.425469 0.514964,-0.972155 0.0356,-0.03959 0.0356,-0.03959 0.381356,0.232146 0.381644,0.232407 0.166318,-0.184941 0.166058,-0.184652 -0.146525,-0.285959 -0.147073,-0.285929 0.05307,-0.125798 0.05307,-0.125799 -0.575442,-0.297973 z m 19.07041,-19.459577 -0.193811,0.342107 -0.194359,0.342137 0.03115,0.105892 0.03089,0.106182 0.235807,0.121639 0.235807,0.12164 0.237558,-0.451728 0.237529,-0.452276 -0.252352,-0.117179 -0.25264,-0.117439 -0.05752,-5.02e-4 z m 11.67549,-12.946826 0.186518,0.167736 0.186519,0.167736 0.08394,-0.09334 0.08394,-0.09334 0.559554,0.503209 0.559844,0.503469 0.167877,-0.186675 0.167877,-0.186675 -0.186518,-0.167736 -0.186518,-0.167737 0.167877,-0.186675 0.167877,-0.186674 -0.373325,-0.335733 -0.373036,-0.335472 -0.120321,0.133793 -0.120321,0.133793 -0.239791,-0.108497 -0.239792,-0.108497 -0.246099,0.273655 z m 2.024028,1.313742 0.279777,0.251604 0.279777,0.251605 0.335754,-0.37335 0.335755,-0.37335 -0.223187,-0.200712 -0.223186,-0.200713 -0.189385,0.09677 -0.189386,0.09677 -0.20296,0.225686 z m -27.363384,30.460436 -0.175245,0.360371 -0.175794,0.3604 0.0043,0.0812 0.0043,0.08174 0.354966,0.201098 0.354706,0.201386 0.203656,-0.343184 0.203368,-0.343443 -0.0074,-0.140448 -0.0074,-0.140996 -0.379712,-0.159063 z m 28.79992,-31.870256 0.186518,0.167736 0.186519,0.167736 0.125778,-0.139861 0.126038,-0.140151 -0.186519,-0.167736 -0.186518,-0.167737 -0.126038,0.140151 z m -19.778703,22.880124 -0.07719,0.200809 -0.0769,0.201069 0.09357,0.183982 0.09383,0.183692 0.247793,0.0096 0.247533,0.0099 -0.0085,-0.408042 -0.0088,-0.408302 -0.255648,0.01366 z m -7.117002,8.114838 -0.196612,0.346384 -0.196611,0.346383 0.157183,0.138219 0.157472,0.138479 0.154849,0.01538 0.154849,0.01538 0.268527,-0.09302 0.268268,-0.09274 0.108889,-0.20993 0.107821,-0.209324 -0.34613,-0.200469 -0.346131,-0.200469 -0.146187,0.0029 z m -4.983462,6.892789 0.773213,0.690126 0.100571,-0.137965 -0.0051,-0.09133 -0.0048,-0.09107 -0.386754,-0.235435 -0.386466,-0.235175 -0.0881,0.09796 z m 1.940219,-0.844483 -0.06893,0.180012 -0.06922,0.179752 0.267913,0.162011 0.267624,0.161752 0.08902,-0.111765 0.08847,-0.111735 0.07291,-0.208833 0.0732,-0.208574 -0.28085,-0.109879 -0.28059,-0.110168 -0.07978,0.08871 z m 13.072992,-8.064785 0.490458,0.570171 0.490747,0.57043 0.177285,-0.04964 0.177286,-0.04964 0.14856,-0.16171 0.148242,-0.162519 -0.233292,-0.2098 -0.233292,-0.2098 -0.07614,0.08467 -0.07614,0.08467 -0.236087,-0.393682 -0.236375,-0.393941 -0.07291,0.005 -0.07291,0.005 -0.197587,0.155253 z m 13.861733,-13.444097 0.466585,0.419601 0.466295,0.41934 0.293655,-0.326536 0.293915,-0.326826 -0.318755,-0.286658 -0.319044,-0.286917 -0.198475,-0.07605 -0.198475,-0.07604 -0.24298,0.270187 z m -18.955153,21.452172 -0.186934,0.21135 -0.187483,0.21138 -0.03382,0.199042 -0.03356,0.198753 0.375523,0.215403 0.375523,0.215404 0.09343,0.01921 0.09343,0.01921 0.124598,-0.240754 0.12376,-0.240984 -0.257981,-0.156215 -0.257952,-0.155667 0.07224,-0.08033 0.07224,-0.08033 -0.186518,-0.167737 z m 1.30577,-1.443269 -0.07913,0.477646 -0.07913,0.477647 0.0693,0.06232 0.06901,0.06206 0.281096,-0.335218 0.281095,-0.335218 -0.0095,-0.181046 -0.0095,-0.181046 -0.261739,-0.0237 z m 16.40866,-16.565404 0.239933,0.215772 0.240221,0.216032 0.115905,-0.1916 0.115645,-0.191311 -0.181983,-0.217494 -0.182273,-0.217753 -0.173594,0.193032 z m -14.794622,16.464571 -0.02342,0.129991 -0.02368,0.130279 0.222702,0.0085 0.222731,0.009 0.04495,0.153845 0.04524,0.154105 0.237312,0.009 0.237052,0.0093 0.06341,-0.07051 0.06341,-0.07051 -0.03614,-0.247844 -0.03614,-0.247844 -0.50884,0.01646 z m 17.603107,-18.462113 0.198475,0.07605 0.198475,0.07605 0.27227,0.244853 0.272271,0.244854 0.246878,-0.274522 0.246878,-0.274522 -0.03516,-0.119433 -0.03462,-0.119461 -0.391171,-0.251429 -0.390623,-0.251457 -0.291836,0.324513 z m -16.824898,20.021235 0.0089,0.170074 0.0089,0.170073 0.225763,0.0091 0.225473,0.0089 0.0058,0.1155 0.0063,0.115471 0.341026,-0.0012 0.340738,-0.0014 -8.85e-4,-0.314923 -6.25e-4,-0.315212 -0.580621,0.02195 z m 20.638096,-21.916495 0.606329,0.545273 0.606328,0.545273 -0.269381,-0.310203 -0.269381,-0.310202 -0.336947,-0.235071 z m 1.164236,0.20654 0.513069,0.461405 0.513069,0.461405 -0.221596,-0.269843 -0.221308,-0.269584 -0.291761,-0.191821 z m -1.677119,2.51008 -0.06,0.07253 -0.06026,0.07282 -0.293655,0.326537 -0.293915,0.326825 0.51278,0.461145 0.51307,0.461405 0.251815,-0.280013 0.252105,-0.279752 -0.133392,-0.11996 -0.133104,-0.119701 -0.0146,-0.277603 -0.01434,-0.277893 -0.263524,-0.183152 z M 35.219094,75.7184 l 0.04189,0.14273 0.04134,0.14276 0.238954,0.108267 0.238926,0.107718 0.05544,-0.06513 0.05628,-0.0649 0.0259,-0.166434 0.02562,-0.166694 -0.280591,-0.110169 -0.280301,-0.109908 -0.0816,0.09074 z m 1.091148,0.474801 0.04189,0.14273 0.04163,0.143019 0.238926,0.107719 0.238666,0.108007 0.05573,-0.06487 0.05628,-0.0649 0.02998,-0.17793 0.02972,-0.177641 -0.255325,-0.131875 -0.255037,-0.131614 -0.111225,0.123679 z m 17.862533,-18.362092 0.124153,0.111651 0.124442,0.111911 0.118209,-0.0066 0.118238,-0.006 0.112004,-0.124546 0.111745,-0.124257 -0.186518,-0.167737 -0.186518,-0.167736 -0.167877,0.186675 z m 1.247606,-1.058621 0.0047,0.08943 0.0047,0.08997 0.299327,0.157857 0.299357,0.158405 0.116683,-0.129747 0.116942,-0.130037 -0.236179,-0.212397 -0.235891,-0.212137 -0.184852,0.09405 z m -0.939867,1.841842 0.140033,0.125932 0.139744,0.125672 0.126038,-0.14015 0.125778,-0.139862 -0.139744,-0.125672 -0.140033,-0.125932 -0.125778,0.139861 z m 3.846852,-4.184099 0.371765,0.337466 0.371478,0.337206 -0.124064,-0.188404 -0.124035,-0.187855 -0.247702,-0.149062 z m 0.795616,-0.133845 0.465256,0.420497 0.465256,0.420496 -0.172339,-0.227637 -0.172628,-0.227896 -0.292628,-0.1926 z m 1.897036,2.392802 0.326551,0.293669 0.326262,0.293408 -0.12467,-0.189472 -0.12467,-0.189472 -0.201881,-0.104196 z m 0.889626,-0.05139 0.419811,0.377537 0.41981,0.377536 -0.173523,-0.229224 -0.173523,-0.229224 -0.246288,-0.148313 z m 1.811601,2.300814 0.465516,0.420207 0.465256,0.420497 -0.172339,-0.227637 -0.172628,-0.227896 -0.293177,-0.192571 z m 0.697652,-0.21306 0.419521,0.377276 0.08084,0.0727 0.02354,-0.112116 -0.03162,-0.0415 -0.245998,-0.148053 z"
         transform="matrix(0.88913475,0.98952436,-0.98869358,0.88988187,133.29992,61.728401)" /><path
         id="path3-2-1"
         style="fill:#99c1d9;stroke:none;stroke-width:0.733629;stroke-miterlimit:3.3;paint-order:fill markers stroke"
         d="m 2.6172483,40.12112 0.031607,0.308055 0.031895,0.308314 0.3937731,0.164913 0.3937731,0.164913 1.3223131,-0.522074 1.3228616,-0.522104 1.1560204,-0.226827 1.1560492,-0.226278 1.0107091,-0.526329 1.0104201,-0.526589 0.03517,-0.02691 0.03546,-0.02665 0.05089,-0.444503 0.05089,-0.444503 -0.17699,-0.159168 -0.17699,-0.159168 0.06619,-0.268717 0.06622,-0.268168 0.293908,-0.128215 0.293909,-0.128216 0.117294,-0.29593 0.117583,-0.295671 -0.732415,0.216293 -0.7324153,0.216293 -0.5829295,0.898488 -0.5826408,0.898748 -1.0445414,0.291016 -1.0445414,0.291015 -1.9416008,0.718844 z m -1.0621624,4.129366 -0.032286,0.154947 2.5695163,0.147948 3.4295442,0.197993 0.063231,0.05686 0.023098,0.02077 0.3189968,-0.033 0.3542805,-0.03681 0.084309,0.07582 0.084309,0.07582 -0.1633396,0.04807 -0.1636284,0.04781 0.1774563,0.03205 0.1771674,0.03179 -0.00502,-0.100687 -0.00557,-0.100658 0.3083135,-0.03216 0.3083424,-0.03161 0.084309,0.07582 0.044175,0.03973 0.3195454,-0.03303 0.3542805,-0.03681 0.084309,0.07582 0.08402,0.07556 -0.1636244,0.04781 -0.1633396,0.04807 0.1699491,0.03053 0.1696859,0.03082 0.02175,-0.119998 0.02175,-0.119998 1.547883,0.08481 1.547883,0.08481 0.444413,0.317079 0.444701,0.317338 0.246709,0.501497 0.24668,0.500948 0.942895,0.950915 0.943155,0.950626 1.882885,0.669887 1.883174,0.670148 0.900055,0.690775 0.900315,0.690486 0.0434,-0.04826 0.04372,-0.04745 L 21.22251,50.554661 20.316537,49.85595 18.396262,49.149823 16.475727,48.443986 15.601492,47.538092 14.727516,46.631909 14.451444,46.09512 14.175083,45.558072 13.711151,45.27257 13.24693,44.986809 l -0.701743,-0.03209 -0.701715,-0.03155 -0.06612,-0.05946 -0.06583,-0.0592 0.163628,-0.04781 0.16334,-0.04807 -0.16995,-0.03053 -0.169689,-0.03082 -0.02218,0.122222 -0.02192,0.121932 -1.424881,-0.08395 -1.4248815,-0.08395 -0.062365,-0.05608 -0.062654,-0.05635 0.1636283,-0.04781 0.1636284,-0.04781 -0.169978,-0.03108 -0.1699492,-0.03053 -0.022179,0.122222 -0.022179,0.122222 -1.023741,-0.06138 -1.0237411,-0.06138 -0.062365,-0.05608 -0.062076,-0.05582 0.1633396,-0.04807 0.1636284,-0.04781 -0.1702379,-0.03079 -0.1699491,-0.03053 -0.021919,0.121933 -0.021919,0.121933 -1.4248815,-0.08395 -1.4245928,-0.08369 -0.062654,-0.05635 -0.062365,-0.05608 0.1633396,-0.04807 0.1636283,-0.04781 -0.1702378,-0.03079 -0.1699492,-0.03053 -0.021919,0.121933 -0.021919,0.121932 -1.4248815,-0.08395 z m 7.6572042,0.670506 -0.035024,0.0035 -0.035719,0.06875 0.1108759,-0.03619 z m -0.070743,0.07228 -0.061126,0.01977 -0.1719731,0.0565 0.095543,0.0018 0.096091,0.0017 0.038462,-0.07413 z M 7.60819,44.829014 l -0.035572,0.0036 -0.00734,0.05926 0.082753,-0.02698 z m -0.042908,0.06281 -0.08922,0.02952 -0.1719731,0.0565 0.125427,-1.01e-4 0.1251671,1.88e-4 0.0091,-0.07283 z m 1.2187605,0.741132 -0.2021546,0.324673 -0.2024145,0.324961 0.052307,0.356464 0.052307,0.356463 0.3174016,0.1877 0.3171418,0.187989 2.0637952,0.124358 2.064085,0.124618 0.225366,-0.24944 0.225656,-0.249181 -0.07309,-0.422197 -0.07307,-0.421649 -0.170699,-0.0657 -0.170959,-0.06541 -2.212981,-0.256954 z m 13.3916615,5.660786 0.51307,0.461404 0.513069,0.461405 -0.221856,-0.269554 -0.221308,-0.269584 -0.291762,-0.191821 z m 1.109529,0.829501 0.465545,0.420756 0.465256,0.420497 -0.17208,-0.227926 -0.172888,-0.227608 -0.292916,-0.19286 z m 1.108287,0.832043 0.41981,0.377536 0.419522,0.377277 -0.173235,-0.228964 -0.173523,-0.229224 -0.246287,-0.148313 z m 1.109789,0.829212 0.41981,0.377536 0.41981,0.377537 -0.173523,-0.229224 -0.173523,-0.229224 -0.246287,-0.148313 z m 3.395793,24.209599 -0.09183,0.366917 -0.09154,0.367176 0.01795,1.052609 4.260117,-1.405013 -0.234451,-0.106307 -1.168845,-0.529517 -0.860489,-0.0536 -0.86049,-0.0536 -0.485343,0.180808 z m 11.764748,-8.682031 -0.175043,0.358984 -0.174784,0.358696 -0.04036,0.639524 -0.04036,0.639524 0.148254,0.392049 0.147993,0.392337 0.361323,0.05524 0.361611,0.0555 0.02404,0.46223 0.02433,0.462491 -0.198853,0.0109 -0.199142,0.01064 -0.210987,0.240419 -0.211536,0.240449 -0.02322,0.274949 -0.02267,0.274919 0.138301,0.124374 0.138589,0.124634 1.648582,-0.416823 1.648841,-0.417112 1.019763,-0.129318 1.019762,-0.129318 1.826917,0.123538 0.01574,0.0011 6.395834,-2.109747 -0.01429,-0.07296 -0.664803,-0.365269 -0.664775,-0.364721 -1.463763,-0.436183 -1.463763,-0.436183 -0.683321,-0.03748 -0.683322,-0.03748 -0.09745,0.108363 -0.09719,0.108075 -0.32399,0.863745 -0.32399,0.863744 -0.474566,-0.02223 -0.475115,-0.0222 -0.08223,-0.06768 -0.08197,-0.06797 -0.01348,-1.025065 -0.01348,-1.025064 -0.181033,-0.162803 -0.180743,-0.162543 -1.261427,-0.129825 -1.261686,-0.129536 -1.188267,0.07918 -1.188557,0.07892 -0.369849,0.211497 z m 3.280452,5.23943 0.639147,-0.0075 0.02778,-1.09e-4 0.240895,-0.07972 -0.271499,0.02606 z"
         transform="matrix(0.88913475,0.98952436,-0.98869358,0.88988187,133.29992,61.728401)"
         sodipodi:nodetypes="cccccccccccccccccccccccccccccccccccccccccccccccccccccccccccccccccccccccccccccccccccccccccccccccccccccccccccccccccccccccccccccccccccccccccccccccccccccccccccccccccccccccccccccccccccccccccccccccccccccccccccccccccccccccccccccccccccccccccccccccccccccccccccccccccccccccccc" /><path
         sodipodi:type="star"
         style="display:inline;fill:none;stroke:#3558a2;stroke-width:0.733629;stroke-miterlimit:3.3;stroke-opacity:1;paint-order:fill markers stroke"
         id="path3"
         inkscape:flatsided="true"
         sodipodi:sides="6"
         sodipodi:cx="34.951614"
         sodipodi:cy="43.467743"
         sodipodi:r1="37.571453"
         sodipodi:r2="32.537834"
         sodipodi:arg1="0.72860312"
         sodipodi:arg2="1.2522019"
         inkscape:rounded="0"
         inkscape:randomized="0"
         d="M 62.983871,68.483871 27.303141,80.252454 -0.7291164,55.236326 6.9193574,18.451615 42.600088,6.6830323 70.632345,31.69916 Z"
         transform="matrix(0.88913475,0.98952436,-0.98869358,0.88988187,133.29992,61.740209)" /><g
         id="g2"
         transform="matrix(1.4906877,0,0,1.4906877,-58.494618,-46.375993)"
         style="display:inline;fill:#3558a2;fill-opacity:1;stroke-width:0.678415"><path
           style="font-weight:bold;font-size:10.5833px;line-height:1.25;font-family:'Century Gothic';-inkscape-font-specification:'Century Gothic Bold';text-align:center;text-anchor:middle;fill:#3558a2;fill-opacity:1;stroke-width:0.179497"
           d="m 96.714732,120.66306 h 0.501259 q 0.0052,-1.10587 0.03617,-1.30741 0.05684,-0.46509 0.387572,-0.7338 0.335896,-0.27389 0.945676,-0.27389 0.439248,0 0.992184,0.20154 v 1.07487 q -0.30489,-0.0879 -0.50126,-0.0879 -0.248046,0 -0.361734,0.10335 -0.08268,0.0775 -0.08268,0.32039 l -0.0052,0.7028 h 0.893999 v 1.19889 h -0.893999 v 4.42349 h -1.410763 v -4.42349 h -0.501259 z m 3.302118,0 h 1.20922 v 0.70797 q 0.19637,-0.41858 0.52193,-0.63562 0.32556,-0.21704 0.71313,-0.21704 0.27389,0 0.57361,0.14469 l -0.43925,1.21439 q -0.24805,-0.12402 -0.40824,-0.12402 -0.32556,0 -0.55294,0.40307 -0.22221,0.40308 -0.22221,1.5813 l 0.005,0.27388 v 2.27376 h -1.40042 z"
           id="text49"
           aria-label="fr" /><path
           d="m 106.41691,126.28543 c -0.58209,0 -1.02659,-0.17383 -1.33403,-0.52144 -0.30718,-0.35573 -0.46064,-0.8691 -0.46064,-1.54011 0,-0.4204 0.0807,-0.84079 0.24236,-1.26119 0.16986,-0.42847 0.39634,-0.82058 0.67918,-1.17628 0.29104,-0.36381 0.61437,-0.65485 0.97023,-0.87313 0.3638,-0.21828 0.73554,-0.32742 1.11575,-0.32742 0.29898,0 0.5416,0.0566 0.7276,0.16976 0.18574,0.10511 0.33549,0.24659 0.44847,0.42444 0.0487,0.0728 0.081,0.1334 0.0971,0.1819 0.0161,0.0485 0.0243,0.10107 0.0243,0.15764 0,0.0566 -0.0161,0.11319 -0.0487,0.16978 -0.0241,0.0566 -0.0685,0.1051 -0.13335,0.14552 l -0.35163,0.20617 h -0.0849 l -0.24236,-0.35169 c -0.12938,-0.19402 -0.26299,-0.33549 -0.40031,-0.42444 -0.12938,-0.097 -0.31936,-0.14552 -0.56992,-0.14552 -0.2667,0 -0.52149,0.12935 -0.76411,0.38806 -0.23442,0.25871 -0.42836,0.59018 -0.58209,0.99441 -0.14552,0.39614 -0.21828,0.81248 -0.21828,1.24905 0,0.57401 0.0971,1.0146 0.29104,1.3218 0.20215,0.30724 0.52547,0.46083 0.97023,0.46083 0.13732,0 0.29104,-0.0242 0.46091,-0.0728 0.16959,-0.0566 0.3556,-0.16574 0.55774,-0.32742 0.20214,-0.16979 0.42439,-0.42445 0.66701,-0.76399 h 0.0243 l 0.12118,0.097 c -0.34766,0.61442 -0.69929,1.07119 -1.05516,1.37033 -0.3556,0.29911 -0.73951,0.44868 -1.15199,0.44868 z m 4.4233,0 c -0.32332,0 -0.58605,-0.13745 -0.78819,-0.4123 -0.19394,-0.28297 -0.29104,-0.70336 -0.29104,-1.26119 0,-0.50125 0.0767,-0.99036 0.23045,-1.46735 0.16166,-0.47699 0.37994,-0.9095 0.65484,-1.29757 0.28284,-0.38804 0.60643,-0.69524 0.97023,-0.92162 0.3638,-0.22638 0.75168,-0.33954 1.16417,-0.33954 0.20214,0 0.39608,0.0242 0.58208,0.0728 0.18574,0.0485 0.35163,0.11316 0.49715,0.19402 l 0.42439,-0.26678 h 0.30322 l -0.73978,4.13523 c -0.0405,0.24251 -0.0484,0.41634 -0.0243,0.52144 0.0325,0.10509 0.10107,0.15766 0.20611,0.15766 0.13758,0 0.28707,-0.0728 0.44873,-0.21831 0.16166,-0.15359 0.31539,-0.38399 0.46091,-0.69122 l 0.15769,0.0728 c -0.23442,0.60635 -0.48921,1.04696 -0.76412,1.32183 -0.2667,0.26678 -0.5416,0.40018 -0.82444,0.40018 -0.2831,0 -0.47704,-0.10914 -0.58208,-0.32742 -0.10531,-0.21828 -0.12541,-0.50932 -0.0609,-0.87312 l 0.0609,-0.31531 h -0.0487 c -0.30718,0.4689 -0.6305,0.8408 -0.96996,1.11567 -0.33973,0.26678 -0.69533,0.40018 -1.06733,0.40018 z m -0.15769,-2.14643 c 0,0.45273 0.0487,0.79227 0.14552,1.01865 0.10531,0.21828 0.29925,0.32742 0.58208,0.32742 0.19421,0 0.38815,-0.0647 0.58209,-0.19405 0.1942,-0.12932 0.3802,-0.29506 0.558,-0.49717 0.1778,-0.20212 0.3355,-0.40828 0.47281,-0.61847 l 0.44874,-2.49811 c -0.15346,-0.20212 -0.31115,-0.35574 -0.47281,-0.46083 -0.15373,-0.10509 -0.3437,-0.15764 -0.57018,-0.15764 -0.3474,0 -0.65484,0.14957 -0.92154,0.44868 -0.25877,0.29914 -0.46091,0.68316 -0.60643,1.15205 -0.14552,0.4689 -0.21828,0.96205 -0.21828,1.47947 z m 6.22194,2.14643 c -0.32332,0 -0.58605,-0.13745 -0.78819,-0.4123 -0.19394,-0.28297 -0.29104,-0.70336 -0.29104,-1.26119 0,-0.50125 0.0767,-0.99036 0.23045,-1.46735 0.16166,-0.47699 0.37994,-0.9095 0.65484,-1.29757 0.28284,-0.38804 0.60643,-0.69524 0.97023,-0.92162 0.3638,-0.22638 0.75168,-0.33954 1.16417,-0.33954 0.29104,0 0.56991,0.0525 0.83661,0.15764 l 0.49715,-2.82554 -1.05489,-0.4123 v -0.0728 l 2.09788,-0.3638 h 0.0362 l -1.34594,7.65199 c -0.0405,0.24251 -0.0484,0.41634 -0.0243,0.52144 0.0243,0.10509 0.0931,0.15766 0.20611,0.15766 0.13759,0 0.28708,-0.0728 0.44874,-0.21831 0.16166,-0.15359 0.31538,-0.38399 0.4609,-0.69122 l 0.15769,0.0728 c -0.23442,0.60635 -0.48921,1.04696 -0.76411,1.32183 -0.2667,0.26678 -0.54161,0.40018 -0.82445,0.40018 -0.2831,0 -0.47704,-0.10914 -0.58208,-0.32742 -0.1053,-0.21828 -0.12541,-0.50932 -0.0609,-0.87312 l 0.0609,-0.31531 h -0.0487 c -0.67892,1.01058 -1.35811,1.51585 -2.03729,1.51585 z m -0.15769,-2.14643 c 0,0.50932 0.0566,0.86098 0.16986,1.05503 0.11324,0.19402 0.29925,0.29104 0.55774,0.29104 0.23469,0 0.49742,-0.11724 0.78846,-0.35168 0.29104,-0.24255 0.56568,-0.56187 0.82444,-0.95801 l 0.43657,-2.486 c -0.1696,-0.22635 -0.33549,-0.38806 -0.49716,-0.48506 -0.15345,-0.097 -0.33152,-0.14552 -0.53366,-0.14552 -0.32332,0 -0.61833,0.14147 -0.88503,0.42442 -0.25876,0.28297 -0.46911,0.65889 -0.63077,1.12781 -0.15346,0.4608 -0.23045,0.97012 -0.23045,1.52797 z m 6.36244,2.14643 c -0.32333,0 -0.58606,-0.13745 -0.7882,-0.4123 -0.1942,-0.28297 -0.29104,-0.70336 -0.29104,-1.26119 0,-0.50125 0.0767,-0.99036 0.23019,-1.46735 0.16192,-0.47699 0.3802,-0.9095 0.65511,-1.29757 0.28284,-0.38804 0.60616,-0.69524 0.96996,-0.92162 0.3638,-0.22638 0.75194,-0.33954 1.16417,-0.33954 0.20214,0 0.39608,0.0242 0.58208,0.0728 0.186,0.0485 0.35163,0.11316 0.49715,0.19402 l 0.42466,-0.26678 h 0.30294 l -0.73951,4.13523 c -0.0405,0.24251 -0.0487,0.41634 -0.0243,0.52144 0.0323,0.10509 0.10108,0.15766 0.20612,0.15766 0.13731,0 0.28707,-0.0728 0.44873,-0.21831 0.16166,-0.15359 0.31538,-0.38399 0.4609,-0.69122 l 0.15743,0.0728 c -0.23442,0.60635 -0.48895,1.04696 -0.76385,1.32183 -0.2667,0.26678 -0.5416,0.40018 -0.82471,0.40018 -0.28284,0 -0.47704,-0.10914 -0.58208,-0.32742 -0.10504,-0.21828 -0.12515,-0.50932 -0.0606,-0.87312 l 0.0606,-0.31531 h -0.0484 c -0.30718,0.4689 -0.6305,0.8408 -0.97023,1.11567 -0.33946,0.26678 -0.69532,0.40018 -1.06706,0.40018 z m -0.1577,-2.14643 c 0,0.45273 0.0484,0.79227 0.14552,1.01865 0.10504,0.21828 0.29925,0.32742 0.58209,0.32742 0.19394,0 0.38814,-0.0647 0.58208,-0.19405 0.19394,-0.12932 0.37994,-0.29506 0.55774,-0.49717 0.17807,-0.20212 0.33549,-0.40828 0.47308,-0.61847 l 0.44873,-2.49811 c -0.15372,-0.20212 -0.31141,-0.35574 -0.47307,-0.46083 -0.15346,-0.10509 -0.34343,-0.15764 -0.56992,-0.15764 -0.34766,0 -0.65484,0.14957 -0.92154,0.44868 -0.25876,0.29914 -0.4609,0.68316 -0.60642,1.15205 -0.14553,0.4689 -0.21829,0.96205 -0.21829,1.47947 z m 6.36456,2.14643 c -0.41222,0 -0.74772,-0.0566 -1.00648,-0.16978 -0.25876,-0.12126 -0.44476,-0.27083 -0.55774,-0.44868 -0.0487,-0.0728 -0.081,-0.1334 -0.0971,-0.1819 -0.0161,-0.0485 -0.0243,-0.10107 -0.0243,-0.15767 0,-0.0485 0.008,-0.097 0.0243,-0.14552 0.0161,-0.0566 0.0566,-0.10104 0.12118,-0.13337 l 0.26696,-0.14552 h 0.0847 l 0.20638,0.35165 c 0.12118,0.20212 0.28284,0.35574 0.48498,0.46083 0.20214,0.097 0.40428,0.14552 0.60643,0.14552 0.30718,0 0.55774,-0.0808 0.75168,-0.24252 0.20214,-0.16171 0.30321,-0.39616 0.30321,-0.70337 0,-0.3153 -0.10504,-0.55782 -0.31538,-0.7276 -0.20188,-0.16978 -0.43233,-0.33147 -0.6911,-0.48506 -0.30718,-0.18595 -0.53763,-0.35573 -0.69135,-0.50932 -0.15346,-0.15362 -0.2585,-0.31126 -0.31512,-0.47295 -0.0566,-0.16171 -0.0849,-0.35573 -0.0849,-0.58208 0,-0.23447 0.0889,-0.46892 0.2667,-0.70337 0.1778,-0.24254 0.41248,-0.44463 0.70353,-0.60634 0.29104,-0.16169 0.59822,-0.24252 0.92154,-0.24252 0.3556,0 0.63473,0.0566 0.83661,0.16976 0.20214,0.10511 0.35984,0.24254 0.47308,0.41232 0.0728,0.11319 0.10901,0.21828 0.10901,0.31528 0,0.0566 -0.0161,0.11319 -0.0484,0.16978 -0.0243,0.0566 -0.0646,0.10107 -0.12118,0.13341 l -0.23046,0.12125 h -0.0849 l -0.2667,-0.37592 c -0.11324,-0.16168 -0.24262,-0.28297 -0.38814,-0.3638 -0.13732,-0.0889 -0.31115,-0.1334 -0.52149,-0.1334 -0.23442,0 -0.43657,0.0728 -0.60616,0.21828 -0.16193,0.13745 -0.24263,0.31935 -0.24263,0.5457 0,0.25871 0.0767,0.47295 0.23046,0.64273 0.16166,0.16978 0.34766,0.3153 0.55774,0.43656 0.29104,0.16979 0.52943,0.33147 0.71543,0.48506 0.19421,0.15362 0.33973,0.32742 0.43656,0.52147 0.0971,0.19402 0.14552,0.44061 0.14552,0.73972 0,0.28297 -0.0849,0.5538 -0.25452,0.81251 -0.16987,0.25061 -0.40429,0.45675 -0.70353,0.61846 -0.29104,0.1536 -0.6223,0.2304 -0.99431,0.2304 z m 4.15395,0 c -0.26696,0 -0.46884,-0.0849 -0.60642,-0.25466 -0.13732,-0.16978 -0.20611,-0.40828 -0.20611,-0.71548 0,-0.0647 0.004,-0.13743 0.0122,-0.21828 0.008,-0.0808 0.0201,-0.16169 0.0362,-0.24255 l 0.64267,-3.61376 h -0.8972 v -0.0728 l 1.03082,-0.46082 1.04272,-1.33395 h 0.0728 l -0.23045,1.33395 h 1.51606 v 0.53358 h -1.6129 l -0.54584,3.0802 c -0.0161,0.1051 -0.0283,0.20212 -0.0362,0.29105 -0.008,0.0808 -0.0122,0.15359 -0.0122,0.21828 0,0.19402 0.0323,0.33147 0.0971,0.4123 0.0646,0.0809 0.14949,0.12128 0.25453,0.12128 0.18601,0 0.38418,-0.10512 0.59426,-0.3153 0.21828,-0.21021 0.41645,-0.51337 0.59425,-0.90951 l 0.15769,0.0728 c -0.26696,0.76803 -0.56594,1.30564 -0.89746,1.61285 -0.32332,0.30721 -0.65882,0.46082 -1.00648,0.46082 z m 2.86465,-0.12125 0.83661,-4.71734 -0.94588,-0.42442 v -0.0728 l 1.71,-0.3638 h 0.0363 v 1.49159 h 0.0484 c 0.25876,-0.47699 0.47704,-0.81653 0.65484,-1.01865 0.186,-0.21021 0.34766,-0.33956 0.48525,-0.38806 0.14552,-0.0566 0.2749,-0.0849 0.38788,-0.0849 0.14552,0 0.27913,0.0485 0.40031,0.14552 0.12118,0.0889 0.18177,0.19402 0.18177,0.31528 0,0.0404 -0.0119,0.0849 -0.0362,0.1334 l -0.30321,0.61846 h -0.0728 l -0.13335,-0.097 c -0.0648,-0.0485 -0.13759,-0.0808 -0.21829,-0.097 -0.0728,-0.0243 -0.14552,-0.0364 -0.21828,-0.0364 -0.14552,0 -0.27887,0.0323 -0.40031,0.097 -0.11298,0.0566 -0.24236,0.1819 -0.38788,0.37595 -0.13758,0.18595 -0.31538,0.46889 -0.53366,0.84886 l -0.56992,3.27425 z m 5.83512,0.12125 c -0.6223,0 -1.07924,-0.16978 -1.37028,-0.50932 -0.29104,-0.34763 -0.43656,-0.81653 -0.43656,-1.40671 0,-0.47699 0.0767,-0.93779 0.23045,-1.38245 0.16166,-0.45273 0.37994,-0.85696 0.65485,-1.21269 0.28283,-0.3638 0.60642,-0.65079 0.97022,-0.86098 0.37174,-0.21828 0.77206,-0.32742 1.20042,-0.32742 0.40428,0 0.70749,0.093 0.90963,0.2789 0.21008,0.18595 0.31512,0.40423 0.31512,0.65484 0,0.27488 -0.0968,0.52954 -0.29104,0.76401 -0.19394,0.22635 -0.5334,0.43656 -1.01864,0.63058 -0.47678,0.18595 -1.152,0.35169 -2.02513,0.49721 -0.0161,0.16168 -0.0241,0.33144 -0.0241,0.50932 0,0.49316 0.10504,0.88524 0.31512,1.17629 0.21035,0.29104 0.54161,0.43656 0.99457,0.43656 0.2667,0 0.52943,-0.0728 0.7882,-0.21828 0.25849,-0.14552 0.52546,-0.38402 0.80036,-0.71549 h 0.0241 l 0.12144,0.097 c -0.2749,0.47699 -0.60642,0.86101 -0.99456,1.15205 -0.37995,0.29104 -0.76783,0.43656 -1.16417,0.43656 z m 0.92181,-5.27515 c -0.43657,0 -0.80857,0.1819 -1.11575,0.5457 -0.29924,0.35573 -0.50112,0.82868 -0.60643,1.41886 0.60643,-0.10512 1.0795,-0.21829 1.41896,-0.33957 0.33947,-0.12126 0.57812,-0.26273 0.71544,-0.42442 0.13732,-0.16978 0.20611,-0.37999 0.20611,-0.63061 0,-0.16168 -0.0524,-0.29509 -0.15769,-0.40018 -0.10504,-0.11319 -0.2585,-0.16978 -0.46064,-0.16978 z"
           fill="#161616"
           id="path22"
           style="fill:#3558a2;fill-opacity:1;stroke-width:0.179497"
           sodipodi:nodetypes="scscccsccssccccccsccscsccccccssscsccssccccccsccccscccccssscscscccscssscsccssccccccccsccccsccccsssssccccsccsscsccssccccccsccccssccccsscscccccscsssccssccccccscscccssccsccsccccccscsccccsccssscsccccccccccccccscsccccssccccccccccscscccccscccccscscccscscccscscccccsssccccscs" /></g></g></g></svg>
